<svg width="24" height="25" viewBox="0 0 24 25" fill="none" xmlns="http://www.w3.org/2000/svg">
<g clip-path="url(#clip0_414_678)">
<path d="M15.875 6.32715C15.875 7.1228 16.1911 7.88586 16.7537 8.44847C17.3163 9.01108 18.0794 9.32715 18.875 9.32715C19.6706 9.32715 20.4337 9.01108 20.9963 8.44847C21.5589 7.88586 21.875 7.1228 21.875 6.32715C21.875 5.5315 21.5589 4.76844 20.9963 4.20583C20.4337 3.64322 19.6706 3.32715 18.875 3.32715C18.0794 3.32715 17.3163 3.64322 16.7537 4.20583C16.1911 4.76844 15.875 5.5315 15.875 6.32715Z" stroke="#EC8F5E" stroke-width="1.5" stroke-linecap="round" stroke-linejoin="round"/>
<path d="M9.125 22.25C9.25202 22.6827 9.51576 23.0626 9.87675 23.3328C10.2377 23.6031 10.6766 23.7492 11.1275 23.7492C11.5784 23.7492 12.0173 23.6031 12.3782 23.3328C12.7392 23.0626 13.003 22.6827 13.13 22.25" stroke="#EC8F5E" stroke-width="1.5" stroke-linecap="round" stroke-linejoin="round"/>
<path d="M11.125 3.5V1.25" stroke="#EC8F5E" stroke-width="1.5" stroke-linecap="round" stroke-linejoin="round"/>
<path d="M18.648 12.4609C18.837 18.2169 20.125 19.2499 20.125 19.2499H2.125C2.125 19.2499 3.625 17.3339 3.625 10.9999C3.62612 9.82487 3.90303 8.66657 4.43344 7.61814C4.96385 6.56971 5.73296 5.66042 6.67887 4.96343C7.62479 4.26645 8.7211 3.80123 9.8796 3.60521C11.0381 3.40919 12.2264 3.48784 13.349 3.83484" stroke="#EC8F5E" stroke-width="1.5" stroke-linecap="round" stroke-linejoin="round"/>
</g>
<defs>
<clipPath id="clip0_414_678">
<rect width="24" height="24" fill="white" transform="translate(0 0.5)"/>
</clipPath>
</defs>
</svg>
