<svg width="24" height="24" viewBox="0 0 24 24" fill="none" xmlns="http://www.w3.org/2000/svg">
<path d="M15.875 5.82715C15.875 6.6228 16.1911 7.38586 16.7537 7.94847C17.3163 8.51108 18.0794 8.82715 18.875 8.82715C19.6706 8.82715 20.4337 8.51108 20.9963 7.94847C21.5589 7.38586 21.875 6.6228 21.875 5.82715C21.875 5.0315 21.5589 4.26844 20.9963 3.70583C20.4337 3.14322 19.6706 2.82715 18.875 2.82715C18.0794 2.82715 17.3163 3.14322 16.7537 3.70583C16.1911 4.26844 15.875 5.0315 15.875 5.82715Z" stroke="black" stroke-width="1.5" stroke-linecap="round" stroke-linejoin="round"/>
<path d="M9.125 21.75C9.25202 22.1827 9.51576 22.5626 9.87675 22.8328C10.2377 23.1031 10.6766 23.2492 11.1275 23.2492C11.5784 23.2492 12.0173 23.1031 12.3782 22.8328C12.7392 22.5626 13.003 22.1827 13.13 21.75" stroke="black" stroke-width="1.5" stroke-linecap="round" stroke-linejoin="round"/>
<path d="M11.125 3V0.75" stroke="black" stroke-width="1.5" stroke-linecap="round" stroke-linejoin="round"/>
<path d="M18.648 11.9609C18.837 17.7169 20.125 18.7499 20.125 18.7499H2.125C2.125 18.7499 3.625 16.8339 3.625 10.4999C3.62612 9.32487 3.90303 8.16657 4.43344 7.11814C4.96385 6.06971 5.73296 5.16042 6.67887 4.46343C7.62479 3.76645 8.7211 3.30123 9.8796 3.10521C11.0381 2.90919 12.2264 2.98784 13.349 3.33484" stroke="black" stroke-width="1.5" stroke-linecap="round" stroke-linejoin="round"/>
</svg>
