<svg width="24" height="24" viewBox="0 0 24 24" fill="none" xmlns="http://www.w3.org/2000/svg">
<path d="M3.5 0.75H10.5C10.5 0.75 12 0.75 12 2.25V21.75C12 21.75 12 23.25 10.5 23.25H3.5C3.5 23.25 2 23.25 2 21.75V2.25C2 2.25 2 0.75 3.5 0.75Z" stroke="#282828" stroke-width="1.5" stroke-linecap="round" stroke-linejoin="round"/>
<path d="M5 18.25C5 18.7804 5.21071 19.2891 5.58579 19.6642C5.96086 20.0393 6.46957 20.25 7 20.25C7.53043 20.25 8.03914 20.0393 8.41421 19.6642C8.78929 19.2891 9 18.7804 9 18.25C9 17.7196 8.78929 17.2109 8.41421 16.8358C8.03914 16.4607 7.53043 16.25 7 16.25C6.46957 16.25 5.96086 16.4607 5.58579 16.8358C5.21071 17.2109 5 17.7196 5 18.25Z" stroke="#282828" stroke-width="1.5" stroke-linecap="round" stroke-linejoin="round"/>
<path d="M5.75 4.25H8.25C8.25 4.25 8.75 4.25 8.75 4.75V12.75C8.75 12.75 8.75 13.25 8.25 13.25H5.75C5.75 13.25 5.25 13.25 5.25 12.75V4.75C5.25 4.75 5.25 4.25 5.75 4.25Z" stroke="#282828" stroke-width="1.5" stroke-linecap="round" stroke-linejoin="round"/>
<path d="M13.5 0.75H20.5C20.5 0.75 22 0.75 22 2.25V21.75C22 21.75 22 23.25 20.5 23.25H13.5C13.5 23.25 12 23.25 12 21.75V2.25C12 2.25 12 0.75 13.5 0.75Z" stroke="#282828" stroke-width="1.5" stroke-linecap="round" stroke-linejoin="round"/>
<path d="M15 18.25C15 18.7804 15.2107 19.2891 15.5858 19.6642C15.9609 20.0393 16.4696 20.25 17 20.25C17.5304 20.25 18.0391 20.0393 18.4142 19.6642C18.7893 19.2891 19 18.7804 19 18.25C19 17.7196 18.7893 17.2109 18.4142 16.8358C18.0391 16.4607 17.5304 16.25 17 16.25C16.4696 16.25 15.9609 16.4607 15.5858 16.8358C15.2107 17.2109 15 17.7196 15 18.25Z" stroke="#282828" stroke-width="1.5" stroke-linecap="round" stroke-linejoin="round"/>
<path d="M15.75 4.25H18.25C18.25 4.25 18.75 4.25 18.75 4.75V12.75C18.75 12.75 18.75 13.25 18.25 13.25H15.75C15.75 13.25 15.25 13.25 15.25 12.75V4.75C15.25 4.75 15.25 4.25 15.75 4.25Z" stroke="#282828" stroke-width="1.5" stroke-linecap="round" stroke-linejoin="round"/>
</svg>
