<svg width="24" height="24" viewBox="0 0 24 24" fill="none" xmlns="http://www.w3.org/2000/svg">
<g clip-path="url(#clip0_151_6306)">
<path d="M4.807 13.042L0.75 18L4.5 18.75L6 23.25L9.944 16.992" stroke="#282828" stroke-width="1.5" stroke-linecap="round" stroke-linejoin="round"/>
<path d="M19.1932 13.042L23.2502 18L19.5002 18.75L18.0002 23.25L14.0562 16.992" stroke="#282828" stroke-width="1.5" stroke-linecap="round" stroke-linejoin="round"/>
<path d="M3.75 9C3.75 11.188 4.61919 13.2865 6.16637 14.8336C7.71354 16.3808 9.81196 17.25 12 17.25C14.188 17.25 16.2865 16.3808 17.8336 14.8336C19.3808 13.2865 20.25 11.188 20.25 9C20.25 6.81196 19.3808 4.71354 17.8336 3.16637C16.2865 1.61919 14.188 0.75 12 0.75C9.81196 0.75 7.71354 1.61919 6.16637 3.16637C4.61919 4.71354 3.75 6.81196 3.75 9Z" stroke="#282828" stroke-width="1.5" stroke-linecap="round" stroke-linejoin="round"/>
<path d="M12.5312 4.29235L13.7792 6.75036H15.9062C16.0233 6.7475 16.1385 6.78003 16.2368 6.84371C16.3351 6.90739 16.4119 6.99924 16.4572 7.10727C16.5025 7.2153 16.5141 7.33447 16.4905 7.4492C16.467 7.56393 16.4094 7.66889 16.3252 7.75036L14.3722 9.66836L15.4542 12.1534C15.5019 12.2672 15.5127 12.3931 15.4849 12.5133C15.4572 12.6336 15.3924 12.7421 15.2997 12.8235C15.207 12.905 15.091 12.9552 14.9682 12.9672C14.8454 12.9792 14.7219 12.9523 14.6152 12.8904L12.0002 11.4194L9.38525 12.8904C9.27854 12.9523 9.15506 12.9792 9.03224 12.9672C8.90942 12.9552 8.79348 12.905 8.70077 12.8235C8.60805 12.7421 8.54326 12.6336 8.51554 12.5133C8.48782 12.3931 8.49856 12.2672 8.54625 12.1534L9.62825 9.66836L7.67525 7.74635C7.5911 7.66489 7.53348 7.55993 7.50993 7.4452C7.48638 7.33046 7.498 7.21129 7.54326 7.10327C7.58852 6.99524 7.66533 6.90339 7.76363 6.83971C7.86193 6.77603 7.97716 6.7435 8.09425 6.74635H10.2212L11.4702 4.29235C11.5212 4.19586 11.5975 4.11509 11.691 4.05876C11.7845 4.00243 11.8916 3.97266 12.0007 3.97266C12.1099 3.97266 12.2169 4.00243 12.3104 4.05876C12.4039 4.11509 12.4802 4.19586 12.5312 4.29235Z" stroke="#282828" stroke-width="1.5" stroke-linecap="round" stroke-linejoin="round"/>
</g>
<defs>
<clipPath id="clip0_151_6306">
<rect width="24" height="24" fill="white"/>
</clipPath>
</defs>
</svg>
