<svg width="24" height="24" viewBox="0 0 24 24" fill="none" xmlns="http://www.w3.org/2000/svg">
<g clip-path="url(#clip0_238_3363)">
<path d="M4.807 13.042L0.75 18L4.5 18.75L6 23.25L9.944 16.992" stroke="#282828" stroke-width="1.5" stroke-linecap="round" stroke-linejoin="round"/>
<path d="M19.193 13.042L23.25 18L19.5 18.75L18 23.25L14.056 16.992" stroke="#282828" stroke-width="1.5" stroke-linecap="round" stroke-linejoin="round"/>
<path d="M3.75 9C3.75 11.188 4.61919 13.2865 6.16637 14.8336C7.71354 16.3808 9.81196 17.25 12 17.25C14.188 17.25 16.2865 16.3808 17.8336 14.8336C19.3808 13.2865 20.25 11.188 20.25 9C20.25 6.81196 19.3808 4.71354 17.8336 3.16637C16.2865 1.61919 14.188 0.75 12 0.75C9.81196 0.75 7.71354 1.61919 6.16637 3.16637C4.61919 4.71354 3.75 6.81196 3.75 9Z" stroke="#282828" stroke-width="1.5" stroke-linecap="round" stroke-linejoin="round"/>
<path d="M12.531 4.29235L13.779 6.75036H15.906C16.0231 6.7475 16.1383 6.78003 16.2366 6.84371C16.3349 6.90739 16.4117 6.99924 16.457 7.10727C16.5023 7.2153 16.5139 7.33447 16.4903 7.4492C16.4668 7.56393 16.4092 7.66889 16.325 7.75036L14.372 9.66836L15.454 12.1534C15.5017 12.2672 15.5125 12.3931 15.4847 12.5133C15.457 12.6336 15.3922 12.7421 15.2995 12.8235C15.2068 12.905 15.0908 12.9552 14.968 12.9672C14.8452 12.9792 14.7217 12.9523 14.615 12.8904L12 11.4194L9.38501 12.8904C9.2783 12.9523 9.15482 12.9792 9.032 12.9672C8.90918 12.9552 8.79324 12.905 8.70053 12.8235C8.60781 12.7421 8.54302 12.6336 8.5153 12.5133C8.48758 12.3931 8.49832 12.2672 8.54601 12.1534L9.62801 9.66836L7.67501 7.74635C7.59086 7.66489 7.53324 7.55993 7.50969 7.4452C7.48614 7.33046 7.49776 7.21129 7.54302 7.10327C7.58828 6.99524 7.66509 6.90339 7.76339 6.83971C7.86169 6.77603 7.97692 6.7435 8.09401 6.74635H10.221L11.47 4.29235C11.521 4.19586 11.5973 4.11509 11.6908 4.05876C11.7843 4.00243 11.8914 3.97266 12.0005 3.97266C12.1097 3.97266 12.2167 4.00243 12.3102 4.05876C12.4037 4.11509 12.48 4.19586 12.531 4.29235Z" stroke="#282828" stroke-width="1.5" stroke-linecap="round" stroke-linejoin="round"/>
</g>
<defs>
<clipPath id="clip0_238_3363">
<rect width="24" height="24" fill="white"/>
</clipPath>
</defs>
</svg>
