<svg width="479" height="406" viewBox="0 0 479 406" fill="none" xmlns="http://www.w3.org/2000/svg">
<path d="M190.22 31.4385H0.000976562V307.301H190.22V31.4385Z" fill="#EBEBEB"/>
<path d="M175.946 45.1729H14.2861V221.48H175.946V45.1729Z" fill="white"/>
<path d="M23.1136 335.055H12.0898V307.301H31.7021L23.1136 335.055Z" fill="#EBEBEB"/>
<path d="M31.7021 307.291L28.5385 317.528H12.0898V307.291H31.7021Z" fill="#C7C7C7"/>
<path d="M167.117 335.055H178.141V307.301H158.529L167.117 335.055Z" fill="#EBEBEB"/>
<path d="M158.529 307.291L161.703 317.528H178.141V307.291H158.529Z" fill="#C7C7C7"/>
<path d="M175.946 232.81C163.625 232.981 151.304 233.092 138.983 233.143C126.676 233.247 114.369 233.228 102.019 233.266L102.541 232.81C102.541 237.363 102.541 241.916 102.541 246.469L102.52 260.118C102.411 269.224 102.313 278.329 102.074 287.435C101.824 278.329 101.726 269.224 101.617 260.118V246.469C101.617 241.916 101.617 237.363 101.617 232.81V232.335H102.139C114.446 232.335 126.752 232.335 139.102 232.459C151.452 232.582 163.639 232.639 175.946 232.81Z" fill="#C7C7C7"/>
<path d="M102.106 295.229C114.428 295.058 126.749 294.944 139.07 294.887C151.376 294.783 163.683 294.811 176.033 294.773L175.511 295.229C175.511 290.762 175.511 286.304 175.511 281.837L175.576 268.435C175.674 259.51 175.772 250.575 176.011 241.65C176.261 250.575 176.359 259.51 176.457 268.435L176.522 281.837C176.522 286.304 176.576 290.762 176.522 295.229V295.695H176C163.694 295.648 151.387 295.695 139.037 295.572C126.687 295.448 114.413 295.41 102.106 295.229Z" fill="#C7C7C7"/>
<path d="M109.064 270.944H113.761V255.185H109.064V270.944Z" fill="#C7C7C7"/>
<path d="M14.2861 232.81C26.6072 232.639 38.9282 232.528 51.2493 232.478C63.5559 232.373 75.8624 232.392 88.2125 232.354H88.7343V232.81C88.7343 237.363 88.7343 241.916 88.7343 246.469V260.118C88.6256 269.224 88.5277 278.329 88.2777 287.435C88.0385 278.329 87.9407 269.224 87.832 260.118V246.469C87.832 241.916 87.832 237.363 87.832 232.81L88.3538 233.267C76.0472 233.267 63.7407 233.266 51.3906 233.143C39.0406 233.019 26.5927 232.981 14.2861 232.81Z" fill="#C7C7C7"/>
<path d="M88.1254 295.229C75.8189 295.41 63.5123 295.505 51.1622 295.572C38.8122 295.638 26.5491 295.648 14.1991 295.695H13.6772V295.229C13.6772 290.762 13.6772 286.304 13.6772 281.837L13.7425 268.435C13.8403 259.51 13.9382 250.575 14.1882 241.65C14.4274 250.575 14.5252 259.51 14.6231 268.435L14.6883 281.837C14.6883 286.304 14.7427 290.762 14.6883 295.229L14.1665 294.773C26.473 294.773 38.7796 294.773 51.1296 294.887C63.4797 295.001 75.8189 295.068 88.1254 295.229Z" fill="#C7C7C7"/>
<path d="M81.1672 255.175H76.4707V270.934H81.1672V255.175Z" fill="#C7C7C7"/>
<path d="M175.946 40.915H14.2861V45.1733H175.946V40.915Z" fill="#EBEBEB"/>
<path d="M175.946 101.1H14.2861V105.358H175.946V101.1Z" fill="#EBEBEB"/>
<path d="M175.946 161.285H14.2861V165.543H175.946V161.285Z" fill="#EBEBEB"/>
<path d="M44.5635 101.091V53.167H27.93L27.93 101.091H44.5635Z" fill="#C7C7C7"/>
<path d="M44.5635 87.5079V82.2422H27.9301V87.5079H44.5635Z" fill="#DBDBDB"/>
<path d="M44.5635 64.5723V62.6143H27.93V64.5723H44.5635Z" fill="#DBDBDB"/>
<path d="M152.3 53.1766V101.101H168.933V53.1766H152.3Z" fill="#C7C7C7"/>
<path d="M152.3 66.7587V72.0244H168.933V66.7587H152.3Z" fill="#DBDBDB"/>
<path d="M168.945 98.2393V96.2812H152.311V98.2393H168.945Z" fill="#DBDBDB"/>
<path d="M168.934 89.2383V87.2803H152.3V89.2383H168.934Z" fill="#DBDBDB"/>
<path d="M122.349 101.091V53.167H109.727V101.091H122.349Z" fill="#C7C7C7"/>
<path d="M122.36 87.5079V82.2422H109.739V87.5079H122.36Z" fill="#DBDBDB"/>
<path d="M122.36 64.582V62.624H109.739V64.582H122.36Z" fill="#DBDBDB"/>
<path d="M56.1958 101.091L56.1958 45.1826H44.5633V101.091H56.1958Z" fill="#DBDBDB"/>
<path d="M53.8154 71.9387V50.4385H46.8359V71.9387H53.8154Z" fill="#EBEBEB"/>
<path d="M168.945 48.5189V101.091H175.957V48.5189H168.945Z" fill="#A6A6A6"/>
<path d="M170.369 52.159V72.376H174.576V52.159H170.369Z" fill="#EBEBEB"/>
<path d="M122.36 49.9732V101.091H133.993V49.9732H122.36Z" fill="#DBDBDB"/>
<path d="M124.741 76.6348V96.291H131.72V76.6348H124.741Z" fill="#EBEBEB"/>
<path d="M75.9282 101.1V58.6318H56.1855V101.1H75.9282Z" fill="#A6A6A6"/>
<path d="M75.9282 96.5947V92.6406H56.1855V96.5947H75.9282Z" fill="#C7C7C7"/>
<path d="M75.9282 90.0366V88.5063H56.1855V90.0366H75.9282Z" fill="#C7C7C7"/>
<path d="M27.9307 101.11L27.9307 61.1982H14.2869L14.2869 101.11H27.9307Z" fill="#A6A6A6"/>
<path d="M27.9307 96.861V93.1445H14.2869V96.861H27.9307Z" fill="#C7C7C7"/>
<path d="M27.9307 73.1276V69.4111H14.2869V73.1276H27.9307Z" fill="#C7C7C7"/>
<path d="M27.9199 77.1283V75.6836H14.2762V77.1283H27.9199Z" fill="#C7C7C7"/>
<path d="M152.301 101.1V45.1826H133.982V101.1H152.301Z" fill="#A6A6A6"/>
<path d="M152.301 95.1687V89.96H133.982V95.1687H152.301Z" fill="#C7C7C7"/>
<path d="M152.3 61.9206V56.7119H133.981V61.9206H152.3Z" fill="#C7C7C7"/>
<path d="M152.3 67.5192V65.4946H133.981V67.5192H152.3Z" fill="#C7C7C7"/>
<path d="M109.694 99.2298L92.4243 53.5762L85.9526 55.4474L103.222 101.101L109.694 99.2298Z" fill="#A6A6A6"/>
<path d="M107.876 94.3893L106.265 90.1299L99.7929 92.0012L101.404 96.2606L107.876 94.3893Z" fill="#C7C7C7"/>
<path d="M97.6 67.2438L95.9888 62.9844L89.5171 64.8556L91.1283 69.1151L97.6 67.2438Z" fill="#C7C7C7"/>
<path d="M75.9395 47.3116V101.1H85.963V47.3116H75.9395Z" fill="#C7C7C7"/>
<path d="M75.9395 53.0143V58.0234H85.963V53.0143H75.9395Z" fill="#EBEBEB"/>
<path d="M75.9282 85.0085V90.0176H85.9518V85.0085H75.9282Z" fill="#EBEBEB"/>
<path d="M75.9395 79.6189V81.5674H85.963V79.6189H75.9395Z" fill="#EBEBEB"/>
<path d="M138.525 161.276V113.352H121.891V161.276H138.525Z" fill="#C7C7C7"/>
<path d="M138.525 147.693V142.428H121.891V147.693H138.525Z" fill="#DBDBDB"/>
<path d="M138.525 124.758V122.8H121.891V124.758H138.525Z" fill="#DBDBDB"/>
<path d="M21.2871 113.352L21.2871 161.276H37.9205V113.352H21.2871Z" fill="#C7C7C7"/>
<path d="M21.2983 126.934V132.2H37.9318V126.934H21.2983Z" fill="#DBDBDB"/>
<path d="M37.9312 158.425V156.467H21.2977V158.425H37.9312Z" fill="#DBDBDB"/>
<path d="M37.9312 149.414V147.456H21.2977V149.414H37.9312Z" fill="#DBDBDB"/>
<path d="M80.4941 161.267V113.343H67.8723V161.267H80.4941Z" fill="#C7C7C7"/>
<path d="M80.4941 147.693V142.428H67.8723V147.693H80.4941Z" fill="#DBDBDB"/>
<path d="M80.4941 124.758V122.8H67.8723V124.758H80.4941Z" fill="#DBDBDB"/>
<path d="M121.881 161.276V105.368H110.249V161.276H121.881Z" fill="#DBDBDB"/>
<path d="M119.609 132.115V110.615H112.63V132.115H119.609Z" fill="#EBEBEB"/>
<path d="M14.2861 120.348L14.2861 161.267H21.2983L21.2983 120.348H14.2861Z" fill="#A6A6A6"/>
<path d="M15.6455 123.171L15.6455 138.911H19.8528V123.171H15.6455Z" fill="#EBEBEB"/>
<path d="M56.2505 110.149L56.2505 161.267H67.883V110.149H56.2505Z" fill="#DBDBDB"/>
<path d="M58.5225 136.811V156.467H65.502V136.811H58.5225Z" fill="#EBEBEB"/>
<path d="M110.259 161.286V118.817H90.5166V161.286H110.259Z" fill="#A6A6A6"/>
<path d="M110.259 156.77V152.816H90.5166V156.77H110.259Z" fill="#C7C7C7"/>
<path d="M110.271 150.222V148.691H90.5288V150.222H110.271Z" fill="#C7C7C7"/>
<path d="M175.946 161.276V110.149H162.302V161.276H175.946Z" fill="#A6A6A6"/>
<path d="M175.957 155.858V151.096H162.313V155.858H175.957Z" fill="#C7C7C7"/>
<path d="M175.946 125.452V120.69H162.302V125.452H175.946Z" fill="#C7C7C7"/>
<path d="M175.946 130.575V128.731H162.302V130.575H175.946Z" fill="#C7C7C7"/>
<path d="M56.2505 161.285L56.2505 105.368H37.932V161.285H56.2505Z" fill="#A6A6A6"/>
<path d="M56.2505 155.345V150.136H37.932V155.345H56.2505Z" fill="#C7C7C7"/>
<path d="M56.2505 122.096V116.888H37.932V122.096H56.2505Z" fill="#C7C7C7"/>
<path d="M56.2505 127.695V125.67H37.932V127.695H56.2505Z" fill="#C7C7C7"/>
<path d="M145.007 161.285L162.276 115.631L155.805 113.76L138.535 159.413L145.007 161.285Z" fill="#DBDBDB"/>
<path d="M146.84 156.457L148.452 152.198L141.98 150.326L140.369 154.586L146.84 156.457Z" fill="#C7C7C7"/>
<path d="M157.106 129.302L158.717 125.042L152.245 123.171L150.634 127.431L157.106 129.302Z" fill="#C7C7C7"/>
<path d="M80.4941 107.487V161.276H90.5177V107.487H80.4941Z" fill="#DBDBDB"/>
<path d="M80.4941 113.2V118.209H90.5177V113.2H80.4941Z" fill="#EBEBEB"/>
<path d="M80.4941 145.194V150.203H90.5177V145.194H80.4941Z" fill="#EBEBEB"/>
<path d="M80.4941 139.795V141.743H90.5177V139.795H80.4941Z" fill="#EBEBEB"/>
<path d="M38.5288 221.471V173.547H25.907L25.907 221.471H38.5288Z" fill="#C7C7C7"/>
<path d="M38.5288 207.898V202.632H25.907V207.898H38.5288Z" fill="#DBDBDB"/>
<path d="M38.5288 184.962V183.004H25.907V184.962H38.5288Z" fill="#DBDBDB"/>
<path d="M25.9082 221.48L25.9082 165.572H14.2757L14.2757 221.48H25.9082Z" fill="#DBDBDB"/>
<path d="M23.6362 192.32V170.819H16.6567V192.32H23.6362Z" fill="#EBEBEB"/>
<path d="M38.5288 179.012V221.48H58.2715V179.012H38.5288Z" fill="#A6A6A6"/>
<path d="M38.5288 183.518V187.472H58.2715V183.518H38.5288Z" fill="#C7C7C7"/>
<path d="M38.5288 190.076V191.606H58.2715V190.076H38.5288Z" fill="#C7C7C7"/>
<path d="M164.606 221.471V173.547H154.365V221.471H164.606Z" fill="#C7C7C7"/>
<path d="M164.606 207.889V202.623H154.365V207.889H164.606Z" fill="#DBDBDB"/>
<path d="M164.606 184.953V182.995H154.365V184.953H164.606Z" fill="#DBDBDB"/>
<path d="M58.2832 169.374L58.2832 221.48H71.5247V169.374H58.2832Z" fill="#C7C7C7"/>
<path d="M58.2734 184.135V189.857H71.5149V184.135H58.2734Z" fill="#DBDBDB"/>
<path d="M71.5137 218.363V216.234H58.2722V218.363H71.5137Z" fill="#DBDBDB"/>
<path d="M71.5239 208.572V206.443H58.2824V208.572H71.5239Z" fill="#DBDBDB"/>
<path d="M102.748 221.461V167.407H90.1257V221.461H102.748Z" fill="#C7C7C7"/>
<path d="M102.748 206.139V200.199H90.1257V206.139H102.748Z" fill="#DBDBDB"/>
<path d="M102.748 180.276V178.071H90.1257V180.276H102.748Z" fill="#DBDBDB"/>
<path d="M78.2324 221.462V167.683H71.5138V221.462H78.2324Z" fill="#DBDBDB"/>
<path d="M76.9175 193.431V172.749H72.8842V193.431H76.9175Z" fill="#EBEBEB"/>
<path d="M132.525 170.353V221.471H154.366V170.353H132.525Z" fill="#DBDBDB"/>
<path d="M136.797 197.005V216.661H149.898V197.005H136.797Z" fill="#EBEBEB"/>
<path d="M132.525 221.471V175.8H112.782V221.471H132.525Z" fill="#A6A6A6"/>
<path d="M132.525 216.633V212.375H112.782V216.633H132.525Z" fill="#C7C7C7"/>
<path d="M132.525 209.59V207.936H112.782V209.59H132.525Z" fill="#C7C7C7"/>
<path d="M175.957 221.471V170.344H164.618V221.471H175.957Z" fill="#A6A6A6"/>
<path d="M175.946 216.053V211.291H164.607V216.053H175.946Z" fill="#C7C7C7"/>
<path d="M175.957 185.647V180.885H164.618V185.647H175.957Z" fill="#C7C7C7"/>
<path d="M175.946 190.76V188.917H164.607V190.76H175.946Z" fill="#C7C7C7"/>
<path d="M90.1372 221.471V173.053H78.2329V221.471H90.1372Z" fill="#A6A6A6"/>
<path d="M90.126 216.348V211.833H78.2216V216.348H90.126Z" fill="#C7C7C7"/>
<path d="M90.126 187.557V183.042H78.2216V187.557H90.126Z" fill="#C7C7C7"/>
<path d="M90.1372 192.386V190.637H78.2329V192.386H90.1372Z" fill="#C7C7C7"/>
<path d="M102.748 170.011V221.471H112.771V170.011H102.748Z" fill="#DBDBDB"/>
<path d="M102.758 175.467V180.267H112.781V175.467H102.758Z" fill="#EBEBEB"/>
<path d="M102.748 206.073V210.873H112.771V206.073H102.748Z" fill="#EBEBEB"/>
<path d="M102.748 200.921V202.784H112.771V200.921H102.748Z" fill="#EBEBEB"/>
<path d="M334.985 309.734H474.26L478.739 232.468H330.506L334.985 309.734Z" fill="#EBEBEB"/>
<path d="M464.052 267.836H341.399L339.703 241.013H466.019L464.052 267.836ZM342.432 266.886H463.03L464.867 241.964H340.856L342.432 266.886Z" fill="#DBDBDB"/>
<path d="M462.367 298.689H344.954L343.584 274.48H464.128L462.367 298.689ZM345.933 297.739H461.367L462.965 275.43H344.693L345.933 297.739Z" fill="#DBDBDB"/>
<path d="M416.836 257.333H390.832L389.875 250.86H417.793L416.836 257.333ZM391.832 256.383H415.923L416.597 251.811H391.158L391.832 256.383Z" fill="#DBDBDB"/>
<path d="M416.836 289.821H390.832L389.875 283.348H417.793L416.836 289.821ZM391.832 288.871H415.923L416.597 284.299H391.158L391.832 288.871Z" fill="#DBDBDB"/>
<path d="M354.305 309.734L352.957 318.146L350.228 335.055H344.912V309.734H354.305Z" fill="#EBEBEB"/>
<path d="M354.305 309.734L352.957 318.146H344.912V309.734H354.305Z" fill="#DBDBDB"/>
<path d="M454.952 309.734L456.3 318.146L459.018 335.055H464.334V309.734H454.952Z" fill="#EBEBEB"/>
<path d="M454.952 309.734L456.3 318.146H464.334V309.734H454.952Z" fill="#DBDBDB"/>
<path d="M467.77 195.484H412.956V204.438H467.77V195.484Z" fill="#C7C7C7"/>
<path d="M452.234 195.484H446.211V204.438H452.234V195.484Z" fill="#DBDBDB"/>
<path d="M426.012 195.484H423.773V204.438H426.012V195.484Z" fill="#DBDBDB"/>
<path d="M469.608 185.562H400.215V195.475H469.608V185.562Z" fill="#A6A6A6"/>
<path d="M462.247 185.562H455.778V195.475H462.247V185.562Z" fill="#C7C7C7"/>
<path d="M420.978 185.562H414.51V195.475H420.978V185.562Z" fill="#C7C7C7"/>
<path d="M427.926 185.562H425.415V195.475H427.926V185.562Z" fill="#C7C7C7"/>
<path d="M413.825 219.902H472.684V211.139H413.825V219.902Z" fill="#A6A6A6"/>
<path d="M420.067 219.902H425.557V211.139H420.067V219.902Z" fill="#EBEBEB"/>
<path d="M455.061 219.902H460.551V211.139H455.061V219.902Z" fill="#EBEBEB"/>
<path d="M449.18 219.902H451.311V211.139H449.18V219.902Z" fill="#EBEBEB"/>
<path d="M469.706 219.903H396.889V232.468H469.706V219.903Z" fill="#C7C7C7"/>
<path d="M443.267 221.205H396.889V231.166H443.267V221.205Z" fill="white"/>
<path d="M399.888 223.249C403.512 223.185 407.135 223.138 410.759 223.106L421.631 223.059L432.502 223.106C436.122 223.106 439.732 223.182 443.374 223.249C439.754 223.325 436.144 223.372 432.502 223.401H421.631H410.759C407.128 223.369 403.504 223.318 399.888 223.249Z" fill="#DBDBDB"/>
<path d="M399.888 225.207C403.508 225.14 407.117 225.083 410.759 225.055H421.631H432.502C436.122 225.055 439.732 225.131 443.374 225.207C439.754 225.273 436.144 225.33 432.502 225.349L421.631 225.397L410.759 225.349C407.117 225.33 403.508 225.273 399.888 225.207Z" fill="#DBDBDB"/>
<path d="M399.888 227.155C403.512 227.092 407.135 227.044 410.759 227.013H421.631H432.502C436.122 227.013 439.732 227.089 443.374 227.155C439.754 227.231 436.144 227.279 432.502 227.307L421.631 227.355L410.759 227.307C407.128 227.282 403.504 227.231 399.888 227.155Z" fill="#DBDBDB"/>
<path d="M399.888 229.113C403.508 229.047 407.117 228.99 410.759 228.971H421.631H432.502C436.122 228.971 439.732 229.056 443.374 229.123C439.754 229.189 436.144 229.246 432.502 229.275H421.631L410.759 229.227C407.117 229.237 403.508 229.18 399.888 229.113Z" fill="#DBDBDB"/>
<path d="M463.823 204.438H397.691V211.139H463.823V204.438Z" fill="#EBEBEB"/>
<path d="M424.979 210.445H463.834V205.132H424.979V210.445Z" fill="white"/>
<path d="M461.279 209.352C458.257 209.352 455.224 209.399 452.202 209.409H443.113H434.035C431.002 209.409 427.98 209.409 424.947 209.352C427.98 209.352 431.002 209.304 434.035 209.295H443.113H452.202C455.257 209.304 458.29 209.323 461.279 209.352Z" fill="#DBDBDB"/>
<path d="M461.279 208.307C458.257 208.307 455.224 208.307 452.202 208.364H443.113H434.035C431.002 208.364 427.98 208.364 424.947 208.307C427.98 208.307 431.002 208.259 434.035 208.25H452.202L461.279 208.307Z" fill="#DBDBDB"/>
<path d="M461.279 207.271C458.257 207.271 455.224 207.318 452.202 207.328H443.113H434.035C431.002 207.328 427.98 207.328 424.947 207.271C427.98 207.271 431.002 207.223 434.035 207.214H443.113H452.202C455.257 207.223 458.29 207.242 461.279 207.271Z" fill="#DBDBDB"/>
<path d="M461.279 206.225C458.257 206.225 455.224 206.273 452.202 206.282H443.113H434.035C431.002 206.282 427.98 206.282 424.947 206.225C427.98 206.225 431.002 206.177 434.035 206.168H443.113H452.202C455.257 206.177 458.29 206.196 461.279 206.225Z" fill="#DBDBDB"/>
<path d="M340.323 101.87H376.449V70.2852H340.323V101.87Z" fill="#DBDBDB"/>
<path d="M345.921 96.9751H370.85V75.1802H345.921V96.9751Z" fill="white"/>
<path d="M370.84 75.1802V96.975H345.911L370.84 75.1802Z" fill="#EBEBEB"/>
<path d="M340.323 63.0327L376.449 63.0327V31.4478L340.323 31.4478V63.0327Z" fill="#DBDBDB"/>
<path d="M345.921 58.1284H370.85V36.3336H345.921V58.1284Z" fill="white"/>
<path d="M370.84 42.7397V58.1283H353.239L370.84 42.7397Z" fill="#EBEBEB"/>
<path d="M284.455 102.136H331.67V31.4479H284.455V102.136Z" fill="#DBDBDB"/>
<path d="M290.293 96.9751H325.832V36.5996L290.293 36.5996V96.9751Z" fill="white"/>
<path d="M325.83 57.3965V96.9751H302.533L325.83 57.3965Z" fill="#EBEBEB"/>
<path d="M384.875 102.136L465.726 102.136V31.4479L384.875 31.4479V102.136Z" fill="#DBDBDB"/>
<path d="M459.823 36.5996H390.778V96.9751H459.823V36.5996Z" fill="white"/>
<path d="M410.108 96.9753C420.545 87.7935 450.148 61.807 459.823 53.4331V96.9753H410.108Z" fill="#EBEBEB"/>
<path d="M0.000976562 335.055L59.8813 334.827L119.751 334.741L239.501 334.589L359.25 334.741L419.12 334.827L479 335.055L419.12 335.293L359.25 335.378L239.501 335.53L119.751 335.378L59.8813 335.293L0.000976562 335.055Z" fill="#263238"/>
<path d="M239.502 406C362.15 406 461.575 395.179 461.575 381.829C461.575 368.48 362.15 357.658 239.502 357.658C116.855 357.658 17.4297 368.48 17.4297 381.829C17.4297 395.179 116.855 406 239.502 406Z" fill="#EBEBEB"/>
<path d="M183.533 323.544H407.171V284.964H183.533V323.544Z" fill="#F3B664"/>
<path d="M365.424 323.544H387.276V284.964H365.424V323.544Z" fill="#37474F"/>
<path d="M348.193 323.544H357.314V284.964H348.193V323.544Z" fill="#37474F"/>
<path d="M203.863 323.544H225.714V284.964H203.863V323.544Z" fill="#37474F"/>
<path d="M147.664 186.883L90.2344 375.853L121.934 383.217L179.363 194.247L147.664 186.883Z" fill="#37474F"/>
<path d="M100.948 340.574L95.3364 359.038L127.036 366.402L132.647 347.938L100.948 340.574Z" fill="#F3B664"/>
<path d="M142.443 204.072L136.832 222.537L168.532 229.901L174.143 211.436L142.443 204.072Z" fill="#F3B664"/>
<path d="M136.198 382.399H395.212V363.113H136.198V382.399Z" fill="#F3B664"/>
<path d="M326.906 382.399H337.462V363.113H326.906V382.399Z" fill="#A6A6A6"/>
<path d="M344.443 382.399H354.999V363.113H344.443V382.399Z" fill="#A6A6A6"/>
<path d="M162.04 382.399H172.596V363.113H162.04V382.399Z" fill="#A6A6A6"/>
<path d="M179.565 382.399H190.121V363.113H179.565V382.399Z" fill="#A6A6A6"/>
<path d="M315.753 256.183H160.617V284.964H315.753V256.183Z" fill="#455A64"/>
<path d="M404.182 256.183H315.742V284.964H404.182V256.183Z" fill="#455A64"/>
<path d="M315.753 259.167H160.617V281.979H315.753V259.167Z" fill="white"/>
<path d="M170.65 263.863C182.74 263.698 194.832 263.587 206.929 263.53L243.196 263.426L279.474 263.53C291.563 263.587 303.653 263.698 315.742 263.863C303.653 264.021 291.563 264.135 279.474 264.205L243.196 264.3L206.885 264.196C194.825 264.139 182.747 264.028 170.65 263.863Z" fill="#DBDBDB"/>
<path d="M170.65 268.34C182.74 268.181 194.832 268.067 206.929 267.997L243.196 267.902L279.474 267.997C291.563 268.067 303.653 268.181 315.742 268.34C303.653 268.498 291.563 268.609 279.474 268.672L243.196 268.777L206.885 268.672C194.825 268.615 182.747 268.504 170.65 268.34Z" fill="#DBDBDB"/>
<path d="M170.65 272.817C182.74 272.658 194.832 272.544 206.929 272.474L243.196 272.379L279.474 272.474C291.563 272.531 303.653 272.646 315.742 272.817C303.653 272.981 291.563 273.092 279.474 273.149L243.196 273.254L206.885 273.149C194.825 273.092 182.747 272.981 170.65 272.817Z" fill="#DBDBDB"/>
<path d="M170.65 277.293C182.74 277.129 194.832 277.015 206.929 276.951L243.196 276.847L279.474 276.951C291.563 277.008 303.653 277.122 315.742 277.293C303.653 277.458 291.563 277.569 279.474 277.626L243.196 277.731L206.885 277.626C194.825 277.569 182.747 277.458 170.65 277.293Z" fill="#DBDBDB"/>
<path d="M302.697 171.513H175.728V192.176H302.697V171.513Z" fill="#A6A6A6"/>
<path d="M375.077 171.513H302.695V192.176H375.077V171.513Z" fill="#A6A6A6"/>
<path d="M302.697 173.661H175.728V190.038H302.697V173.661Z" fill="white"/>
<path d="M183.947 177.026C193.847 176.912 203.744 176.832 213.637 176.788L243.327 176.712L273.017 176.788C282.91 176.826 292.803 176.905 302.696 177.026C292.803 177.14 282.91 177.222 273.017 177.273L243.327 177.339L213.637 177.273C203.744 177.228 193.847 177.146 183.947 177.026Z" fill="#DBDBDB"/>
<path d="M183.947 180.238C193.847 180.124 203.744 180.045 213.637 180.001L243.327 179.925L273.017 180.001C282.91 180.039 292.803 180.118 302.696 180.238C292.803 180.353 282.91 180.435 273.017 180.486L243.327 180.552L213.637 180.486C203.744 180.441 193.847 180.359 183.947 180.238Z" fill="#DBDBDB"/>
<path d="M183.947 183.451C193.847 183.337 203.744 183.258 213.637 183.213L243.327 183.137L273.017 183.213C282.91 183.251 292.803 183.33 302.696 183.451C292.803 183.571 282.91 183.654 273.017 183.698L243.327 183.765L213.637 183.698C203.744 183.654 193.847 183.571 183.947 183.451Z" fill="#DBDBDB"/>
<path d="M183.947 186.711C193.847 186.597 203.744 186.518 213.637 186.474L243.327 186.397L273.017 186.474C282.91 186.512 292.803 186.591 302.696 186.711C292.803 186.838 282.91 186.92 273.017 186.958L243.327 187.025L213.637 186.958C203.744 186.882 193.847 186.8 183.947 186.711Z" fill="#DBDBDB"/>
<path d="M136.916 223.771L105.997 325.331L88.3635 383.235L71.3496 379.272L88.9832 321.368L119.902 219.807L136.916 223.771Z" fill="#F3B664"/>
<path opacity="0.1" d="M136.916 223.771L105.997 325.331L88.3635 383.235L71.3496 379.272L88.9832 321.368L119.902 219.807L136.916 223.771Z" fill="black"/>
<path d="M104.224 324.899L135.153 223.341L121.664 220.201L90.7345 321.758L104.224 324.899Z" fill="white"/>
<path d="M130.371 229.284C128.067 237.217 125.726 245.138 123.348 253.046L116.173 276.808L108.889 300.571C106.44 308.479 103.961 316.381 101.453 324.276C103.772 316.336 106.117 308.416 108.487 300.514L115.651 276.751L122.946 252.989C125.396 245.081 127.871 237.179 130.371 229.284Z" fill="#DBDBDB"/>
<path d="M127.73 228.666C125.418 236.612 123.073 244.533 120.696 252.428L113.532 276.191L106.237 299.953C103.794 307.861 101.319 315.763 98.8115 323.658C101.124 315.725 103.468 307.804 105.845 299.896L113.01 276.134L120.305 252.371C122.754 244.463 125.229 236.561 127.73 228.666Z" fill="#DBDBDB"/>
<path d="M125.088 228.058C122.776 235.997 120.432 243.918 118.054 251.82L110.89 275.582L103.595 299.345C101.153 307.253 98.6776 315.151 96.1699 323.041C98.4747 315.101 100.816 307.18 103.193 299.278L110.368 275.516L117.652 251.753C120.095 243.877 122.573 235.978 125.088 228.058Z" fill="#DBDBDB"/>
<path d="M122.435 227.439C120.131 235.373 117.79 243.294 115.412 251.202L108.237 274.964L100.953 298.727C98.5107 306.635 96.032 314.533 93.5171 322.422C95.8291 314.489 98.1737 306.568 100.551 298.66L107.715 274.898L115.01 251.135C117.46 243.227 119.935 235.329 122.435 227.439Z" fill="#DBDBDB"/>
<path d="M247.404 363.104H377.373V323.544H247.404V363.104Z" fill="#263238"/>
<path d="M156.116 363.104H247.404V323.544H156.116V363.104Z" fill="#263238"/>
<path d="M247.404 358.998H377.373V327.651H247.404V358.998Z" fill="white"/>
<path d="M368.958 352.553C358.811 352.712 348.683 352.823 338.572 352.886L308.186 352.991L277.746 352.886C267.599 352.829 257.452 352.718 247.306 352.553C257.452 352.395 267.599 352.281 277.746 352.211L308.186 352.116L338.572 352.211C348.704 352.281 358.833 352.395 368.958 352.553Z" fill="#DBDBDB"/>
<path d="M368.958 346.394C358.811 346.553 348.683 346.664 338.572 346.727L308.186 346.831L277.746 346.727C267.599 346.67 257.452 346.559 247.306 346.394C257.452 346.236 267.599 346.122 277.746 346.052L308.186 345.957L338.572 346.052C348.704 346.115 358.833 346.229 368.958 346.394Z" fill="#DBDBDB"/>
<path d="M368.958 340.254C358.811 340.413 348.683 340.524 338.572 340.587L308.186 340.692L277.746 340.587C267.599 340.53 257.452 340.419 247.306 340.254C257.452 340.09 267.599 339.976 277.746 339.912L308.186 339.808L338.572 339.912C348.704 339.969 358.833 340.083 368.958 340.254Z" fill="#DBDBDB"/>
<path d="M368.958 334.104C358.811 334.269 348.683 334.38 338.572 334.437L308.186 334.542L277.746 334.437C267.599 334.38 257.452 334.269 247.306 334.104C257.452 333.933 267.599 333.819 277.746 333.762L308.186 333.658L338.572 333.762C348.704 333.819 358.833 333.933 368.958 334.104Z" fill="#DBDBDB"/>
<path d="M407.845 229.341H169.302V256.297H407.845V229.341Z" fill="#C7C7C7"/>
<path d="M283.474 234.844H191.729V251.021H283.474V234.844Z" fill="white"/>
<path d="M391.745 234.844H305.621V237.344H391.745V234.844Z" fill="white"/>
<path d="M391.745 241.573H305.621V244.073H391.745V241.573Z" fill="white"/>
<path d="M391.745 248.294H305.621V250.794H391.745V248.294Z" fill="white"/>
<path d="M361.695 192.177H185.794V229.218H361.695V192.177Z" fill="#F3B664"/>
<path d="M343.039 192.177H326.645V229.218H343.039V192.177Z" fill="#263238"/>
<path d="M315.894 192.177H309.534V229.218H315.894V192.177Z" fill="#263238"/>
<path d="M52.5981 309.449C59.5016 297.035 71.5798 290.667 85.2127 294.193C98.8456 297.719 100.933 314.306 90.7789 318.497C80.6249 322.689 70.4492 310.447 65.0786 307.937C59.7081 305.428 52.5981 309.449 52.5981 309.449Z" fill="#FFCC79"/>
<path d="M45.9122 342.469C45.9122 340.967 46.0209 339.475 46.0753 337.982C46.1949 334.998 46.3145 332.004 46.4449 329.019C46.6732 323.563 47.3473 318.203 49.9347 313.165C52.2187 308.601 56.037 304.752 60.8823 302.13C62.6822 301.183 64.6205 300.454 66.6442 299.963C68.4725 298.339 70.8043 297.219 73.3519 296.74C76.5054 296.177 79.7481 296.106 82.9298 296.531C83.0493 296.531 83.0385 296.693 82.9298 296.683C79.8947 296.346 76.8134 296.537 73.8629 297.244C72.6039 297.551 71.3836 297.968 70.2209 298.489C69.4882 298.836 68.7835 299.227 68.1119 299.658C70.8583 299.163 73.6946 299.188 76.4286 299.735C77.4126 299.943 78.3759 300.219 79.3095 300.561C80.0554 300.42 80.819 300.362 81.5817 300.39C82.5764 300.418 83.5645 300.543 84.5279 300.761C86.4974 301.246 88.3812 301.966 90.1267 302.9C90.2354 302.947 90.1267 303.08 90.0397 303.033C88.3324 302.216 86.5027 301.611 84.604 301.236C83.6818 301.05 82.7437 300.929 81.7991 300.875C81.2776 300.851 80.7551 300.851 80.2336 300.875C84.1123 302.44 87.2292 305.158 89.0287 308.546C89.0287 308.641 88.92 308.717 88.8765 308.622C87.7998 306.656 86.2284 304.928 84.2797 303.569C82.3311 302.209 80.0559 301.252 77.6245 300.771C77.32 300.704 77.0156 300.666 76.7112 300.609C76.82 300.999 76.7982 301.436 76.8634 301.816C76.9504 302.415 77.07 303.014 77.2005 303.613C77.4811 304.84 77.8441 306.053 78.2876 307.243C78.75 308.449 79.302 309.627 79.9401 310.77C80.5526 311.976 81.3262 313.115 82.2448 314.163C82.3209 314.249 82.1688 314.353 82.1035 314.258C81.2773 313.137 80.3315 312.1 79.5813 310.941C78.8691 309.829 78.2514 308.672 77.7332 307.481C77.2173 306.269 76.8138 305.023 76.5264 303.755C76.3742 303.09 76.2546 302.415 76.1677 301.74C76.0738 301.337 76.0445 300.924 76.0807 300.514C74.4798 300.297 72.8533 300.265 71.2429 300.419C71.8517 303.384 72.504 306.464 74.3956 309.04C74.4608 309.125 74.2869 309.201 74.2325 309.116C73.3492 307.749 72.5684 306.333 71.8952 304.877C71.2754 303.464 70.8839 301.983 70.7319 300.476C67.9221 300.802 65.2097 301.596 62.7413 302.814C58.0871 305.177 54.3726 308.729 52.0981 312.994C49.6987 317.583 48.3612 322.541 48.1626 327.584C47.706 333.924 47.6191 340.302 46.8907 346.594C46.8907 347.003 46.097 347.145 46.0101 346.679C45.822 345.282 45.7892 343.872 45.9122 342.469Z" fill="#263238"/>
<path d="M61.8708 301.142C62.3222 300.658 62.8492 300.233 63.4363 299.878C64.0016 299.469 64.5235 299.07 65.1866 298.708C66.3847 297.992 67.7111 297.456 69.1112 297.121C69.2199 297.121 69.2634 297.254 69.1112 297.273C67.7006 297.581 66.3812 298.148 65.241 298.937C64.6648 299.307 64.1538 299.706 63.5668 300.115C63.0879 300.553 62.5597 300.948 61.9904 301.294C61.9252 301.341 61.7947 301.227 61.8708 301.142Z" fill="#263238"/>
<path d="M83.8971 305.637C85.0408 306.796 86.0975 308.019 87.0608 309.297C88.0077 310.584 88.7984 311.953 89.4199 313.384C89.4199 313.384 89.4199 313.45 89.3329 313.384C87.7565 310.68 85.8929 308.112 83.7667 305.713C83.6906 305.666 83.821 305.523 83.8971 305.637Z" fill="#263238"/>
<path d="M69.0469 304.411C69.1931 305.186 69.4563 305.94 69.8296 306.654C70.2085 307.345 70.6483 308.009 71.1451 308.641C71.1451 308.641 71.1451 308.726 71.069 308.688C69.8846 307.492 69.1285 306.018 68.8947 304.449C68.8186 304.345 69.0251 304.307 69.0469 304.411Z" fill="#263238"/>
<path d="M46.8796 309.753C46.8796 309.753 37.0952 299.012 18.244 302.814C0.32775 306.474 -7.96722 335.178 10.1121 338.619C28.1915 342.06 25.0387 315.456 31.6377 310.941C36.5299 307.633 43.4986 308.375 46.8796 309.753Z" fill="#FFCC79"/>
<path d="M3.66631 318.516C4.89613 317.574 6.19634 316.704 7.55831 315.912C8.83562 315.144 10.2299 314.536 11.7004 314.106C12.4294 313.126 13.2513 312.201 14.1573 311.34C15.8304 309.77 17.7658 308.431 19.8975 307.367H19.3322C18.332 307.367 17.3318 307.367 16.3316 307.367C14.3205 307.48 12.3496 307.911 10.5154 308.641C10.4066 308.641 10.3305 308.536 10.4393 308.498C12.2992 307.791 14.2477 307.278 16.2447 306.968C17.2164 306.812 18.2028 306.735 19.1908 306.74C19.7235 306.74 20.278 306.74 20.7781 306.825H21.0825C22.8117 306.062 24.6356 305.475 26.5182 305.076L25.9964 304.953C25.0599 304.778 24.1124 304.651 23.1589 304.573C21.279 304.379 19.378 304.405 17.5058 304.649C17.397 304.649 17.3644 304.506 17.5058 304.487C19.3992 304.288 21.3077 304.221 23.2133 304.288C24.8134 304.332 26.4047 304.513 27.9642 304.829C29.0984 304.643 30.2465 304.529 31.3996 304.487C37.9225 304.24 45.152 306.388 49.1962 311.141C53.2404 315.893 54.0449 322.185 54.7625 327.898C55.8598 335.851 56.1 343.877 55.48 351.869C55.48 352.345 54.6755 352.25 54.6646 351.803C54.4146 345.026 54.1428 338.249 53.4035 331.491C53.0556 328.364 52.6751 325.227 52.0772 322.128C51.6514 319.458 50.7758 316.857 49.4789 314.41C48.0824 311.887 45.8567 309.786 43.0864 308.375C40.311 306.992 37.2166 306.17 34.0305 305.97C31.1834 305.763 28.3169 305.994 25.5615 306.654C25.6431 307.14 25.6431 307.633 25.5615 308.118C25.4942 308.731 25.3558 309.336 25.1484 309.924C24.9381 310.476 24.6725 311.01 24.3548 311.521C24.0069 312.091 23.5721 312.595 23.1807 313.137C23.1155 313.222 22.9633 313.137 23.0285 313.042C23.803 312.074 24.3058 310.96 24.4961 309.791C24.6157 309.235 24.6919 308.673 24.7244 308.109C24.7244 307.69 24.7244 307.253 24.7244 306.835C21.7321 307.638 18.94 308.928 16.4947 310.637C16.0272 310.96 15.5924 311.302 15.1575 311.644C15.7766 312.152 16.3142 312.731 16.7556 313.365C17.4357 314.187 18.0289 315.062 18.5277 315.979C19.4 317.803 19.9887 319.721 20.278 321.682C20.2713 321.698 20.2588 321.713 20.2423 321.723C20.2257 321.734 20.2059 321.739 20.1856 321.739C20.1653 321.739 20.1455 321.734 20.1289 321.723C20.1123 321.713 20.0999 321.698 20.0932 321.682C19.737 319.772 19.0012 317.932 17.9189 316.245C17.4195 315.41 16.8604 314.604 16.2447 313.831C15.9294 313.431 15.6032 313.042 15.2553 312.661C15.0705 312.462 14.864 312.253 14.69 312.034C12.4711 313.933 10.6595 316.164 9.34124 318.621C10.2205 319.446 10.9534 320.382 11.5155 321.396C12.2246 322.482 12.8458 323.609 13.3746 324.771C14.2873 326.967 15.039 329.211 15.625 331.491C15.625 331.595 15.4728 331.624 15.451 331.491C14.8779 329.185 13.9796 326.95 12.7766 324.837C12.2113 323.811 11.6134 322.794 10.9937 321.786C10.3367 320.868 9.74491 319.916 9.22165 318.935C7.95666 321.327 7.21901 323.907 7.04735 326.539C7.04735 326.643 6.85166 326.624 6.86253 326.539C7.20882 322.393 8.6609 318.376 11.1024 314.81C9.95005 315.237 8.78679 315.655 7.6779 316.178C6.25789 316.834 4.93911 317.646 3.75328 318.593C3.69892 318.707 3.59021 318.583 3.66631 318.516Z" fill="#263238"/>
<path d="M17.5043 319.125C18.0696 320.751 18.7871 322.338 19.2981 323.982C19.8171 325.559 20.0949 327.189 20.1243 328.83C20.1243 328.877 20.0482 328.877 20.0373 328.83C19.5293 325.536 18.6219 322.299 17.3303 319.173C17.3267 319.163 17.3255 319.152 17.3265 319.142C17.3276 319.131 17.331 319.121 17.3366 319.112C17.3421 319.103 17.3497 319.095 17.3589 319.088C17.3681 319.081 17.3787 319.076 17.3901 319.073C17.4015 319.07 17.4135 319.069 17.4255 319.07C17.4374 319.071 17.449 319.074 17.4596 319.078C17.4702 319.083 17.4796 319.09 17.4872 319.098C17.4949 319.106 17.5007 319.115 17.5043 319.125Z" fill="#263238"/>
<path d="M5.55778 315.085C6.29615 314.458 7.13926 313.932 8.05822 313.526C8.98923 313.153 9.95715 312.853 10.95 312.633C11.0588 312.633 11.0914 312.766 10.95 312.785C9.97489 313.006 9.0386 313.341 8.16694 313.783C7.27657 314.19 6.41931 314.651 5.60126 315.161C5.5957 315.168 5.58834 315.173 5.57987 315.176C5.57141 315.179 5.56212 315.181 5.55289 315.18C5.54367 315.179 5.5348 315.176 5.52715 315.172C5.51949 315.167 5.5133 315.161 5.50915 315.154C5.50501 315.147 5.50306 315.139 5.50347 315.13C5.50389 315.122 5.50666 315.115 5.51154 315.108C5.51641 315.101 5.52321 315.095 5.5313 315.091C5.5394 315.087 5.54851 315.085 5.55778 315.085Z" fill="#263238"/>
<path d="M37.5847 295.41C37.5847 295.41 35.7909 276.115 19.3749 269.861C5.67677 264.633 -2.16159 278.092 7.52493 286.333C15.3524 292.996 27.9199 289.992 37.5847 295.41Z" fill="#FFCC79"/>
<path d="M10.557 273.596C13.0552 274.476 15.4911 275.485 17.8518 276.618C19.8188 277.607 21.7107 278.706 23.5159 279.907C23.2441 279.413 23.0049 278.9 22.7331 278.424C22.2983 277.683 21.8417 276.951 21.3416 276.248C20.3299 274.79 19.1137 273.449 17.7213 272.256C17.6452 272.189 17.7213 272.075 17.8518 272.151C19.2409 273.346 20.5136 274.64 21.6568 276.02C22.2242 276.723 22.7468 277.453 23.2223 278.206C23.6969 278.898 24.0625 279.643 24.3095 280.42C24.3095 280.468 24.4291 280.497 24.4943 280.544C27.3599 282.537 29.983 284.782 32.3218 287.245C32.3218 287.055 32.2348 286.865 32.1805 286.694C31.8761 285.743 31.5391 284.793 31.1803 283.89C30.4796 281.909 29.4854 280.018 28.2232 278.263C28.2117 278.245 28.2087 278.224 28.2148 278.205C28.2209 278.185 28.2357 278.168 28.2558 278.158C28.276 278.148 28.3 278.146 28.3224 278.151C28.3448 278.156 28.3639 278.169 28.3754 278.187C29.6849 279.936 30.8476 281.766 31.8543 283.662C32.2971 284.587 32.6604 285.54 32.9415 286.513C33.1826 287.133 33.3644 287.768 33.4851 288.414C34.1917 289.203 34.8983 290.001 35.5615 290.828C42.6063 299.592 46.1395 310.199 46.9875 320.807C47.2339 323.971 47.2956 327.143 47.1723 330.312C47.1416 333.498 46.818 336.676 46.2047 339.817C46.2047 340.017 45.8025 339.95 45.8134 339.76C45.8895 336.965 46.2265 334.19 46.2808 331.405C46.3432 328.637 46.2452 325.867 45.9873 323.107C45.4729 317.536 44.2738 312.029 42.4106 306.683C40.4872 301.215 37.6636 296.022 34.0286 291.266C33.3328 291.142 32.6479 290.98 31.963 290.828L29.5169 290.258C27.9411 289.9 26.4084 289.41 24.94 288.794C24.8313 288.747 24.94 288.604 25.0379 288.652C26.4838 289.344 28.0534 289.816 29.68 290.049C30.9629 290.268 32.3001 290.42 33.5829 290.676C32.4009 289.157 31.1272 287.695 29.767 286.295C26.64 286.536 23.4889 286.328 20.4392 285.677C18.8162 285.342 17.2215 284.911 15.6666 284.384C14.0142 283.823 12.4052 283.12 10.8397 282.483C10.7201 282.483 10.8397 282.283 10.9158 282.34C13.8519 283.743 17.058 284.661 20.374 285.049C23.3006 285.461 26.2592 285.674 29.2234 285.686C28.0602 284.517 26.8534 283.386 25.5706 282.312C21.222 278.719 16.145 275.43 10.47 273.71C10.3939 273.71 10.4483 273.558 10.557 273.596Z" fill="#263238"/>
<path d="M23.9079 273.653C24.6447 274.471 25.3167 275.331 25.9191 276.229C26.5361 277.173 27.0216 278.178 27.365 279.223C27.365 279.223 27.365 279.271 27.2998 279.223C26.7562 278.273 26.2888 277.322 25.7343 276.372C25.1924 275.444 24.5362 274.571 23.7774 273.767C23.7013 273.682 23.8318 273.577 23.9079 273.653Z" fill="#263238"/>
<path d="M50.3373 291.931C50.4352 292.768 52.8161 284.926 66.6446 277.969C79.2447 271.648 94.28 255.214 81.93 244.825C72.0152 236.451 45.7387 254.719 50.3373 291.931Z" fill="#FFCC79"/>
<path d="M40.7912 336.89C40.9826 328.733 41.7085 320.593 42.9655 312.509C44.0578 305.066 46.0213 297.741 48.8252 290.648C49.9124 288.101 50.9995 285.591 52.315 283.12C52.2481 282.17 52.2663 281.216 52.3694 280.269C52.4346 279.033 52.565 277.807 52.6955 276.571C52.826 275.335 52.9673 274.109 53.1412 272.883C53.3152 271.657 53.6087 270.431 53.6631 269.205C53.6631 269.195 53.6653 269.185 53.6697 269.176C53.674 269.166 53.6805 269.158 53.6885 269.151C53.6966 269.144 53.7062 269.138 53.7167 269.135C53.7273 269.131 53.7386 269.129 53.75 269.129C53.7615 269.129 53.7728 269.131 53.7833 269.135C53.7939 269.138 53.8035 269.144 53.8115 269.151C53.8196 269.158 53.826 269.166 53.8304 269.176C53.8348 269.185 53.837 269.195 53.837 269.205C53.5619 270.495 53.3948 271.8 53.3369 273.111C53.2391 274.299 53.1521 275.497 53.1195 276.685C53.0869 277.873 53.1195 279.071 53.1195 280.269C53.1195 280.696 53.1195 281.152 53.1195 281.618C54.4241 279.204 55.8265 276.866 57.3376 274.518C56.4027 269.49 57.6203 264.234 58.7944 259.31C58.7944 259.215 58.9901 259.253 58.9684 259.358C58.3924 261.926 58.0867 264.535 58.0552 267.152C58.0552 269.214 58.1095 271.277 58.1204 273.339C58.4574 272.845 58.7836 272.389 59.1206 271.866C60.9252 269.293 62.8459 266.784 64.8825 264.338C64.7226 263.144 64.7703 261.936 65.0238 260.755C65.2474 259.43 65.5817 258.121 66.024 256.839C66.4697 255.556 66.9807 254.291 67.5677 253.037C68.1548 251.782 68.9593 250.547 69.5464 249.235C69.5513 249.225 69.5584 249.217 69.5671 249.21C69.5758 249.203 69.586 249.198 69.5971 249.194C69.6082 249.191 69.62 249.189 69.6318 249.19C69.6436 249.19 69.6552 249.192 69.6659 249.197C69.6766 249.201 69.6863 249.207 69.6942 249.215C69.7022 249.223 69.7084 249.232 69.7125 249.241C69.7165 249.251 69.7183 249.261 69.7178 249.272C69.7173 249.282 69.7144 249.292 69.7094 249.301C68.9666 250.507 68.3831 251.782 67.97 253.103C67.5201 254.35 67.1571 255.62 66.8828 256.905C66.5893 258.179 66.3501 259.462 66.1436 260.707C66.0022 261.563 65.9153 262.447 65.7522 263.312C68.7186 259.821 71.9627 256.518 75.4605 253.427C75.4787 253.419 75.4992 253.416 75.5192 253.419C75.5391 253.422 75.5575 253.431 75.5718 253.443C75.5861 253.456 75.5956 253.472 75.5991 253.489C75.6025 253.507 75.5996 253.525 75.5909 253.541C70.2942 258.737 65.5628 264.353 61.4579 270.317L61.0122 270.992C61.7841 270.573 62.6538 270.241 63.3713 269.889C64.7194 269.243 66.0675 268.587 67.4264 267.988C68.7853 267.389 70.0464 266.743 71.351 266.087C72.0251 265.764 72.6882 265.422 73.3731 265.137C74.189 264.811 74.9742 264.43 75.7214 263.996C75.8301 263.929 75.9388 264.072 75.8301 264.12C74.4929 264.766 73.3188 265.716 72.0251 266.439C70.7313 267.161 69.405 267.855 68.0678 268.511C65.6 269.718 62.9147 270.583 60.4578 271.828C58.7727 274.404 57.1963 277.046 55.7939 279.736C57.2615 278.909 58.7727 278.13 60.2947 277.379C61.284 276.904 62.2624 276.429 63.2626 275.963C64.2562 275.568 65.1939 275.074 66.0566 274.49C66.1436 274.423 66.2632 274.537 66.1762 274.604C64.5655 275.878 62.7753 276.967 60.8491 277.845C59.0662 278.795 57.2724 279.641 55.4134 280.43C53.9348 283.282 52.5868 286.133 51.4018 289.108C45.5638 303.565 43.4112 318.906 42.3893 334.152C42.0849 338.695 41.9327 343.239 41.8675 347.782C41.8022 352.326 42.074 356.869 42.0631 361.412C42.0631 361.545 41.8131 361.574 41.7914 361.412C41.1608 357.382 41.0521 353.286 40.8564 349.227C40.6607 345.168 40.6933 341.005 40.7912 336.89Z" fill="#263238"/>
<path d="M66.0022 271.439C68.5319 270.454 70.9931 269.34 73.3731 268.102C75.7778 266.912 78.111 265.614 80.3635 264.215C80.3635 264.215 80.4505 264.215 80.3635 264.272C78.2364 265.776 75.9914 267.148 73.6449 268.378C71.1876 269.581 68.6458 270.648 66.0348 271.572C65.9805 271.61 65.8935 271.477 66.0022 271.439Z" fill="#263238"/>
<path d="M61.9799 255.09C62.1864 254.387 62.4365 253.693 62.7083 253.009C62.7083 253.009 62.7083 252.961 62.7083 252.933C62.8822 252.533 63.067 252.153 63.2518 251.764L63.3171 251.621L63.4149 251.402L63.2845 251.802C63.2641 251.879 63.2387 251.955 63.2084 252.03C62.313 254.73 61.6444 257.485 61.208 260.27C61.208 260.356 61.0341 260.366 61.0449 260.27C61.1665 258.522 61.4796 256.787 61.9799 255.09Z" fill="#263238"/>
<path d="M26.1372 339.808L27.1265 350.063L30.1597 381.344H62.622L65.6443 350.063L66.6336 339.808H26.1372Z" fill="#455A64"/>
<path d="M26.1372 339.808L27.1265 350.063H65.6443L66.6336 339.808H26.1372Z" fill="#263238"/>
<path d="M22.9512 345.52H69.8184V335.682H22.9512V345.52Z" fill="#455A64"/>
<path d="M395.692 170.791C393.409 171.513 325.908 172.692 323.364 171.323C323.059 171.18 321.961 151.657 321.961 151.657C322.048 151.381 320.874 149.5 319.2 146.905C314.384 139.557 304.969 126.402 304.969 126.402L345.042 115.814L361.501 144.633L365.698 151.99C365.698 151.99 374.895 155.136 382.929 158.273C386.437 159.544 389.856 160.994 393.17 162.616C395.779 164.356 397.975 170.087 395.692 170.791Z" fill="#D3766A"/>
<path d="M395.691 170.79C393.408 171.513 325.907 172.691 323.363 171.323C323.059 171.18 321.961 151.657 321.961 151.657C322.048 151.381 320.873 149.499 319.199 146.904L361.5 144.633L365.697 151.99C365.697 151.99 374.894 155.136 382.928 158.272C386.436 159.544 389.856 160.994 393.169 162.616C395.778 164.356 397.974 170.087 395.691 170.79Z" fill="white"/>
<path d="M395.973 171.009C393.625 171.741 326.026 172.749 323.417 171.37C322.428 170.848 321.243 161.751 321.96 151.657L365.544 151.049C365.544 151.049 390.788 160.801 393.462 162.588C396.136 164.375 398.322 170.287 395.973 171.009Z" fill="#EC8F5E"/>
<path opacity="0.1" d="M341.105 172.036C331.483 172.036 324.243 171.798 323.417 171.371C322.428 170.848 321.243 161.751 321.96 151.657H323.047L341.105 172.036Z" fill="black"/>
<path d="M394.964 168.652C383.636 168.576 337.9 169.222 326.691 169.897C326.604 169.897 326.604 169.964 326.691 169.964C337.921 170.249 383.647 169.289 394.975 168.814C395.204 168.814 395.204 168.652 394.964 168.652Z" fill="#263238"/>
<path d="M389.071 160.535C387.811 160.522 386.561 160.739 385.402 161.173C384.243 161.607 383.201 162.247 382.341 163.054C380.776 164.488 379.904 166.394 379.906 168.376C379.906 168.433 380.037 168.433 380.048 168.376C380.39 166.408 381.455 164.59 383.083 163.198C384.711 161.806 386.813 160.914 389.071 160.658C389.158 160.649 389.158 160.535 389.071 160.535Z" fill="#263238"/>
<path d="M369.122 151.99C364.588 151.99 359.337 153.482 356.598 156.742C356.489 156.866 356.707 156.999 356.837 156.932C360.768 155.072 364.916 153.584 369.209 152.493C369.285 152.483 369.354 152.447 369.4 152.393C369.446 152.338 369.465 152.27 369.453 152.204C369.442 152.137 369.4 152.077 369.338 152.037C369.276 151.996 369.198 151.98 369.122 151.99Z" fill="#263238"/>
<path d="M372.644 153.13C368.111 153.13 362.86 154.623 360.12 157.883C360.022 158.006 360.229 158.139 360.359 158.073C364.289 156.196 368.436 154.692 372.731 153.587C372.781 153.561 372.821 153.524 372.845 153.478C372.87 153.433 372.878 153.382 372.868 153.332C372.859 153.283 372.832 153.237 372.792 153.201C372.752 153.165 372.701 153.14 372.644 153.13Z" fill="#263238"/>
<path d="M376.166 154.271C371.632 154.271 366.381 155.763 363.653 159.023C363.544 159.147 363.75 159.28 363.881 159.213C367.813 157.335 371.964 155.831 376.264 154.727C376.313 154.701 376.353 154.662 376.377 154.616C376.401 154.57 376.408 154.519 376.397 154.469C376.386 154.419 376.358 154.373 376.317 154.338C376.276 154.302 376.223 154.279 376.166 154.271Z" fill="#263238"/>
<path d="M379.743 155.412C375.199 155.412 369.959 156.904 367.219 160.164C367.11 160.288 367.317 160.421 367.447 160.354C371.353 158.491 375.475 156.996 379.743 155.896C379.807 155.885 379.865 155.855 379.906 155.811C379.948 155.767 379.97 155.711 379.97 155.654C379.97 155.597 379.948 155.541 379.906 155.497C379.865 155.453 379.807 155.423 379.743 155.412Z" fill="#263238"/>
<path d="M329.376 160.458C324.288 160.544 324.44 167.454 329.539 167.369C334.637 167.283 334.474 160.363 329.376 160.458Z" fill="#263238"/>
<path d="M373.818 141.335C371.492 139.709 368.622 141.335 367.241 143.122C364.94 146.167 363.59 149.687 363.327 153.33C363.327 153.406 363.392 153.444 363.468 153.435C363.486 153.51 363.523 153.58 363.578 153.639C363.632 153.699 363.703 153.746 363.783 153.777C363.863 153.808 363.95 153.821 364.037 153.816C364.125 153.811 364.209 153.788 364.284 153.748C367.48 151.743 371.176 149.946 373.568 147.152C374.96 145.517 376.014 142.875 373.818 141.335ZM368.382 149.889C366.839 150.916 365.251 151.857 363.751 152.921C364.453 150.916 365.269 148.943 366.197 147.009C366.665 146.081 367.198 145.179 367.795 144.31C368.763 142.989 373.144 139.557 373.677 143.911C374.014 146.239 370.252 148.635 368.415 149.842L368.382 149.889Z" fill="#263238"/>
<path d="M352.086 154.965C356.043 155.44 360.098 154.395 363.969 153.806C364.052 153.786 364.129 153.749 364.193 153.699C364.257 153.649 364.307 153.586 364.339 153.516C364.37 153.446 364.383 153.37 364.375 153.295C364.368 153.22 364.34 153.147 364.295 153.083C364.309 153.072 364.32 153.059 364.327 153.045C364.335 153.03 364.339 153.014 364.339 152.998C364.339 152.981 364.335 152.965 364.327 152.951C364.32 152.936 364.309 152.923 364.295 152.912C361.144 150.509 357.328 148.871 353.227 148.16C350.825 147.798 347.466 148.407 347.161 151.011C346.857 153.615 349.77 154.689 352.086 154.965ZM349.303 152.75C346.161 149.395 351.999 149.034 353.749 149.367C354.882 149.592 355.994 149.891 357.076 150.26C359.3 151.038 361.477 151.913 363.599 152.884C361.675 153.074 359.794 153.397 357.881 153.644C355.619 153.939 351.031 154.604 349.303 152.75Z" fill="#263238"/>
<path d="M316.145 146.506L363.686 140.204C363.686 140.204 340.856 100.388 326.723 78.7828C318.863 66.7686 297.37 66.1792 286.879 80.5793C272.876 99.8078 262.026 117.82 255.808 127.781L245.023 128.589L247.35 143.987L283.226 151.001C296.957 152.446 306.589 131.041 306.817 131.44C308.502 134.273 316.145 146.506 316.145 146.506Z" fill="#37474F"/>
<path d="M307.023 131.583C305.664 129.159 304.61 126.593 303.414 124.112L299.924 116.917C297.598 112.06 295.184 107.222 292.923 102.346C291.651 99.6081 290.488 96.8326 289.303 94.0667C289.303 94.0001 289.15 94.0667 289.172 94.0667C290.096 96.6805 291.053 99.2944 292.053 101.88C291.781 101.433 291.52 100.986 291.238 100.549C290.477 99.3609 289.694 98.1823 288.9 97.0037H288.824C289.553 98.1918 290.281 99.3704 290.999 100.54C291.368 101.129 291.781 101.699 292.184 102.279C294.951 109.554 298.245 116.669 302.044 123.58C303.555 126.288 305.305 128.883 306.838 131.592C306.904 131.725 307.067 131.649 307.023 131.583Z" fill="#263238"/>
<path d="M317.209 139.111C314.915 136.022 309.458 126.669 307.501 123.428C303.555 116.888 299.891 110.206 296.51 103.467C294.575 99.6652 292.77 95.7872 290.976 91.9092C293.708 98.8859 296.839 105.738 300.358 112.44C303.837 119.16 315.089 137.257 317.111 139.215C317.144 139.263 317.275 139.187 317.209 139.111Z" fill="#263238"/>
<path d="M287.704 97.0513C283.606 103.448 279.42 109.797 275.311 116.185C273.234 119.407 271.147 122.639 269.092 125.87C268.125 127.401 267.19 128.94 266.179 130.442C265.32 131.865 264.02 133.048 262.428 133.855C260.523 134.645 258.525 135.254 256.47 135.67C254.155 136.259 251.861 136.896 249.534 137.457C249.426 137.457 249.48 137.618 249.534 137.599C251.6 137.115 253.687 136.649 255.775 136.25C257.689 135.893 259.58 135.446 261.439 134.91C263.088 134.435 264.545 133.553 265.635 132.372C266.754 131.018 267.739 129.584 268.581 128.085C272.727 121.546 276.804 114.959 280.812 108.324C283.117 104.57 285.389 100.806 287.704 97.0703C287.748 97.0513 287.715 97.0323 287.704 97.0513Z" fill="#263238"/>
<path d="M315.068 140.669C317.917 140.213 320.83 140.004 323.7 139.719L332.343 138.768C338.083 138.112 357.641 135.384 359.12 134.966C359.139 134.96 359.156 134.95 359.167 134.935C359.179 134.921 359.186 134.903 359.186 134.885C359.186 134.868 359.179 134.85 359.167 134.836C359.156 134.821 359.139 134.811 359.12 134.805C357.717 134.805 344.911 136.259 342.041 136.63C336.301 137.371 330.593 138.255 324.864 139.101C323.233 139.339 321.602 139.614 319.972 139.871C318.341 140.127 316.71 140.432 315.079 140.612C315.074 140.598 315.064 140.585 315.05 140.576C315.036 140.568 315.019 140.564 315.002 140.564C314.985 140.565 314.968 140.571 314.955 140.581C314.943 140.591 314.934 140.605 314.931 140.62C314.928 140.635 314.931 140.65 314.94 140.663C314.948 140.676 314.961 140.687 314.977 140.692C314.993 140.698 315.011 140.699 315.028 140.695C315.044 140.691 315.059 140.682 315.068 140.669Z" fill="#263238"/>
<path d="M343.574 183.86C342.813 181.854 302.066 134.776 299.283 133.873C298.957 133.75 280.747 145.089 280.747 145.089C279.997 145.963 245.371 139.567 245.371 139.567L245.023 176.085L308.078 174.915C308.078 174.915 316.591 179.288 324.386 182.862C327.699 184.49 331.123 185.94 334.637 187.205C337.844 187.88 344.346 185.827 343.574 183.86Z" fill="#D3766A"/>
<path d="M334.692 187.167C331.173 185.911 327.749 184.46 324.44 182.824C316.656 179.259 308.133 174.868 308.133 174.868L294.098 175.134L272.116 144.129C276.932 144.88 280.53 145.327 280.813 145.079C280.813 145.079 299.023 133.75 299.349 133.873C302.132 134.776 342.835 181.845 343.639 183.86C344.444 185.875 337.845 187.88 334.692 187.167Z" fill="white"/>
<path d="M343.943 183.86C343.139 181.797 302.208 134.757 299.37 133.816C298.283 133.465 289.379 138.274 280.769 145.023L307.198 175.325C307.198 175.325 331.583 186.616 334.844 187.348C338.105 188.08 344.748 185.951 343.943 183.86Z" fill="#EC8F5E"/>
<path d="M341.203 184.64C334.115 176.903 306.414 145.108 300.054 136.991C300.054 136.925 300.054 136.887 300.119 136.991C307.327 144.529 334.767 176.513 341.355 184.582C341.486 184.716 341.355 184.811 341.203 184.64Z" fill="#263238"/>
<path d="M330.256 185.638C329.464 184.778 328.886 183.784 328.559 182.719C328.231 181.654 328.161 180.54 328.353 179.45C328.668 177.49 329.836 175.712 331.615 174.488C331.669 174.488 331.745 174.536 331.691 174.583C330.14 176.04 329.17 177.897 328.927 179.876C328.684 181.855 329.181 183.85 330.343 185.562C330.349 185.572 330.351 185.584 330.348 185.596C330.346 185.607 330.34 185.618 330.33 185.626C330.321 185.635 330.308 185.64 330.295 185.642C330.282 185.644 330.268 185.643 330.256 185.638Z" fill="#263238"/>
<path d="M310.231 177.206C307.437 174.079 305.523 169.602 306.774 165.648C306.774 165.496 307.067 165.563 307.1 165.648C307.842 169.508 309.056 173.288 310.72 176.921C310.763 176.978 310.779 177.047 310.764 177.114C310.748 177.181 310.703 177.24 310.638 177.278C310.574 177.316 310.494 177.329 310.418 177.316C310.341 177.303 310.274 177.263 310.231 177.206Z" fill="#263238"/>
<path d="M313.428 178.936C310.634 175.819 308.72 171.332 309.97 167.378C309.97 167.226 310.264 167.293 310.286 167.426C311.037 171.285 312.254 175.064 313.917 178.699C313.941 178.754 313.942 178.816 313.918 178.872C313.895 178.927 313.85 178.974 313.79 179.003C313.731 179.032 313.661 179.041 313.595 179.029C313.528 179.017 313.469 178.984 313.428 178.936Z" fill="#263238"/>
<path d="M316.688 180.647C313.894 177.53 311.98 173.043 313.231 169.099C313.231 168.947 313.524 169.004 313.546 169.099C314.297 172.958 315.514 176.737 317.177 180.372C317.219 180.428 317.233 180.497 317.217 180.563C317.201 180.629 317.155 180.687 317.09 180.723C317.025 180.76 316.946 180.772 316.871 180.758C316.796 180.744 316.73 180.704 316.688 180.647Z" fill="#263238"/>
<path d="M319.853 182.368C317.059 179.24 315.146 174.764 316.396 170.81C316.396 170.657 316.69 170.724 316.711 170.81C317.463 174.669 318.68 178.448 320.343 182.082C320.386 182.139 320.402 182.209 320.386 182.275C320.371 182.342 320.326 182.401 320.261 182.439C320.196 182.477 320.117 182.49 320.04 182.477C319.964 182.464 319.897 182.424 319.853 182.368Z" fill="#263238"/>
<path d="M293.237 144.69C290.172 141.145 296.499 136.972 299.543 140.527C302.587 144.082 296.314 148.245 293.237 144.69Z" fill="#263238"/>
<path d="M308.644 183.271C309.676 179.896 308.991 176.246 308.817 172.815C308.806 172.736 308.773 172.66 308.72 172.595C308.667 172.529 308.597 172.477 308.515 172.441C308.433 172.405 308.343 172.388 308.251 172.39C308.16 172.392 308.071 172.414 307.991 172.454C307.981 172.44 307.968 172.429 307.952 172.421C307.936 172.413 307.917 172.409 307.899 172.409C307.88 172.409 307.862 172.413 307.846 172.421C307.83 172.429 307.816 172.44 307.806 172.454C304.69 174.885 302.365 177.994 301.066 181.465C300.349 183.489 300.62 186.493 303.523 187.082C306.426 187.671 307.991 185.238 308.644 183.271ZM305.817 185.409C301.621 187.7 301.936 182.558 302.555 181.122C302.967 180.172 303.446 179.245 303.991 178.347C305.154 176.514 306.424 174.734 307.796 173.015C307.796 174.697 307.893 176.379 307.937 178.062C307.915 180.058 308.089 184.136 305.817 185.409Z" fill="#263238"/>
<path d="M295.794 162.74C293.619 164.555 295.185 167.245 297 168.661C300.159 171.046 303.98 172.662 308.078 173.347C308.097 173.35 308.116 173.35 308.134 173.345C308.152 173.341 308.168 173.333 308.182 173.321C308.196 173.31 308.206 173.297 308.213 173.281C308.22 173.266 308.222 173.25 308.22 173.233C308.307 173.226 308.391 173.201 308.465 173.16C308.538 173.119 308.6 173.063 308.645 172.998C308.689 172.932 308.715 172.858 308.721 172.781C308.726 172.705 308.711 172.629 308.676 172.558C306.807 169.536 305.23 166.105 302.36 163.681C300.686 162.265 297.816 161.048 295.794 162.74ZM304.774 168.49C305.73 169.954 306.6 171.446 307.622 172.882C305.448 171.931 303.273 171.133 301.219 170.03C300.222 169.507 299.267 168.926 298.359 168.291C296.979 167.293 293.695 163.063 298.653 163.139C301.382 163.187 303.643 166.751 304.73 168.49H304.774Z" fill="#263238"/>
<path d="M263.472 131.088C263.472 131.088 194.362 120.481 174.706 123.979C147.288 128.836 142.244 157.189 162.585 167.701C188.404 181.122 292.119 178.527 292.119 178.527L267.332 141.81C267.332 141.81 229.205 134.786 194.634 135.803L263.777 145.042L263.472 131.088Z" fill="#37474F"/>
<path d="M268.985 144.176C268.956 144.116 268.938 144.052 268.93 143.986C268.93 143.939 268.93 143.882 268.93 143.834C268.93 143.787 268.854 143.597 268.822 143.473C268.738 143.231 268.64 142.993 268.528 142.76C268.426 142.521 268.31 142.286 268.18 142.057C268.049 141.831 267.896 141.614 267.724 141.41H267.658H267.593H267.528C263.342 140.726 234.848 137.171 230.619 136.744C226.39 136.316 222.063 135.974 217.78 135.66C209.231 135.011 200.649 134.741 192.069 134.852L189.655 134.909C189.492 134.909 189.307 134.833 189.133 134.795C188.72 134.709 188.307 134.624 187.894 134.557C187.122 134.424 186.339 134.329 185.568 134.225C183.937 134.006 182.306 133.854 180.697 133.588C180.677 133.588 180.658 133.595 180.643 133.607C180.629 133.62 180.621 133.637 180.621 133.654C180.621 133.672 180.629 133.689 180.643 133.701C180.658 133.714 180.677 133.721 180.697 133.721C182.317 134.035 183.959 134.443 185.535 134.757L186.937 135.014C183.795 135.166 180.664 135.375 177.523 135.622C177.425 135.622 177.425 135.765 177.523 135.755C181.795 135.536 186.089 135.508 190.373 135.574C194.656 135.641 198.863 135.717 203.103 135.936C211.681 136.363 220.248 137.038 228.793 137.837C233.587 138.274 262.636 141.981 267.452 142.152C267.452 142.247 267.528 142.342 267.582 142.437C267.637 142.532 267.854 142.893 267.995 143.112C268.137 143.33 268.267 143.54 268.419 143.749L268.659 144.053L268.778 144.205C268.83 144.253 268.874 144.308 268.909 144.367C268.854 144.319 269.039 144.262 268.985 144.176Z" fill="#263238"/>
<path d="M283.172 176.256C281.639 174.117 280.334 171.827 278.932 169.602L274.692 162.949C271.876 158.52 261.755 143.644 260.755 142.599C260.689 142.532 260.559 142.599 260.592 142.684C261.07 143.844 267.386 153.691 268.843 155.887C271.746 160.278 274.801 164.584 277.812 168.928C278.682 170.163 279.573 171.38 280.443 172.616C281.313 173.851 282.237 175.058 283.041 176.322C283.085 176.446 283.226 176.37 283.172 176.256Z" fill="#263238"/>
<path d="M260.472 146.353C257.939 145.821 255.352 145.479 252.786 145.051L245.1 143.787C239.976 142.957 234.841 142.161 229.695 141.401C219.432 139.89 209.137 138.645 198.776 137.77C192.938 137.285 187.078 136.962 181.219 136.582C181.099 136.582 181.099 136.753 181.219 136.753C191.655 137.162 202.07 138.397 212.398 139.7C222.726 141.002 232.826 142.39 243.023 143.891L251.644 145.184C254.569 145.631 257.482 146.135 260.428 146.496C260.537 146.515 260.581 146.372 260.472 146.353Z" fill="#263238"/>
<path d="M251.882 74.4387C253.883 85.3409 264.493 119.198 275.8 122.809C283.181 125.176 321.721 123.228 327.983 117.506C330.733 115.006 327.407 93.6957 323.178 93.9619C318.949 94.228 288.965 98.6573 286.062 97.5262C283.16 96.3951 269.462 74.1916 262.036 65.8652C250.6 53.043 250.371 65.8652 251.882 74.4387Z" fill="#D3766A"/>
<path d="M256.373 94.8175L277.551 84.0009C277.551 84.0009 268.854 72.0152 261.896 64.9245C254.938 57.8338 248.948 56.1704 250.698 70.751C251.602 78.9272 253.505 86.9953 256.373 94.8175Z" fill="#263238"/>
<path d="M268.648 130.632C267.507 131.45 203.517 125.718 203.245 125.328C202.506 124.273 215.835 89.7704 224.456 76.9767C235.501 60.5712 240.524 59.5351 243.535 58.8222C247.384 57.8718 253.689 58.6321 256.581 60.4571C258.19 61.4646 262.517 69.7434 263.984 76.2828C266.942 89.3902 269.638 129.881 268.648 130.632Z" fill="#EC8F5E"/>
<path d="M254.993 68.2413C251.34 69.0112 245.046 64.1542 242.556 60.2096C242.382 59.934 242.85 57.073 243.219 53.5562C243.437 51.4365 243.621 49.0603 243.611 46.9027C243.611 46.456 259.211 50.1534 259.211 50.1534C258.335 52.8725 257.842 55.6751 257.744 58.4987C257.751 58.7987 257.788 59.0976 257.852 59.3922C257.859 59.4395 257.859 59.4874 257.852 59.5348C258.2 61.2457 258.515 67.4904 254.993 68.2413Z" fill="#D3766A"/>
<path d="M244.567 46.9883C245.306 50.6572 247.959 59.5158 256.276 59.6489C256.81 59.6591 257.344 59.6337 257.874 59.5728C257.881 59.5223 257.881 59.4712 257.874 59.4208C257.804 59.1265 257.764 58.8276 257.754 58.5273C257.853 55.7029 258.349 52.9 259.233 50.1819C259.233 50.1819 247.948 47.492 244.567 46.9883Z" fill="#263238"/>
<path d="M244.437 28.9293C241.697 33.3776 241.425 47.559 244.578 51.2849C249.144 56.6933 258.2 58.7178 263.842 53.5946C269.278 48.6426 269.278 30.1459 265.625 26.6196C260.222 21.4014 248.481 22.3329 244.437 28.9293Z" fill="#D3766A"/>
<path d="M256.753 41.5801C256.753 41.5801 256.667 41.5801 256.667 41.6656C256.667 42.6161 256.503 43.7187 255.514 44.0134V44.0704C256.732 43.9468 256.895 42.483 256.753 41.5801Z" fill="#263238"/>
<path d="M255.808 40.5631C254.057 40.411 253.84 43.4906 255.471 43.6332C257.101 43.7757 257.275 40.6961 255.808 40.5631Z" fill="#263238"/>
<path d="M262.853 41.9316C262.853 41.9316 262.94 41.9887 262.94 42.0267C262.832 42.9772 262.94 44.0798 263.864 44.4505V44.5075C262.658 44.2889 262.592 42.8251 262.853 41.9316Z" fill="#263238"/>
<path d="M263.896 40.9912C265.668 40.9912 265.581 44.0518 263.95 44.0708C262.32 44.0898 262.428 41.0102 263.896 40.9912Z" fill="#263238"/>
<path d="M254.352 38.0445C254.833 38.0285 255.312 37.984 255.787 37.9115C256.302 37.9308 256.811 37.8005 257.233 37.5408C257.347 37.4375 257.419 37.3039 257.436 37.161C257.454 37.0181 257.417 36.8742 257.331 36.7519C257.119 36.5297 256.843 36.3614 256.531 36.2644C256.219 36.1674 255.883 36.1454 255.559 36.2006C254.886 36.2261 254.248 36.4662 253.765 36.8754C253.663 36.976 253.596 37.1 253.573 37.2326C253.549 37.3653 253.569 37.5011 253.631 37.6241C253.693 37.747 253.793 37.8519 253.921 37.9264C254.049 38.001 254.198 38.0419 254.352 38.0445Z" fill="#263238"/>
<path d="M265.668 38.8332C265.203 38.7231 264.745 38.5898 264.298 38.434C263.791 38.3603 263.328 38.1392 262.982 37.8067C262.893 37.6835 262.855 37.5375 262.872 37.3926C262.89 37.2476 262.963 37.1122 263.08 37.0083C263.341 36.8323 263.651 36.7209 263.979 36.6858C264.306 36.6507 264.637 36.6931 264.939 36.8087C265.583 36.9457 266.148 37.2837 266.527 37.7592C266.617 37.8769 266.664 38.0157 266.662 38.1573C266.66 38.2988 266.61 38.4367 266.517 38.5527C266.424 38.6688 266.293 38.7576 266.142 38.8077C265.99 38.8577 265.825 38.8666 265.668 38.8332Z" fill="#263238"/>
<path d="M255.656 47.5494C255.905 47.9428 256.246 48.2863 256.656 48.558C257.066 48.8297 257.536 49.0236 258.037 49.1272C258.472 49.2308 258.923 49.2725 259.374 49.2508C259.457 49.2605 259.541 49.2605 259.624 49.2508H259.863C259.922 49.2451 259.978 49.2225 260.021 49.1865C260.065 49.1504 260.093 49.1028 260.102 49.0512V48.8896V48.8041C260.178 48.0722 260.178 46.9031 260.178 46.9031C260.472 47.0552 261.994 47.7585 261.994 47.3688C262.124 44.0759 261.873 40.7799 261.244 37.5312C261.237 37.5122 261.223 37.4956 261.204 37.4839C261.186 37.4721 261.163 37.4658 261.14 37.4658C261.118 37.4658 261.095 37.4721 261.077 37.4839C261.058 37.4956 261.044 37.5122 261.037 37.5312C260.896 40.6013 261.374 43.6619 261.287 46.7415C260.743 46.4863 260.161 46.2976 259.559 46.1807C259.439 46.1807 259.613 48.3478 259.559 48.6805C258.873 48.7089 258.188 48.6167 257.543 48.4093C256.899 48.202 256.309 47.8837 255.808 47.4734C255.688 47.4163 255.601 47.4734 255.656 47.5494Z" fill="#263238"/>
<path d="M258.895 48.8893C258.4 49.3915 257.762 49.7716 257.047 49.9919C256.654 50.1011 256.233 50.1011 255.84 49.9919C254.981 49.7447 255.014 49.0414 255.21 48.4521C255.325 48.1409 255.478 47.8414 255.666 47.5586C256.554 48.2898 257.685 48.7557 258.895 48.8893Z" fill="#263238"/>
<path d="M257.047 49.9539C256.654 50.0631 256.233 50.0631 255.84 49.9539C254.981 49.7067 255.014 49.0034 255.21 48.4141C255.671 48.4496 256.104 48.6215 256.438 48.9015C256.772 49.1815 256.987 49.5527 257.047 49.9539Z" fill="#FF98B9"/>
<path d="M242.936 41.6278C246.306 42.4737 249.731 29.7846 249.731 29.7846C251.45 31.0856 253.385 32.1497 255.471 32.9402C257.635 33.6084 259.878 34.0643 262.157 34.2995C262.668 34.2995 257.471 30.8397 257.471 30.8397C260.675 32.019 264.117 32.6204 267.593 32.6076C270.191 32.4745 270.05 31.505 270.159 30.7636C270.267 30.0222 266.951 22.3612 256.439 21.4773C254.314 21.3437 252.184 21.6723 250.239 22.4335C248.295 23.1948 246.596 24.3651 245.295 25.84C245.295 25.84 240.457 28.6915 239.957 30.8016C239.273 33.6151 239.381 40.7343 242.936 41.6278Z" fill="#263238"/>
<path d="M262.244 42.3785C262.418 40.2114 263.896 38.5765 265.505 38.6431C267.114 38.7096 268.332 40.5441 268.158 42.7492C267.984 44.9544 266.505 46.5512 264.896 46.4752C263.287 46.3991 262.07 44.5361 262.244 42.3785ZM262.842 42.3785C262.689 44.2795 263.624 45.8383 264.929 45.9144C266.233 45.9904 267.418 44.5361 267.571 42.6732C267.723 40.8102 266.788 39.2134 265.483 39.1278C264.179 39.0423 263.005 40.5441 262.842 42.4165V42.3785Z" fill="#455A64"/>
<path d="M250.98 41.6753C251.093 40.9646 251.44 40.2981 251.981 39.758C252.521 39.2179 253.23 38.8277 254.021 38.6355C254.811 38.4432 255.649 38.4573 256.43 38.6761C257.212 38.8948 257.903 39.3086 258.419 39.8664C258.935 40.4243 259.253 41.102 259.335 41.8159C259.416 42.5299 259.256 43.249 258.876 43.8847C258.495 44.5204 257.91 45.045 257.193 45.3938C256.476 45.7426 255.658 45.9005 254.84 45.8479C253.696 45.7402 252.648 45.2405 251.924 44.4585C251.201 43.6764 250.862 42.6756 250.98 41.6753ZM251.578 41.6753C251.584 42.2866 251.794 42.8831 252.182 43.392C252.569 43.9008 253.118 44.2999 253.761 44.5404C254.404 44.7809 255.113 44.8525 255.801 44.7463C256.49 44.6401 257.128 44.3608 257.638 43.9426C258.148 43.5243 258.508 42.9852 258.673 42.3911C258.838 41.7971 258.802 41.1738 258.569 40.5975C258.335 40.0213 257.915 39.5169 257.359 39.1462C256.803 38.7755 256.135 38.5545 255.438 38.5101C254.442 38.4871 253.476 38.8104 252.753 39.4092C252.029 40.0079 251.607 40.8331 251.578 41.7038V41.6753Z" fill="#455A64"/>
<path d="M259.179 41.8274C261.473 41.2761 262.44 41.9889 262.44 41.9889L262.843 41.5992C262.843 41.5992 261.658 40.6487 259.005 41.3236L259.179 41.8274Z" fill="#455A64"/>
<path d="M251.307 41.3426L251.459 40.8388C251.078 40.7533 242.044 38.7002 241.055 38.5957C240.066 38.4911 237.467 39.5462 237.185 39.6412L237.445 40.1164C238.538 39.6172 239.717 39.277 240.935 39.1089C241.74 39.204 248.067 40.6107 251.307 41.3426Z" fill="#455A64"/>
<path d="M245.229 40.639C245.229 40.639 242.587 35.6394 240.054 36.3903C237.521 37.1412 238.869 43.9943 241.392 45.2965C241.703 45.4829 242.054 45.6126 242.423 45.6778C242.793 45.7429 243.174 45.7422 243.543 45.6757C243.913 45.6091 244.263 45.4781 244.573 45.2905C244.884 45.1028 245.147 44.8624 245.349 44.5836L245.229 40.639Z" fill="#D3766A"/>
<path d="M240.49 38.3389C240.49 38.3389 240.49 38.3389 240.49 38.4054C242.251 39.3559 242.936 41.0668 243.305 42.7777C243.229 42.597 243.109 42.4328 242.954 42.2959C242.799 42.1591 242.612 42.0529 242.406 41.9845C242.2 41.9161 241.98 41.887 241.76 41.8992C241.54 41.9114 241.326 41.9646 241.131 42.0553C241.066 42.0553 241.131 42.1504 241.131 42.1504C241.483 42.1107 241.839 42.1671 242.153 42.3117C242.466 42.4564 242.721 42.6822 242.881 42.9583C243.149 43.4248 243.357 43.9157 243.501 44.422C243.566 44.5836 243.882 44.5456 243.86 44.365C244.317 42.2359 243.045 38.9662 240.49 38.3389Z" fill="#263238"/>
<path d="M282.334 110.576C282.334 114.084 270.962 113.2 268.125 113.504C265.288 113.808 264.864 114.455 266.299 115.177C266.595 115.299 266.904 115.395 267.223 115.462C262.809 114.664 248.219 110.215 248.219 110.215C248.219 110.215 256.982 107.677 261.624 106.86C266.266 106.043 282.345 107.05 282.334 110.576Z" fill="#D3766A"/>
<path d="M309.611 92.5367C311.886 90.7386 314.38 89.1641 317.047 87.8412C320.591 86.2539 328.495 83.4024 329.843 82.5375L332.3 82.0527L324.299 129.055L303.251 137.286L265.092 133.826L270.452 89.4571L272.942 88.9343C272.942 88.9343 277.812 89.5426 281.78 89.6947C285.748 89.8468 299.109 88.345 309.611 92.5367Z" fill="white"/>
<path d="M300.207 138.873L306.774 93.7533L268.8 89.21L263.146 135.1L300.207 138.873Z" fill="#EC8F5E"/>
<path opacity="0.1" d="M300.207 138.873L306.774 93.7533L268.8 89.21L263.146 135.1L300.207 138.873Z" fill="black"/>
<path d="M300.207 138.873L305.523 138.35L312.143 93.2305L306.773 93.7532L300.207 138.873Z" fill="#EC8F5E"/>
<path d="M305.523 138.35L312.144 93.2301L333.3 81.501L325.005 129.387L305.523 138.35Z" fill="#EC8F5E"/>
<path opacity="0.1" d="M305.523 138.35L312.144 93.2301L333.3 81.501L325.005 129.387L305.523 138.35Z" fill="black"/>
<path d="M225.738 70.2474C217.725 78.089 191.96 110.815 195.406 120.861C197.667 127.448 239.675 136.62 248.677 137.609C252.612 138.037 257.776 114.388 255.004 111.594C252.232 108.799 226.923 108.742 226.227 105.996C225.531 103.249 238.642 78.6213 240.795 69.3824C244.567 53.3001 230.804 65.2668 225.738 70.2474Z" fill="#D3766A"/>
<path d="M291.042 124.502C290.857 127.6 285.356 128.636 284.976 128.693C285.313 128.693 290.205 128.237 289.77 131.317C289.335 134.396 284.497 136.145 284.497 136.145C284.497 136.145 286.117 136.877 284.649 138.997C282.53 142.038 273.778 142.96 269.114 142.504C264.45 142.048 247.632 137.333 245.077 136.564L248.197 110.216C248.197 110.216 262.787 114.664 267.201 115.463H267.266C270.315 116.088 273.404 116.551 276.518 116.85C281.464 117.154 288.27 113.999 289.096 117.135C289.846 119.939 284.878 121.726 284.878 121.726C284.878 121.726 291.238 121.299 291.042 124.502Z" fill="#D3766A"/>
<path d="M284.628 121.716C277.518 123.788 273.996 123.617 266.843 122.068C266.817 122.066 266.791 122.072 266.769 122.085C266.747 122.098 266.731 122.116 266.722 122.138C266.713 122.159 266.713 122.183 266.721 122.204C266.729 122.226 266.745 122.245 266.767 122.258C273.616 124.33 277.997 125.109 284.759 122.011C285.085 121.859 284.965 121.621 284.628 121.716Z" fill="#263238"/>
<path d="M285.248 128.551C277.638 130.138 273.833 129.977 266.202 128.845C266.093 128.845 266.049 128.988 266.202 129.007C273.583 130.67 277.975 131.355 285.325 128.902C285.607 128.788 285.596 128.475 285.248 128.551Z" fill="#263238"/>
<path d="M284.4 136.107C276.92 137.181 272.724 137.162 265.473 135.232C265.441 135.23 265.409 135.237 265.383 135.252C265.356 135.267 265.336 135.29 265.326 135.316C265.316 135.343 265.316 135.371 265.327 135.398C265.338 135.424 265.359 135.446 265.386 135.461C272.55 138.055 277.779 138.112 284.411 136.306C284.857 136.192 284.867 136.04 284.4 136.107Z" fill="#263238"/>
<path d="M332.92 94.561C335.301 97.5266 340.53 100.872 341.367 103.458C341.609 104.086 341.613 104.765 341.378 105.396C341.143 106.026 340.681 106.573 340.062 106.955C340.062 106.955 343.324 107.82 343.683 110.282C343.867 111.546 341.715 112.915 341.715 112.915C342.443 113.145 343.084 113.546 343.568 114.074C344.051 114.603 344.358 115.238 344.454 115.909C344.585 117.658 342.411 118.761 342.411 118.761C342.411 118.761 344.487 120.519 343.954 122.344C342.867 126.051 325.875 128.589 322.211 123.504C320.494 121.127 324.69 120.709 324.69 120.709C324.69 120.709 318.482 120.044 317.797 116.993C317.113 113.942 322.592 113.675 322.592 113.675C322.592 113.675 316.591 112.982 316.243 109.75C315.895 106.518 321.418 106.946 321.418 106.946C321.418 106.946 317.2 105.273 317.58 102.745C318.211 98.5721 326.342 102.488 329.93 101.148L330.941 95.445L332.92 94.561Z" fill="#D3766A"/>
<path d="M337.246 98.7336C335.268 95.7585 339.008 91.1296 337.583 88.069C335.659 83.8868 330.908 88.972 330.897 95.4544L331.909 100.492L337.246 98.7336Z" fill="#D3766A"/>
<path d="M342.094 118.979C342.149 118.979 342.181 119.036 342.094 119.055C336.527 121.185 330.35 121.781 324.385 120.766C324.2 120.766 324.178 120.443 324.385 120.452C330.338 120.718 336.305 120.222 342.094 118.979Z" fill="#100E3A"/>
<path d="M341.801 112.934C341.867 112.934 341.899 113.01 341.801 113.039C335.633 115.33 328.73 115.616 322.341 113.847C322.124 113.78 322.004 113.523 322.265 113.58C326.69 114.607 336.398 114.16 341.801 112.934Z" fill="#100E3A"/>
<path d="M320.961 106.689C327.223 108.362 333.463 108.115 339.845 107.05C339.921 107.05 339.943 107.145 339.845 107.174C336.888 108.438 332.746 108.742 329.495 108.742C326.477 108.778 323.501 108.123 320.863 106.841C320.787 106.87 320.831 106.651 320.961 106.689Z" fill="#100E3A"/>
<path d="M210.832 84.3145L233.521 92.5362C233.521 92.5362 239.185 79.2293 241.414 70.0951C243.642 60.9608 241.533 55.7616 229.27 65.8273C222.391 71.4 216.21 77.5973 210.832 84.3145Z" fill="#263238"/>
<path d="M301.936 22.0191C301.154 26.2869 296.946 29.8512 296.946 29.8512C296.946 29.8512 291.163 29.0148 287.749 25.8782C284.89 23.2738 284.814 19.6334 287.314 18.1506C290.902 16.0215 294.065 21.772 294.065 21.772C294.065 21.772 292.924 15.4702 297.262 15.4322C300.284 15.4132 302.556 18.4738 301.936 22.0191Z" fill="#F1EB90"/>
<path d="M282.335 40.3921C280.347 41.7624 277.959 42.6185 275.443 42.8634C273.784 41.1943 272.692 39.1532 272.29 36.9703C272.018 34.366 273.855 32.2654 276.041 32.4174C279.172 32.6265 277.997 37.1699 277.997 37.1699C277.997 37.1699 280.618 33.1493 283.085 34.8412C284.814 36.0008 284.542 38.6242 282.335 40.3921Z" fill="#F1EB90"/>
<path d="M279.573 3.26577C278.89 4.44416 277.843 5.43188 276.551 6.11725C275.162 5.58349 273.973 4.7209 273.115 3.62696C272.202 2.26775 272.594 0.708936 273.822 0.300223C275.583 -0.279579 276.268 2.43884 276.268 2.43884C276.268 2.43884 276.518 -0.336611 278.355 0.0340819C279.638 0.281211 280.269 1.77349 279.573 3.26577Z" fill="#F1EB90"/>
</svg>
