<svg width="339" height="302" viewBox="0 0 339 302" fill="none" xmlns="http://www.w3.org/2000/svg">
<path d="M254.688 70.4966H238.434V77.0042H254.688V70.4966Z" fill="#EBEBEB"/>
<path d="M245.622 78.7026H229.367V85.2103H245.622V78.7026Z" fill="#EBEBEB"/>
<path d="M263.761 78.7026H247.506V85.2103H263.761V78.7026Z" fill="#EBEBEB"/>
<path d="M322.113 132.148H305.858V138.656H322.113V132.148Z" fill="#EBEBEB"/>
<path d="M322.113 8.83398H305.858V15.3416H322.113V8.83398Z" fill="#EBEBEB"/>
<path d="M331.179 17.0396H314.925V23.5472H331.179V17.0396Z" fill="#EBEBEB"/>
<path d="M72.3142 27.874H56.0596V34.3817H72.3142V27.874Z" fill="#EBEBEB"/>
<path d="M54.8938 151.601H71.1484V145.093H54.8938V151.601Z" fill="#EBEBEB"/>
<path d="M63.966 143.395H80.2207V136.887H63.966V143.395Z" fill="#EBEBEB"/>
<path d="M305.103 47.9673H196.127V52.4918H305.103V47.9673Z" fill="#EBEBEB"/>
<path d="M207.017 52.4976H202.235V67.4727H207.017V52.4976Z" fill="#EBEBEB"/>
<path d="M207.017 52.4976H202.235V57.1268H207.017V52.4976Z" fill="#DBDBDB"/>
<path d="M298.996 52.4976H294.214V67.4727H298.996V52.4976Z" fill="#EBEBEB"/>
<path d="M298.996 52.4976H294.214V57.1268H298.996V52.4976Z" fill="#DBDBDB"/>
<path d="M224.138 47.9669V19.1157H216.471V47.9669H224.138Z" fill="#C7C7C7"/>
<path d="M224.144 20.7442V17.5747H216.477V20.7442H224.144Z" fill="#DBDBDB"/>
<path d="M224.138 25.9785V24.8037H216.471V25.9785H224.138Z" fill="#DBDBDB"/>
<path d="M225.095 44.1871V41.0176H216.47V44.1871H225.095Z" fill="#DBDBDB"/>
<path d="M229.496 47.9727V14.312H224.137V47.9727H229.496Z" fill="#DBDBDB"/>
<path d="M228.403 30.4216V17.4761H225.187V30.4216H228.403Z" fill="#EBEBEB"/>
<path d="M267.622 44.3771L242.354 20.7129L238.587 24.3235L263.854 47.9877L267.622 44.3771Z" fill="#C7C7C7"/>
<path d="M260.942 39.5297L251.225 30.4287L248.963 32.5959L258.681 41.6969L260.942 39.5297Z" fill="#DBDBDB"/>
<path d="M238.593 47.9731V22.4077H229.489V47.9731H238.593Z" fill="#A6A6A6"/>
<path d="M238.6 45.2628V42.8784H229.496V45.2628H238.6Z" fill="#C7C7C7"/>
<path d="M238.593 41.3197V40.395H229.489V41.3197H238.593Z" fill="#C7C7C7"/>
<path d="M216.47 47.973V23.9487H210.184V47.973H216.47Z" fill="#A6A6A6"/>
<path d="M216.464 45.4255V43.1865H210.178V45.4255H216.464Z" fill="#C7C7C7"/>
<path d="M216.464 31.1423V28.9033H210.178V31.1423H216.464Z" fill="#C7C7C7"/>
<path d="M216.464 33.5384V32.6719H210.178V33.5384H216.464Z" fill="#C7C7C7"/>
<path d="M293.643 36.7721L292.955 38.4877L292.538 39.5345L291.857 41.2501L289.174 47.9729H274.7L272.011 41.2501L271.33 39.5345L270.912 38.4877L270.225 36.7721L275.565 29.3979L272.797 24.5303H291.083L288.302 29.3979L293.643 36.7721Z" fill="#DBDBDB"/>
<path d="M293.643 36.772L292.955 38.4876H270.912L270.225 36.772H293.643Z" fill="#A6A6A6"/>
<path d="M292.538 39.5342L291.857 41.2498H272.011L271.33 39.5342H292.538Z" fill="#A6A6A6"/>
<path d="M166.356 0H84.7021V118.615H166.356V0Z" fill="#EBEBEB"/>
<path d="M123.626 4.75146H89.1465V57.5105H123.626V4.75146Z" fill="white"/>
<path d="M161.899 4.75146H127.419V57.5105H161.899V4.75146Z" fill="white"/>
<path d="M123.626 61.1045H89.1465V113.864H123.626V61.1045Z" fill="white"/>
<path d="M161.899 61.1045H127.419V113.864H161.899V61.1045Z" fill="white"/>
<path d="M104.044 0H84.7021V169.699H104.044V0Z" fill="#DBDBDB"/>
<path d="M100.373 8.06641L100.521 26.4146L100.576 44.7628L100.68 81.4592L100.576 118.156L100.521 136.504L100.373 154.852L100.22 136.504L100.165 118.156L100.066 81.4592L100.171 44.7628L100.22 26.4146L100.373 8.06641Z" fill="#EBEBEB"/>
<path d="M91.4905 12.3232L91.6378 28.7058L91.7238 45.0883L91.7974 77.8534L91.7238 110.624L91.6378 127.007L91.4905 143.389L91.3432 127.007L91.2573 110.624L91.1836 77.8534L91.2573 45.0883L91.3432 28.7058L91.4905 12.3232Z" fill="#EBEBEB"/>
<path d="M95.9287 16.1904L96.0822 35.3761L96.1374 54.5559L96.2356 92.9272L96.1374 131.293L96.0822 150.478L95.9287 169.658L95.7814 150.478L95.7261 131.293L95.6279 92.9272L95.7261 54.5559L95.7814 35.3761L95.9287 16.1904Z" fill="#EBEBEB"/>
<path d="M88.1888 9.0376L88.3361 29.113L88.3913 49.1943L88.4957 89.3452L88.3913 129.502L88.3422 149.583L88.1888 169.659L88.0414 149.583L87.9862 129.502L87.8818 89.3452L87.9862 49.1943L88.0414 29.113L88.1888 9.0376Z" fill="#EBEBEB"/>
<path d="M147.007 169.699H166.35L166.35 0.00012207H147.007L147.007 169.699Z" fill="#DBDBDB"/>
<path d="M150.678 8.06641L150.825 26.4146L150.881 44.7628L150.985 81.4592L150.881 118.156L150.831 136.504L150.678 154.852L150.531 136.504L150.475 118.156L150.371 81.4592L150.475 44.7628L150.531 26.4146L150.678 8.06641Z" fill="#EBEBEB"/>
<path d="M159.561 12.3232L159.708 28.7058L159.794 45.0883L159.868 77.8534L159.794 110.624L159.708 127.007L159.561 143.389L159.407 127.007L159.321 110.624L159.254 77.8534L159.321 45.0883L159.407 28.7058L159.561 12.3232Z" fill="#EBEBEB"/>
<path d="M155.116 16.1904L155.27 35.3761L155.325 54.5559L155.423 92.9272L155.325 131.293L155.27 150.478L155.116 169.658L154.969 150.478L154.914 131.293L154.81 92.9272L154.914 54.5559L154.969 35.3761L155.116 16.1904Z" fill="#EBEBEB"/>
<path d="M162.863 9.0376L163.01 29.113L163.065 49.1943L163.17 89.3452L163.065 129.502L163.01 149.583L162.863 169.659L162.709 149.583L162.654 129.502L162.556 89.3452L162.66 49.1943L162.709 29.113L162.863 9.0376Z" fill="#EBEBEB"/>
<path d="M45.8516 177.498L82.4982 177.352L119.139 177.306L192.426 177.207L265.713 177.306L302.354 177.352L339 177.498L302.354 177.637L265.713 177.69L192.426 177.789L119.139 177.69L82.4982 177.637L45.8516 177.498Z" fill="#263238"/>
<path d="M290.543 244.546C312.173 244.546 329.707 241.825 329.707 238.468C329.707 235.112 312.173 232.391 290.543 232.391C268.914 232.391 251.38 235.112 251.38 238.468C251.38 241.825 268.914 244.546 290.543 244.546Z" fill="#EBEBEB"/>
<path d="M189.578 229.047C258.829 229.047 314.968 222.426 314.968 214.258C314.968 206.091 258.829 199.469 189.578 199.469C120.327 199.469 64.1875 206.091 64.1875 214.258C64.1875 222.426 120.327 229.047 189.578 229.047Z" fill="#EBEBEB"/>
<path d="M253.713 186.902H130.643L169.284 101.447H292.36L253.713 186.902Z" fill="#263238"/>
<path d="M170.193 103.268H291.538L253.713 186.902H132.828L170.193 103.268Z" fill="#EBEBEB"/>
<path d="M170.193 103.268C170.684 111.325 169.708 119.402 167.308 127.146C163.349 139.417 143.73 163.994 139.912 180.568L132.828 186.902H253.713L291.538 103.268H170.193Z" fill="#DBDBDB"/>
<path d="M170.192 103.268C169.755 110.136 168.642 116.95 166.865 123.622C165.972 126.97 164.719 130.222 163.127 133.328C161.543 136.434 159.812 139.452 158.069 142.471C154.539 148.472 150.973 154.456 147.701 160.58C146.05 163.639 144.527 166.751 143.097 169.885C141.68 173.046 140.436 176.274 139.371 179.557C140.326 176.238 141.475 172.972 142.815 169.775C144.196 166.594 145.675 163.453 147.277 160.365C150.469 154.183 154.03 148.193 157.535 142.174C159.29 139.167 161.034 136.161 162.624 133.078C164.207 130.004 165.475 126.793 166.411 123.488C167.371 120.179 168.147 116.825 168.738 113.439C169.358 110.095 169.83 106.687 170.192 103.268Z" fill="#DBDBDB"/>
<path d="M168.953 108.229C168.03 114.846 166.272 121.334 163.717 127.554C162.435 130.661 160.974 133.7 159.34 136.655C157.744 139.627 156.087 142.564 154.429 145.506C151.109 151.369 147.898 157.289 145.093 163.378C144.369 164.896 143.724 166.443 143.049 167.978C142.374 169.513 141.772 171.072 141.207 172.63C139.98 175.753 139.034 178.952 138.089 182.162C139.682 175.666 141.877 169.316 144.651 163.186C147.376 157.039 150.599 151.101 153.859 145.216C155.516 142.308 157.192 139.354 158.769 136.399C160.347 133.445 161.9 130.45 163.207 127.373C164.513 124.29 165.64 121.141 166.584 117.941C167.581 114.752 168.372 111.508 168.953 108.229Z" fill="#DBDBDB"/>
<path d="M208.589 191.641H326.791L286.781 103.244H170.193C170.193 103.244 169.732 116.62 177.467 135.986C184.753 154.247 198.233 165.209 208.589 191.641Z" fill="white"/>
<path d="M207.895 191.641C206.214 187.919 204.384 184.267 202.34 180.72C200.296 177.172 198.08 173.741 195.772 170.316C191.168 163.517 186.006 157.062 181.518 150.13C179.258 146.661 177.278 143.035 175.595 139.284C173.989 135.489 172.824 131.54 172.12 127.507C171.35 123.51 170.817 119.476 170.525 115.422C170.196 111.379 170.086 107.322 170.193 103.268C170.718 111.33 171.742 119.355 173.262 127.303C173.667 129.281 174.165 131.235 174.699 133.177C175.222 135.115 175.872 137.021 176.645 138.882C178.283 142.592 180.216 146.179 182.427 149.612C186.816 156.521 191.837 163.093 196.355 169.967C200.933 176.821 204.798 184.08 207.895 191.641Z" fill="white"/>
<path d="M171.347 105.821C171.924 109.246 172.654 112.648 173.514 116.016C174.373 119.383 175.355 122.727 176.466 126.018C178.636 132.634 181.496 139.027 185.005 145.105C186.781 148.133 188.581 151.151 190.407 154.16L195.901 163.168C197.742 166.181 199.51 169.211 201.18 172.305C202.849 175.399 204.372 178.556 205.734 181.778C202.722 175.458 199.302 169.319 195.495 163.395C191.757 157.428 188.049 151.438 184.446 145.367C180.939 139.249 178.109 132.804 176 126.135C173.846 119.5 172.29 112.704 171.347 105.821Z" fill="#EBEBEB"/>
<path d="M211.026 193.462H334.096L292.441 101.447H169.364L211.026 193.462Z" fill="#37474F"/>
<path d="M290.463 193.462H317.54L275.884 101.447H248.808L290.463 193.462Z" fill="#455A64"/>
<path d="M223.825 193.462H233.628L191.972 101.447H182.163L223.825 193.462Z" fill="#455A64"/>
<path d="M170.192 103.268H293.263L294.57 100.354H168.001L170.192 103.268Z" fill="#37474F"/>
<path d="M276.947 218.283H271.269V229.14H276.947V218.283Z" fill="#37474F"/>
<path d="M281.422 218.283H279.053V229.14H281.422V218.283Z" fill="#37474F"/>
<path d="M324.195 218.283H266.101V229.14H324.195V218.283Z" fill="#F3B664"/>
<path d="M318.915 218.283H313.237V229.14H318.915V218.283Z" fill="#37474F"/>
<path d="M297.192 210.182H256.893V218.283H297.192V210.182Z" fill="#455A64"/>
<path d="M314.576 210.182H297.191V218.283H314.576V210.182Z" fill="#455A64"/>
<path d="M297.192 211.019H256.893V217.439H297.192V211.019Z" fill="white"/>
<path d="M259.501 212.339C262.64 212.3 265.781 212.269 268.924 212.246L278.346 212.217L287.769 212.246C290.907 212.246 294.048 212.277 297.191 212.339C294.048 212.385 290.907 212.418 287.769 212.438L278.346 212.467L268.924 212.438C265.781 212.422 262.64 212.389 259.501 212.339Z" fill="#DBDBDB"/>
<path d="M259.501 213.601C262.64 213.555 265.781 213.524 268.924 213.508L278.346 213.479L287.769 213.508C290.907 213.508 294.048 213.539 297.191 213.601C294.048 213.648 290.907 213.679 287.769 213.694L278.364 213.723L268.942 213.694C265.787 213.679 262.64 213.648 259.501 213.601Z" fill="#DBDBDB"/>
<path d="M259.501 214.863C262.64 214.817 265.781 214.784 268.924 214.764H278.346H287.769C290.907 214.764 294.048 214.797 297.191 214.863C294.048 214.906 290.907 214.937 287.769 214.956L278.364 215.003L268.942 214.974C265.787 214.946 262.64 214.91 259.501 214.863Z" fill="#DBDBDB"/>
<path d="M259.501 216.119C262.64 216.073 265.781 216.042 268.924 216.026L278.346 215.997L287.769 216.026C290.907 216.026 294.048 216.057 297.191 216.119C294.048 216.166 290.907 216.199 287.769 216.218H278.346L268.924 216.189C265.781 216.193 262.64 216.17 259.501 216.119Z" fill="#DBDBDB"/>
<path d="M277.241 240.277H311.003V229.14H277.241V240.277Z" fill="#263238"/>
<path d="M262.669 240.277H277.235V229.14H262.669V240.277Z" fill="#263238"/>
<path d="M277.241 239.12H311.003V230.298H277.241V239.12Z" fill="white"/>
<path d="M308.812 237.305C306.185 237.352 303.554 237.383 300.918 237.398L293.024 237.427L285.118 237.398C282.49 237.398 279.859 237.367 277.224 237.305C279.855 237.259 282.486 237.228 285.118 237.212L293.012 237.183L300.906 237.212C303.545 237.224 306.181 237.255 308.812 237.305Z" fill="#DBDBDB"/>
<path d="M308.812 235.572C306.184 235.619 303.553 235.652 300.918 235.671H293.023H285.129C282.502 235.671 279.871 235.638 277.235 235.572C279.867 235.526 282.498 235.495 285.129 235.479H293.023H300.918C303.549 235.498 306.18 235.529 308.812 235.572Z" fill="#DBDBDB"/>
<path d="M308.812 233.845C306.185 233.888 303.554 233.919 300.918 233.938L293.024 233.967L285.118 233.938C282.49 233.938 279.859 233.907 277.224 233.845C279.855 233.799 282.486 233.766 285.118 233.746L293.012 233.717L300.906 233.746C303.545 233.766 306.181 233.799 308.812 233.845Z" fill="#DBDBDB"/>
<path d="M308.812 232.112C306.185 232.159 303.554 232.19 300.918 232.205L293.024 232.234L285.118 232.205C282.49 232.205 279.859 232.174 277.224 232.112C279.855 232.066 282.486 232.033 285.118 232.013H293.012L300.906 232.042C303.545 232.038 306.181 232.062 308.812 232.112Z" fill="#DBDBDB"/>
<path d="M317.375 202.621H264.283V210.21H317.375V202.621Z" fill="#F3B664"/>
<path opacity="0.2" d="M317.375 202.621H264.283V210.21H317.375V202.621Z" fill="#282828"/>
<path d="M289.696 204.174H269.273V208.727H289.696V204.174Z" fill="white"/>
<path d="M315.312 189.705H274.982V202.592H315.312V189.705Z" fill="#F3B664"/>
<path d="M311.034 189.705H307.277V202.592H311.034V189.705Z" fill="#263238"/>
<path d="M304.809 189.705H303.354V202.592H304.809V189.705Z" fill="#263238"/>
<path d="M68.978 288.071L21.9021 276.324L0 287.449L46.0508 301.988L68.978 288.071Z" fill="#F3B664"/>
<path d="M66.0623 287.867L45.0687 300.662L1.90918 287.059L23.0869 276.399C23.0869 276.399 35.9777 278.01 36.5915 278.19C37.2054 278.37 42.8834 280.604 42.8834 280.604C42.8834 280.604 50.8635 281.924 51.4221 282.098C51.9807 282.273 66.0623 287.867 66.0623 287.867Z" fill="white"/>
<path d="M42.8959 280.61C41.259 281.738 39.5975 282.853 37.9115 283.954L32.8718 287.228L27.7953 290.45C26.101 291.512 24.3946 292.563 22.6758 293.602C24.3127 292.474 25.9762 291.361 27.6664 290.264L32.6999 286.99L37.7764 283.768C39.4706 282.703 41.1648 281.633 42.8959 280.61Z" fill="#DBDBDB"/>
<path d="M61.4218 287.751C59.8872 287.181 58.3587 286.6 56.8364 286.007L52.2816 284.204L51.1399 283.75L50.5813 283.541C50.3849 283.489 50.1823 283.454 49.9674 283.407L47.5673 282.872C45.9713 282.512 44.3753 282.128 42.7793 281.709C44.4162 282 46.0327 282.308 47.6287 282.634L50.0472 283.128C50.2498 283.175 50.4462 283.204 50.6611 283.262C50.8759 283.32 51.0601 283.401 51.2749 283.471L52.4228 283.913C53.939 284.53 55.4491 285.14 56.953 285.774C58.4569 286.408 59.9486 287.083 61.4218 287.751Z" fill="#DBDBDB"/>
<path d="M59.9726 288.571C58.4462 288.002 56.9197 287.42 55.3933 286.827L50.8324 285.03L49.6968 284.576C49.5065 284.506 49.3162 284.425 49.1321 284.367C48.9479 284.309 48.7392 284.274 48.5182 284.227L46.1181 283.692C44.5221 283.332 42.9261 282.954 41.3301 282.558C42.9506 282.849 44.5651 283.14 46.1795 283.477L48.598 283.977C48.7945 284.018 48.997 284.053 49.2119 284.105C49.4267 284.157 49.6047 284.245 49.8257 284.32L50.9736 284.762C52.4837 285.373 53.9999 285.983 55.5038 286.623C57.0077 287.263 58.4871 287.903 59.9726 288.571Z" fill="#DBDBDB"/>
<path d="M58.5115 289.385C57.0137 288.804 55.5159 288.263 54.0304 287.676L49.5801 285.931L48.469 285.489C48.1084 285.332 47.7347 285.204 47.3518 285.105L45.0069 284.541C43.4395 284.192 41.8783 283.826 40.3232 283.442C41.907 283.717 43.4866 284.01 45.0621 284.32C45.8479 284.471 46.6336 284.646 47.4193 284.814C47.816 284.913 48.204 285.042 48.5795 285.198L49.6967 285.634C51.1761 286.216 52.6554 286.832 54.1225 287.46C55.5896 288.089 57.0567 288.734 58.5115 289.385Z" fill="#DBDBDB"/>
<path d="M57.051 290.2C55.5737 289.653 54.1025 289.093 52.6374 288.519L48.2423 286.774C47.518 286.495 46.7813 286.164 46.057 285.937L43.7489 285.414C42.2082 285.059 40.6797 284.698 39.1328 284.32C40.692 284.588 42.2491 284.877 43.8042 285.187C44.5838 285.338 45.3511 285.501 46.1307 285.681C46.9102 285.861 47.6223 286.222 48.3589 286.507C49.8199 287.089 51.2808 287.67 52.7234 288.31C54.1659 288.95 55.6146 289.56 57.051 290.2Z" fill="#DBDBDB"/>
<path d="M55.5841 291.02C54.119 290.473 52.654 289.915 51.1889 289.345L46.8122 287.6C46.0878 287.321 45.3512 287.019 44.633 286.757C43.9148 286.495 43.0984 286.414 42.3372 286.234C40.7965 285.885 39.268 285.524 37.7334 285.146C39.2926 285.414 40.8456 285.7 42.3925 286.007C43.1659 286.158 43.9332 286.321 44.7067 286.501C45.4801 286.681 46.1922 287.048 46.9288 287.333C48.3836 287.914 49.8385 288.496 51.281 289.124C52.7235 289.752 54.1599 290.357 55.5841 291.02Z" fill="#DBDBDB"/>
<path d="M54.1223 291.834C52.6552 291.287 51.1942 290.735 49.7394 290.165L45.375 288.42C44.6506 288.141 43.9202 287.838 43.2081 287.577C42.496 287.315 41.6796 287.234 40.9184 287.053C39.3838 286.704 37.8553 286.342 36.333 285.966C37.8799 286.233 39.4248 286.52 40.9676 286.827C41.741 286.978 42.5083 287.141 43.2818 287.321C44.0552 287.501 44.7611 287.868 45.4916 288.152C46.9403 288.734 48.389 289.316 49.8254 289.944C51.2618 290.572 52.6982 291.194 54.1223 291.834Z" fill="#DBDBDB"/>
<path d="M52.6622 292.683C51.2135 292.142 49.771 291.595 48.3653 291.031L44.0683 289.333C43.3563 289.054 42.6381 288.752 41.926 288.49C41.2139 288.228 40.4282 288.141 39.6793 287.961C38.1693 287.618 36.6592 287.263 35.1553 286.885C36.6817 287.145 38.2081 287.428 39.7346 287.734C40.4957 287.891 41.2446 288.03 42.0181 288.234C42.7915 288.438 43.4668 288.781 44.1911 289.071C45.6152 289.653 47.0455 290.235 48.488 290.816C49.9306 291.398 51.2565 292.02 52.6622 292.683Z" fill="#DBDBDB"/>
<path d="M51.2012 293.468C49.7526 292.927 48.3039 292.381 46.8675 291.816L42.5706 290.118C41.8524 289.845 41.1342 289.537 40.4282 289.281C39.7223 289.025 38.9243 288.926 38.1754 288.752C36.6654 288.403 35.1553 288.048 33.6514 287.676C35.186 287.932 36.7206 288.217 38.2307 288.519C38.998 288.682 39.7469 288.816 40.5203 289.025C41.2938 289.234 41.969 289.566 42.6872 289.857C44.1175 290.438 45.5477 291.02 46.9841 291.601C48.4205 292.183 49.7894 292.84 51.2012 293.468Z" fill="#DBDBDB"/>
<path d="M49.9851 294.428C48.5181 293.846 47.051 293.317 45.5961 292.741L41.2317 290.996L39.0525 290.136C38.3343 289.909 37.5363 289.769 36.7752 289.589C35.2405 289.234 33.7059 288.879 32.1836 288.496C33.7366 288.757 35.2897 289.048 36.8304 289.356C37.6039 289.525 38.365 289.647 39.1508 289.88C39.9365 290.112 40.624 290.461 41.3483 290.735C42.797 291.316 44.2457 291.898 45.6821 292.532C47.1185 293.166 48.5303 293.765 49.9851 294.428Z" fill="#DBDBDB"/>
<path d="M48.531 295.253C47.0701 294.701 45.6091 294.142 44.1543 293.561L39.8083 291.816L37.623 290.938C36.9109 290.705 36.1129 290.572 35.3579 290.391C33.8294 290.036 32.2887 289.682 30.7725 289.304C32.3234 289.563 33.8703 289.848 35.4131 290.159C36.1866 290.327 36.9416 290.444 37.7273 290.688C38.5131 290.932 39.1883 291.269 39.9126 291.543C41.3552 292.124 42.8039 292.706 44.2096 293.351C45.6153 293.997 47.0946 294.613 48.531 295.253Z" fill="#DBDBDB"/>
<path d="M47.0513 296.172C45.6333 295.625 44.2153 295.067 42.8096 294.497C41.4039 293.927 40.0043 293.334 38.5925 292.753L36.487 291.892C36.1488 291.739 35.7922 291.626 35.425 291.555L34.3078 291.299C32.8223 290.956 31.3368 290.607 29.8574 290.234C31.3675 290.479 32.8653 290.758 34.3692 291.06L35.4864 291.299C35.6767 291.339 35.8608 291.374 36.0511 291.432C36.2414 291.491 36.4194 291.566 36.6036 291.636C37.3095 291.909 38.0154 292.217 38.7152 292.491C40.1087 293.072 41.5144 293.654 42.9017 294.282C44.289 294.91 45.6701 295.532 47.0513 296.172Z" fill="#DBDBDB"/>
<path d="M45.5906 296.922C44.1481 296.428 42.7117 295.928 41.2937 295.404C39.8757 294.881 38.4393 294.352 36.9968 293.834C36.2786 293.584 35.5604 293.293 34.8544 293.066L32.6507 292.45C31.1836 292.025 29.7165 291.595 28.2617 291.13C29.7534 291.473 31.2389 291.839 32.7182 292.217L34.9342 292.799C35.6831 293.032 36.3829 293.299 37.1011 293.567C38.5252 294.107 39.9555 294.637 41.3673 295.201C42.7792 295.765 44.1849 296.341 45.5906 296.922Z" fill="#DBDBDB"/>
<path d="M24.4496 290.305C23.0745 289.851 21.7241 289.362 20.3736 288.856L19.3669 288.484C19.0328 288.362 18.6903 288.261 18.3418 288.182L16.2486 287.635L12.056 286.519C10.6626 286.152 9.27527 285.751 7.88184 285.355C9.28755 285.687 10.6994 286.001 12.1051 286.344L16.3161 287.379L18.4154 287.903C18.7731 287.985 19.1256 288.086 19.4713 288.205C19.815 288.327 20.1465 288.461 20.4841 288.589C21.8284 289.124 23.1482 289.688 24.4496 290.305Z" fill="#DBDBDB"/>
<path d="M25.8671 289.252C24.5166 288.864 23.1785 288.461 21.8525 288.042C21.1896 287.838 20.5266 287.606 19.8637 287.425L17.838 286.867L13.7927 285.762C12.4423 285.396 11.1041 284.995 9.75977 284.599C11.1225 284.931 12.4852 285.239 13.8418 285.582L17.9055 286.605C19.2722 286.927 20.6204 287.315 21.9446 287.769C23.2705 288.234 24.5903 288.728 25.8671 289.252Z" fill="#DBDBDB"/>
<path d="M27.2365 288.315C25.8983 287.943 24.5663 287.553 23.2465 287.123L21.2699 286.501L19.2504 286.018L15.2051 285.029C13.8547 284.704 12.5103 284.343 11.166 284C12.5288 284.285 13.8915 284.582 15.2481 284.861L19.3179 285.762L21.3559 286.233C22.0311 286.419 22.6818 286.652 23.3386 286.873C24.6522 287.315 25.9474 287.803 27.2365 288.315Z" fill="#DBDBDB"/>
<path d="M28.4088 287.623C27.0829 287.181 25.7938 286.652 24.4986 286.163C24.186 286.031 23.8614 285.926 23.5287 285.849L22.5036 285.628L20.4534 285.198C17.7238 284.62 14.9942 284.023 12.2646 283.407C15.0188 283.895 17.7668 284.411 20.5086 284.954L22.565 285.367L23.5901 285.582C23.9397 285.655 24.281 285.76 24.6091 285.896C25.9057 286.41 27.1739 286.987 28.4088 287.623Z" fill="#DBDBDB"/>
<path d="M29.692 286.774C28.3661 286.338 27.077 285.809 25.7818 285.321C25.4694 285.186 25.1448 285.079 24.8119 285.001L23.7868 284.786L21.7366 284.355C19.0029 283.774 16.2733 283.177 13.5479 282.564C16.3061 283.052 19.0541 283.568 21.7918 284.111L23.8482 284.524L24.8795 284.733C25.2288 284.81 25.5699 284.917 25.8984 285.053C27.1936 285.564 28.4598 286.139 29.692 286.774Z" fill="#DBDBDB"/>
<path d="M30.9742 285.931C29.6483 285.489 28.3593 284.96 27.064 284.471C26.7515 284.339 26.4268 284.234 26.0942 284.157L25.069 283.959L23.0188 283.529C20.2892 282.951 17.5596 282.356 14.8301 281.744C17.5883 282.232 20.3363 282.746 23.074 283.285L25.1304 283.704L26.1617 283.913C26.5118 283.987 26.8532 284.094 27.1807 284.233C28.4764 284.734 29.7427 285.301 30.9742 285.931Z" fill="#DBDBDB"/>
<path d="M32.2575 285.088C30.9315 284.646 29.6425 284.117 28.3472 283.628C28.0347 283.496 27.71 283.391 27.3774 283.314L26.3522 283.093L24.302 282.663C21.5704 282.081 18.8388 281.5 16.1133 280.872C18.8715 281.36 21.6195 281.876 24.3572 282.419L26.4136 282.831L27.4449 283.047C27.7951 283.118 28.1365 283.223 28.4639 283.361C29.7591 283.874 31.0253 284.45 32.2575 285.088Z" fill="#DBDBDB"/>
<path d="M33.9147 284.407C32.5888 283.965 31.2997 283.436 30.0045 282.948C29.6915 282.816 29.367 282.711 29.0346 282.634L28.0095 282.413L25.9592 281.982C23.2297 281.404 20.5001 280.809 17.7705 280.197C20.5287 280.685 23.2767 281.199 26.0145 281.738L28.0709 282.157L29.096 282.366C29.4456 282.439 29.7868 282.544 30.115 282.68C31.4116 283.194 32.6798 283.771 33.9147 284.407Z" fill="#DBDBDB"/>
<path d="M35.5231 283.732C34.1972 283.29 32.9142 282.761 31.6129 282.273C31.2992 282.143 30.9748 282.038 30.643 281.959L29.6179 281.744L27.5676 281.313C24.834 280.732 22.1044 280.135 19.3789 279.522C22.1371 280.01 24.8851 280.526 27.6229 281.069L29.6793 281.482L30.7105 281.691C31.0601 281.767 31.4013 281.874 31.7295 282.011C33.0257 282.52 34.2921 283.095 35.5231 283.732Z" fill="#DBDBDB"/>
<path d="M36.8064 282.889C35.4805 282.447 34.1976 281.918 32.9024 281.435C32.5926 281.301 32.2698 281.196 31.9386 281.121L30.9135 280.918L28.8878 280.522C26.15 279.987 23.4123 279.446 20.6807 278.876C23.4389 279.315 26.193 279.782 28.943 280.278L30.9994 280.656L32.0307 280.854C32.3808 280.925 32.7223 281.03 33.0497 281.168C34.3329 281.679 35.5869 282.253 36.8064 282.889Z" fill="#DBDBDB"/>
<path d="M38.0948 282.046C36.775 281.604 35.4921 281.075 34.1969 280.592C33.8892 280.458 33.5685 280.353 33.2393 280.278L32.208 280.092L30.1516 279.737C27.4077 279.255 24.6577 278.766 21.9199 278.254C24.6822 278.642 27.4404 279.053 30.1946 279.487L32.2632 279.83L33.2945 280.011C33.6449 280.081 33.9865 280.186 34.3135 280.325C35.6051 280.835 36.8674 281.409 38.0948 282.046Z" fill="#DBDBDB"/>
<path d="M39.3723 281.197C38.0525 280.761 36.7757 280.232 35.4866 279.749C35.1791 279.616 34.8583 279.513 34.529 279.441L33.4978 279.307L31.4352 279.01C28.6791 278.621 25.9106 278.225 23.1729 277.801C25.9433 278.092 28.7097 278.413 31.4721 278.766L33.5407 279.04L34.5781 279.197C34.9302 279.258 35.2727 279.361 35.5971 279.505C36.8856 280.007 38.1457 280.571 39.3723 281.197Z" fill="#DBDBDB"/>
<path d="M44.0991 298.097C42.6259 297.636 41.1588 297.163 39.6978 296.678L35.3211 295.201C34.5906 294.963 33.8602 294.689 33.142 294.462L30.926 293.794C29.4466 293.34 27.9795 292.875 26.5186 292.386C28.0163 292.774 29.508 293.162 30.9935 293.549L33.2218 294.183C33.9707 294.416 34.695 294.66 35.4193 294.916C36.8741 295.428 38.3351 295.928 39.7776 296.463C41.2202 296.998 42.6627 297.545 44.0991 298.097Z" fill="#DBDBDB"/>
<path d="M23.3939 291.334C21.9023 290.903 20.4229 290.461 18.9435 290.002L14.5177 288.612L12.314 287.908L10.0734 287.286C8.58793 286.861 7.10242 286.425 5.62305 285.966C7.13311 286.309 8.63703 286.681 10.141 287.059L12.3876 287.641C13.1427 287.862 13.8731 288.088 14.6159 288.333C16.083 288.815 17.5562 289.287 19.0172 289.792C20.4781 290.298 21.9391 290.81 23.3939 291.334Z" fill="#DBDBDB"/>
<path d="M251.653 211.218C250.425 210.357 210.077 198.511 208.242 198.976C208.039 199.029 207.628 200.75 205.786 205.013C205.7 205.211 186.518 227.246 186.518 227.246L212.772 240.372L227.774 220.36C227.774 220.36 246.521 216.993 248.479 216.289C250.437 215.586 252.942 212.079 251.653 211.218Z" fill="#EC8F5E"/>
<path d="M251.653 211.218C250.425 210.357 210.077 198.511 208.242 198.976C208.039 199.029 207.628 200.75 205.786 205.013C205.7 205.211 203.073 208.101 201.79 209.665C203.46 211.026 219.592 221.797 223.993 225.367L227.756 220.343C227.756 220.343 246.503 216.976 248.461 216.272C250.419 215.568 252.942 212.079 251.653 211.218Z" fill="#F3B664"/>
<path d="M215.92 202.686C215.716 203.123 215.454 203.533 215.141 203.908C214.525 204.652 213.735 205.249 212.833 205.652C211.913 206.057 210.898 206.231 209.886 206.158C208.884 206.064 207.913 205.771 207.038 205.298C206.989 205.298 207.038 205.199 207.081 205.228C207.952 205.629 208.912 205.83 209.88 205.812C210.849 205.795 211.8 205.561 212.655 205.129C213.471 204.729 214.179 204.156 214.723 203.454C214.986 203.111 215.211 202.742 215.393 202.355C215.487 202.167 215.567 201.972 215.632 201.773C215.699 201.57 215.718 201.401 215.927 201.285C215.976 201.259 216.033 201.253 216.087 201.267C216.141 201.281 216.187 201.315 216.215 201.36C216.448 201.709 216.068 202.372 215.92 202.686Z" fill="white"/>
<path d="M243.169 217.424C242.283 217.11 241.521 216.543 240.99 215.801C240.397 215.048 239.906 214.227 239.529 213.358C239.149 212.509 238.883 211.618 238.737 210.706C238.669 210.263 238.626 209.817 238.608 209.369C238.565 208.912 238.594 208.451 238.694 208.002C238.699 207.985 238.71 207.97 238.725 207.959C238.74 207.948 238.758 207.942 238.777 207.942C238.796 207.942 238.814 207.948 238.829 207.959C238.844 207.97 238.855 207.985 238.86 208.002C238.946 208.392 238.927 208.816 238.976 209.212C239.025 209.659 239.099 210.104 239.197 210.544C239.386 211.399 239.657 212.236 240.008 213.044C240.649 214.682 241.806 216.093 243.322 217.086C243.362 217.11 243.391 217.146 243.404 217.188C243.418 217.231 243.415 217.276 243.397 217.317C243.378 217.357 243.345 217.39 243.304 217.41C243.262 217.429 243.214 217.434 243.169 217.424Z" fill="white"/>
<path d="M224.011 220.761C219.1 217.412 214.232 214.027 209.279 210.724C207.879 209.787 206.492 208.834 205.08 207.92C205.031 207.891 205.08 207.827 205.129 207.857C210.319 210.81 215.335 214.029 220.156 217.499C221.519 218.493 222.839 219.534 224.152 220.581C224.169 220.601 224.178 220.626 224.178 220.651C224.179 220.677 224.17 220.702 224.154 220.722C224.138 220.743 224.115 220.758 224.09 220.765C224.064 220.772 224.036 220.771 224.011 220.761Z" fill="white"/>
<path d="M205.547 208.665C205.53 208.7 205.507 208.731 205.479 208.758L205.369 208.828L205.154 208.962C205.007 209.055 204.853 209.148 204.7 209.229C204.393 209.392 204.086 209.543 203.767 209.689C203.724 209.689 203.681 209.642 203.724 209.619C204.018 209.444 204.307 209.264 204.596 209.078L205.013 208.805L205.234 208.659C205.301 208.608 205.378 208.57 205.461 208.549C205.476 208.547 205.492 208.55 205.505 208.556C205.519 208.562 205.531 208.571 205.54 208.583C205.549 208.595 205.554 208.609 205.555 208.623C205.556 208.638 205.554 208.652 205.547 208.665Z" fill="white"/>
<path d="M207.836 210.258C207.821 210.295 207.795 210.327 207.763 210.351L207.652 210.427L207.443 210.561C207.29 210.654 207.143 210.747 206.983 210.828C206.682 210.991 206.369 211.142 206.056 211.288C206.007 211.288 205.97 211.241 206.013 211.218C206.308 211.043 206.596 210.857 206.879 210.671L207.302 210.404L207.523 210.258C207.588 210.204 207.666 210.167 207.75 210.148C207.765 210.147 207.779 210.149 207.792 210.155C207.805 210.161 207.817 210.17 207.825 210.181C207.834 210.192 207.839 210.204 207.841 210.218C207.843 210.232 207.841 210.245 207.836 210.258Z" fill="white"/>
<path d="M210.119 211.846C210.104 211.881 210.081 211.913 210.052 211.939L209.941 212.009L209.726 212.143C209.579 212.241 209.426 212.329 209.272 212.416C208.965 212.579 208.658 212.73 208.339 212.869C208.296 212.869 208.253 212.829 208.296 212.8C208.591 212.631 208.91 212.445 209.168 212.259C209.303 212.166 209.444 212.079 209.585 211.991L209.806 211.846C209.87 211.79 209.948 211.752 210.033 211.735C210.048 211.733 210.064 211.734 210.078 211.739C210.092 211.744 210.105 211.753 210.114 211.765C210.123 211.776 210.128 211.79 210.129 211.804C210.13 211.819 210.127 211.833 210.119 211.846Z" fill="white"/>
<path d="M212.428 213.457C212.411 213.493 212.386 213.525 212.354 213.55L212.244 213.62L212.035 213.754C211.882 213.847 211.734 213.94 211.575 214.021C211.274 214.184 210.961 214.335 210.648 214.481C210.638 214.485 210.627 214.485 210.617 214.482C210.607 214.479 210.599 214.472 210.594 214.464C210.588 214.455 210.587 214.445 210.589 214.435C210.591 214.426 210.596 214.417 210.605 214.411C210.899 214.236 211.188 214.056 211.47 213.87L211.894 213.597L212.115 213.451C212.182 213.4 212.259 213.362 212.342 213.341C212.357 213.341 212.371 213.344 212.384 213.351C212.397 213.357 212.408 213.367 212.417 213.378C212.425 213.389 212.43 213.403 212.432 213.416C212.434 213.43 212.433 213.444 212.428 213.457Z" fill="white"/>
<path d="M214.699 215.05C214.679 215.085 214.654 215.116 214.625 215.143L214.514 215.219L214.3 215.353C214.152 215.446 213.999 215.539 213.845 215.62C213.538 215.783 213.232 215.934 212.912 216.08C212.869 216.08 212.826 216.033 212.869 216.01C213.164 215.835 213.453 215.655 213.741 215.463L214.158 215.196L214.379 215.05C214.445 214.997 214.523 214.959 214.607 214.94C214.621 214.938 214.637 214.939 214.651 214.945C214.665 214.95 214.677 214.959 214.686 214.97C214.695 214.981 214.702 214.994 214.704 215.009C214.706 215.023 214.704 215.037 214.699 215.05Z" fill="white"/>
<path d="M216.983 216.65C216.967 216.686 216.942 216.719 216.909 216.743L216.798 216.813L216.59 216.952L216.129 217.22C215.828 217.382 215.515 217.534 215.202 217.679C215.193 217.68 215.183 217.678 215.174 217.674C215.166 217.67 215.159 217.663 215.154 217.655C215.15 217.647 215.148 217.638 215.149 217.628C215.15 217.619 215.153 217.611 215.159 217.603C215.454 217.435 215.743 217.249 216.025 217.063L216.448 216.795L216.669 216.65C216.733 216.594 216.812 216.556 216.897 216.539C216.911 216.538 216.925 216.541 216.938 216.547C216.952 216.552 216.963 216.561 216.972 216.572C216.98 216.583 216.986 216.596 216.987 216.61C216.989 216.623 216.988 216.637 216.983 216.65Z" fill="white"/>
<path d="M219.272 218.243C219.251 218.276 219.226 218.308 219.198 218.336L219.088 218.406L218.873 218.54C218.726 218.633 218.572 218.726 218.419 218.807C218.112 218.976 217.805 219.121 217.486 219.267C217.443 219.267 217.4 219.22 217.443 219.197C217.737 219.022 218.026 218.842 218.314 218.656L218.732 218.383L218.953 218.237C219.019 218.186 219.097 218.151 219.18 218.133C219.195 218.131 219.21 218.132 219.224 218.138C219.238 218.143 219.25 218.152 219.259 218.163C219.269 218.174 219.275 218.187 219.277 218.201C219.279 218.215 219.277 218.23 219.272 218.243Z" fill="white"/>
<path d="M221.556 219.843C221.542 219.88 221.516 219.913 221.482 219.936C221.448 219.964 221.411 219.989 221.372 220.011L221.163 220.145C221.016 220.238 220.862 220.331 220.703 220.412C220.402 220.575 220.089 220.726 219.776 220.872C219.733 220.872 219.69 220.825 219.733 220.802C220.027 220.628 220.346 220.447 220.598 220.255L221.022 219.988L221.243 219.843C221.309 219.791 221.387 219.753 221.47 219.732C221.485 219.729 221.5 219.73 221.514 219.736C221.529 219.741 221.541 219.75 221.55 219.761C221.559 219.773 221.564 219.787 221.565 219.801C221.566 219.815 221.563 219.83 221.556 219.843Z" fill="white"/>
<path d="M223.845 221.442C223.826 221.476 223.801 221.508 223.772 221.535L223.661 221.611C223.589 221.652 223.52 221.696 223.452 221.744L222.992 222.012C222.685 222.175 222.378 222.326 222.059 222.471C222.016 222.471 221.979 222.425 222.016 222.396C222.317 222.227 222.63 222.041 222.888 221.855L223.305 221.587L223.526 221.442C223.592 221.389 223.67 221.351 223.753 221.331C223.768 221.329 223.783 221.331 223.797 221.336C223.811 221.342 223.824 221.35 223.833 221.362C223.842 221.373 223.848 221.386 223.85 221.4C223.853 221.414 223.851 221.429 223.845 221.442Z" fill="white"/>
<path d="M220.505 230.607L197.351 213.341C197.351 213.341 173.571 242.128 173.166 242.326C173.166 242.326 156.702 242.512 141.62 245.356C138.925 245.862 124.586 239.232 108.546 252.015L110.958 275.818C136.181 279.237 171.367 274.073 186.363 269.421C200.525 265.053 220.505 230.607 220.505 230.607Z" fill="#263238"/>
<path d="M217.264 232.858C212.053 228.787 206.798 224.763 201.304 221.006C199.745 219.936 198.143 218.93 196.609 217.83C196.559 217.79 196.504 217.871 196.553 217.912C197.892 218.895 199.156 219.965 200.47 220.977C201.783 221.989 203.091 223 204.417 223.995C207.062 225.978 209.794 227.851 212.507 229.741C214.06 230.822 215.626 231.881 217.191 232.939C217.265 232.974 217.338 232.899 217.264 232.858Z" fill="#455A64"/>
<path d="M199.487 222.942C195.319 228.176 191.133 233.41 186.983 238.697C184.909 241.329 182.83 243.962 180.747 246.594C179.826 247.757 178.905 248.822 177.383 249.229C176.624 249.406 175.853 249.529 175.075 249.595L172.497 249.892C165.654 250.694 158.808 251.493 151.957 252.288C150.251 252.515 148.53 252.636 146.807 252.648C145.087 252.582 143.375 252.388 141.688 252.067C138.621 251.57 135.505 251.412 132.4 251.596C126.247 252.048 120.239 253.594 114.691 256.155C113.985 256.475 113.285 256.801 112.591 257.138C112.536 257.167 112.591 257.243 112.646 257.219C118.364 254.567 124.532 252.895 130.865 252.282C133.984 251.988 137.129 252.046 140.233 252.456C141.89 252.683 143.529 253.038 145.199 253.183C146.915 253.307 148.641 253.269 150.349 253.067C153.786 252.724 157.218 252.276 160.649 251.875L170.962 250.671C172.675 250.467 174.393 250.299 176.094 250.06C177.487 249.953 178.802 249.404 179.826 248.502C180.858 247.392 181.806 246.215 182.662 244.977C183.705 243.622 184.761 242.273 185.811 240.907C189.93 235.626 194.012 230.322 198.088 225.03L199.622 223.041C199.702 222.965 199.536 222.861 199.487 222.942Z" fill="#455A64"/>
<path d="M186.174 169.654C184.878 170.468 159.035 202.093 158.857 203.885C158.857 204.082 160.386 205.048 163.965 208.171C164.136 208.316 164.308 209.549 164.474 211.398C165.088 218.348 165.591 234.05 165.591 234.05L192.662 227.74L188.034 200.988L186.837 194.039C186.837 194.039 190.072 176.226 190.053 174.231C190.035 172.236 187.469 168.811 186.174 169.654Z" fill="#EC8F5E"/>
<path d="M186.174 169.654C184.878 170.468 159.035 202.093 158.857 203.885C158.857 204.082 160.386 205.048 163.965 208.171C164.136 208.316 164.308 209.549 164.474 211.398C168.906 209.374 182.509 203.419 188.034 201.006L186.837 194.056C186.837 194.056 190.072 176.243 190.053 174.248C190.035 172.254 187.469 168.811 186.174 169.654Z" fill="#F3B664"/>
<path d="M165.217 198.371C165.576 198.705 165.89 199.08 166.15 199.488C166.681 200.295 167.005 201.21 167.095 202.157C167.168 203.116 166.985 204.076 166.561 204.949C166.119 205.805 165.492 206.564 164.72 207.176C164.677 207.211 164.621 207.147 164.664 207.112C165.361 206.477 165.891 205.696 166.211 204.831C166.531 203.966 166.632 203.042 166.506 202.134C166.392 201.271 166.073 200.444 165.573 199.715C165.326 199.359 165.04 199.03 164.72 198.732C164.564 198.582 164.398 198.442 164.222 198.313C164.038 198.179 163.879 198.104 163.836 197.877C163.829 197.825 163.843 197.772 163.876 197.73C163.91 197.687 163.959 197.659 164.014 197.65C164.437 197.563 164.959 198.127 165.217 198.371Z" fill="white"/>
<path d="M189.335 179.354C188.712 180.032 187.882 180.51 186.96 180.721C186.009 180.982 185.027 181.13 184.038 181.163C183.065 181.202 182.092 181.124 181.14 180.93C180.677 180.838 180.22 180.72 179.772 180.576C179.305 180.455 178.86 180.269 178.452 180.023C178.438 180.013 178.427 179.998 178.422 179.982C178.417 179.965 178.418 179.948 178.424 179.932C178.43 179.916 178.441 179.902 178.456 179.892C178.471 179.882 178.489 179.877 178.507 179.878C178.924 179.936 179.336 180.105 179.735 180.198C180.192 180.302 180.655 180.384 181.122 180.442C182.033 180.579 182.956 180.631 183.878 180.599C185.722 180.61 187.524 180.077 189.034 179.075C189.231 178.976 189.47 179.186 189.335 179.354Z" fill="white"/>
<path d="M186.241 198.354C180.796 200.843 175.339 203.303 169.919 205.844C168.384 206.565 166.85 207.269 165.321 208.019C165.266 208.019 165.235 207.967 165.284 207.938C170.495 205.02 175.868 202.37 181.379 200C182.951 199.337 184.547 198.732 186.143 198.139C186.173 198.126 186.207 198.126 186.238 198.137C186.268 198.149 186.293 198.171 186.306 198.2C186.319 198.228 186.319 198.26 186.307 198.289C186.295 198.318 186.271 198.341 186.241 198.354Z" fill="white"/>
<path d="M166.229 207.985C166.252 208.017 166.268 208.052 166.278 208.089C166.281 208.132 166.281 208.175 166.278 208.217C166.278 208.299 166.278 208.38 166.278 208.456C166.278 208.63 166.309 208.799 166.315 208.968C166.315 209.299 166.315 209.631 166.315 209.962C166.315 210.009 166.229 210.009 166.229 209.962C166.229 209.636 166.174 209.305 166.137 208.979C166.137 208.822 166.1 208.659 166.088 208.502C166.076 208.345 166.088 208.334 166.057 208.247C166.036 208.168 166.036 208.086 166.057 208.008C166.061 207.99 166.07 207.974 166.084 207.962C166.098 207.949 166.116 207.941 166.134 207.939C166.153 207.936 166.173 207.939 166.189 207.948C166.206 207.956 166.22 207.969 166.229 207.985Z" fill="white"/>
<path d="M168.795 206.839C168.822 206.869 168.841 206.905 168.851 206.944C168.851 206.984 168.851 207.031 168.851 207.072C168.851 207.112 168.851 207.229 168.851 207.31C168.87 207.48 168.88 207.651 168.881 207.822C168.881 208.153 168.881 208.485 168.881 208.816C168.881 208.863 168.795 208.863 168.795 208.816C168.795 208.485 168.74 208.159 168.703 207.833L168.648 207.357C168.648 207.269 168.648 207.188 168.648 207.101C168.626 207.022 168.626 206.94 168.648 206.862C168.651 206.847 168.659 206.833 168.671 206.823C168.682 206.812 168.697 206.805 168.713 206.802C168.729 206.8 168.746 206.802 168.76 206.808C168.775 206.815 168.787 206.826 168.795 206.839Z" fill="white"/>
<path d="M171.367 205.693C171.391 205.725 171.41 205.76 171.422 205.798C171.422 205.839 171.422 205.885 171.422 205.926C171.422 205.967 171.422 206.083 171.422 206.164C171.442 206.334 171.452 206.505 171.453 206.676C171.453 207.009 171.453 207.341 171.453 207.67C171.453 207.711 171.373 207.717 171.367 207.67C171.367 207.339 171.318 207.013 171.281 206.688L171.226 206.211C171.226 206.124 171.226 206.042 171.195 205.955C171.18 205.876 171.18 205.795 171.195 205.716C171.193 205.706 171.194 205.695 171.197 205.684C171.2 205.674 171.205 205.664 171.212 205.655C171.218 205.647 171.227 205.64 171.237 205.634C171.247 205.629 171.257 205.625 171.269 205.623C171.28 205.622 171.292 205.622 171.303 205.625C171.314 205.628 171.324 205.633 171.333 205.639C171.342 205.645 171.35 205.654 171.356 205.663C171.362 205.672 171.365 205.682 171.367 205.693Z" fill="white"/>
<path d="M173.94 204.547C173.965 204.578 173.981 204.614 173.989 204.652C173.992 204.695 173.992 204.737 173.989 204.78C173.989 204.856 173.989 204.937 173.989 205.019C173.989 205.187 173.989 205.356 174.02 205.524C174.02 205.858 174.02 206.189 174.02 206.519C174.02 206.53 174.015 206.54 174.007 206.548C173.999 206.555 173.988 206.56 173.977 206.56C173.965 206.56 173.954 206.555 173.946 206.548C173.938 206.54 173.934 206.53 173.934 206.519C173.934 206.187 173.885 205.862 173.842 205.536C173.842 205.373 173.811 205.216 173.792 205.053C173.774 204.891 173.792 204.885 173.762 204.803C173.743 204.723 173.743 204.64 173.762 204.559C173.76 204.537 173.768 204.515 173.783 204.498C173.799 204.481 173.821 204.47 173.845 204.469C173.868 204.467 173.891 204.475 173.909 204.49C173.927 204.504 173.938 204.525 173.94 204.547Z" fill="white"/>
<path d="M176.512 203.402C176.534 203.434 176.551 203.469 176.561 203.506V203.634C176.561 203.71 176.561 203.791 176.561 203.873C176.561 203.954 176.561 204.21 176.591 204.379C176.591 204.71 176.591 205.042 176.591 205.373C176.591 205.42 176.505 205.426 176.505 205.373C176.505 205.048 176.45 204.722 176.413 204.396C176.413 204.233 176.383 204.076 176.364 203.913C176.346 203.751 176.364 203.745 176.334 203.663C176.312 203.583 176.312 203.499 176.334 203.419C176.331 203.397 176.338 203.374 176.353 203.357C176.368 203.34 176.39 203.328 176.413 203.326C176.437 203.324 176.461 203.33 176.479 203.345C176.497 203.359 176.509 203.379 176.512 203.402Z" fill="white"/>
<path d="M179.078 202.256C179.104 202.287 179.123 202.322 179.133 202.361C179.136 202.402 179.136 202.442 179.133 202.483C179.133 202.564 179.133 202.646 179.133 202.727C179.152 202.895 179.163 203.064 179.164 203.233C179.164 203.565 179.164 203.896 179.164 204.228C179.164 204.274 179.078 204.274 179.078 204.228C179.078 203.902 179.022 203.576 178.986 203.245C178.986 203.088 178.949 202.931 178.937 202.768C178.924 202.605 178.937 202.599 178.906 202.518C178.884 202.438 178.884 202.354 178.906 202.274C178.903 202.252 178.91 202.23 178.924 202.214C178.939 202.197 178.96 202.186 178.983 202.184C179.005 202.181 179.028 202.188 179.046 202.201C179.064 202.215 179.075 202.235 179.078 202.256Z" fill="white"/>
<path d="M181.649 201.111C181.675 201.142 181.693 201.177 181.704 201.215C181.704 201.256 181.704 201.297 181.704 201.338C181.704 201.378 181.704 201.5 181.704 201.576C181.704 201.75 181.735 201.919 181.735 202.088C181.735 202.421 181.735 202.753 181.735 203.082C181.735 203.129 181.655 203.129 181.649 203.082C181.649 202.757 181.6 202.425 181.563 202.099L181.508 201.622C181.508 201.541 181.508 201.454 181.508 201.372C181.49 201.292 181.49 201.209 181.508 201.128C181.526 201.076 181.618 201.058 181.649 201.111Z" fill="white"/>
<path d="M184.221 199.959C184.246 199.99 184.263 200.026 184.27 200.064C184.273 200.106 184.273 200.149 184.27 200.192C184.27 200.273 184.27 200.355 184.27 200.43C184.27 200.605 184.27 200.773 184.301 200.942C184.301 201.275 184.301 201.607 184.301 201.936C184.301 201.983 184.221 201.983 184.215 201.936C184.215 201.611 184.166 201.279 184.123 200.954C184.123 200.796 184.092 200.634 184.074 200.477C184.056 200.32 184.074 200.308 184.043 200.221C184.026 200.142 184.026 200.061 184.043 199.982C184.045 199.963 184.054 199.944 184.068 199.93C184.083 199.915 184.102 199.906 184.122 199.903C184.143 199.9 184.164 199.905 184.182 199.915C184.2 199.925 184.214 199.94 184.221 199.959Z" fill="white"/>
<path d="M186.794 198.813C186.819 198.844 186.836 198.88 186.843 198.918V199.046C186.843 199.127 186.843 199.203 186.843 199.284C186.843 199.453 186.843 199.622 186.874 199.796C186.874 200.13 186.874 200.461 186.874 200.791C186.874 200.837 186.788 200.837 186.788 200.791C186.788 200.459 186.732 200.133 186.696 199.808C186.696 199.651 186.665 199.488 186.646 199.331C186.628 199.174 186.646 199.162 186.616 199.075C186.594 198.997 186.594 198.915 186.616 198.837C186.613 198.814 186.619 198.791 186.633 198.773C186.648 198.755 186.669 198.744 186.693 198.741C186.716 198.737 186.74 198.743 186.759 198.757C186.778 198.771 186.791 198.791 186.794 198.813Z" fill="white"/>
<path d="M189.414 208.496L162.092 213.992C162.092 213.992 165.37 250.235 165.247 250.63C165.247 250.63 151.301 252.375 140.135 251.793C140.135 251.793 121.357 244.058 108.534 257.405L106.692 280.819C142.412 284.925 190.243 283.023 196.584 271.514C203.496 258.952 189.414 208.496 189.414 208.496Z" fill="#263238"/>
<path d="M165.199 250.479C162.166 250.479 157.084 251.02 154.051 251.136C151.019 251.252 148.042 251.41 145.04 251.561C143.315 251.642 141.866 251.561 140.129 251.7C140.116 251.7 140.104 251.705 140.094 251.714C140.085 251.723 140.08 251.734 140.08 251.747C140.08 251.759 140.085 251.771 140.094 251.78C140.104 251.788 140.116 251.793 140.129 251.793C146.064 252.098 152.014 251.987 157.931 251.462C159.662 251.316 163.511 250.927 165.229 250.683C165.352 250.671 165.493 250.479 165.199 250.479Z" fill="#455A64"/>
<path d="M138.441 249.328C137.32 248.151 136.06 247.101 134.684 246.199C134.641 246.164 134.586 246.24 134.622 246.275C135.821 247.342 136.946 248.48 137.992 249.682C139.128 250.841 140.173 252.077 141.117 253.381C141.117 253.41 141.178 253.381 141.16 253.352C140.407 251.923 139.496 250.574 138.441 249.328Z" fill="#455A64"/>
<path d="M198.511 254.067C198.481 252.788 198.358 251.508 198.253 250.229C198.051 247.699 197.787 245.175 197.431 242.669C196.713 237.597 195.78 232.567 194.589 227.583C194.251 226.187 193.907 224.797 193.533 223.413C193.194 221.996 192.769 220.598 192.262 219.226C192.219 219.115 192.011 219.127 192.035 219.255C192.225 220.482 192.575 221.703 192.858 222.913C193.14 224.123 193.441 225.367 193.717 226.6C194.276 229.107 194.791 231.631 195.258 234.16C196.191 239.185 196.94 244.233 197.572 249.281C197.75 250.706 197.897 252.131 198.057 253.555C198.143 254.265 198.444 259.953 198.456 260.697C198.456 260.761 198.567 260.755 198.56 260.697C198.499 260.069 198.56 255.969 198.511 254.067Z" fill="#455A64"/>
<path d="M165.192 246.548C165.13 245.844 164.885 243.14 164.578 242.617C164.575 242.61 164.57 242.605 164.564 242.601C164.558 242.598 164.551 242.596 164.544 242.596C164.537 242.596 164.53 242.598 164.524 242.601C164.518 242.605 164.513 242.61 164.51 242.617C164.308 243.198 164.584 245.996 164.652 246.688C164.719 247.38 165.118 250.386 165.266 250.625C165.271 250.632 165.277 250.638 165.285 250.642C165.293 250.646 165.302 250.648 165.312 250.648C165.321 250.648 165.33 250.646 165.338 250.642C165.346 250.638 165.353 250.632 165.358 250.625C165.379 249.264 165.324 247.903 165.192 246.548Z" fill="#455A64"/>
<path d="M190.366 258.109C190.268 253.55 189.936 248.996 189.451 244.46C188.494 235.51 186.935 226.623 185.265 217.772C185.056 216.684 184.854 215.603 184.651 214.515C184.651 214.457 184.547 214.48 184.559 214.544C186.118 223.396 187.72 232.253 188.782 241.18C189.304 245.611 189.709 250.054 189.906 254.509C190.004 256.672 190.065 258.836 190.053 261.005C190.083 262.821 189.906 264.634 189.525 266.414C189.151 268.177 188.282 269.813 187.008 271.148C185.641 272.411 183.98 273.353 182.159 273.898C180.183 274.516 178.162 274.996 176.112 275.335C173.853 275.757 171.582 276.102 169.299 276.37C160.159 277.457 150.92 277.469 141.725 277.295C132.296 277.114 122.867 276.783 113.439 276.684C112.26 276.684 111.075 276.655 109.897 276.632C109.884 276.632 109.871 276.637 109.862 276.645C109.853 276.654 109.848 276.666 109.848 276.678C109.848 276.69 109.853 276.702 109.862 276.711C109.871 276.72 109.884 276.725 109.897 276.725C114.758 276.87 119.62 277.068 124.482 277.213C129.343 277.359 134.119 277.492 138.938 277.614C148.244 277.859 157.58 277.981 166.849 277.033C171.343 276.629 175.799 275.902 180.176 274.858C182.021 274.448 183.787 273.77 185.412 272.846C186.958 271.917 188.195 270.592 188.979 269.025C190.648 265.681 190.452 261.726 190.366 258.109Z" fill="#455A64"/>
<path d="M189.457 212.55C182.779 213.533 176.118 214.585 169.52 215.969C167.641 216.359 165.781 216.83 163.891 217.185C163.829 217.185 163.854 217.284 163.921 217.272C165.585 216.981 167.267 216.795 168.936 216.539C170.606 216.283 172.276 216.028 173.939 215.748C177.26 215.167 180.55 214.498 183.847 213.835C185.731 213.451 187.61 213.05 189.482 212.643C189.549 212.631 189.519 212.538 189.457 212.55Z" fill="#455A64"/>
<path d="M49.8438 245.577C50.1998 243.879 52.072 237.761 54.7545 233.946C56.0497 232.096 60.3467 227.165 61.9243 227.99C63.5018 228.816 62.3724 230.369 62.3724 230.369C62.3724 230.369 64.5208 228.543 66.0247 229.514C67.5287 230.485 65.6994 232.841 65.6994 232.841C65.6994 232.841 68.0443 231.096 69.4746 232.189C70.9048 233.283 68.6397 235.335 68.6397 235.335C68.6397 235.335 70.7084 233.666 71.4941 235.016C72.4333 236.644 68.253 239.313 66.9332 241.413C66.6325 241.895 61.5866 251.544 61.5866 251.544L49.8438 245.577Z" fill="#EC8F5E"/>
<path d="M68.6098 235.399C65.5405 237.371 64.5522 238.737 63.0852 241.907C63.0852 241.971 62.9501 241.948 62.9747 241.878C64.1103 238.65 65.0863 236.766 68.4993 235.254C68.6834 235.178 68.7878 235.306 68.6098 235.399Z" fill="#263238"/>
<path d="M65.7673 232.736C62.7656 235.062 61.6852 236.522 59.8928 239.714C59.886 239.722 59.8768 239.727 59.8667 239.729C59.8566 239.731 59.846 239.731 59.8364 239.727C59.8268 239.723 59.8188 239.716 59.8135 239.708C59.8082 239.699 59.8059 239.689 59.8069 239.68C61.2862 236.382 62.2991 234.527 65.62 232.59C65.7734 232.526 65.9085 232.631 65.7673 232.736Z" fill="#263238"/>
<path d="M62.1148 230.584C59.377 233.021 58.1186 234.591 56.805 237.923C56.7962 237.936 56.7832 237.945 56.7681 237.951C56.753 237.956 56.7365 237.956 56.7212 237.951C56.706 237.947 56.6927 237.937 56.6834 237.925C56.6742 237.913 56.6695 237.898 56.67 237.883C57.6644 234.393 59.2174 232.398 62.0227 230.514C62.2191 230.386 62.2867 230.456 62.1148 230.584Z" fill="#263238"/>
<path d="M61.2741 254.062C61.2741 254.062 64.9203 251.328 66.2462 249.793C67.5721 248.258 70.2853 240.82 68.6218 240.174C66.4733 239.342 64.018 243.344 63.0972 245.455C63.0972 245.455 58.1373 243.518 55.731 246.036C53.3248 248.554 61.2741 254.062 61.2741 254.062Z" fill="#EC8F5E"/>
<path d="M67.9523 240.133C65.4171 240.715 64.3736 243.553 63.3116 245.53C63.2968 245.56 63.2747 245.586 63.2473 245.606C63.2199 245.626 63.1878 245.64 63.1538 245.646C63.1197 245.652 63.0845 245.651 63.0512 245.642C63.0178 245.633 62.9872 245.616 62.9617 245.594C60.8255 244.914 57.6028 244.547 55.6876 245.891C55.6831 245.898 55.6769 245.904 55.6694 245.908C55.6619 245.913 55.6535 245.915 55.6447 245.916C55.636 245.917 55.6272 245.915 55.619 245.912C55.6109 245.909 55.6037 245.904 55.598 245.897C55.5924 245.891 55.5884 245.884 55.5864 245.875C55.5844 245.867 55.5845 245.859 55.5867 245.851C55.5888 245.843 55.593 245.835 55.5988 245.829C55.6046 245.823 55.6119 245.818 55.6201 245.815C57.4616 244.105 60.6598 244.221 62.9494 245.111C64.0114 243.064 65.1838 240.255 67.9461 240.104C67.9646 240.104 67.9646 240.127 67.9523 240.133Z" fill="#263238"/>
<path d="M78.75 254.347C72.8743 262.718 64.9276 269.602 55.6018 274.399C49.6168 277.504 43.3249 273.881 42.3182 271.59C40.1083 266.681 47.806 247.647 50.5805 243.809C51.4092 242.646 52.6431 244.972 56.5103 248.147C58.3518 249.659 65.3681 249.27 64.8709 251.148C64.5149 252.486 62.2191 256.277 62.5383 256.254C63.3363 256.19 69.1433 252.183 75.294 248.438C83.7651 243.28 80.7266 251.602 78.75 254.347Z" fill="#EC8F5E"/>
<path d="M62.5507 256.103C62.1824 256.568 56.8726 266.844 55.6081 268.961C55.6016 268.972 55.5999 268.985 55.6033 268.997C55.6068 269.009 55.6151 269.019 55.6265 269.025C55.6379 269.031 55.6514 269.033 55.6641 269.03C55.6767 269.026 55.6875 269.018 55.694 269.008C57.0445 266.937 58.4441 264.896 59.6411 262.744C60.2549 261.68 60.8687 260.616 61.323 259.505C61.5501 258.97 61.765 258.435 61.986 257.9C62.2653 257.34 62.4853 256.756 62.6428 256.155C62.6489 256.103 62.5875 256.045 62.5507 256.103Z" fill="#263238"/>
<path d="M63.0479 255.283L76.5525 260.186C76.5525 260.186 80.7021 254.521 82.5375 251.078C84.956 246.519 83.7652 244.6 77.6267 246.949C73.563 248.525 63.0479 255.283 63.0479 255.283Z" fill="#F3B664"/>
<path d="M64.9138 254.562C66.9333 255.143 68.9406 255.76 70.9233 256.458C71.9116 256.801 72.8938 257.167 73.8759 257.539C74.8581 257.912 75.785 258.388 76.7671 258.749C76.8224 258.749 76.7672 258.848 76.7303 258.825C75.7727 258.417 74.7476 258.127 73.7654 257.766C72.7833 257.406 71.8011 257.051 70.8128 256.702C68.8363 256.004 66.8658 255.3 64.8769 254.643C64.8217 254.626 64.8585 254.55 64.9138 254.562Z" fill="#263238"/>
<path d="M89.6954 255.603H87.1357C86.9699 254.44 86.5955 252.491 85.9816 251.462C86.2857 252.822 86.4013 254.214 86.3254 255.603H84.0787C83.8823 253.951 83.3482 250.95 81.9793 248.851C82.0407 249.072 83.1702 253.114 82.9001 255.603H63.1097C62.2319 251.642 62.9133 247.339 62.5695 248.281C61.7988 250.655 61.3855 253.119 61.3418 255.603H59.1381C59.0757 254.603 59.1354 253.6 59.3161 252.613C59.6046 251.299 58.469 253.899 58.3217 255.603H56.9221C56.9221 255.603 56.6398 249.962 58.8189 245.949C61.7101 240.598 60.0466 238.621 61.2068 232.771C62.5511 226.112 71.7895 218.057 81.0217 226.472C82.6045 227.776 83.8763 229.383 84.7527 231.188C85.629 232.993 86.0898 234.954 86.1044 236.94C86.1474 241.703 85.0056 244.216 86.7182 246.664C88.6375 249.292 89.6751 252.407 89.6954 255.603Z" fill="#263238"/>
<path d="M56.0071 254.806C55.7746 252.775 55.9836 250.721 56.6209 248.769C56.9165 247.787 57.2984 246.83 57.7627 245.908C57.9837 245.449 58.2599 244.995 58.4932 244.553C58.734 244.121 58.9392 243.672 59.107 243.21C59.729 241.303 60.1283 239.337 60.2979 237.348C60.4268 236.341 60.5741 235.335 60.789 234.341C60.9981 233.341 61.3234 232.366 61.7588 231.433C61.1893 233.372 60.8597 235.366 60.7767 237.377C60.6969 238.377 60.5925 239.389 60.4452 240.395C60.2911 241.413 60.0384 242.416 59.6902 243.39C59.5012 243.875 59.2777 244.347 59.0211 244.803C58.7633 245.263 58.5116 245.681 58.2783 246.135C57.801 247.025 57.3907 247.946 57.0506 248.892C56.7134 249.841 56.4528 250.813 56.271 251.799C56.1728 252.294 56.1114 252.788 56.0623 253.288C56.016 253.793 55.9976 254.299 56.0071 254.806Z" fill="#263238"/>
<path d="M86.092 236.911C86.135 237.72 86.092 238.528 86.092 239.33C86.092 240.133 86.092 240.936 86.1841 241.732C86.2567 242.517 86.3984 243.296 86.6077 244.059C86.6568 244.25 86.7243 244.437 86.7795 244.64L86.8287 244.78L86.8716 244.896L87.0067 245.146C87.2031 245.483 87.4302 245.826 87.6573 246.17C88.0932 246.862 88.529 247.571 88.885 248.31C89.2623 249.047 89.5783 249.811 89.8304 250.595C90.0772 251.379 90.2477 252.183 90.3399 252.997C90.4289 253.805 90.4289 254.62 90.3399 255.428C90.2801 253.826 89.9571 252.243 89.3823 250.735C88.793 249.242 88.0378 247.813 87.1294 246.472C86.9085 246.123 86.6875 245.786 86.4726 245.414C86.4235 245.32 86.3744 245.222 86.3253 245.117C86.3253 245.065 86.2762 245.006 86.2578 244.954L86.2148 244.803C86.1534 244.605 86.0859 244.407 86.0429 244.221C85.8484 243.421 85.7353 242.605 85.7053 241.785C85.6816 240.97 85.7103 240.154 85.7912 239.342C85.8772 238.51 85.9754 237.714 86.092 236.911Z" fill="#263238"/>
<path d="M106.324 281.691C106.324 281.691 121.106 268.781 110.94 250.13C110.94 250.13 104.507 251.095 102.819 250.781C97.6996 249.839 93.8631 247.152 87.964 245.07C82.0649 242.988 78.0013 244.628 75.6564 248.42C75.0732 249.362 72.2004 263.192 74.2998 268.1C75.951 271.956 82.6419 273.073 82.6419 273.073C82.6419 273.073 95.0723 282.866 106.324 281.691Z" fill="#F3B664"/>
<path d="M83.2438 247.781C83.2009 248.415 80.8314 252.835 77.8788 253.166C76.9212 253.271 76.0741 248.328 76.0741 248.328L75.9268 247.973L73.8213 243.053L79.4871 238.197L80.3097 237.545C80.3097 237.545 80.7946 238.93 81.3777 240.657C81.3777 240.738 81.433 240.814 81.4575 240.901C81.4821 240.988 81.5312 241.087 81.5558 241.18C81.6478 241.436 81.7399 241.704 81.8259 241.965C81.9118 242.227 81.9548 242.361 82.0161 242.547C82.0775 242.733 82.1389 242.966 82.2064 243.181C82.6636 244.69 83.0102 246.227 83.2438 247.781Z" fill="#EC8F5E"/>
<path d="M81.3777 240.657C81.0825 242.177 80.4421 243.619 79.5009 244.882C78.5598 246.145 77.3403 247.2 75.9268 247.973L73.8213 243.053L79.4871 238.197L80.3097 237.545C80.3097 237.545 80.7946 238.93 81.3777 240.657Z" fill="#263238"/>
<path d="M64.4903 237.58C66.6878 246.664 72.679 246.443 74.7476 245.989C76.626 245.582 82.9609 243.96 81.7639 234.707C80.5669 225.455 75.4106 223.553 71.0707 224.274C66.7308 224.995 62.2927 228.496 64.4903 237.58Z" fill="#EC8F5E"/>
<path d="M65.9271 235.812C66.1376 235.721 66.3426 235.618 66.5409 235.504C66.768 235.422 66.9601 235.27 67.0872 235.074C67.1149 235.006 67.1178 234.931 67.0956 234.862C67.0734 234.792 67.0272 234.732 66.9645 234.69C66.8269 234.622 66.6725 234.591 66.5179 234.601C66.3632 234.61 66.2142 234.659 66.0867 234.742C65.8077 234.873 65.5893 235.097 65.4728 235.37C65.4544 235.431 65.4531 235.494 65.4692 235.555C65.4852 235.616 65.518 235.672 65.5642 235.717C65.6103 235.762 65.6682 235.794 65.732 235.811C65.7957 235.828 65.863 235.828 65.9271 235.812Z" fill="#263238"/>
<path d="M72.5071 234.126C72.2739 234.16 72.059 234.16 71.8257 234.178C71.5917 234.233 71.3445 234.211 71.126 234.114C71.0627 234.071 71.0163 234.01 70.9941 233.939C70.9719 233.869 70.9751 233.793 71.0032 233.724C71.0789 233.598 71.1887 233.492 71.3212 233.419C71.4538 233.345 71.6046 233.306 71.7582 233.306C72.0729 233.26 72.3944 233.326 72.6606 233.492C72.7192 233.533 72.7639 233.589 72.7892 233.654C72.8144 233.719 72.8192 233.789 72.8029 233.856C72.7867 233.924 72.75 233.985 72.6974 234.033C72.6449 234.081 72.5787 234.113 72.5071 234.126Z" fill="#263238"/>
<path d="M71.9736 236.737C71.9736 236.708 72.035 236.737 72.0412 236.778C72.2008 237.394 72.4893 238.074 73.1338 238.121V238.156C72.3972 238.249 72.0227 237.342 71.9736 236.737Z" fill="#263238"/>
<path d="M72.3605 235.946C73.3795 235.597 74.0425 237.545 73.0972 237.871C72.1518 238.197 71.5134 236.237 72.3605 235.946Z" fill="#263238"/>
<path d="M72.8019 235.923C73.0168 235.981 73.2623 236.121 73.4833 236.074C73.7043 236.027 73.8639 235.76 73.9621 235.492C73.9621 235.463 73.9621 235.492 74.0051 235.492C74.0976 235.661 74.1186 235.857 74.0638 236.039C74.009 236.222 73.8826 236.378 73.7104 236.475C73.5203 236.534 73.3139 236.523 73.1321 236.444C72.9502 236.366 72.8061 236.225 72.7283 236.051C72.6853 236.022 72.716 235.9 72.8019 235.923Z" fill="#263238"/>
<path d="M67.8852 237.679C67.8852 237.679 67.8422 237.719 67.8852 237.743C68.1123 238.324 68.2719 239.063 67.7686 239.441C67.7686 239.441 67.7686 239.482 67.7686 239.476C68.4254 239.179 68.2044 238.208 67.8852 237.679Z" fill="#263238"/>
<path d="M67.0998 237.226C66.0501 237.47 66.6455 239.441 67.6154 239.214C68.5853 238.988 67.9776 237.016 67.0998 237.226Z" fill="#263238"/>
<path d="M66.7001 237.475C66.5712 237.621 66.4668 237.853 66.2704 237.923C66.0739 237.993 65.8161 237.83 65.6074 237.667C65.6074 237.667 65.6074 237.667 65.6074 237.696C65.7118 238.074 65.9635 238.429 66.3625 238.4C66.7615 238.371 66.8904 237.976 66.8719 237.58C66.8413 237.504 66.7553 237.435 66.7001 237.475Z" fill="#263238"/>
<path d="M69.8435 240.058C69.8435 240.058 70.0031 241 70.1443 241.43C70.1443 241.471 70.2732 241.43 70.4266 241.43C70.8369 241.386 71.2262 241.235 71.5513 240.993C71.8764 240.752 72.1245 240.43 72.2682 240.063C72.2682 240.011 72.2129 239.988 72.1822 240.023C71.7291 240.565 71.1022 240.953 70.396 241.128C70.3284 241.017 70.175 239.505 70.1013 239.517C69.7605 239.649 69.4404 239.826 69.1498 240.04C68.7508 238.08 68.6833 236.08 68.2598 234.132C68.2598 234.062 68.1309 234.073 68.1309 234.132C68.1303 236.28 68.3565 238.423 68.8061 240.529C68.8613 240.773 69.6839 240.18 69.8435 240.058Z" fill="#263238"/>
<path d="M81.8199 235.3C79.3645 235.952 76.2953 229.13 75.9392 228.287C76.1418 228.828 77.1669 231.7 77.0073 231.887C76.7469 231.961 76.4749 231.993 76.2032 231.98C76.086 231.634 75.9402 231.298 75.7674 230.973C75.6937 230.816 75.8165 231.34 75.9392 231.991H75.4482C75.2272 231.244 74.901 230.528 74.4783 229.863C74.3187 229.607 74.6563 230.863 74.7422 232.02C72.4894 232.07 70.2495 232.356 68.0636 232.875C67.4497 233.038 66.9341 233.201 66.4799 233.358C66.1914 232.509 65.9888 231.567 65.9888 231.782C65.9821 232.351 66.0335 232.92 66.1423 233.48L65.4732 233.742C65.0066 232.549 64.9637 230.438 64.8593 230.799C64.5593 231.89 64.4801 233.024 64.626 234.143C63.8158 234.562 63.6255 234.8 63.5334 234.591C62.9913 232.134 63.3918 229.575 64.6629 227.374C66.7745 223.768 72.5692 221.273 77.3634 224.396C77.3634 224.396 80.7395 225.28 82.1145 227.932C83.4896 230.584 83.2256 234.928 81.8199 235.3Z" fill="#263238"/>
<path d="M80.4141 235.737C80.4141 235.737 81.5128 232.34 83.0782 232.625C84.6435 232.91 84.4654 237.394 83.0782 238.441C82.9121 238.584 82.7174 238.693 82.5056 238.763C82.2939 238.832 82.0694 238.86 81.8458 238.846C81.6223 238.831 81.4041 238.774 81.2045 238.677C81.0048 238.581 80.8279 238.447 80.6842 238.284L80.4141 235.737Z" fill="#EC8F5E"/>
<path d="M82.9917 233.911V233.951C82.0402 234.702 81.764 235.836 81.7271 236.952C81.7553 236.83 81.8112 236.714 81.891 236.614C81.9708 236.514 82.0726 236.432 82.1894 236.373C82.3061 236.313 82.435 236.279 82.5672 236.272C82.6993 236.264 82.8316 236.284 82.9548 236.33C82.9917 236.33 82.9548 236.388 82.9548 236.394C82.7436 236.394 82.5376 236.457 82.3651 236.572C82.1926 236.688 82.0619 236.851 81.9911 237.039C81.8794 237.359 81.8013 237.688 81.7578 238.022C81.7578 238.127 81.5491 238.133 81.5491 238.022V238.016C81.0642 236.679 81.543 234.527 82.9917 233.911Z" fill="#263238"/>
<path d="M91.6598 249.415C99.6951 258.871 110.689 274.934 106.085 278.679C98.541 284.838 76.1418 288.804 70.9978 289.508C68.7818 289.816 63.9692 276.132 65.4056 274.311C66.842 272.491 90.5733 270.688 90.7206 269.304C90.7943 268.519 88.6888 261.837 86.1536 253.526C83.2256 243.937 89.3579 246.74 91.6598 249.415Z" fill="#EC8F5E"/>
<path d="M69.2722 273.09C69.2722 273.09 62.4523 273.195 57.9897 273.463C55.5343 273.614 51.2373 274.236 49.4879 275.137C46.8361 276.487 36.6462 283.733 38.4386 286.111C40.0715 288.269 47.9901 280.982 47.9901 280.982C47.9901 280.982 39.3226 287.664 41.778 289.915C44.2333 292.165 52.0476 282.797 52.0476 282.797C52.0476 282.797 43.3003 289.851 46.2283 291.787C48.4443 293.253 56.0069 285.158 56.0069 285.158C56.0069 285.158 48.5303 291.282 50.7401 292.881C53.1955 294.625 60.6537 287.589 60.6537 287.589C66.9948 290.758 71.3838 289.81 74.4223 288.787C75.1589 288.537 69.2722 273.09 69.2722 273.09Z" fill="#EC8F5E"/>
<path d="M50.8451 278.493C49.7954 279.243 48.7273 279.993 47.7759 280.819C46.8244 281.645 45.8545 282.523 44.9706 283.442C43.7951 284.62 42.7654 285.921 41.9014 287.321C43.6447 284.942 47.0822 281.901 48.0398 281.063C48.9974 280.226 49.9428 279.319 50.9188 278.516C50.9065 278.504 50.8697 278.475 50.8451 278.493Z" fill="#263238"/>
<path d="M54.0919 281.773C52.7967 282.785 51.4708 283.744 50.2185 284.814C48.9663 285.884 47.8982 286.984 46.7319 288.123C46.6459 288.211 46.7319 288.228 46.8178 288.123C48.0455 287.03 49.2364 286.105 50.4579 285.024C51.6795 283.942 52.8581 282.82 54.141 281.784C54.141 281.784 54.1103 281.761 54.0919 281.773Z" fill="#263238"/>
<path d="M57.4131 284.116C55.3927 285.623 53.5414 287.322 51.8885 289.188C51.8026 289.281 51.8885 289.292 51.999 289.188C53.8099 287.443 55.2156 286.105 57.4868 284.163C57.5052 284.151 57.4561 284.087 57.4131 284.116Z" fill="#263238"/>
<path d="M74.3491 272.264C73.3915 272.264 71.3843 272.7 69.1437 272.846C64.104 273.16 56.9711 273.299 54.4114 273.48C47.5486 273.968 43.4972 278.859 41.6127 280.58C40.4845 281.62 39.4686 282.763 38.5803 283.994C38.1138 284.663 37.6841 285.611 38.3409 286.32C39.1389 287.187 42.024 286.181 44.995 283.517C45.0994 283.418 45.0318 283.36 44.9213 283.453C40.7533 286.809 39.053 286.472 38.5926 285.925C38.2979 285.57 38.5557 284.942 38.8013 284.454C39.1999 283.754 39.6908 283.105 40.2622 282.523C42.1571 280.497 44.2654 278.659 46.5542 277.039C49.0107 275.209 51.9657 274.08 55.0744 273.782C57.2781 273.561 64.0795 273.462 69.156 273.107C71.3781 272.95 73.3731 272.485 74.3369 272.375C74.4289 272.369 74.4167 272.264 74.3491 272.264Z" fill="#263238"/>
<path d="M101.936 261.413L87.4489 261.674C87.4489 261.674 85.5705 255.01 85.0794 251.177C84.4349 246.112 86.2703 244.699 91.1811 248.88C94.4529 251.677 101.936 261.413 101.936 261.413Z" fill="#F3B664"/>
<path d="M89.204 261.645C89.0444 261.645 87.5589 261.604 87.4484 261.645C87.2519 260.854 86.2636 257.173 86.147 256.795C86.147 256.731 86.0488 256.748 86.0611 256.795C86.104 257.021 86.2636 257.87 86.4539 258.818V258.784C86.3557 258.615 86.2391 258.458 86.1286 258.295C86.0181 258.132 85.926 257.946 85.8278 257.772C85.7971 257.713 85.7112 257.772 85.7419 257.818C85.8462 257.987 85.9567 258.15 86.0427 258.324C86.1286 258.499 86.2023 258.65 86.2882 258.813L86.5644 259.289C86.7793 260.36 87.0064 261.447 87.1292 261.843C87.8279 261.827 88.5249 261.771 89.2162 261.674C89.2347 261.691 89.2285 261.651 89.204 261.645Z" fill="#263238"/>
<path d="M100.425 260.115C98.3133 260.016 96.2078 259.947 94.09 259.964C93.0404 259.964 91.9845 259.999 90.9287 260.04C89.8729 260.08 88.8294 260.22 87.7735 260.243C87.7183 260.243 87.7244 260.33 87.7735 260.33C88.8232 260.249 89.8913 260.33 90.941 260.284C91.9907 260.237 93.0526 260.243 94.1084 260.232C96.2139 260.232 98.3194 260.179 100.425 260.203C100.492 260.22 100.48 260.115 100.425 260.115Z" fill="#263238"/>
<path d="M96.5154 254.556C96.5154 254.556 96.4663 254.556 96.4785 254.556C98.1188 256.886 99.8828 259.135 101.764 261.296C101.387 261.313 101.012 261.353 100.64 261.418C101.135 261.453 101.631 261.453 102.126 261.418C102.157 261.441 97.0555 254.998 96.5154 254.556Z" fill="#263238"/>
<path d="M127.199 142.97C125.523 146.739 121.109 149.17 121.109 149.17C121.109 149.17 116.419 147.262 114.277 143.715C112.485 140.761 113.283 137.405 115.75 136.544C119.292 135.3 120.6 141.197 120.6 141.197C120.6 141.197 121.14 135.195 124.817 136.015C127.358 136.591 128.586 139.83 127.199 142.97Z" fill="#F3B664"/>
<path d="M109.557 132.694C109.956 136.015 107.838 139.423 107.838 139.423C107.838 139.423 103.694 139.842 100.668 138.132C98.1391 136.701 97.292 134.009 98.6854 132.456C100.68 130.228 104.106 133.933 104.106 133.933C104.106 133.933 101.957 129.455 104.922 128.647C106.972 128.082 109.207 129.926 109.557 132.694Z" fill="#F3B664"/>
<path d="M132.158 101.598C132.557 104.919 130.439 108.321 130.439 108.321C130.439 108.321 126.296 108.746 123.27 107.03C120.741 105.605 119.894 102.913 121.287 101.36C123.282 99.1327 126.707 102.837 126.707 102.837C126.707 102.837 124.559 98.3592 127.524 97.5508C129.592 97.01 131.827 98.8535 132.158 101.598Z" fill="#F3B664"/>
<path d="M122.712 118.818C121.355 120.871 118.525 121.894 118.525 121.894C118.525 121.894 115.978 120.359 115.076 118.091C114.327 116.195 115.131 114.305 116.666 114.02C118.857 113.613 119.029 117.178 119.029 117.178C119.029 117.178 119.95 113.689 122.018 114.532C123.461 115.108 123.848 117.108 122.712 118.818Z" fill="#F3B664"/>
<path d="M112.73 91.7119C112.523 92.7173 112.023 93.648 111.288 94.3987C110.215 94.2544 109.207 93.8271 108.378 93.1658C107.463 92.3167 107.39 91.0954 108.145 90.572C109.225 89.816 110.287 91.7351 110.287 91.7351C110.287 91.7351 109.851 89.6299 111.195 89.5717C112.135 89.4845 112.884 90.479 112.73 91.7119Z" fill="#F3B664"/>
</svg>
