<svg width="17" height="17" viewBox="0 0 17 17" fill="none" xmlns="http://www.w3.org/2000/svg">
<g clip-path="url(#clip0_511_1453)">
<path d="M5.99852 14.4212L1.57786 9.9999C1.22437 9.62677 1.03043 9.13044 1.03729 8.6165C1.04414 8.1025 1.25126 7.6115 1.61458 7.24797C1.9779 6.88437 2.46875 6.6769 2.9827 6.66967C3.49664 6.66244 3.99312 6.85603 4.36652 7.20924L7.17854 10.0212L12.4452 2.99925C12.6006 2.7918 12.7954 2.61701 13.0184 2.48484C13.2414 2.35267 13.4883 2.26572 13.7449 2.22894C14.0015 2.19218 14.2627 2.2063 14.5139 2.27052C14.7651 2.33475 15.0011 2.44781 15.2085 2.60325C15.4159 2.75869 15.5907 2.95347 15.7229 3.17646C15.8551 3.39946 15.9421 3.6463 15.9788 3.9029C16.0156 4.1595 16.0015 4.42083 15.9373 4.67197C15.873 4.92311 15.7599 5.15914 15.6045 5.36658L8.97321 14.2099C8.80348 14.4361 8.58721 14.6232 8.33888 14.7585C8.09061 14.8938 7.81614 14.9742 7.53408 14.9943C7.25201 15.0143 6.96894 14.9736 6.70402 14.8747C6.43909 14.7758 6.1985 14.6212 5.99852 14.4212Z" stroke="#F3B664" stroke-width="1.5" stroke-linejoin="round"/>
</g>
<defs>
<clipPath id="clip0_511_1453">
<rect width="16" height="16" fill="white" transform="translate(0.5 0.5)"/>
</clipPath>
</defs>
</svg>
