<svg width="24" height="24" viewBox="0 0 24 24" fill="none" xmlns="http://www.w3.org/2000/svg">
<g clip-path="url(#clip0_511_713)">
<path d="M10.546 2.43755C10.7295 2.64124 10.9537 2.80411 11.2042 2.9156C11.4547 3.02708 11.7258 3.08469 12 3.08469C12.2741 3.08469 12.5453 3.02708 12.7957 2.9156C13.0462 2.80411 13.2705 2.64124 13.454 2.43755L14.4 1.39955C14.6711 1.09949 15.0284 0.890689 15.423 0.801807C15.8175 0.712926 16.2298 0.748318 16.6034 0.903127C16.977 1.05793 17.2936 1.32457 17.5096 1.66644C17.7256 2.00831 17.8305 2.40866 17.81 2.81255L17.739 4.21254C17.7252 4.48565 17.7689 4.75861 17.867 5.01383C17.9652 5.26905 18.1158 5.50088 18.309 5.69438C18.5022 5.88788 18.7338 6.03876 18.9889 6.13731C19.244 6.23585 19.5169 6.27988 19.79 6.26655L21.19 6.19555C21.5936 6.17565 21.9935 6.28106 22.3349 6.49733C22.6762 6.71361 22.9424 7.03016 23.0968 7.40361C23.2512 7.77706 23.2863 8.18912 23.1974 8.58333C23.1085 8.97753 22.8998 9.33458 22.6 9.60555L21.558 10.5455C21.3545 10.7293 21.1919 10.9537 21.0806 11.2042C20.9693 11.4548 20.9118 11.7259 20.9118 12C20.9118 12.2742 20.9693 12.5453 21.0806 12.7958C21.1919 13.0464 21.3545 13.2708 21.558 13.4545L22.6 14.3945C22.9 14.6657 23.1088 15.023 23.1977 15.4175C23.2866 15.812 23.2512 16.2244 23.0964 16.598C22.9416 16.9716 22.675 17.2881 22.3331 17.5041C21.9912 17.7202 21.5909 17.8251 21.187 17.8045L19.787 17.7335C19.5133 17.7195 19.2396 17.763 18.9838 17.8613C18.728 17.9597 18.4957 18.1106 18.3019 18.3044C18.1081 18.4982 17.9571 18.7306 17.8588 18.9864C17.7604 19.2422 17.7169 19.5158 17.731 19.7895L17.802 21.1895C17.8199 21.5914 17.7136 21.989 17.4977 22.3284C17.2818 22.6678 16.9666 22.9324 16.595 23.0864C16.2234 23.2405 15.8134 23.2763 15.4207 23.1892C15.028 23.1021 14.6716 22.8962 14.4 22.5995L13.459 21.5585C13.2753 21.3551 13.051 21.1925 12.8005 21.0812C12.5501 20.9699 12.2791 20.9124 12.005 20.9124C11.7309 20.9124 11.4599 20.9699 11.2094 21.0812C10.959 21.1925 10.7347 21.3551 10.551 21.5585L9.60598 22.5995C9.33479 22.8976 8.97827 23.1048 8.58503 23.1929C8.19178 23.2809 7.78094 23.2456 7.40852 23.0916C7.0361 22.9377 6.72023 22.6726 6.50395 22.3326C6.28767 21.9926 6.18153 21.5941 6.19998 21.1915L6.27198 19.7915C6.28606 19.5178 6.24252 19.2442 6.14418 18.9884C6.04583 18.7326 5.89488 18.5002 5.70108 18.3064C5.50728 18.1126 5.27495 17.9617 5.01913 17.8633C4.76331 17.765 4.48969 17.7215 4.21598 17.7355L2.81598 17.8065C2.41226 17.8276 2.01192 17.7232 1.66992 17.5076C1.32791 17.2921 1.06101 16.976 0.905862 16.6027C0.75071 16.2293 0.714912 15.8172 0.803384 15.4227C0.891855 15.0282 1.10026 14.6708 1.39998 14.3995L2.44098 13.4595C2.64443 13.2758 2.80706 13.0514 2.91837 12.8008C3.02968 12.5503 3.0872 12.2792 3.0872 12.005C3.0872 11.7309 3.02968 11.4598 2.91837 11.2092C2.80706 10.9587 2.64443 10.7343 2.44098 10.5505L1.39998 9.60555C1.10123 9.33455 0.893463 8.9779 0.805081 8.58435C0.716699 8.1908 0.752015 7.77956 0.906202 7.40684C1.06039 7.03412 1.32592 6.71812 1.6665 6.50202C2.00708 6.28593 2.40609 6.18029 2.80898 6.19955L4.20898 6.27055C4.48321 6.28496 4.7574 6.24154 5.01376 6.14308C5.27011 6.04463 5.50289 5.89336 5.69697 5.69909C5.89105 5.50482 6.0421 5.27189 6.1403 5.01545C6.2385 4.759 6.28166 4.48476 6.26698 4.21055L6.19998 2.80954C6.18109 2.40681 6.28691 2.00805 6.50302 1.66769C6.71913 1.32732 7.035 1.06192 7.40752 0.90771C7.78004 0.753496 8.19107 0.717977 8.58452 0.806C8.97797 0.894022 9.33468 1.1013 9.60598 1.39955L10.546 2.43755Z" stroke="#282828" stroke-width="1.5" stroke-linecap="round" stroke-linejoin="round"/>
<path d="M7.5 12.001C7.5 13.1945 7.97411 14.339 8.81802 15.183C9.66193 16.0269 10.8065 16.501 12 16.501C13.1935 16.501 14.3381 16.0269 15.182 15.183C16.0259 14.339 16.5 13.1945 16.5 12.001C16.5 10.8075 16.0259 9.66291 15.182 8.819C14.3381 7.97508 13.1935 7.50098 12 7.50098C10.8065 7.50098 9.66193 7.97508 8.81802 8.819C7.97411 9.66291 7.5 10.8075 7.5 12.001Z" stroke="#282828" stroke-width="1.5" stroke-linecap="round" stroke-linejoin="round"/>
</g>
<defs>
<clipPath id="clip0_511_713">
<rect width="24" height="24" fill="white"/>
</clipPath>
</defs>
</svg>
