<svg width="24" height="24" viewBox="0 0 24 24" fill="none" xmlns="http://www.w3.org/2000/svg">
<g clip-path="url(#clip0_431_1081)">
<path d="M10.5459 2.43804C10.7294 2.64173 10.9536 2.8046 11.2041 2.91609C11.4546 3.02757 11.7257 3.08518 11.9999 3.08518C12.274 3.08518 12.5452 3.02757 12.7956 2.91609C13.0461 2.8046 13.2704 2.64173 13.4539 2.43804L14.3999 1.40004C14.671 1.09998 15.0283 0.891177 15.4229 0.802295C15.8174 0.713414 16.2297 0.748806 16.6033 0.903615C16.9769 1.05842 17.2935 1.32506 17.5095 1.66693C17.7255 2.0088 17.8304 2.40915 17.8099 2.81304L17.7389 4.21303C17.7251 4.48614 17.7688 4.7591 17.8669 5.01432C17.9651 5.26954 18.1157 5.50137 18.3089 5.69487C18.5021 5.88837 18.7337 6.03925 18.9888 6.1378C19.2439 6.23634 19.5168 6.28037 19.7899 6.26704L21.1899 6.19604C21.5935 6.17614 21.9934 6.28155 22.3348 6.49782C22.6761 6.7141 22.9423 7.03065 23.0967 7.4041C23.2511 7.77755 23.2862 8.18961 23.1973 8.58382C23.1084 8.97802 22.8997 9.33507 22.5999 9.60604L21.5579 10.546C21.3544 10.7298 21.1918 10.9542 21.0805 11.2047C20.9692 11.4553 20.9117 11.7264 20.9117 12.0005C20.9117 12.2747 20.9692 12.5458 21.0805 12.7963C21.1918 13.0469 21.3544 13.2713 21.5579 13.455L22.5999 14.395C22.8999 14.6662 23.1087 15.0235 23.1976 15.418C23.2865 15.8125 23.2511 16.2249 23.0963 16.5985C22.9415 16.9721 22.6749 17.2886 22.333 17.5046C21.9911 17.7207 21.5908 17.8256 21.1869 17.805L19.7869 17.734C19.5132 17.72 19.2395 17.7635 18.9837 17.8618C18.7279 17.9602 18.4956 18.1111 18.3018 18.3049C18.108 18.4987 17.957 18.7311 17.8587 18.9869C17.7603 19.2427 17.7168 19.5163 17.7309 19.79L17.8019 21.19C17.8198 21.5919 17.7135 21.9895 17.4976 22.3289C17.2817 22.6683 16.9665 22.9329 16.5949 23.0869C16.2233 23.241 15.8133 23.2768 15.4206 23.1897C15.0279 23.1026 14.6715 22.8967 14.3999 22.6L13.4589 21.559C13.2752 21.3556 13.0509 21.193 12.8004 21.0817C12.55 20.9704 12.279 20.9129 12.0049 20.9129C11.7308 20.9129 11.4598 20.9704 11.2093 21.0817C10.9589 21.193 10.7346 21.3556 10.5509 21.559L9.60592 22.6C9.33473 22.8981 8.97821 23.1053 8.58497 23.1934C8.19172 23.2814 7.78088 23.2461 7.40846 23.0921C7.03604 22.9382 6.72017 22.6731 6.50389 22.3331C6.28761 21.9931 6.18147 21.5946 6.19992 21.192L6.27192 19.792C6.286 19.5183 6.24246 19.2447 6.14412 18.9889C6.04577 18.7331 5.89482 18.5007 5.70102 18.3069C5.50722 18.1131 5.27489 17.9622 5.01907 17.8638C4.76325 17.7655 4.48963 17.722 4.21592 17.736L2.81592 17.807C2.4122 17.8281 2.01186 17.7237 1.66986 17.5081C1.32785 17.2926 1.06095 16.9765 0.905801 16.6032C0.750649 16.2298 0.714851 15.8177 0.803323 15.4232C0.891794 15.0287 1.1002 14.6713 1.39992 14.4L2.44092 13.46C2.64437 13.2763 2.807 13.0519 2.91831 12.8013C3.02962 12.5508 3.08714 12.2797 3.08714 12.0055C3.08714 11.7314 3.02962 11.4603 2.91831 11.2097C2.807 10.9592 2.64437 10.7348 2.44092 10.551L1.39992 9.60604C1.10117 9.33504 0.893402 8.97839 0.80502 8.58484C0.716638 8.19129 0.751954 7.78005 0.906141 7.40733C1.06033 7.03461 1.32586 6.71861 1.66644 6.50251C2.00702 6.28642 2.40603 6.18078 2.80892 6.20004L4.20892 6.27104C4.48315 6.28545 4.75734 6.24203 5.0137 6.14357C5.27005 6.04512 5.50283 5.89385 5.69691 5.69958C5.89099 5.50531 6.04204 5.27238 6.14024 5.01594C6.23844 4.75949 6.2816 4.48525 6.26692 4.21104L6.19992 2.81003C6.18103 2.4073 6.28685 2.00854 6.50296 1.66818C6.71907 1.32781 7.03494 1.06241 7.40746 0.908198C7.77998 0.753984 8.19101 0.718465 8.58446 0.806488C8.97791 0.89451 9.33462 1.10179 9.60592 1.40004L10.5459 2.43804Z" stroke="#282828" stroke-width="1.5" stroke-linecap="round" stroke-linejoin="round"/>
<path d="M7.5 12.001C7.5 13.1945 7.97411 14.339 8.81802 15.183C9.66193 16.0269 10.8065 16.501 12 16.501C13.1935 16.501 14.3381 16.0269 15.182 15.183C16.0259 14.339 16.5 13.1945 16.5 12.001C16.5 10.8075 16.0259 9.66291 15.182 8.819C14.3381 7.97508 13.1935 7.50098 12 7.50098C10.8065 7.50098 9.66193 7.97508 8.81802 8.819C7.97411 9.66291 7.5 10.8075 7.5 12.001Z" stroke="#282828" stroke-width="1.5" stroke-linecap="round" stroke-linejoin="round"/>
</g>
<defs>
<clipPath id="clip0_431_1081">
<rect width="24" height="24" fill="white"/>
</clipPath>
</defs>
</svg>
