<svg width="24" height="24" viewBox="0 0 24 24" fill="none" xmlns="http://www.w3.org/2000/svg">
<g clip-path="url(#clip0_431_1882)">
<path d="M10.5459 2.43755C10.7294 2.64124 10.9536 2.80411 11.2041 2.9156C11.4546 3.02708 11.7257 3.08469 11.9999 3.08469C12.274 3.08469 12.5452 3.02708 12.7956 2.9156C13.0461 2.80411 13.2704 2.64124 13.4539 2.43755L14.3999 1.39955C14.671 1.09949 15.0283 0.890689 15.4229 0.801807C15.8174 0.712926 16.2297 0.748318 16.6033 0.903127C16.9769 1.05793 17.2935 1.32457 17.5095 1.66644C17.7255 2.00831 17.8304 2.40866 17.8099 2.81255L17.7389 4.21254C17.7251 4.48565 17.7688 4.75861 17.8669 5.01383C17.9651 5.26905 18.1157 5.50088 18.3089 5.69438C18.5021 5.88788 18.7337 6.03876 18.9888 6.13731C19.2439 6.23585 19.5168 6.27988 19.7899 6.26655L21.1899 6.19555C21.5935 6.17565 21.9934 6.28106 22.3348 6.49733C22.6761 6.71361 22.9423 7.03016 23.0967 7.40361C23.2511 7.77706 23.2862 8.18912 23.1973 8.58333C23.1084 8.97753 22.8997 9.33458 22.5999 9.60555L21.5579 10.5455C21.3544 10.7293 21.1918 10.9537 21.0805 11.2042C20.9692 11.4548 20.9117 11.7259 20.9117 12C20.9117 12.2742 20.9692 12.5453 21.0805 12.7958C21.1918 13.0464 21.3544 13.2708 21.5579 13.4545L22.5999 14.3945C22.8999 14.6657 23.1087 15.023 23.1976 15.4175C23.2865 15.812 23.2511 16.2244 23.0963 16.598C22.9415 16.9716 22.6749 17.2881 22.333 17.5041C21.9911 17.7202 21.5908 17.8251 21.1869 17.8045L19.7869 17.7335C19.5132 17.7195 19.2395 17.763 18.9837 17.8613C18.7279 17.9597 18.4956 18.1106 18.3018 18.3044C18.108 18.4982 17.957 18.7306 17.8587 18.9864C17.7603 19.2422 17.7168 19.5158 17.7309 19.7895L17.8019 21.1895C17.8198 21.5914 17.7135 21.989 17.4976 22.3284C17.2817 22.6678 16.9665 22.9324 16.5949 23.0864C16.2233 23.2405 15.8133 23.2763 15.4206 23.1892C15.0279 23.1021 14.6715 22.8962 14.3999 22.5995L13.4589 21.5585C13.2752 21.3551 13.0509 21.1925 12.8004 21.0812C12.55 20.9699 12.279 20.9124 12.0049 20.9124C11.7308 20.9124 11.4598 20.9699 11.2093 21.0812C10.9589 21.1925 10.7346 21.3551 10.5509 21.5585L9.60592 22.5995C9.33473 22.8976 8.97821 23.1048 8.58497 23.1929C8.19172 23.2809 7.78088 23.2456 7.40846 23.0916C7.03604 22.9377 6.72017 22.6726 6.50389 22.3326C6.28761 21.9926 6.18147 21.5941 6.19992 21.1915L6.27192 19.7915C6.286 19.5178 6.24246 19.2442 6.14412 18.9884C6.04577 18.7326 5.89482 18.5002 5.70102 18.3064C5.50722 18.1126 5.27489 17.9617 5.01907 17.8633C4.76325 17.765 4.48963 17.7215 4.21592 17.7355L2.81592 17.8065C2.4122 17.8276 2.01186 17.7232 1.66986 17.5076C1.32785 17.2921 1.06095 16.976 0.905801 16.6027C0.750649 16.2293 0.714851 15.8172 0.803323 15.4227C0.891794 15.0282 1.1002 14.6708 1.39992 14.3995L2.44092 13.4595C2.64437 13.2758 2.807 13.0514 2.91831 12.8008C3.02962 12.5503 3.08714 12.2792 3.08714 12.005C3.08714 11.7309 3.02962 11.4598 2.91831 11.2092C2.807 10.9587 2.64437 10.7343 2.44092 10.5505L1.39992 9.60555C1.10117 9.33455 0.893402 8.9779 0.80502 8.58435C0.716638 8.1908 0.751954 7.77956 0.906141 7.40684C1.06033 7.03412 1.32586 6.71812 1.66644 6.50202C2.00702 6.28593 2.40603 6.18029 2.80892 6.19955L4.20892 6.27055C4.48315 6.28496 4.75734 6.24154 5.0137 6.14308C5.27005 6.04463 5.50283 5.89336 5.69691 5.69909C5.89099 5.50482 6.04204 5.27189 6.14024 5.01545C6.23844 4.759 6.2816 4.48476 6.26692 4.21055L6.19992 2.80954C6.18103 2.40681 6.28685 2.00805 6.50296 1.66769C6.71907 1.32732 7.03494 1.06192 7.40746 0.90771C7.77998 0.753496 8.19101 0.717977 8.58446 0.806C8.97791 0.894022 9.33462 1.1013 9.60592 1.39955L10.5459 2.43755Z" stroke="#EC8F5E" stroke-width="1.5" stroke-linecap="round" stroke-linejoin="round"/>
<path d="M7.5 12.001C7.5 13.1945 7.97411 14.339 8.81802 15.183C9.66193 16.0269 10.8065 16.501 12 16.501C13.1935 16.501 14.3381 16.0269 15.182 15.183C16.0259 14.339 16.5 13.1945 16.5 12.001C16.5 10.8075 16.0259 9.66291 15.182 8.819C14.3381 7.97508 13.1935 7.50098 12 7.50098C10.8065 7.50098 9.66193 7.97508 8.81802 8.819C7.97411 9.66291 7.5 10.8075 7.5 12.001Z" stroke="#EC8F5E" stroke-width="1.5" stroke-linecap="round" stroke-linejoin="round"/>
</g>
<defs>
<clipPath id="clip0_431_1882">
<rect width="24" height="24" fill="white"/>
</clipPath>
</defs>
</svg>
