<svg width="24" height="24" viewBox="0 0 24 24" fill="none" xmlns="http://www.w3.org/2000/svg">
<g clip-path="url(#clip0_431_1875)">
<path d="M22.5876 4.59101C23.0096 4.16905 23.2466 3.59675 23.2466 3.00001C23.2466 2.40327 23.0096 1.83097 22.5876 1.40901C22.1656 0.987054 21.5933 0.75 20.9966 0.75C20.3999 0.75 19.8276 0.987054 19.4056 1.40901L8.13965 12.675L11.3216 15.857L22.5876 4.59101Z" stroke="black" stroke-width="1.5" stroke-linecap="round" stroke-linejoin="round"/>
<path d="M8.14 12.6752L6.747 17.2502L11.322 15.8572M18.281 2.53418L21.463 5.71618M3.747 18.7502H3C2.40326 18.7502 1.83097 18.9872 1.40901 19.4092C0.987053 19.8311 0.75 20.4034 0.75 21.0002C0.75 21.5969 0.987053 22.1692 1.40901 22.5911C1.83097 23.0131 2.40326 23.2502 3 23.2502H18.75" stroke="black" stroke-width="1.5" stroke-linecap="round" stroke-linejoin="round"/>
</g>
<defs>
<clipPath id="clip0_431_1875">
<rect width="24" height="24" fill="white"/>
</clipPath>
</defs>
</svg>
