<svg width="17" height="17" viewBox="0 0 17 17" fill="none" xmlns="http://www.w3.org/2000/svg">
<g clip-path="url(#clip0_511_881)">
<path d="M15.5586 3.75061C15.84 3.46931 15.998 3.08777 15.998 2.68995C15.998 2.29212 15.84 1.91059 15.5586 1.62928C15.2773 1.34798 14.8958 1.18994 14.498 1.18994C14.1002 1.18994 13.7186 1.34798 13.4373 1.62928L5.92664 9.13994L8.04797 11.2613L15.5586 3.75061Z" stroke="#F2F2F2" stroke-width="1.5" stroke-linecap="round" stroke-linejoin="round"/>
<path d="M5.92667 9.14009L4.998 12.1901L8.048 11.2614M12.6873 2.37939L14.8087 4.50073M2.998 13.1901H2.5C2.10217 13.1901 1.72065 13.3481 1.43934 13.6294C1.15804 13.9107 1 14.2922 1 14.6901C1 15.0879 1.15804 15.4694 1.43934 15.7507C1.72065 16.032 2.10217 16.1901 2.5 16.1901H13" stroke="#F2F2F2" stroke-width="1.5" stroke-linecap="round" stroke-linejoin="round"/>
</g>
<defs>
<clipPath id="clip0_511_881">
<rect width="16" height="16" fill="white" transform="translate(0.5 0.689941)"/>
</clipPath>
</defs>
</svg>
