<svg width="101" height="100" viewBox="0 0 101 100" fill="none" xmlns="http://www.w3.org/2000/svg">
<path d="M10.6311 89.8049C10.6311 89.8049 13.5717 100.788 31.9951 97.9768L35.1201 90.6299L29.8217 85.0439L15.1576 80.3486L10.6279 89.8049" fill="#34484C"/>
<path d="M69.3166 69.2281C69.3166 73.1156 67.2572 74.1406 62.0479 76.2703L17.5744 94.4859C13.5588 94.4844 10.3057 91.3328 10.3057 87.4406V26.8281C10.3057 22.9328 12.6682 21.6375 17.5744 19.7781L62.0463 1.5625C66.065 1.5625 69.315 4.72344 69.315 8.6125L69.3166 69.2281Z" fill="#AD7029"/>
<path d="M14.3467 93.7418C14.3467 93.7418 31.0139 98.3793 31.9936 97.9777C32.9607 97.5809 31.3701 90.9699 31.3701 90.9699L25.342 84.6731L19.7232 84.4199L18.7373 85.7777L14.3467 93.7418Z" fill="#34484C"/>
<path d="M61.0037 5.76074L11.6631 25.8639L13.9771 38.7436L21.3193 39.4592L45.835 35.6326L61.0725 27.8857L72.2912 12.9889C69.8381 8.72637 66.2381 6.08574 61.0037 5.76074Z" fill="#F4F5F5"/>
<path d="M24.7318 30.3203C24.7318 29.1906 24.9412 28.2906 25.3428 27.5234C20.2943 27.0641 15.524 25.6484 12.0459 22.6094C10.8881 23.6406 10.3193 24.9188 10.3193 26.8266V87.4375C10.3193 91.3281 13.5818 94.4828 17.5912 94.4828L24.7678 91.5469C24.7662 91.3391 24.7334 91.1406 24.7334 90.9312L24.7318 30.3203Z" fill="#34484C"/>
<path d="M85.0227 75.198C85.0227 79.0902 82.957 80.1121 77.7555 82.2449L31.9898 97.9793C27.9742 97.9793 24.7148 94.8246 24.7148 90.9324V30.3199C24.7148 26.4293 27.0773 25.1355 31.9898 23.2668L77.7555 7.53711C81.7664 7.53711 85.0227 10.6934 85.0227 14.5871V75.198Z" fill="#F79420"/>
<path d="M66.0728 26.0363C66.1187 26.1543 66.1405 26.2803 66.1369 26.4069C66.1332 26.5335 66.1041 26.6581 66.0513 26.7732C65.9986 26.8884 65.9232 26.9917 65.8297 27.0772C65.7362 27.1626 65.6265 27.2284 65.5071 27.2707L41.1712 36.3785C40.9296 36.469 40.6624 36.4626 40.4253 36.3607C40.1883 36.2588 39.9998 36.0692 39.8993 35.8316C39.8531 35.7138 39.8309 35.5879 39.8343 35.4614C39.8377 35.3349 39.8665 35.2104 39.9189 35.0952C39.9714 34.98 40.0465 34.8766 40.1398 34.7911C40.2331 34.7055 40.3426 34.6396 40.4618 34.5972L64.8009 25.491C65.0426 25.3997 65.3104 25.4059 65.5476 25.5082C65.7849 25.6105 65.9732 25.801 66.0728 26.0394M66.0728 30.3707C66.1187 30.4887 66.1405 30.6147 66.1369 30.7413C66.1332 30.8679 66.1041 30.9925 66.0513 31.1076C65.9986 31.2228 65.9232 31.3261 65.8297 31.4116C65.7362 31.497 65.6265 31.5628 65.5071 31.605L41.1712 40.6972C40.9297 40.7898 40.6617 40.7844 40.4241 40.6823C40.1866 40.5801 39.9983 40.3893 39.8993 40.1504C39.8543 40.033 39.8331 39.9078 39.8371 39.7822C39.8411 39.6566 39.8702 39.533 39.9226 39.4187C39.975 39.3045 40.0496 39.2018 40.1423 39.1169C40.2349 39.0319 40.3435 38.9662 40.4618 38.9238L64.8009 29.816C65.0424 29.7238 65.3103 29.7294 65.5477 29.8315C65.7852 29.9336 65.9735 30.1242 66.0728 30.3629M57.8009 37.9629C57.9962 38.4566 57.8775 38.9582 57.5306 39.0879L40.9103 45.305C40.5634 45.43 40.1259 45.1379 39.9275 44.6488C39.7337 44.1582 39.8571 43.6519 40.204 43.5207L56.8243 37.3066C57.165 37.1816 57.604 37.4722 57.8009 37.9629Z" fill="#905A24"/>
</svg>
