<svg width="24" height="25" viewBox="0 0 24 25" fill="none" xmlns="http://www.w3.org/2000/svg">
<g clip-path="url(#clip0_511_308)">
<path d="M23.2001 2.55391C23.2068 2.45149 23.1924 2.34879 23.1579 2.25215C23.1233 2.1555 23.0693 2.06696 22.9992 1.992C22.9291 1.91703 22.8444 1.85722 22.7503 1.81627C22.6562 1.77532 22.5547 1.7541 22.4521 1.75391H1.50003C1.39736 1.75395 1.29579 1.77508 1.20161 1.81598C1.10743 1.85688 1.02265 1.91668 0.95253 1.99168C0.882406 2.06668 0.828428 2.15528 0.793941 2.25199C0.759453 2.3487 0.74519 2.45146 0.752035 2.55391C0.927916 5.00291 1.89988 7.32721 3.51973 9.17238C5.13958 11.0175 7.31843 12.2823 9.72403 12.7739V22.6489C9.72409 22.7914 9.76474 22.931 9.84124 23.0512C9.91773 23.1714 10.0269 23.2674 10.156 23.3278C10.2851 23.3883 10.4287 23.4107 10.57 23.3925C10.7114 23.3742 10.8446 23.3161 10.9541 23.2249L13.9541 20.7249C14.0386 20.6546 14.1067 20.5666 14.1534 20.467C14.2 20.3675 14.2242 20.2589 14.2241 20.1489V12.7739C16.6305 12.2833 18.8103 11.0189 20.431 9.17359C22.0516 7.32832 23.0241 5.00352 23.2001 2.55391Z" stroke="#F3B664" stroke-width="1.5" stroke-linecap="round" stroke-linejoin="round"/>
</g>
<defs>
<clipPath id="clip0_511_308">
<rect width="24" height="24" fill="white" transform="translate(0 0.5)"/>
</clipPath>
</defs>
</svg>
