<svg width="24" height="25" viewBox="0 0 24 25" fill="none" xmlns="http://www.w3.org/2000/svg">
<g clip-path="url(#clip0_414_2376)">
<path d="M23.1997 2.55391C23.2064 2.45149 23.192 2.34879 23.1575 2.25215C23.1229 2.1555 23.0689 2.06696 22.9988 1.992C22.9287 1.91703 22.844 1.85722 22.7499 1.81627C22.6558 1.77532 22.5543 1.7541 22.4517 1.75391H1.49966C1.39699 1.75395 1.29542 1.77508 1.20124 1.81598C1.10706 1.85688 1.02228 1.91668 0.952164 1.99168C0.88204 2.06668 0.828062 2.15528 0.793575 2.25199C0.759087 2.3487 0.744824 2.45146 0.751669 2.55391C0.92755 5.00291 1.89951 7.32721 3.51936 9.17238C5.13921 11.0175 7.31807 12.2823 9.72367 12.7739V22.6489C9.72373 22.7914 9.76437 22.931 9.84087 23.0512C9.91736 23.1714 10.0265 23.2674 10.1556 23.3278C10.2847 23.3883 10.4283 23.4107 10.5696 23.3925C10.711 23.3742 10.8442 23.3161 10.9537 23.2249L13.9537 20.7249C14.0382 20.6546 14.1063 20.5666 14.153 20.467C14.1996 20.3675 14.2238 20.2589 14.2237 20.1489V12.7739C16.6301 12.2833 18.8099 11.0189 20.4306 9.17359C22.0512 7.32832 23.0237 5.00352 23.1997 2.55391Z" stroke="#EC8F5E" stroke-width="1.5" stroke-linecap="round" stroke-linejoin="round"/>
</g>
<defs>
<clipPath id="clip0_414_2376">
<rect width="24" height="24" fill="white" transform="translate(0 0.5)"/>
</clipPath>
</defs>
</svg>
