<svg width="24" height="25" viewBox="0 0 24 25" fill="none" xmlns="http://www.w3.org/2000/svg">
<g clip-path="url(#clip0_414_667)">
<path d="M23.1999 2.55391C23.2066 2.45149 23.1922 2.34879 23.1577 2.25215C23.1231 2.1555 23.0691 2.06696 22.999 1.992C22.9289 1.91703 22.8442 1.85722 22.7501 1.81627C22.656 1.77532 22.5545 1.7541 22.4519 1.75391H1.49991C1.39724 1.75395 1.29567 1.77508 1.20149 1.81598C1.10731 1.85688 1.02253 1.91668 0.952408 1.99168C0.882284 2.06668 0.828306 2.15528 0.793819 2.25199C0.759331 2.3487 0.745068 2.45146 0.751913 2.55391C0.927794 5.00291 1.89976 7.32721 3.51961 9.17238C5.13946 11.0175 7.31831 12.2823 9.72391 12.7739V22.6489C9.72397 22.7914 9.76462 22.931 9.84112 23.0512C9.91761 23.1714 10.0267 23.2674 10.1558 23.3278C10.2849 23.3883 10.4285 23.4107 10.5698 23.3925C10.7112 23.3742 10.8444 23.3161 10.9539 23.2249L13.9539 20.7249C14.0384 20.6546 14.1065 20.5666 14.1532 20.467C14.1998 20.3675 14.224 20.2589 14.2239 20.1489V12.7739C16.6303 12.2833 18.8101 11.0189 20.4308 9.17359C22.0514 7.32832 23.0239 5.00352 23.1999 2.55391Z" stroke="#EC8F5E" stroke-width="1.5" stroke-linecap="round" stroke-linejoin="round"/>
</g>
<defs>
<clipPath id="clip0_414_667">
<rect width="24" height="24" fill="white" transform="translate(0 0.5)"/>
</clipPath>
</defs>
</svg>
