<svg width="24" height="25" viewBox="0 0 24 25" fill="none" xmlns="http://www.w3.org/2000/svg">
<g clip-path="url(#clip0_414_78)">
<path d="M23.2002 2.55391C23.2069 2.45149 23.1925 2.34879 23.158 2.25215C23.1234 2.1555 23.0694 2.06696 22.9993 1.992C22.9292 1.91703 22.8445 1.85722 22.7504 1.81627C22.6563 1.77532 22.5548 1.7541 22.4522 1.75391H1.50015C1.39748 1.75395 1.29591 1.77508 1.20173 1.81598C1.10755 1.85688 1.02277 1.91668 0.952652 1.99168C0.882528 2.06668 0.82855 2.15528 0.794063 2.25199C0.759575 2.3487 0.745312 2.45146 0.752157 2.55391C0.928038 5.00291 1.9 7.32721 3.51985 9.17238C5.1397 11.0175 7.31855 12.2823 9.72415 12.7739V22.6489C9.72421 22.7914 9.76486 22.931 9.84136 23.0512C9.91785 23.1714 10.027 23.2674 10.1561 23.3278C10.2852 23.3883 10.4288 23.4107 10.5701 23.3925C10.7115 23.3742 10.8447 23.3161 10.9542 23.2249L13.9542 20.7249C14.0387 20.6546 14.1068 20.5666 14.1535 20.467C14.2001 20.3675 14.2243 20.2589 14.2242 20.1489V12.7739C16.6306 12.2833 18.8104 11.0189 20.4311 9.17359C22.0517 7.32832 23.0242 5.00352 23.2002 2.55391Z" stroke="#EC8F5E" stroke-width="1.5" stroke-linecap="round" stroke-linejoin="round"/>
</g>
<defs>
<clipPath id="clip0_414_78">
<rect width="24" height="24" fill="white" transform="translate(0 0.5)"/>
</clipPath>
</defs>
</svg>
