<svg width="37" height="41" viewBox="0 0 37 41" fill="none" xmlns="http://www.w3.org/2000/svg">
<path d="M12.0902 1.5L11.2161 1.8178C8.39462 2.84373 6.51639 5.5252 6.51639 8.52744V8.52744C6.51639 9.24286 6.40886 9.95422 6.1974 10.6377L1.5 25.82M12.0902 1.5H23.7951M12.0902 1.5V8.08667L9.86066 25.82M23.7951 1.5L25.2375 1.9768C28.0362 2.90191 29.9262 5.5173 29.9262 8.46488V8.46488C29.9262 9.22083 30.0517 9.97154 30.2974 10.6864L35.5 25.82M23.7951 1.5V7.15197C23.7951 7.77375 23.8531 8.39417 23.9683 9.00517L27.1393 25.82M35.5 25.82H27.1393M35.5 25.82L35.4705 26.0076C35.1289 28.1816 34.0549 30.1736 32.4266 31.6538V31.6538C31.1544 32.8103 29.5965 33.6061 27.9138 33.9591L24.2532 34.727C23.578 34.8686 22.89 34.94 22.2001 34.94H14.544C13.6552 34.94 12.7705 34.8215 11.913 34.5877L7.76613 33.4568C7.67615 33.4323 7.58802 33.4071 7.49993 33.3764C6.86083 33.154 4.02498 32.0496 2.05738 29.3667M1.5 25.82H9.86066M1.5 25.82C1.5 25.82 1.5 27.34 2.05738 29.3667M9.86066 25.82H27.1393M2.05738 29.3667L6.74406 30.2187C7.33425 30.326 7.93291 30.38 8.53278 30.38H13.7623" stroke="black" stroke-width="1.5" stroke-linecap="round"/>
<path d="M11.2161 1.81781L12.0902 1.5H23.7951L25.2375 1.9768C28.0362 2.90191 29.9262 5.5173 29.9262 8.46488C29.9262 9.22083 30.0517 9.97154 30.2974 10.6864L35.5 25.82L35.4705 26.0077C35.1289 28.1816 34.0549 30.1736 32.4266 31.6538C31.1544 32.8103 29.5965 33.6061 27.9138 33.9591L24.2532 34.727C23.578 34.8686 22.89 34.94 22.2001 34.94H14.544C13.6552 34.94 12.7705 34.8215 11.913 34.5877L7.76613 33.4568C7.67615 33.4323 7.58802 33.4071 7.49993 33.3764C6.86083 33.154 4.02499 32.0496 2.05738 29.3667C1.5 27.34 1.5 25.82 1.5 25.82L6.1974 10.6377C6.40886 9.95422 6.51639 9.24286 6.51639 8.52744C6.51639 5.5252 8.39462 2.84373 11.2161 1.81781Z" fill="#EC8F5E"/>
<path d="M12.0902 1.5L11.2161 1.81781C8.39462 2.84373 6.51639 5.5252 6.51639 8.52744V8.52744C6.51639 9.24286 6.40886 9.95422 6.1974 10.6377L1.5 25.82M12.0902 1.5H23.7951M12.0902 1.5V8.08667L9.86066 25.82M23.7951 1.5L25.2375 1.9768C28.0362 2.90191 29.9262 5.5173 29.9262 8.46488V8.46488C29.9262 9.22083 30.0517 9.97154 30.2974 10.6864L35.5 25.82M23.7951 1.5V7.15197C23.7951 7.77375 23.8531 8.39417 23.9683 9.00517L27.1393 25.82M35.5 25.82H27.1393M35.5 25.82L35.4705 26.0076C35.1289 28.1816 34.0549 30.1736 32.4266 31.6538V31.6538C31.1544 32.8103 29.5965 33.6061 27.9138 33.9591L24.2532 34.727C23.578 34.8686 22.89 34.94 22.2001 34.94H14.544C13.6552 34.94 12.7705 34.8215 11.913 34.5877L7.76613 33.4568C7.67615 33.4323 7.58802 33.4071 7.49993 33.3764C6.86083 33.154 4.02499 32.0496 2.05738 29.3667M1.5 25.82H9.86066M1.5 25.82C1.5 25.82 1.5 27.34 2.05738 29.3667M9.86066 25.82H27.1393M2.05738 29.3667L6.74406 30.2187C7.33425 30.326 7.93291 30.38 8.53278 30.38H13.7623" stroke="black" stroke-width="1.5" stroke-linecap="round"/>
<path d="M19.709 29.3685C20.1567 29.9789 20.1861 30.8008 19.7833 31.4416C19.0598 32.5924 17.3826 32.5924 16.6592 31.4416C16.2563 30.8008 16.2857 29.9789 16.7334 29.3685C17.4706 28.3633 18.9718 28.3633 19.709 29.3685Z" stroke="black" stroke-width="1.5" stroke-linecap="round"/>
<path d="M18.2212 36.46V39.5" stroke="black" stroke-width="1.5" stroke-linecap="round"/>
<path d="M23.7949 36.46L26.0244 38.4866" stroke="black" stroke-width="1.5" stroke-linecap="round"/>
<path d="M12.6475 36.46L10.418 38.4866" stroke="black" stroke-width="1.5" stroke-linecap="round"/>
</svg>
