<svg width="26" height="30" viewBox="0 0 26 30" fill="none" xmlns="http://www.w3.org/2000/svg">
<path d="M8.47541 1L8.00181 1.17976C5.91852 1.97048 4.54098 3.96676 4.54098 6.19506V6.19506C4.54098 6.71121 4.46649 7.22465 4.31982 7.71952L1 18.92M8.47541 1H16.7377M8.47541 1V5.85333L6.90164 18.92M16.7377 1L17.6086 1.30051C19.6774 2.01434 21.0656 3.96184 21.0656 6.15028V6.15028C21.0656 6.6955 21.1525 7.23723 21.323 7.75508L25 18.92M16.7377 1V4.95727C16.7377 5.55345 16.791 6.14844 16.897 6.73512L19.0984 18.92M25 18.92H19.0984M25 18.92L24.9633 19.1638C24.7321 20.6994 23.9948 22.1138 22.8683 23.1827V23.1827C21.9464 24.0576 20.8027 24.6637 19.5612 24.9356L17.4013 25.4085C16.6986 25.5624 15.9815 25.64 15.2622 25.64H10.6579C9.73199 25.64 8.81055 25.5114 7.92001 25.2579L5.46738 24.5597C5.37438 24.5332 5.2831 24.506 5.19255 24.4721C4.66953 24.2762 2.74242 23.4534 1.39344 21.5333M1 18.92H6.90164M1 18.92C1 18.92 1 20.04 1.39344 21.5333M6.90164 18.92H19.0984M1.39344 21.5333L4.40386 22.1046C5.01851 22.2213 5.64275 22.28 6.26836 22.28H9.65574" stroke="#282828" stroke-width="1.5" stroke-linecap="round"/>
<path d="M8.00181 1.17976L8.47541 1H16.7377L17.6086 1.30051C19.6774 2.01434 21.0656 3.96184 21.0656 6.15028C21.0656 6.6955 21.1525 7.23723 21.323 7.75508L25 18.92L24.9633 19.1638C24.7321 20.6994 23.9948 22.1138 22.8683 23.1827C21.9464 24.0576 20.8027 24.6637 19.5612 24.9356L17.4013 25.4085C16.6986 25.5624 15.9815 25.64 15.2622 25.64H10.6579C9.73198 25.64 8.81055 25.5114 7.92001 25.2579L5.46738 24.5597C5.37438 24.5332 5.2831 24.506 5.19255 24.4721C4.66953 24.2762 2.74241 23.4534 1.39344 21.5333C1 20.04 1 18.92 1 18.92L4.31982 7.71952C4.46649 7.22465 4.54098 6.71121 4.54098 6.19506C4.54098 3.96676 5.91852 1.97048 8.00181 1.17976Z" fill="#EC8F5E"/>
<path d="M8.47541 1L8.00181 1.17976C5.91852 1.97048 4.54098 3.96676 4.54098 6.19506V6.19506C4.54098 6.71121 4.46649 7.22465 4.31982 7.71952L1 18.92M8.47541 1H16.7377M8.47541 1V5.85333L6.90164 18.92M16.7377 1L17.6086 1.30051C19.6774 2.01434 21.0656 3.96184 21.0656 6.15028V6.15028C21.0656 6.6955 21.1525 7.23723 21.323 7.75508L25 18.92M16.7377 1V4.95727C16.7377 5.55345 16.791 6.14844 16.897 6.73512L19.0984 18.92M25 18.92H19.0984M25 18.92L24.9633 19.1638C24.7321 20.6994 23.9948 22.1138 22.8683 23.1827V23.1827C21.9464 24.0576 20.8027 24.6637 19.5612 24.9356L17.4013 25.4085C16.6986 25.5624 15.9815 25.64 15.2622 25.64H10.6579C9.73198 25.64 8.81055 25.5114 7.92001 25.2579L5.46738 24.5597C5.37438 24.5332 5.2831 24.506 5.19255 24.4721C4.66953 24.2762 2.74241 23.4534 1.39344 21.5333M1 18.92H6.90164M1 18.92C1 18.92 1 20.04 1.39344 21.5333M6.90164 18.92H19.0984M1.39344 21.5333L4.40386 22.1046C5.01851 22.2213 5.64275 22.28 6.26837 22.28H9.65574" stroke="#282828" stroke-width="1.5" stroke-linecap="round"/>
<path d="M13.883 21.5769C14.1833 22.0043 14.2032 22.5687 13.9337 23.0162C13.4208 23.868 12.1858 23.868 11.6728 23.0162C11.4033 22.5687 11.4232 22.0043 11.7235 21.5769C12.249 20.8289 13.3575 20.8289 13.883 21.5769Z" stroke="#282828" stroke-width="1.5" stroke-linecap="round"/>
<path d="M12.8032 26.7598V28.9998" stroke="#282828" stroke-width="1.5" stroke-linecap="round"/>
<path d="M16.7378 26.7598L18.3116 28.2531" stroke="#282828" stroke-width="1.5" stroke-linecap="round"/>
<path d="M8.86894 26.7598L7.29517 28.2531" stroke="#282828" stroke-width="1.5" stroke-linecap="round"/>
</svg>
