<svg width="16" height="16" viewBox="0 0 16 16" fill="none" xmlns="http://www.w3.org/2000/svg">
<g clip-path="url(#clip0_151_9115)">
<path d="M10.6667 4.67C9.9285 4.02398 8.98108 3.66751 8.00008 3.66667C5.69875 3.66667 3.83341 5.60667 3.83341 8C3.83341 10.3933 5.69875 12.3333 8.00008 12.3333C9.85341 12.3333 11.4247 11.074 11.9661 9.33333H8.33341V6.66667H14.7094C14.7907 7.09867 14.8334 7.544 14.8334 8C14.8334 11.866 11.7734 15 8.00008 15C4.22675 15 1.16675 11.866 1.16675 8C1.16675 4.134 4.22675 1 8.00008 1C9.75008 1 11.3467 1.67333 12.5547 2.782L10.6667 4.67Z" stroke="#EC8F5E" stroke-width="1.5" stroke-linejoin="round"/>
<path d="M10.4634 11.4951L12.5547 13.2178" stroke="#EC8F5E" stroke-width="1.5" stroke-linejoin="round"/>
<path d="M4.034 9.3335L1.87134 11.0995" stroke="#EC8F5E" stroke-width="1.5" stroke-linejoin="round"/>
<path d="M4.034 6.66657L1.87134 4.8999" stroke="#EC8F5E" stroke-width="1.5" stroke-linejoin="round"/>
</g>
<defs>
<clipPath id="clip0_151_9115">
<rect width="16" height="16" fill="white"/>
</clipPath>
</defs>
</svg>
