<svg width="20" height="20" viewBox="0 0 20 20" fill="none" xmlns="http://www.w3.org/2000/svg">
<g clip-path="url(#clip0_511_1013)">
<path d="M13.3333 5.8375C12.4104 5.02997 11.2262 4.58439 9.99992 4.58333C7.12325 4.58333 4.79158 7.00833 4.79158 10C4.79158 12.9917 7.12325 15.4167 9.99992 15.4167C12.3166 15.4167 14.2808 13.8425 14.9574 11.6667H10.4166V8.33333H18.3866C18.4882 8.87333 18.5416 9.43 18.5416 10C18.5416 14.8325 14.7166 18.75 9.99992 18.75C5.28325 18.75 1.45825 14.8325 1.45825 10C1.45825 5.1675 5.28325 1.25 9.99992 1.25C12.1874 1.25 14.1833 2.09167 15.6933 3.4775L13.3333 5.8375Z" stroke="#F3B664" stroke-width="1.5" stroke-linejoin="round"/>
<path d="M13.0791 14.3691L15.6933 16.5225" stroke="#F3B664" stroke-width="1.5" stroke-linejoin="round"/>
<path d="M5.04244 11.6665L2.33911 13.874" stroke="#F3B664" stroke-width="1.5" stroke-linejoin="round"/>
<path d="M5.04244 8.33333L2.33911 6.125" stroke="#F3B664" stroke-width="1.5" stroke-linejoin="round"/>
</g>
<defs>
<clipPath id="clip0_511_1013">
<rect width="20" height="20" fill="white"/>
</clipPath>
</defs>
</svg>
