<svg width="200" height="200" viewBox="0 0 200 200" fill="none" xmlns="http://www.w3.org/2000/svg">
<rect width="200" height="200" rx="20" fill="white"/>
<path d="M110.523 95.2109H106.422V93.5703H96.168V95.2109H92.0664C91.4862 95.2109 90.9298 95.4414 90.5196 95.8516C90.1094 96.2619 89.8789 96.8183 89.8789 97.3984V108.746C89.8789 109.326 90.1094 109.883 90.5196 110.293C90.9298 110.703 91.4862 110.934 92.0664 110.934H110.523C111.104 110.934 111.66 110.703 112.07 110.293C112.48 109.883 112.711 109.326 112.711 108.746V97.3984C112.711 96.8183 112.48 96.2619 112.07 95.8516C111.66 95.4414 111.104 95.2109 110.523 95.2109ZM101.294 109.703C97.6391 109.703 94.6662 106.728 94.6662 103.073C94.6662 99.4175 97.6391 96.4425 101.294 96.4425C104.95 96.4425 107.925 99.4175 107.925 103.073C107.925 106.728 104.95 109.701 101.294 109.701V109.703ZM101.294 98.6289C100.711 98.629 100.133 98.744 99.5936 98.9674C99.0544 99.1908 98.5645 99.5183 98.1518 99.931C97.7392 100.344 97.4119 100.834 97.1886 101.373C96.9653 101.912 96.8504 102.49 96.8505 103.074C96.8505 103.658 96.9656 104.235 97.189 104.775C97.4124 105.314 97.7398 105.804 98.1526 106.216C98.5654 106.629 99.0554 106.956 99.5946 107.18C100.134 107.403 100.712 107.518 101.295 107.518C102.474 107.518 103.605 107.049 104.438 106.216C105.272 105.382 105.74 104.251 105.74 103.072C105.74 101.893 105.271 100.763 104.438 99.9293C103.604 99.0958 102.473 98.6277 101.294 98.6278V98.6289Z" fill="black"/>
<g clip-path="url(#clip0_398_3627)">
<rect x="162" y="11" width="30" height="30" fill="white"/>
<path d="M185.71 21.0396C186.1 20.6496 186.1 19.9996 185.71 19.6296L183.37 17.2896C183 16.8996 182.35 16.8996 181.96 17.2896L180.12 19.1196L183.87 22.8696M168 31.2496V34.9996H171.75L182.81 23.9296L179.06 20.1796L168 31.2496Z" fill="black"/>
</g>
<defs>
<clipPath id="clip0_398_3627">
<rect x="165" y="14" width="24" height="24" rx="12" fill="white"/>
</clipPath>
</defs>
</svg>
