<svg width="24" height="24" viewBox="0 0 24 24" fill="none" xmlns="http://www.w3.org/2000/svg">
<mask id="path-1-inside-1_431_1609" fill="white">
<path d="M12 21C10.7613 21 9.59467 20.7633 8.50001 20.29C7.40534 19.816 6.45201 19.1727 5.64001 18.36C4.82801 17.5473 4.18467 16.594 3.71001 15.5C3.23534 14.406 2.99867 13.2393 3.00001 12C3.00001 10.7573 3.23667 9.58967 3.71001 8.497C4.18401 7.40367 4.82734 6.45133 5.64001 5.64C6.45267 4.82867 7.40601 4.18533 8.50001 3.71C9.59467 3.23667 10.7613 3 12 3C13.2427 3 14.4103 3.23667 15.503 3.71C16.5963 4.184 17.549 4.82733 18.361 5.64C19.173 6.45267 19.816 7.405 20.29 8.497C20.7633 9.59033 21 10.758 21 12C21 13.2387 20.7633 14.4053 20.29 15.5C19.816 16.5947 19.1727 17.548 18.36 18.36C17.5473 19.172 16.595 19.8153 15.503 20.29C14.411 20.7647 13.2433 21.0013 12 21ZM12 20.008C12.5867 19.254 13.0707 18.5137 13.452 17.787C13.8327 17.0603 14.1423 16.247 14.381 15.347H9.61901C9.88367 16.2977 10.1997 17.1363 10.567 17.863C10.935 18.5897 11.4127 19.3047 12 20.008ZM10.727 19.858C10.2603 19.308 9.83434 18.628 9.44901 17.818C9.06367 17.0087 8.77701 16.1847 8.58901 15.346H4.75401C5.32734 16.5893 6.13967 17.6093 7.19101 18.406C8.24301 19.202 9.42167 19.686 10.727 19.858ZM13.273 19.858C14.5783 19.686 15.757 19.202 16.809 18.406C17.8603 17.6093 18.6727 16.5893 19.246 15.346H15.412C15.1587 16.1973 14.8397 17.0277 14.455 17.837C14.0697 18.647 13.6757 19.3213 13.273 19.858ZM4.34601 14.347H8.38101C8.30501 13.9363 8.25167 13.5363 8.22101 13.147C8.18901 12.7583 8.17301 12.376 8.17301 12C8.17301 11.624 8.18867 11.2417 8.22001 10.853C8.25134 10.4643 8.30467 10.0643 8.38001 9.653H4.34701C4.23834 9.99967 4.15334 10.3773 4.09201 10.786C4.03067 11.194 4.00001 11.5987 4.00001 12C4.00001 12.4013 4.03034 12.8063 4.09101 13.215C4.15167 13.6237 4.23667 14.0007 4.34601 14.346M9.38101 14.346H14.619C14.695 13.936 14.7483 13.5427 14.779 13.166C14.811 12.79 14.827 12.4013 14.827 12C14.827 11.5987 14.8113 11.21 14.78 10.834C14.7487 10.458 14.6953 10.0647 14.62 9.654H9.38001C9.30467 10.064 9.25134 10.4573 9.22001 10.834C9.18867 11.21 9.17301 11.5987 9.17301 12C9.17301 12.4013 9.18867 12.79 9.22001 13.166C9.25134 13.542 9.30567 13.9353 9.38101 14.346ZM15.62 14.346H19.654C19.7627 14 19.8477 13.623 19.909 13.215C19.9697 12.8063 20 12.4013 20 12C20 11.5987 19.9697 11.1937 19.909 10.785C19.8483 10.3763 19.7633 9.99933 19.654 9.654H15.619C15.695 10.064 15.7483 10.4637 15.779 10.853C15.811 11.2423 15.827 11.6247 15.827 12C15.827 12.3753 15.8113 12.7577 15.78 13.147C15.7487 13.5363 15.6953 13.9363 15.62 14.347M15.412 8.654H19.246C18.66 7.38467 17.8573 6.36467 16.838 5.594C15.8187 4.82333 14.6303 4.333 13.273 4.123C13.7397 4.737 14.1593 5.43933 14.532 6.23C14.9047 7.02 15.198 7.828 15.412 8.654ZM9.61901 8.654H14.381C14.117 7.71533 13.7913 6.86667 13.404 6.108C13.0167 5.34933 12.5487 4.644 12 3.992C11.4513 4.64333 10.9833 5.34867 10.596 6.108C10.2087 6.86733 9.88234 7.716 9.61901 8.654ZM4.75501 8.654H8.58901C8.80301 7.82867 9.09634 7.02067 9.46901 6.23C9.84167 5.43933 10.2613 4.737 10.728 4.123C9.35867 4.33367 8.16734 4.827 7.15401 5.603C6.14067 6.38033 5.34067 7.397 4.75401 8.653"/>
</mask>
<path d="M12 21C10.7613 21 9.59467 20.7633 8.50001 20.29C7.40534 19.816 6.45201 19.1727 5.64001 18.36C4.82801 17.5473 4.18467 16.594 3.71001 15.5C3.23534 14.406 2.99867 13.2393 3.00001 12C3.00001 10.7573 3.23667 9.58967 3.71001 8.497C4.18401 7.40367 4.82734 6.45133 5.64001 5.64C6.45267 4.82867 7.40601 4.18533 8.50001 3.71C9.59467 3.23667 10.7613 3 12 3C13.2427 3 14.4103 3.23667 15.503 3.71C16.5963 4.184 17.549 4.82733 18.361 5.64C19.173 6.45267 19.816 7.405 20.29 8.497C20.7633 9.59033 21 10.758 21 12C21 13.2387 20.7633 14.4053 20.29 15.5C19.816 16.5947 19.1727 17.548 18.36 18.36C17.5473 19.172 16.595 19.8153 15.503 20.29C14.411 20.7647 13.2433 21.0013 12 21ZM12 20.008C12.5867 19.254 13.0707 18.5137 13.452 17.787C13.8327 17.0603 14.1423 16.247 14.381 15.347H9.61901C9.88367 16.2977 10.1997 17.1363 10.567 17.863C10.935 18.5897 11.4127 19.3047 12 20.008ZM10.727 19.858C10.2603 19.308 9.83434 18.628 9.44901 17.818C9.06367 17.0087 8.77701 16.1847 8.58901 15.346H4.75401C5.32734 16.5893 6.13967 17.6093 7.19101 18.406C8.24301 19.202 9.42167 19.686 10.727 19.858ZM13.273 19.858C14.5783 19.686 15.757 19.202 16.809 18.406C17.8603 17.6093 18.6727 16.5893 19.246 15.346H15.412C15.1587 16.1973 14.8397 17.0277 14.455 17.837C14.0697 18.647 13.6757 19.3213 13.273 19.858ZM4.34601 14.347H8.38101C8.30501 13.9363 8.25167 13.5363 8.22101 13.147C8.18901 12.7583 8.17301 12.376 8.17301 12C8.17301 11.624 8.18867 11.2417 8.22001 10.853C8.25134 10.4643 8.30467 10.0643 8.38001 9.653H4.34701C4.23834 9.99967 4.15334 10.3773 4.09201 10.786C4.03067 11.194 4.00001 11.5987 4.00001 12C4.00001 12.4013 4.03034 12.8063 4.09101 13.215C4.15167 13.6237 4.23667 14.0007 4.34601 14.346M9.38101 14.346H14.619C14.695 13.936 14.7483 13.5427 14.779 13.166C14.811 12.79 14.827 12.4013 14.827 12C14.827 11.5987 14.8113 11.21 14.78 10.834C14.7487 10.458 14.6953 10.0647 14.62 9.654H9.38001C9.30467 10.064 9.25134 10.4573 9.22001 10.834C9.18867 11.21 9.17301 11.5987 9.17301 12C9.17301 12.4013 9.18867 12.79 9.22001 13.166C9.25134 13.542 9.30567 13.9353 9.38101 14.346ZM15.62 14.346H19.654C19.7627 14 19.8477 13.623 19.909 13.215C19.9697 12.8063 20 12.4013 20 12C20 11.5987 19.9697 11.1937 19.909 10.785C19.8483 10.3763 19.7633 9.99933 19.654 9.654H15.619C15.695 10.064 15.7483 10.4637 15.779 10.853C15.811 11.2423 15.827 11.6247 15.827 12C15.827 12.3753 15.8113 12.7577 15.78 13.147C15.7487 13.5363 15.6953 13.9363 15.62 14.347M15.412 8.654H19.246C18.66 7.38467 17.8573 6.36467 16.838 5.594C15.8187 4.82333 14.6303 4.333 13.273 4.123C13.7397 4.737 14.1593 5.43933 14.532 6.23C14.9047 7.02 15.198 7.828 15.412 8.654ZM9.61901 8.654H14.381C14.117 7.71533 13.7913 6.86667 13.404 6.108C13.0167 5.34933 12.5487 4.644 12 3.992C11.4513 4.64333 10.9833 5.34867 10.596 6.108C10.2087 6.86733 9.88234 7.716 9.61901 8.654ZM4.75501 8.654H8.58901C8.80301 7.82867 9.09634 7.02067 9.46901 6.23C9.84167 5.43933 10.2613 4.737 10.728 4.123C9.35867 4.33367 8.16734 4.827 7.15401 5.603C6.14067 6.38033 5.34067 7.397 4.75401 8.653" fill="#EC8F5E"/>
<path d="M12 21L12.0011 20H12V21ZM8.50001 20.29L8.10265 21.2077L8.10312 21.2079L8.50001 20.29ZM3.00001 12L4.00001 12.0011V12H3.00001ZM3.71001 8.497L2.79252 8.09924L2.7924 8.0995L3.71001 8.497ZM8.50001 3.71L8.10312 2.79213L8.1015 2.79283L8.50001 3.71ZM15.503 3.71L15.9008 2.79251L15.9005 2.7924L15.503 3.71ZM20.29 8.497L21.2077 8.09971L21.2073 8.09883L20.29 8.497ZM20.29 15.5L21.2077 15.8974L21.2079 15.8969L20.29 15.5ZM12 20.008L11.2324 20.649L12.0275 21.6011L12.7892 20.6221L12 20.008ZM13.452 17.787L14.3375 18.2517L14.3378 18.251L13.452 17.787ZM14.381 15.347L15.3476 15.6033L15.6808 14.347H14.381V15.347ZM9.61901 15.347V14.347H8.30257L8.65564 15.6152L9.61901 15.347ZM10.567 17.863L9.67455 18.3141L9.67488 18.3148L10.567 17.863ZM10.727 19.858L10.5964 20.8494L13.1671 21.1882L11.4895 19.211L10.727 19.858ZM9.44901 17.818L10.352 17.3884L10.3519 17.3881L9.44901 17.818ZM8.58901 15.346L9.56479 15.1273L9.38966 14.346H8.58901V15.346ZM4.75401 15.346V14.346H3.19168L3.8459 15.7647L4.75401 15.346ZM7.19101 18.406L6.58705 19.203L6.58762 19.2034L7.19101 18.406ZM13.273 19.858L12.4731 19.2578L11.0458 21.1601L13.4036 20.8494L13.273 19.858ZM16.809 18.406L17.4124 19.2034L17.413 19.203L16.809 18.406ZM19.246 15.346L20.1541 15.7647L20.8083 14.346H19.246V15.346ZM15.412 15.346V14.346H14.6662L14.4535 15.0608L15.412 15.346ZM14.455 17.837L15.358 18.2666L15.3582 18.2663L14.455 17.837ZM8.38101 14.347V15.347H9.58305L9.36431 14.165L8.38101 14.347ZM8.22101 13.147L9.21792 13.0685L9.21763 13.0649L8.22101 13.147ZM8.38001 9.653L9.36365 9.83315L9.57978 8.653H8.38001V9.653ZM4.34701 9.653V8.653H3.61249L3.39279 9.35389L4.34701 9.653ZM4.09201 10.786L5.08089 10.9347L5.08093 10.9344L4.09201 10.786ZM9.38101 14.346L8.39742 14.5264L8.54776 15.346H9.38101V14.346ZM14.619 14.346V15.346H15.4507L15.6023 14.5283L14.619 14.346ZM14.779 13.166L13.7826 13.0812L13.7823 13.0849L14.779 13.166ZM14.62 9.654L15.6036 9.47357L15.4532 8.654H14.62V9.654ZM9.38001 9.654V8.654H8.54701L8.39647 9.47329L9.38001 9.654ZM9.22001 10.834L10.2166 10.917L10.2166 10.9169L9.22001 10.834ZM19.654 14.346V15.346H20.3881L20.6081 14.6456L19.654 14.346ZM19.909 13.215L20.8979 13.3637L20.8982 13.3618L19.909 13.215ZM19.654 9.654L20.6074 9.35216L20.3863 8.654H19.654V9.654ZM15.619 9.654V8.654H14.4166L14.6358 9.83626L15.619 9.654ZM15.779 10.853L14.7821 10.9315L14.7824 10.9349L15.779 10.853ZM15.412 8.654L14.444 8.9048L14.6381 9.654H15.412V8.654ZM19.246 8.654V9.654H20.8091L20.1539 8.23485L19.246 8.654ZM13.273 4.123L13.4259 3.13476L10.978 2.75603L12.4769 4.72811L13.273 4.123ZM14.532 6.23L13.6274 6.65635L13.6276 6.65664L14.532 6.23ZM9.61901 8.654L8.65623 8.38371L8.29961 9.654H9.61901V8.654ZM14.381 8.654V9.654H15.7011L15.3437 8.38325L14.381 8.654ZM12 3.992L12.7651 3.34813L12.0004 2.43936L11.2352 3.34774L12 3.992ZM8.58901 8.654V9.654H9.36278L9.557 8.90499L8.58901 8.654ZM10.728 4.123L11.5242 4.72811L13.0212 2.75844L10.5759 3.13463L10.728 4.123ZM7.15401 5.603L6.54601 4.80906L6.54535 4.80956L7.15401 5.603ZM12 20C10.8925 20 9.8614 19.7892 8.89689 19.3721L8.10312 21.2079C9.32794 21.7375 10.6302 22 12 22V20ZM8.89736 19.3723C7.9139 18.9465 7.06686 18.3732 6.3474 17.6532L4.93261 19.0668C5.83715 19.9721 6.89678 20.6855 8.10265 21.2077L8.89736 19.3723ZM6.3474 17.6532C5.62753 16.9327 5.054 16.0852 4.62738 15.102L2.79263 15.898C3.31535 17.1028 4.02848 18.1619 4.93261 19.0668L6.3474 17.6532ZM4.62738 15.102C4.20951 14.1389 3.99881 13.1086 4.00001 12.0011L2.00001 11.9989C1.99853 13.37 2.26117 14.6731 2.79263 15.898L4.62738 15.102ZM4.00001 12C4.00001 10.888 4.211 9.85623 4.62761 8.8945L2.7924 8.0995C2.26235 9.3231 2.00001 10.6267 2.00001 12H4.00001ZM4.62749 8.89476C5.05327 7.91267 5.62646 7.06658 6.34653 6.34769L4.93348 4.93231C4.02822 5.83609 3.31475 6.89466 2.79252 8.09924L4.62749 8.89476ZM6.34653 6.34769C7.06712 5.62828 7.91487 5.05455 8.89851 4.62717L8.1015 2.79283C6.89714 3.31612 5.83822 4.02906 4.93348 4.93231L6.34653 6.34769ZM8.89689 4.62787C9.8614 4.21081 10.8925 4 12 4V2C10.6302 2 9.32794 2.26252 8.10312 2.79213L8.89689 4.62787ZM12 4C13.112 4 14.1438 4.21099 15.1055 4.6276L15.9005 2.7924C14.6769 2.26234 13.3733 2 12 2V4ZM15.1052 4.62749C16.0874 5.05329 16.9339 5.62657 17.6536 6.34682L19.0684 4.93318C18.1641 4.0281 17.1053 3.31471 15.9008 2.79251L15.1052 4.62749ZM17.6536 6.34682C18.3737 7.06747 18.9468 7.91407 19.3727 8.89517L21.2073 8.09883C20.6852 6.89593 19.9723 5.83786 19.0684 4.93318L17.6536 6.34682ZM19.3723 8.89429C19.789 9.85688 20 10.8887 20 12H22C22 10.6273 21.7376 9.32378 21.2077 8.09971L19.3723 8.89429ZM20 12C20 13.1075 19.7892 14.1386 19.3721 15.1031L21.2079 15.8969C21.7375 14.6721 22 13.3698 22 12H20ZM19.3723 15.1026C18.9465 16.0861 18.3732 16.9331 17.6532 17.6526L19.0668 19.0674C19.9721 18.1629 20.6855 17.1032 21.2077 15.8974L19.3723 15.1026ZM17.6532 17.6526C16.9324 18.3728 16.0857 18.9463 15.1044 19.3729L15.9017 21.2071C17.1043 20.6843 18.1623 19.9712 19.0668 19.0674L17.6532 17.6526ZM15.1044 19.3729C14.1441 19.7903 13.1131 20.0012 12.0011 20L11.9989 22C13.3736 22.0015 14.678 21.739 15.9017 21.2071L15.1044 19.3729ZM12.7892 20.6221C13.4066 19.8287 13.9245 19.0386 14.3375 18.2517L12.5665 17.3223C12.2168 17.9887 11.7668 18.6793 11.2108 19.3939L12.7892 20.6221ZM14.3378 18.251C14.7573 17.4502 15.0923 16.5659 15.3476 15.6033L13.4144 15.0907C13.1923 15.9281 12.908 16.6705 12.5662 17.323L14.3378 18.251ZM14.381 14.347H9.61901V16.347H14.381V14.347ZM8.65564 15.6152C8.93434 16.6162 9.27221 17.5182 9.67455 18.3141L11.4595 17.4119C11.1271 16.7545 10.833 15.9791 10.5824 15.0788L8.65564 15.6152ZM9.67488 18.3148C10.081 19.1168 10.6025 19.8946 11.2324 20.649L12.7676 19.367C12.2229 18.7147 11.789 18.0625 11.4591 17.4112L9.67488 18.3148ZM11.4895 19.211C11.0906 18.7408 10.7088 18.1383 10.352 17.3884L8.54598 18.2476C8.95991 19.1177 9.43011 19.8752 9.9645 20.505L11.4895 19.211ZM10.3519 17.3881C9.99729 16.6433 9.73577 15.89 9.56479 15.1273L7.61322 15.5647C7.81824 16.4793 8.13005 17.374 8.54612 18.2479L10.3519 17.3881ZM8.58901 14.346H4.75401V16.346H8.58901V14.346ZM3.8459 15.7647C4.48531 17.1514 5.39975 18.3033 6.58705 19.203L7.79496 17.609C6.87959 16.9153 6.16937 16.0273 5.66211 14.9272L3.8459 15.7647ZM6.58762 19.2034C7.77745 20.1037 9.11895 20.6548 10.5964 20.8494L10.8576 18.8666C9.72439 18.7172 8.70856 18.3003 7.7944 17.6086L6.58762 19.2034ZM13.4036 20.8494C14.8811 20.6548 16.2226 20.1037 17.4124 19.2034L16.2056 17.6086C15.2915 18.3003 14.2756 18.7172 13.1424 18.8666L13.4036 20.8494ZM17.413 19.203C18.6003 18.3033 19.5147 17.1514 20.1541 15.7647L18.3379 14.9272C17.8306 16.0273 17.1204 16.9153 16.2051 17.609L17.413 19.203ZM19.246 14.346H15.412V16.346H19.246V14.346ZM14.4535 15.0608C14.215 15.8623 13.9146 16.6445 13.5518 17.4077L15.3582 18.2663C15.7648 17.4108 16.1023 16.5324 16.3705 15.6312L14.4535 15.0608ZM13.552 17.4074C13.1861 18.1764 12.8248 18.7891 12.4731 19.2578L14.0729 20.4582C14.5265 19.8536 14.9532 19.1176 15.358 18.2666L13.552 17.4074ZM4.34601 15.347H8.38101V13.347H4.34601V15.347ZM9.36431 14.165C9.29421 13.7862 9.24567 13.4208 9.21792 13.0685L7.22409 13.2255C7.25767 13.6518 7.3158 14.0864 7.3977 14.529L9.36431 14.165ZM9.21763 13.0649C9.1878 12.7026 9.17301 12.3476 9.17301 12H7.17301C7.17301 12.4044 7.19021 12.8141 7.22438 13.2291L9.21763 13.0649ZM9.17301 12C9.17301 11.6518 9.18751 11.2963 9.21677 10.9334L7.22324 10.7726C7.18983 11.1871 7.17301 11.5962 7.17301 12H9.17301ZM9.21677 10.9334C9.24522 10.5805 9.29393 10.2138 9.36365 9.83315L7.39637 9.47285C7.31542 9.91485 7.25746 10.3482 7.22324 10.7726L9.21677 10.9334ZM8.38001 8.653H4.34701V10.653H8.38001V8.653ZM3.39279 9.35389C3.26675 9.75598 3.17105 10.1847 3.10308 10.6376L5.08093 10.9344C5.13562 10.57 5.20993 10.2434 5.30122 9.95211L3.39279 9.35389ZM3.10312 10.6373C3.03459 11.0932 3.00001 11.5475 3.00001 12H5.00001C5.00001 11.6498 5.02675 11.2948 5.08089 10.9347L3.10312 10.6373ZM3.00001 12C3.00001 12.4519 3.03417 12.906 3.10185 13.3618L5.08017 13.0682C5.0265 12.7067 5.00001 12.3508 5.00001 12H3.00001ZM3.10185 13.3618C3.16925 13.8159 3.26524 14.2454 3.39265 14.6478L5.29937 14.0442C5.20811 13.7559 5.1341 13.4315 5.08017 13.0682L3.10185 13.3618ZM9.38101 15.346H14.619V13.346H9.38101V15.346ZM15.6023 14.5283C15.6838 14.0882 15.742 13.661 15.7757 13.2471L13.7823 13.0849C13.7547 13.4243 13.7062 13.7838 13.6358 14.1637L15.6023 14.5283ZM15.7754 13.2508C15.8099 12.8449 15.827 12.4279 15.827 12H13.827C13.827 12.3748 13.8121 12.7351 13.7826 13.0812L15.7754 13.2508ZM15.827 12C15.827 11.5727 15.8103 11.1563 15.7766 10.751L13.7835 10.917C13.8124 11.2637 13.827 11.6246 13.827 12H15.827ZM15.7766 10.751C15.7422 10.3391 15.6842 9.91312 15.6036 9.47357L13.6364 9.83443C13.7065 10.2162 13.7551 10.5769 13.7835 10.917L15.7766 10.751ZM14.62 8.654H9.38001V10.654H14.62V8.654ZM8.39647 9.47329C8.31579 9.91241 8.25777 10.3385 8.22345 10.7511L10.2166 10.9169C10.2449 10.5762 10.2936 10.2156 10.3635 9.83471L8.39647 9.47329ZM8.22346 10.751C8.18968 11.1563 8.17301 11.5727 8.17301 12H10.173C10.173 11.6246 10.1877 11.2637 10.2166 10.917L8.22346 10.751ZM8.17301 12C8.17301 12.4273 8.18968 12.8437 8.22346 13.249L10.2166 13.083C10.1877 12.7363 10.173 12.3754 10.173 12H8.17301ZM8.22346 13.249C8.25791 13.6625 8.31711 14.0886 8.39742 14.5264L10.3646 14.1656C10.2942 13.782 10.2448 13.4215 10.2166 13.083L8.22346 13.249ZM15.62 15.346H19.654V13.346H15.62V15.346ZM20.6081 14.6456C20.7342 14.2441 20.8299 13.816 20.8979 13.3637L18.9201 13.0663C18.8654 13.43 18.7912 13.7559 18.7 14.0464L20.6081 14.6456ZM20.8982 13.3618C20.9658 12.906 21 12.4519 21 12H19C19 12.3508 18.9735 12.7067 18.9198 13.0682L20.8982 13.3618ZM21 12C21 11.5481 20.9658 11.094 20.8982 10.6382L18.9198 10.9318C18.9735 11.2933 19 11.6492 19 12H21ZM20.8982 10.6382C20.8308 10.1841 20.7348 9.75459 20.6074 9.35216L18.7006 9.95584C18.7919 10.2441 18.8659 10.5686 18.9198 10.9318L20.8982 10.6382ZM19.654 8.654H15.619V10.654H19.654V8.654ZM14.6358 9.83626C14.7058 10.2142 14.7543 10.5792 14.7821 10.9315L16.7759 10.7745C16.7423 10.3481 16.6842 9.91377 16.6023 9.47174L14.6358 9.83626ZM14.7824 10.9349C14.8122 11.2981 14.827 11.6531 14.827 12H16.827C16.827 11.5962 16.8098 11.1866 16.7756 10.7711L14.7824 10.9349ZM14.827 12C14.827 12.3475 14.8125 12.7031 14.7832 13.0668L16.7768 13.2272C16.8102 12.8123 16.827 12.4032 16.827 12H14.827ZM14.7832 13.0668C14.7548 13.4203 14.7061 13.7868 14.6364 14.1666L16.6036 14.5274C16.6846 14.0859 16.7426 13.6524 16.7768 13.2272L14.7832 13.0668ZM15.412 9.654H19.246V7.654H15.412V9.654ZM20.1539 8.23485C19.5056 6.83055 18.6037 5.67529 17.4411 4.79632L16.2349 6.39168C17.111 7.05404 17.8144 7.93878 18.3381 9.07315L20.1539 8.23485ZM17.4411 4.79632C16.28 3.91847 14.9342 3.36811 13.4259 3.13476L13.1201 5.11124C14.3265 5.29789 15.3574 5.7282 16.2349 6.39168L17.4411 4.79632ZM12.4769 4.72811C12.8961 5.27968 13.2807 5.92067 13.6274 6.65635L15.4366 5.80365C15.038 4.95799 14.5833 4.19432 14.0692 3.51789L12.4769 4.72811ZM13.6276 6.65664C13.9742 7.39148 14.246 8.14069 14.444 8.9048L16.38 8.4032C16.15 7.51531 15.8351 6.64852 15.4364 5.80336L13.6276 6.65664ZM9.61901 9.654H14.381V7.654H9.61901V9.654ZM15.3437 8.38325C15.0643 7.38997 14.7159 6.47847 14.2946 5.65329L12.5134 6.56271C12.8667 7.25486 13.1697 8.0407 13.4184 8.92475L15.3437 8.38325ZM14.2946 5.65329C13.8728 4.82698 13.3627 4.05819 12.7651 3.34813L11.2349 4.63587C11.7347 5.22981 12.1606 5.87168 12.5134 6.56271L14.2946 5.65329ZM11.2352 3.34774C10.6374 4.05741 10.1271 4.82645 9.7052 5.65361L11.4868 6.56239C11.8395 5.87088 12.2653 5.22926 12.7648 4.63626L11.2352 3.34774ZM9.7052 5.65361C9.28425 6.47885 8.93513 7.39024 8.65623 8.38371L10.5818 8.92429C10.8295 8.04176 11.1331 7.25582 11.4868 6.56239L9.7052 5.65361ZM4.75501 9.654H8.58901V7.654H4.75501V9.654ZM9.557 8.90499C9.75497 8.14146 10.0268 7.39208 10.3736 6.65635L8.56445 5.80365C8.16589 6.64925 7.85104 7.51588 7.62102 8.40301L9.557 8.90499ZM10.3736 6.65635C10.7203 5.92067 11.1049 5.27968 11.5242 4.72811L9.93186 3.51789C9.41774 4.19432 8.96303 4.95799 8.56445 5.80365L10.3736 6.65635ZM10.5759 3.13463C9.05528 3.36858 7.70382 3.92242 6.54601 4.80906L7.762 6.39694C8.63086 5.73158 9.66206 5.29876 10.8801 5.11137L10.5759 3.13463ZM6.54535 4.80956C5.39392 5.69283 4.49666 6.84101 3.84797 8.2298L5.66004 9.0762C6.18468 7.95299 6.88742 7.06783 7.76266 6.39644L6.54535 4.80956Z" fill="#EC8F5E" mask="url(#path-1-inside-1_431_1609)"/>
</svg>
