<svg width="36" height="36" viewBox="0 0 36 36" fill="none" xmlns="http://www.w3.org/2000/svg">
<g clip-path="url(#clip0_151_6591)">
<path d="M8.625 15.375C8.10582 15.375 7.59831 15.5289 7.16662 15.8173C6.73495 16.1058 6.39849 16.5158 6.19981 16.9955C6.00114 17.4752 5.94915 18.0028 6.05044 18.5121C6.15172 19.0213 6.40173 19.489 6.76884 19.8561C7.13596 20.2233 7.60369 20.4733 8.11288 20.5746C8.62209 20.6758 9.14989 20.6238 9.62955 20.4252C10.1092 20.2265 10.5192 19.89 10.8076 19.4583C11.0961 19.0268 11.25 18.5191 11.25 18C11.25 17.3038 10.9734 16.6362 10.4812 16.1439C9.98887 15.6516 9.32119 15.375 8.625 15.375Z" stroke="black" stroke-width="3" stroke-miterlimit="10"/>
<path d="M27.375 15.375C26.8559 15.375 26.3482 15.5289 25.9167 15.8173C25.485 16.1058 25.1485 16.5158 24.9498 16.9955C24.7512 17.4752 24.6992 18.0028 24.8004 18.5121C24.9018 19.0213 25.1517 19.489 25.5189 19.8561C25.886 20.2233 26.3537 20.4733 26.8629 20.5746C27.3722 20.6758 27.8999 20.6238 28.3796 20.4252C28.8593 20.2265 29.2692 19.89 29.5576 19.4583C29.8461 19.0268 30 18.5191 30 18C30 17.3038 29.7234 16.6362 29.2311 16.1439C28.7388 15.6516 28.0712 15.375 27.375 15.375Z" stroke="black" stroke-width="3" stroke-miterlimit="10"/>
<path d="M18 15.375C17.4809 15.375 16.9732 15.5289 16.5417 15.8173C16.11 16.1058 15.7735 16.5158 15.5748 16.9955C15.3762 17.4752 15.3242 18.0028 15.4254 18.5121C15.5268 19.0213 15.7767 19.489 16.1439 19.8561C16.511 20.2233 16.9787 20.4733 17.4879 20.5746C17.9972 20.6758 18.5248 20.6238 19.0045 20.4252C19.4842 20.2265 19.8942 19.89 20.1827 19.4583C20.4711 19.0268 20.625 18.5191 20.625 18C20.625 17.3038 20.3484 16.6362 19.8561 16.1439C19.3638 15.6516 18.6962 15.375 18 15.375Z" stroke="black" stroke-width="3" stroke-miterlimit="10"/>
<path d="M1.125 18C1.125 22.4756 2.90289 26.7678 6.06758 29.9325C9.23225 33.097 13.5245 34.875 18 34.875C22.4756 34.875 26.7678 33.097 29.9325 29.9325C33.097 26.7678 34.875 22.4756 34.875 18C34.875 13.5245 33.097 9.23225 29.9325 6.06758C26.7678 2.90289 22.4756 1.125 18 1.125C13.5245 1.125 9.23225 2.90289 6.06758 6.06758C2.90289 9.23225 1.125 13.5245 1.125 18Z" stroke="black" stroke-width="3" stroke-linecap="round" stroke-linejoin="round"/>
</g>
<defs>
<clipPath id="clip0_151_6591">
<rect width="36" height="36" fill="white"/>
</clipPath>
</defs>
</svg>
