<svg width="24" height="24" viewBox="0 0 24 24" fill="none" xmlns="http://www.w3.org/2000/svg">
<path d="M6.765 3.89992L0.375 20.5049H2.385L4.62 14.7149H10.62L12.9 20.5049H14.91L8.52 3.89992C8.44989 3.72451 8.32881 3.57414 8.17239 3.46821C8.01598 3.36228 7.83141 3.30566 7.6425 3.30566C7.45359 3.30566 7.26902 3.36228 7.11261 3.46821C6.95619 3.57414 6.83511 3.72451 6.765 3.89992ZM5.34 12.8999L7.65 6.89992L9.945 12.8999H5.34ZM19.365 9.08992C18.3657 8.9858 17.3623 9.24332 16.5366 9.81576C15.711 10.3882 15.1179 11.2376 14.865 12.2099L16.68 12.6749C16.8411 12.114 17.201 11.631 17.6924 11.3162C18.1839 11.0015 18.7731 10.8766 19.35 10.9649C20.505 10.9649 21.735 11.3549 21.735 12.4649V13.5899C21.33 13.5899 20.79 13.7249 20.325 13.7849C19.0446 13.8678 17.7822 14.1304 16.575 14.5649C15.8868 14.7869 15.2982 15.2432 14.9117 15.8544C14.5253 16.4656 14.3654 17.193 14.46 17.9099C14.5031 18.3461 14.6443 18.767 14.8728 19.141C15.1014 19.515 15.4115 19.8326 15.78 20.0699C16.5123 20.5114 17.3552 20.7352 18.21 20.7149C18.9031 20.713 19.5916 20.6016 20.25 20.3849C20.7959 20.2248 21.3054 19.9599 21.75 19.6049V20.5199H23.625V12.4499C23.625 10.4999 21.915 9.08992 19.365 9.08992ZM19.695 18.5849C19.2357 18.7646 18.7444 18.848 18.2516 18.8299C17.7588 18.8119 17.2749 18.6927 16.83 18.4799C16.6913 18.4002 16.5748 18.2871 16.491 18.1509C16.4072 18.0146 16.3587 17.8596 16.35 17.6999C16.2 16.3649 17.58 15.9599 20.55 15.6299L21.69 15.4799C21.405 17.9999 20.28 18.3899 19.695 18.5849Z" fill="black"/>
</svg>
