<svg width="502" height="402" viewBox="0 0 502 402" fill="none" xmlns="http://www.w3.org/2000/svg">
<path d="M24.4848 78.2778L215.76 78.2778V71.1632L24.4848 71.1632V78.2778Z" fill="#EBEBEB"/>
<path d="M205.038 78.2778H196.647V101.802H205.038V78.2778Z" fill="#EBEBEB"/>
<path d="M205.038 78.2778H196.647V85.5482H205.038V78.2778Z" fill="#DBDBDB"/>
<path d="M43.5972 78.2778H35.2061V101.802H43.5972V78.2778Z" fill="#EBEBEB"/>
<path d="M43.5972 78.2778H35.2061V85.5482H43.5972V78.2778Z" fill="#DBDBDB"/>
<path d="M180.06 71.1633V25.8379H166.595V71.1633H180.06Z" fill="#C7C7C7"/>
<path d="M180.06 28.4075V23.4243H166.595V28.4075H180.06Z" fill="#DBDBDB"/>
<path d="M180.06 36.6314V34.7822H166.595V36.6314H180.06Z" fill="#DBDBDB"/>
<path d="M180.06 65.2263V60.2432H164.919V65.2263H180.06Z" fill="#DBDBDB"/>
<path d="M166.595 71.173V18.2949H157.182V71.173H166.595Z" fill="#DBDBDB"/>
<path d="M164.758 43.5905V23.2588H159.111V43.5905H164.758Z" fill="#EBEBEB"/>
<path d="M96.8584 71.1867L141.211 34.0122L134.593 28.3365L90.241 65.5109L96.8584 71.1867Z" fill="#C7C7C7"/>
<path d="M105.943 61.3102L122.997 47.0166L119.026 43.6112L101.973 57.9048L105.943 61.3102Z" fill="#DBDBDB"/>
<path d="M157.194 71.173V31.0156H141.215V71.173H157.194Z" fill="#A6A6A6"/>
<path d="M157.194 66.92V63.1729H141.215V66.92H157.194Z" fill="#C7C7C7"/>
<path d="M157.194 60.7197V59.2695H141.215V60.7197H157.194Z" fill="#C7C7C7"/>
<path d="M191.091 71.1826V33.439H180.06V71.1826H191.091Z" fill="#A6A6A6"/>
<path d="M191.091 67.1727V63.6592H180.06V67.1727H191.091Z" fill="#C7C7C7"/>
<path d="M191.091 44.7289V41.2153H180.06V44.7289H191.091Z" fill="#C7C7C7"/>
<path d="M191.091 48.5057V47.1431H180.06V48.5057H191.091Z" fill="#C7C7C7"/>
<path d="M444.502 265.001H242.161V19.2686H444.502V265.001ZM248.061 259.989H438.613V24.2809H248.061V259.989Z" fill="#EBEBEB"/>
<path d="M343.98 25.585H338.08V262.49H343.98V25.585Z" fill="#EBEBEB"/>
<path d="M449.851 29.3901H236.8V36.3588H449.851V29.3901Z" fill="#EBEBEB"/>
<path d="M449.851 37.2349H236.8V44.2035H449.851V37.2349Z" fill="#EBEBEB"/>
<path d="M449.851 45.0791H236.8V52.0478H449.851V45.0791Z" fill="#EBEBEB"/>
<path d="M449.851 52.9238H236.8V59.8925H449.851V52.9238Z" fill="#EBEBEB"/>
<path d="M449.851 60.769H236.8V67.7377H449.851V60.769Z" fill="#EBEBEB"/>
<path d="M449.851 68.6133H236.8V75.5819H449.851V68.6133Z" fill="#EBEBEB"/>
<path d="M449.851 76.458H236.8V83.4267H449.851V76.458Z" fill="#EBEBEB"/>
<path d="M449.851 84.3022H236.8V91.2709H449.851V84.3022Z" fill="#EBEBEB"/>
<path d="M449.851 92.147H236.8V99.1156H449.851V92.147Z" fill="#EBEBEB"/>
<path d="M432.323 27.979H430.842V163.654H432.323V27.979Z" fill="#263238"/>
<path d="M434.205 169.484H428.959L430.279 163.099H432.885L434.205 169.484Z" fill="#263238"/>
<path d="M437.637 27.979H436.156V235.433H437.637V27.979Z" fill="#263238"/>
<path d="M439.52 240.124H434.274L435.594 233.739H438.2L439.52 240.124Z" fill="#263238"/>
<path d="M459.023 18.2949H227.64V32.8843H459.023V18.2949Z" fill="#DBDBDB"/>
<path d="M47.3508 245.973H16.9543V256.864H47.3508V245.973Z" fill="#EBEBEB"/>
<path d="M30.3964 259.706H0V270.597H30.3964V259.706Z" fill="#EBEBEB"/>
<path d="M164.242 164.189H133.845V175.08H164.242V164.189Z" fill="#EBEBEB"/>
<path d="M147.287 177.922H116.891V188.813H147.287V177.922Z" fill="#EBEBEB"/>
<path d="M130.402 164.189H100.005V175.08H130.402V164.189Z" fill="#EBEBEB"/>
<path d="M502 259.706H471.604V270.597H502V259.706Z" fill="#EBEBEB"/>
<path d="M485.045 47.0845H454.649V57.9754H485.045V47.0845Z" fill="#EBEBEB"/>
<path d="M502 60.8174H471.604V71.7083H502V60.8174Z" fill="#EBEBEB"/>
<path d="M47.3508 47.0845H16.9543V57.9754H47.3508V47.0845Z" fill="#EBEBEB"/>
<path d="M251 401.473C374.751 401.473 475.07 386.2 475.07 367.36C475.07 348.52 374.751 333.247 251 333.247C127.249 333.247 26.9297 348.52 26.9297 367.36C26.9297 386.2 127.249 401.473 251 401.473Z" fill="#EBEBEB"/>
<path d="M83.9804 347.145C110.569 347.145 132.123 343.537 132.123 339.087C132.123 334.636 110.569 331.028 83.9804 331.028C57.3917 331.028 35.8374 334.636 35.8374 339.087C35.8374 343.537 57.3917 347.145 83.9804 347.145Z" fill="#EBEBEB"/>
<path d="M411.442 215.16C429.108 229.817 432.104 252.504 428.351 272.378C428.247 272.826 427.433 272.7 427.433 272.281C427.433 267.755 427.593 263.278 427.57 258.801C427.478 258.597 427.398 258.412 427.295 258.207C422.703 255.366 418.444 252.154 415.816 247.745C412.866 242.83 411.706 237.282 409.445 232.172C409.238 231.676 409.858 231.822 410.26 232.075C421.004 238.8 424.425 246.032 427.478 255.687C427.412 250.636 426.786 245.601 425.607 240.65C423.312 231.472 418.72 222.391 410.926 215.578C410.893 215.549 410.868 215.515 410.851 215.478C410.834 215.441 410.826 215.402 410.827 215.362C410.829 215.282 410.869 215.205 410.937 215.15C411.006 215.094 411.097 215.064 411.192 215.066C411.287 215.068 411.377 215.101 411.442 215.16Z" fill="#263238"/>
<path d="M408.113 216.863C405.083 216.95 403.177 221.067 400.801 222.274C400.552 222.443 400.264 222.567 399.955 222.636C399.646 222.706 399.324 222.72 399.009 222.678C398.693 222.636 398.392 222.538 398.123 222.391C397.855 222.245 397.625 222.052 397.449 221.826C395.153 219.053 398.322 215.627 401.352 213.709C399.183 214.459 397.392 215.792 395.062 216.162C394.763 216.246 394.447 216.274 394.134 216.245C393.822 216.216 393.52 216.13 393.25 215.993C392.98 215.857 392.748 215.672 392.569 215.453C392.391 215.233 392.27 214.984 392.215 214.721C391.182 210.935 396.806 209.252 400.629 209.174C398.769 208.074 393.432 205.086 396.267 203.616C399.102 202.147 405.45 206.41 407.448 207.821C410.455 209.884 414.036 212.97 414.174 216.211C414.346 219.977 410.455 217.661 408.113 216.863Z" fill="#F3B664"/>
<path opacity="0.1" d="M408.113 216.863C405.083 216.95 403.177 221.067 400.801 222.274C400.552 222.443 400.264 222.567 399.955 222.636C399.646 222.706 399.324 222.72 399.009 222.678C398.693 222.636 398.392 222.538 398.123 222.391C397.855 222.245 397.625 222.052 397.449 221.826C395.153 219.053 398.322 215.627 401.352 213.709C399.183 214.459 397.392 215.792 395.062 216.162C394.763 216.246 394.447 216.274 394.134 216.245C393.822 216.216 393.52 216.13 393.25 215.993C392.98 215.857 392.748 215.672 392.569 215.453C392.391 215.233 392.27 214.984 392.215 214.721C391.182 210.935 396.806 209.252 400.629 209.174C398.769 208.074 393.432 205.086 396.267 203.616C399.102 202.147 405.45 206.41 407.448 207.821C410.455 209.884 414.036 212.97 414.174 216.211C414.346 219.977 410.455 217.661 408.113 216.863Z" fill="#282828"/>
<path d="M408.997 217.505C405.118 216.006 397.645 218.157 397.013 216.911C395.728 214.371 401.697 212.629 404.911 212.298C401.949 211.616 396.267 210.526 396.439 208.103C396.657 205.183 405.152 207.694 409.457 210.487C414.875 214.011 414.84 217.407 413.945 218.089C412.717 219.023 409.64 217.748 408.997 217.505Z" fill="#F3B664"/>
<path d="M451.665 213.709C433.356 227.792 429.384 250.363 432.208 270.334C432.288 270.792 433.115 270.694 433.126 270.266C433.333 265.75 433.379 261.263 433.585 256.806C433.7 256.601 433.78 256.407 433.895 256.212C438.624 253.516 443.009 250.441 445.822 246.129C448.99 241.311 450.413 235.803 452.893 230.742C453.122 230.255 452.491 230.381 452.078 230.625C441.035 236.99 437.293 244.105 433.78 253.662C434.071 248.613 434.92 243.598 436.317 238.683C439.049 229.603 444.054 220.668 452.124 214.118C452.188 214.066 452.225 213.995 452.227 213.92C452.229 213.846 452.196 213.773 452.135 213.719C452.074 213.665 451.991 213.633 451.902 213.631C451.814 213.63 451.729 213.658 451.665 213.709Z" fill="#263238"/>
<path d="M454.913 215.52C457.943 215.704 459.665 219.88 461.973 221.155C462.213 221.333 462.496 221.467 462.801 221.547C463.107 221.628 463.429 221.653 463.746 221.622C464.064 221.591 464.371 221.504 464.646 221.366C464.922 221.229 465.161 221.044 465.347 220.824C467.815 218.118 464.75 214.595 461.812 212.58C463.947 213.408 465.68 214.79 467.988 215.237C468.283 215.33 468.598 215.367 468.913 215.348C469.227 215.328 469.532 215.252 469.808 215.123C470.085 214.995 470.325 214.818 470.514 214.605C470.703 214.391 470.836 214.145 470.903 213.884C472.051 210.137 466.576 208.278 462.742 208.045C464.647 207.003 470.123 204.152 467.333 202.633C464.544 201.115 458.07 205.135 455.958 206.468C452.87 208.415 449.15 211.412 448.863 214.634C448.542 218.43 452.537 216.24 454.913 215.52Z" fill="#F3B664"/>
<path opacity="0.1" d="M454.913 215.52C457.943 215.704 459.665 219.88 461.973 221.155C462.213 221.333 462.496 221.467 462.801 221.547C463.107 221.628 463.429 221.653 463.746 221.622C464.064 221.591 464.371 221.504 464.646 221.366C464.922 221.229 465.161 221.044 465.347 220.824C467.815 218.118 464.75 214.595 461.812 212.58C463.947 213.408 465.68 214.79 467.988 215.237C468.283 215.33 468.598 215.367 468.913 215.348C469.227 215.328 469.532 215.252 469.808 215.123C470.085 214.995 470.325 214.818 470.514 214.605C470.703 214.391 470.836 214.145 470.903 213.884C472.051 210.137 466.576 208.278 462.742 208.045C464.647 207.003 470.123 204.152 467.333 202.633C464.544 201.115 458.07 205.135 455.958 206.468C452.87 208.415 449.15 211.412 448.863 214.634C448.542 218.43 452.537 216.24 454.913 215.52Z" fill="#282828"/>
<path d="M454.006 216.123C457.955 214.751 465.313 217.155 466.002 215.928C467.402 213.427 461.525 211.5 458.322 211.062C461.318 210.468 467.035 209.573 466.978 207.169C466.897 204.249 458.288 206.478 453.857 209.115C448.29 212.463 448.118 215.86 449.036 216.571C450.218 217.534 453.352 216.356 454.006 216.123Z" fill="#F3B664"/>
<path d="M432.942 250.898C431.701 258.43 429.802 265.873 427.26 273.167C427.211 273.297 427.106 273.407 426.967 273.476C426.827 273.545 426.662 273.568 426.504 273.54C426.346 273.512 426.206 273.436 426.11 273.326C426.014 273.215 425.97 273.079 425.986 272.943C427.134 266.081 429.372 259.317 430.577 252.504C431.891 245.562 432.364 238.524 431.989 231.501C431.22 219.919 427.513 207.665 418.593 198.575C418.387 198.361 418.811 198.059 419.007 198.254C436.822 215.87 433.987 237.467 433.929 239.394C436.455 232.104 439.049 223.744 448.588 216.327C449.001 216.006 449.323 216.152 449.254 216.697C447.555 230.226 443.113 237.282 433.872 244.513C433.635 246.661 433.325 248.789 432.942 250.898Z" fill="#263238"/>
<path d="M418.444 200.599C415.242 199.392 410.822 202.847 407.654 203.091C407.29 203.163 406.912 203.168 406.545 203.107C406.179 203.045 405.832 202.918 405.528 202.734C405.223 202.55 404.969 202.313 404.781 202.039C404.594 201.764 404.478 201.459 404.44 201.144C403.648 197.251 409.032 195.081 413.302 194.38C410.616 194.244 407.964 194.857 405.266 194.244C404.908 194.202 404.564 194.096 404.259 193.932C403.953 193.769 403.692 193.551 403.494 193.295C403.296 193.038 403.165 192.749 403.111 192.445C403.056 192.142 403.079 191.833 403.177 191.538C404.325 187.168 411.213 187.81 415.207 189.367C413.922 187.421 410.157 182.058 413.968 181.747C417.779 181.435 421.796 188.56 423.082 190.876C424.976 194.302 426.858 199.032 425.079 202.448C423.059 206.487 420.407 202.419 418.444 200.599Z" fill="#F3B664"/>
<path opacity="0.1" d="M418.444 200.599C415.242 199.392 410.822 202.847 407.654 203.091C407.29 203.163 406.912 203.168 406.545 203.107C406.179 203.045 405.832 202.918 405.528 202.734C405.223 202.55 404.969 202.313 404.781 202.039C404.594 201.764 404.478 201.459 404.44 201.144C403.648 197.251 409.032 195.081 413.302 194.38C410.616 194.244 407.964 194.857 405.266 194.244C404.908 194.202 404.564 194.096 404.259 193.932C403.953 193.769 403.692 193.551 403.494 193.295C403.296 193.038 403.165 192.749 403.111 192.445C403.056 192.142 403.079 191.833 403.177 191.538C404.325 187.168 411.213 187.81 415.207 189.367C413.922 187.421 410.157 182.058 413.968 181.747C417.779 181.435 421.796 188.56 423.082 190.876C424.976 194.302 426.858 199.032 425.079 202.448C423.059 206.487 420.407 202.419 418.444 200.599Z" fill="#282828"/>
<path d="M418.984 201.631C415.839 198.419 406.816 197.475 406.897 195.908C407.069 192.726 414.289 193.465 417.836 194.487C415.161 192.541 409.916 188.969 411.534 186.526C413.508 183.548 420.821 189.815 423.621 194.555C427.157 200.521 425.102 204.035 423.771 204.356C421.934 204.804 419.5 202.166 418.984 201.631Z" fill="#F3B664"/>
<path d="M444.663 254.967L452.526 305.879H404.704C405.691 301.363 414.599 254.908 414.599 254.908L444.663 254.967Z" fill="#F3B664"/>
<path d="M18.4812 305.733L76.6109 305.489L134.741 305.412L251 305.246L367.259 305.402L425.389 305.489L483.519 305.733L425.389 305.966L367.259 306.054L251 306.219L134.741 306.054L76.6109 305.966L18.4812 305.733Z" fill="#263238"/>
<path d="M361.554 359.671L396.186 342.328L440.185 354.815L404.049 373.434L361.554 359.671Z" fill="white"/>
<path d="M402.684 368.606C404.807 367.272 407 366.036 409.204 364.8C411.408 363.564 413.658 362.396 415.896 361.228C418.134 360.06 420.419 358.922 422.783 357.841L426.227 356.216C427.375 355.7 428.523 355.165 429.763 354.678C428.695 355.35 427.605 355.973 426.525 356.625L423.185 358.523C420.981 359.759 418.743 360.936 416.493 362.104C414.243 363.272 411.97 364.401 409.663 365.491C407.356 366.581 405.06 367.613 402.684 368.606Z" fill="#DBDBDB"/>
<path d="M408.4 361.559C410.856 359.889 413.445 358.364 416.148 356.995C418.825 355.59 421.613 354.344 424.493 353.267C419.556 356.577 414.159 359.361 408.423 361.559H408.4Z" fill="#DBDBDB"/>
<path d="M392.249 365.784C394.373 364.45 396.565 363.214 398.781 361.988C400.996 360.761 403.223 359.574 405.461 358.406C407.7 357.238 409.984 356.109 412.291 355.019L415.735 353.394C416.883 352.888 418.031 352.343 419.259 351.856C418.192 352.528 417.101 353.15 416.022 353.803L412.728 355.661C410.524 356.898 408.285 358.065 406.035 359.233C403.785 360.401 401.513 361.54 399.205 362.62C396.898 363.701 394.625 364.801 392.249 365.784Z" fill="#DBDBDB"/>
<path d="M390.917 362.416C394.533 360.1 398.344 358.037 402.19 356.032C406.035 354.027 409.961 352.138 414.059 350.484C410.443 352.8 406.632 354.864 402.787 356.869C398.941 358.874 395.004 360.713 390.917 362.416Z" fill="#DBDBDB"/>
<path d="M395.44 355.944C397.442 354.495 399.585 353.193 401.846 352.051C404.074 350.872 406.416 349.856 408.848 349.014C406.846 350.463 404.703 351.765 402.443 352.907C400.212 354.082 397.87 355.098 395.44 355.944Z" fill="#DBDBDB"/>
<path d="M288.433 372.441L343.142 354.318L395.934 381.307L341.501 400.072L288.433 372.441Z" fill="white"/>
<path d="M340.731 394.534C344.29 393.093 347.906 391.75 351.522 390.417C355.138 389.084 358.788 387.799 362.427 386.524C366.066 385.249 369.75 384.023 373.435 382.845L378.979 381.083C380.839 380.528 382.687 379.945 384.57 379.419C382.791 380.149 380.988 380.82 379.198 381.531L373.825 383.594C370.221 384.928 366.571 386.203 362.92 387.487C359.27 388.772 355.608 389.989 351.912 391.166C348.216 392.344 344.474 393.502 340.731 394.534Z" fill="#DBDBDB"/>
<path d="M354.747 384.967C358.65 383.215 362.679 381.726 366.743 380.305C370.806 378.884 374.927 377.599 379.174 376.548C375.272 378.309 371.242 379.789 367.179 381.21C363.115 382.631 358.994 383.916 354.747 384.967Z" fill="#DBDBDB"/>
<path d="M335.336 386.884C338.447 385.599 341.615 384.402 344.783 383.224C347.951 382.047 351.143 380.928 354.345 379.808C357.548 378.689 360.762 377.618 363.999 376.596L368.866 375.068C370.508 374.592 372.126 374.095 373.779 373.638C372.229 374.29 370.645 374.884 369.084 375.506L364.332 377.297C361.175 378.475 357.973 379.594 354.77 380.713C351.567 381.833 348.353 382.894 345.116 383.915C341.879 384.937 338.63 385.969 335.336 386.884Z" fill="#DBDBDB"/>
<path d="M332.788 382.991C335.669 381.774 338.596 380.665 341.524 379.575C344.451 378.485 347.412 377.433 350.374 376.402C353.336 375.37 356.32 374.377 359.328 373.433L363.827 372.032C365.354 371.594 366.858 371.127 368.419 370.718C366.984 371.331 365.526 371.886 364.08 372.47L359.649 374.095C356.722 375.195 353.772 376.227 350.81 377.268C347.849 378.309 344.864 379.283 341.856 380.188C338.849 381.093 335.842 382.154 332.788 382.991Z" fill="#DBDBDB"/>
<path d="M319.162 382.913C322.721 381.463 326.336 380.12 329.952 378.787C333.568 377.453 337.207 376.178 340.857 374.894C344.508 373.609 348.181 372.402 351.866 371.224L357.41 369.463C359.27 368.908 361.118 368.314 362.989 367.789C361.221 368.519 359.408 369.2 357.617 369.901L352.199 371.915C348.583 373.258 344.944 374.524 341.294 375.808C337.643 377.093 333.97 378.3 330.285 379.478C326.601 380.655 322.904 381.882 319.162 382.913Z" fill="#DBDBDB"/>
<path d="M318.726 378.29C321.883 376.986 325.085 375.789 328.288 374.592C331.491 373.395 334.728 372.266 337.965 371.137C341.202 370.008 344.451 368.927 347.734 367.886L352.658 366.338C354.311 365.852 355.953 365.365 357.628 364.888C356.056 365.54 354.449 366.144 352.865 366.786L348.066 368.587C344.864 369.784 341.627 370.913 338.39 372.042C335.153 373.171 331.904 374.251 328.621 375.283C325.338 376.314 322.032 377.356 318.726 378.29Z" fill="#DBDBDB"/>
<path d="M308.395 377.083C311.965 375.633 315.569 374.29 319.185 372.956C322.801 371.623 326.452 370.338 330.102 369.063C333.752 367.788 337.414 366.562 341.11 365.384L346.643 363.623C348.514 363.068 350.351 362.484 352.233 361.958C350.454 362.688 348.652 363.36 346.861 364.071L341.443 366.085C337.827 367.428 334.177 368.694 330.527 369.978C326.876 371.263 323.214 372.47 319.518 373.648C315.822 374.825 312.114 376.042 308.395 377.083Z" fill="#DBDBDB"/>
<path d="M320.907 367.983C325.051 366.144 329.333 364.567 333.649 363.068C337.965 361.57 342.327 360.149 346.815 359.049C342.671 360.898 338.39 362.465 334.074 363.915C329.758 365.365 325.396 366.845 320.907 367.983Z" fill="#DBDBDB"/>
<path d="M172.231 347.155L329.264 312.098L402.328 345.296L248.716 388.694L172.231 347.155Z" fill="#F3B664"/>
<path d="M181.965 346.551L251.987 384.723L395.945 344.147L325.315 312.341C325.315 312.341 282.234 317.149 280.225 317.674C278.217 318.2 259.219 324.896 259.219 324.896C259.219 324.896 232.565 328.789 230.762 329.334C228.96 329.879 181.965 346.551 181.965 346.551Z" fill="white"/>
<path d="M259.23 324.896L267.782 329.587L276.277 334.356L293.197 343.982L310.014 353.744L318.37 358.678L326.693 363.671L318.141 358.97L309.635 354.211L292.715 344.585L275.909 334.814L267.553 329.889L259.23 324.896Z" fill="#DBDBDB"/>
<path d="M272.604 352.683C274.417 352.187 276.265 351.759 278.113 351.34C279.962 350.922 281.821 350.552 283.681 350.182C285.54 349.812 287.423 349.481 289.305 349.209C291.188 348.936 293.071 348.625 294.976 348.411C293.151 348.917 291.303 349.384 289.455 349.754C287.607 350.124 285.758 350.542 283.899 350.912C282.039 351.282 280.168 351.613 278.286 351.885C276.403 352.158 274.521 352.489 272.604 352.683Z" fill="#DBDBDB"/>
<path d="M240.485 368.596C245.226 366.65 250.013 364.84 254.8 363.02C259.586 361.2 264.408 359.418 269.229 357.647C271.639 356.752 274.061 355.905 276.518 355.078C277.144 354.871 277.789 354.708 278.446 354.591L280.375 354.211L284.22 353.491C289.363 352.576 294.551 351.681 299.671 350.883C294.586 352.002 289.478 353.034 284.37 354.075L280.547 354.844C279.278 355.064 278.028 355.357 276.805 355.72C274.383 356.538 271.984 357.452 269.562 358.299L255.052 363.506C250.208 365.229 245.364 366.942 240.485 368.596Z" fill="#DBDBDB"/>
<path d="M245.387 371.331C249.978 369.385 254.57 367.604 259.253 365.793C263.937 363.983 268.563 362.231 273.223 360.47C275.519 359.584 277.907 358.737 280.271 357.91C280.868 357.706 281.419 357.491 282.085 357.307C282.751 357.122 283.348 357.034 283.968 356.898L287.71 356.187C292.703 355.292 297.708 354.426 302.736 353.657C297.8 354.757 292.829 355.759 287.871 356.791L284.151 357.54C283.531 357.676 282.9 357.793 282.326 357.959C281.752 358.124 281.178 358.338 280.581 358.543L273.556 361.112C268.861 362.815 264.212 364.596 259.506 366.28C254.8 367.964 250.116 369.677 245.387 371.331Z" fill="#DBDBDB"/>
<path d="M250.254 373.589C254.937 371.844 259.648 370.153 264.385 368.518C269.102 366.835 273.866 365.258 278.619 363.652C281.006 362.854 283.348 362.046 285.839 361.355L293.22 359.593C298.156 358.474 303.103 357.335 308.074 356.304C303.207 357.666 298.316 358.922 293.426 360.197L286.057 362.027C283.692 362.708 281.305 363.564 278.917 364.323C274.142 365.871 269.401 367.496 264.614 369.024C259.827 370.552 255.064 372.149 250.254 373.589Z" fill="#DBDBDB"/>
<path d="M320.781 353.822C325.131 352.021 329.551 350.357 334.028 348.8C335.175 348.41 336.266 348.011 337.402 347.661C337.976 347.486 338.55 347.301 339.159 347.155L340.915 346.756L347.929 345.179C352.589 344.109 357.284 343.116 361.967 342.084C366.651 341.052 371.334 340.06 376.041 339.086C371.392 340.245 366.754 341.383 362.094 342.493C357.433 343.602 352.784 344.731 348.124 345.792L341.122 347.418L339.388 347.817C338.849 347.953 338.24 348.138 337.712 348.323L334.337 349.423C329.838 350.941 325.338 352.44 320.781 353.822Z" fill="#DBDBDB"/>
<path d="M316.04 350.679C320.364 349.141 324.73 347.707 329.138 346.377C331.353 345.715 333.534 345.014 335.841 344.498L342.614 342.931C347.114 341.87 351.648 340.878 356.171 339.856C360.693 338.834 365.228 337.851 369.773 336.887C365.285 338.036 360.808 339.174 356.308 340.274C351.809 341.374 347.32 342.493 342.809 343.554L336.048 345.17C334.9 345.413 333.844 345.754 332.731 346.065L329.402 347.038C324.982 348.304 320.528 349.54 316.04 350.679Z" fill="#DBDBDB"/>
<path d="M311.471 347.885C315.78 346.38 320.123 344.965 324.5 343.642C326.692 342.989 328.862 342.298 331.123 341.695L337.907 340.293C342.419 339.32 346.941 338.473 351.476 337.568C356.01 336.663 360.532 335.807 365.078 334.96C360.59 336.001 356.102 337.023 351.602 337.997C347.102 338.97 342.602 339.943 338.091 340.916C335.853 341.393 333.568 341.89 331.353 342.357L324.752 344.216C320.36 345.533 315.933 346.756 311.471 347.885Z" fill="#DBDBDB"/>
<path d="M307.568 345.87C311.701 343.982 315.937 342.327 320.264 340.78C320.804 340.585 321.343 340.41 321.906 340.245C322.474 340.071 323.058 339.934 323.65 339.836L327.094 339.203L333.982 337.957C343.165 336.351 352.291 334.765 361.474 333.286C352.382 335.115 343.257 336.848 334.142 338.571L327.255 339.855L323.811 340.507C322.698 340.754 321.611 341.079 320.563 341.481C316.258 342.863 311.965 344.449 307.568 345.87Z" fill="#DBDBDB"/>
<path d="M303.287 343.291C307.419 341.413 311.655 339.748 315.982 338.211C316.522 338.016 317.061 337.841 317.635 337.675C318.2 337.501 318.779 337.364 319.369 337.266L322.812 336.634L329.7 335.388C338.883 333.772 348.009 332.196 357.192 330.716C348.101 332.546 338.975 334.278 329.861 336.001L322.973 337.286L319.529 337.938C318.413 338.175 317.325 338.501 316.281 338.911C311.976 340.342 307.683 341.977 303.287 343.291Z" fill="#DBDBDB"/>
<path d="M299.005 340.771C303.137 338.892 307.373 337.228 311.701 335.69C312.24 335.495 312.791 335.31 313.354 335.145C313.919 334.975 314.498 334.841 315.087 334.746L318.531 334.104L325.418 332.868C334.601 331.252 343.784 329.675 352.968 328.196C343.876 330.016 334.75 331.748 325.636 333.481L318.749 334.756L315.305 335.418C314.189 335.655 313.101 335.981 312.057 336.391C307.694 337.812 303.413 339.408 299.005 340.771Z" fill="#DBDBDB"/>
<path d="M294.724 338.25C298.856 336.361 303.092 334.707 307.419 333.159C307.959 332.965 308.567 332.789 309.072 332.624C309.637 332.451 310.217 332.314 310.806 332.215L314.249 331.583L321.137 330.347C330.32 328.731 339.446 327.144 348.629 325.675C339.538 327.495 330.423 329.227 321.298 330.96L314.41 332.235L310.966 332.887C309.852 333.129 308.765 333.455 307.718 333.86C303.413 335.291 299.132 336.887 294.724 338.25Z" fill="#DBDBDB"/>
<path d="M289.202 336.215C293.335 334.337 297.57 332.682 301.898 331.135C302.437 330.94 303.046 330.765 303.551 330.6C304.116 330.426 304.695 330.289 305.284 330.191L308.728 329.558L315.615 328.312C324.799 326.697 333.924 325.12 343.108 323.641C334.016 325.47 324.902 327.203 315.776 328.926L308.889 330.21L305.445 330.862C304.332 331.109 303.245 331.434 302.196 331.836C297.892 333.266 293.61 334.853 289.202 336.215Z" fill="#DBDBDB"/>
<path d="M283.841 334.191C287.962 332.313 292.21 330.658 296.526 329.11C297.065 328.916 297.616 328.741 298.179 328.575C298.744 328.403 299.323 328.266 299.912 328.166L303.356 327.534L310.243 326.288C319.426 324.672 328.541 323.096 337.724 321.616C328.632 323.446 319.518 325.178 310.392 326.901L303.505 328.186L300.061 328.838C298.944 329.083 297.853 329.408 296.801 329.811C292.519 331.271 288.238 332.848 283.841 334.191Z" fill="#DBDBDB"/>
<path d="M279.56 331.69C283.669 329.811 287.905 328.157 292.186 326.609C292.726 326.414 293.265 326.239 293.828 326.074C294.395 325.899 294.979 325.765 295.573 325.675L299.016 325.081L305.904 323.942C315.087 322.473 324.27 321.022 333.453 319.708C324.328 321.383 315.19 322.969 306.053 324.575L299.166 325.762L295.722 326.366C294.609 326.602 293.525 326.928 292.485 327.339C288.215 328.74 283.945 330.298 279.56 331.69Z" fill="#DBDBDB"/>
<path d="M275.278 329.169C279.388 327.29 283.612 325.636 287.905 324.098C288.445 323.903 288.996 323.718 289.547 323.563C290.112 323.383 290.696 323.25 291.292 323.164L294.735 322.619L301.623 321.597C310.806 320.283 319.989 319.018 329.172 317.859C319.989 319.368 310.863 320.779 301.703 322.22L294.816 323.281L291.372 323.835C290.264 324.054 289.184 324.364 288.146 324.76C283.922 326.22 279.698 327.806 275.278 329.169Z" fill="#DBDBDB"/>
<path d="M270.997 326.648C275.095 324.77 279.319 323.115 283.623 321.587C284.163 321.392 284.703 321.207 285.265 321.042C285.829 320.862 286.414 320.732 287.01 320.653L290.453 320.195L297.341 319.368C301.932 318.823 306.524 318.336 311.173 317.83C315.822 317.324 320.356 316.857 325.017 316.429C315.834 317.675 306.65 318.823 297.467 319.991L290.58 320.857L287.136 321.334C286.029 321.54 284.952 321.847 283.922 322.249C279.629 323.709 275.37 325.286 270.997 326.648Z" fill="#DBDBDB"/>
<path d="M255.224 377.093C260.011 375.448 264.832 373.862 269.665 372.305C274.497 370.748 279.353 369.229 284.197 367.701C286.631 366.942 289.041 366.222 291.532 365.521L298.959 363.623C303.918 362.397 308.888 361.171 313.882 360.042C309.003 361.492 304.079 362.845 299.154 364.197L291.762 366.144C289.351 366.825 286.918 367.623 284.484 368.344L269.883 372.772C265.016 374.261 260.183 375.711 255.224 377.093Z" fill="#DBDBDB"/>
<path d="M324.305 356.907C329.149 355.34 334.027 353.841 338.917 352.362C343.808 350.883 348.709 349.442 353.611 348.021C356.067 347.301 358.501 346.62 361.026 345.958L368.522 344.196C373.527 343.058 378.532 341.909 383.571 340.868C378.646 342.23 373.676 343.496 368.706 344.761L361.233 346.61C358.799 347.252 356.331 348.012 353.875 348.683L339.124 352.858C334.188 354.24 329.264 355.603 324.305 356.907Z" fill="#DBDBDB"/>
<path d="M181.873 363.992C185.696 363.525 190.62 363.525 190.896 365.384C191.171 367.243 189.438 368.246 189.978 369.17C190.517 370.095 193.628 371.798 195.086 373.063C196.304 374.161 197.18 375.499 197.634 376.956C197.634 377.424 198.552 378.192 197.634 379.127C196.716 380.061 196.211 381.443 195.464 382.144C194.718 382.845 194.397 383.604 195.464 384.84C196.532 386.076 195.637 389.638 193.995 390.874C192.354 392.11 187.613 389.171 186.155 389.482C184.697 389.794 184.514 390.397 183.239 391.176C181.965 391.955 178.854 393.813 175.583 393.813C172.311 393.813 170.658 391.332 168.695 390.251C166.733 389.171 164.873 389.015 163.048 388.402C161.408 387.841 159.963 386.937 158.846 385.774C158.491 385.151 157.205 384.996 157.699 383.302C158.192 381.609 159.156 381.132 159.156 379.74C159.156 378.348 159.156 378.105 159.156 376.528C159.156 374.951 157.687 372.168 158.961 370.932C160.235 369.696 161.154 367.837 163.163 367.837C165.171 367.837 171.542 368.81 171.542 368.81C172.22 368.186 172.831 367.512 173.367 366.795C173.828 366.147 174.475 365.609 175.248 365.231C176.021 364.853 176.895 364.648 177.787 364.635C179.18 364.604 180.56 364.387 181.873 363.992Z" fill="white"/>
<path d="M159.168 379.682C161.773 380.704 164.425 381.628 167.1 382.504C169.774 383.38 172.392 384.344 175.066 385.181C177.691 386.048 180.374 386.782 183.101 387.38C183.645 387.497 184.205 387.553 184.766 387.546L186.384 386.865C187.588 386.337 188.739 385.728 189.828 385.045C190.884 384.433 191.786 383.649 192.48 382.738C192.63 382.53 192.761 382.312 192.87 382.086L192.985 381.745L193.042 381.589C192.901 381.206 192.662 380.854 192.342 380.558C190.46 378.834 188.366 377.284 186.097 375.935C183.802 374.504 181.506 373.151 179.038 371.876C177.89 371.214 176.627 370.572 175.388 369.93C174.768 369.631 174.136 369.349 173.494 369.083C173.172 368.947 172.851 368.82 172.529 368.703C172.219 368.635 171.795 368.411 171.554 368.703C171.772 368.411 172.254 368.586 172.575 368.606C172.897 368.625 173.287 368.752 173.631 368.84C174.32 369.034 174.997 369.258 175.663 369.492C176.995 369.959 178.315 370.465 179.612 371.01C182.183 372.119 184.693 373.333 187.142 374.65C189.692 375.943 192.03 377.513 194.098 379.322C194.77 379.912 195.211 380.663 195.361 381.473C195.383 381.625 195.383 381.778 195.361 381.93L195.269 382.222L195.086 382.757C194.939 383.096 194.755 383.422 194.535 383.731C193.697 384.878 192.596 385.871 191.297 386.65C190.073 387.383 188.784 388.034 187.441 388.597L186.453 389.006L185.971 389.2L185.696 389.308C185.521 389.368 185.341 389.413 185.156 389.444C184.286 389.507 183.41 389.431 182.573 389.22C179.763 388.527 177.022 387.645 174.377 386.582C169.102 384.623 164.017 382.316 159.168 379.682Z" fill="#C7C7C7"/>
<path d="M170.05 383.877C171.455 381.991 173.037 380.204 174.779 378.533C175.64 377.677 176.57 376.889 177.5 376.091C177.982 375.692 178.487 375.322 179.015 374.952C179.597 374.523 180.241 374.16 180.932 373.871C181.052 373.83 181.175 373.794 181.299 373.764C181.554 373.73 181.814 373.73 182.069 373.764C182.449 373.827 182.797 373.986 183.067 374.222C183.341 374.46 183.591 374.717 183.813 374.991C184.23 375.464 184.614 375.958 184.961 376.47C185.593 377.443 186.212 378.417 186.729 379.487C187.864 381.511 188.701 383.646 189.22 385.843L185.076 380.227C184.376 379.302 183.733 378.358 183.021 377.473C182.677 377.025 182.333 376.567 181.977 376.178C181.825 376.004 181.66 375.838 181.483 375.682C181.483 375.682 181.483 375.682 181.667 375.75C181.755 375.779 181.854 375.779 181.942 375.75H181.85C181.374 375.951 180.927 376.2 180.519 376.49L179.073 377.463L176.145 379.594C174.148 381.093 172.174 382.543 170.05 383.877Z" fill="#C7C7C7"/>
<path d="M111.174 379.39C109.108 379.808 106.41 380.022 106.146 379.02C105.882 378.017 106.766 377.385 106.41 376.908C105.458 376.212 104.445 375.577 103.38 375.01C102.647 374.468 102.087 373.778 101.75 373.005C101.75 372.752 101.176 372.363 101.624 371.818C102.071 371.272 102.255 370.484 102.622 370.066C102.739 369.965 102.829 369.843 102.885 369.71C102.941 369.577 102.962 369.435 102.946 369.294C102.931 369.154 102.88 369.017 102.796 368.895C102.712 368.773 102.598 368.667 102.462 368.586C101.796 367.954 102.083 365.968 102.909 365.219C103.736 364.469 106.502 365.881 107.283 365.647C108.063 365.413 108.132 365.063 108.775 364.586C109.885 363.67 111.292 363.053 112.816 362.815C114.618 362.669 115.662 363.953 116.822 364.46C117.858 364.813 118.935 365.071 120.036 365.228C120.967 365.464 121.812 365.896 122.493 366.484C122.734 366.805 123.434 366.834 123.239 367.788C123.043 368.742 122.573 369.044 122.653 369.803C122.734 370.562 122.745 370.698 122.848 371.564C122.952 372.431 123.916 373.891 123.296 374.621C122.676 375.35 122.274 376.411 121.184 376.499C120.093 376.587 116.592 376.353 116.592 376.353C116.255 376.725 115.959 377.122 115.708 377.54C115.496 377.916 115.173 378.24 114.771 378.48C114.369 378.72 113.902 378.869 113.413 378.913C112.641 378.971 111.886 379.132 111.174 379.39Z" fill="white"/>
<path d="M103.242 369.462C104.39 368.489 105.538 367.564 106.686 366.62L107.57 365.939L108.006 365.608C108.268 365.435 108.569 365.309 108.89 365.238C109.731 365.079 110.588 364.988 111.45 364.966C113.111 364.908 114.776 364.986 116.42 365.199C117.349 365.301 118.25 365.539 119.083 365.9C119.663 366.221 120.074 366.72 120.231 367.292C120.37 367.71 120.436 368.143 120.426 368.577C120.318 370.044 119.93 371.487 119.278 372.849C118.965 373.514 118.609 374.164 118.211 374.796C117.999 375.133 117.761 375.458 117.499 375.769C117.165 376.165 116.702 376.469 116.168 376.645C114.502 377.037 112.759 377.133 111.048 376.927C109.439 376.785 107.843 376.547 106.273 376.217C107.88 376.11 109.475 376.09 111.048 375.925C112.53 375.88 113.994 375.637 115.387 375.205C115.685 375.068 115.605 375.068 115.846 374.796C116.087 374.523 116.179 374.28 116.328 373.998C116.644 373.417 116.912 372.819 117.132 372.207C117.633 371.04 117.927 369.817 118.004 368.577C118.036 368.207 118.228 367.86 118.544 367.603C117.689 367.375 116.814 367.206 115.926 367.097C114.414 366.822 112.879 366.643 111.335 366.562C110.598 366.513 109.857 366.513 109.119 366.562C108.982 366.562 108.844 366.62 108.901 366.562L108.385 366.844L107.363 367.399C106.02 368.07 104.677 368.82 103.242 369.462Z" fill="#C7C7C7"/>
<path d="M108.201 366.864C108.293 368.168 108.201 369.414 108.35 370.552C108.35 371.088 108.545 371.74 108.706 371.769C108.867 371.798 108.706 371.769 108.649 371.769C108.591 371.769 108.649 371.769 108.787 371.769C109.064 371.759 109.34 371.733 109.613 371.691C110.91 371.506 112.311 371.175 113.722 370.922C115.169 370.632 116.638 370.431 118.119 370.319C115.786 371.998 112.997 373.158 110.003 373.696C109.554 373.747 109.101 373.766 108.649 373.755C108.33 373.73 108.017 373.668 107.719 373.57C107.363 373.424 107.061 373.199 106.847 372.918C106.387 372.183 106.256 371.333 106.479 370.523C106.737 369.213 107.324 367.965 108.201 366.864Z" fill="#C7C7C7"/>
<path d="M90.8793 353.715C89.8118 350.97 89.9954 347.788 86.2877 348.128C82.58 348.469 80.4564 344.595 78.8149 343.671C77.1734 342.746 71.342 343.671 70.0679 344.595C68.7937 345.52 68.2427 347.33 66.9685 348.128C65.6944 348.926 63.8692 350.162 62.2277 351.398C60.5862 352.634 58.2215 354.318 58.9447 357.423C59.6679 360.528 61.3209 361.579 62.3884 363.136C63.456 364.693 61.6538 367.477 63.1116 371.029C64.5694 374.582 71.6864 375.974 73.5116 375.36C75.3367 374.747 80.2038 372.11 82.867 372.11C85.5301 372.11 86.3107 373.969 88.6065 372.888C90.9023 371.808 94.4378 369.482 94.6215 368.557C94.8051 367.633 92.6127 366.815 93.3473 365.365C94.082 363.915 96.9976 361.199 96.6303 359.389C96.263 357.579 91.6943 355.817 90.8793 353.715Z" fill="white"/>
<path d="M84.1181 347.817C79.6176 349.041 75.2222 350.527 70.9632 352.265C70.4993 352.47 70.0609 352.715 69.6546 352.995C69.4824 352.995 69.3791 353.705 69.2758 354.133C69.0806 355.107 68.9314 356.08 68.8166 357.053C68.5756 359 68.3919 361.034 68.3804 363.01C68.3529 363.969 68.4143 364.929 68.5641 365.881C68.5918 366.147 68.6733 366.407 68.8051 366.65C69.2126 366.812 69.6456 366.924 70.0908 366.981C72.3705 367.263 74.677 367.358 76.9782 367.263C78.1299 367.239 79.2794 367.165 80.4219 367.039C81.4091 366.903 82.7177 366.621 83.8656 366.455C86.1614 366.056 88.5261 365.677 90.753 365.19C91.2849 365.08 91.8098 364.946 92.3256 364.791C92.4196 364.772 92.5089 364.739 92.5897 364.693C92.5897 364.693 92.7159 364.693 92.5897 364.693C92.5052 364.737 92.4436 364.807 92.4175 364.888C92.2795 365.113 92.2507 365.375 92.3371 365.618C92.3766 365.747 92.4559 365.865 92.5667 365.959C92.6072 365.999 92.6535 366.035 92.7044 366.066L92.3945 365.959C91.3729 365.677 90.202 365.443 89.0656 365.219L82.1782 363.905C79.8824 363.477 77.5866 363.039 75.2104 362.543C74.0625 362.28 72.9146 362.027 71.7093 361.686C70.9971 361.504 70.3313 361.21 69.7464 360.82C69.6665 360.757 69.597 360.685 69.5398 360.606C69.4579 360.492 69.3997 360.367 69.3676 360.236C69.3676 360.109 69.3676 359.993 69.3676 359.866C69.3737 359.672 69.4204 359.481 69.5054 359.302C69.6137 359.016 69.752 358.739 69.9186 358.474C71.1841 356.688 72.6987 355.038 74.4299 353.559C74.8661 353.199 75.2908 352.829 75.7499 352.489C75.991 352.313 76.2206 352.138 76.4731 351.973C76.6003 351.884 76.7345 351.803 76.8749 351.729C77.0492 351.606 77.2528 351.517 77.4718 351.467C77.7083 351.431 77.951 351.438 78.1843 351.486C78.4176 351.535 78.6363 351.624 78.8263 351.749C79.1028 351.906 79.3638 352.082 79.6069 352.274C80.0544 352.636 80.4761 353.019 80.8696 353.423C83.7646 356.645 86.3554 360.055 88.6179 363.623C85.9796 360.293 83.0965 357.107 79.9857 354.085C79.5839 353.734 79.1822 353.384 78.7689 353.112C78.4941 352.896 78.1751 352.724 77.8276 352.605L77.6555 352.712C77.5441 352.771 77.4402 352.84 77.3455 352.917C77.1389 353.063 76.9323 353.238 76.7371 353.403C76.3239 353.744 75.9336 354.104 75.5892 354.464C74.0521 355.908 72.7192 357.499 71.6175 359.204C71.5107 359.388 71.4261 359.58 71.365 359.778C71.365 359.837 71.2961 359.963 71.365 359.944C71.351 359.871 71.3197 359.802 71.2731 359.74L71.2157 359.671C71.6158 359.843 72.0349 359.979 72.467 360.08C73.5345 360.372 74.6824 360.615 75.8188 360.849C78.1146 361.307 80.4104 361.715 82.7062 362.114L91.6139 363.564C92.7618 363.788 92.0157 363.759 93.2669 364.09L93.7835 364.256C93.9076 364.298 94.0267 364.35 94.1393 364.411C94.2595 364.471 94.368 364.547 94.4607 364.635C94.5935 364.754 94.6917 364.897 94.7477 365.054C94.8422 365.329 94.8094 365.625 94.6559 365.881C94.5192 366.051 94.3528 366.202 94.1623 366.329C94.0593 366.397 93.9477 366.456 93.8294 366.504C93.6581 366.587 93.4774 366.656 93.2899 366.708C92.691 366.905 92.0774 367.067 91.4532 367.195C89.0771 367.681 86.7354 368.032 84.4051 368.402C83.1769 368.577 82.2126 368.772 80.8466 368.956C79.6268 369.074 78.4009 369.139 77.1733 369.151C74.7222 369.222 72.2688 369.085 69.8497 368.742C69.118 368.645 68.4159 368.427 67.7835 368.1C67.3779 367.837 67.087 367.467 66.957 367.049C66.8417 366.759 66.7685 366.458 66.7389 366.153C66.6417 365.104 66.6417 364.05 66.7389 363C66.8652 360.946 67.1522 358.941 67.508 356.927C67.6917 355.953 67.8868 354.922 68.1508 353.919C68.3689 353.403 68.2312 352.946 68.9544 352.255C69.4605 351.899 70.025 351.607 70.6303 351.389C72.8402 350.596 75.1059 349.92 77.4144 349.364C79.5036 348.79 81.7879 348.206 84.1181 347.817Z" fill="#C7C7C7"/>
<path d="M269.171 185.182C306.478 217.232 353.393 284.661 344.646 298.335C334.911 313.557 282.969 268.621 283.164 266.003C283.325 264.057 265.05 223.053 251.184 193.27C237.317 163.488 259.954 177.25 269.171 185.182Z" fill="#EC8F5E"/>
<path d="M282.82 266.062C281.235 261.682 256.418 207.665 249.266 190.584C242.115 173.503 248.75 168.199 269.045 183.869C289.34 199.538 333.832 251.764 343.98 279.493C353.76 306.219 337.54 306.219 316.132 293.897C298.603 283.814 282.82 266.062 282.82 266.062Z" fill="#F3B664"/>
<path d="M265.521 185.63C265.297 186.827 264.872 187.991 264.258 189.085C263.668 190.194 262.895 191.226 261.962 192.151C262.184 190.953 262.609 189.79 263.225 188.696C263.815 187.587 264.588 186.554 265.521 185.63Z" fill="white"/>
<path d="M329.298 256.825C329.066 258.024 328.641 259.189 328.036 260.29C327.449 261.401 326.676 262.434 325.74 263.356C326.223 260.954 327.442 258.702 329.275 256.825H329.298Z" fill="white"/>
<path d="M307.305 228.454C306.819 230.852 305.6 233.101 303.769 234.975C303.995 233.777 304.424 232.613 305.043 231.52C305.622 230.413 306.384 229.38 307.305 228.454Z" fill="white"/>
<path d="M285.816 226.323C284.404 226.127 283.032 225.763 281.741 225.242C280.43 224.746 279.212 224.09 278.125 223.296C280.954 223.708 283.605 224.741 285.816 226.294V226.323Z" fill="white"/>
<path d="M306.409 255.015C304.995 254.818 303.621 254.458 302.322 253.945C301.015 253.444 299.797 252.789 298.707 251.998C301.54 252.408 304.196 253.441 306.409 254.996V255.015Z" fill="white"/>
<path d="M289.673 205.865C288.258 205.672 286.882 205.312 285.586 204.794C284.276 204.297 283.058 203.642 281.97 202.848C283.383 203.039 284.756 203.403 286.045 203.928C287.355 204.427 288.576 205.079 289.673 205.865Z" fill="white"/>
<path d="M272.328 238.722C273.981 240.712 274.994 243.034 275.267 245.457C273.614 243.467 272.601 241.146 272.328 238.722Z" fill="white"/>
<path d="M315.409 272.875C316.249 273.859 316.918 274.94 317.395 276.086C317.911 277.216 318.232 278.402 318.347 279.61C316.694 277.619 315.681 275.298 315.409 272.875Z" fill="white"/>
<path d="M291.521 269.886C290.445 270.557 289.263 271.095 288.008 271.482L287.262 270.723H287.354C288.688 270.276 290.092 269.994 291.521 269.886Z" fill="white"/>
<path d="M334.234 291.912C335.398 291.2 336.673 290.63 338.022 290.218C339.354 289.781 340.754 289.509 342.178 289.411C341.022 290.125 339.75 290.692 338.401 291.094C337.065 291.532 335.662 291.807 334.234 291.912Z" fill="white"/>
<path d="M265.923 211.149C264.762 211.862 263.486 212.429 262.135 212.833C261.204 213.131 260.243 213.355 259.265 213.505L259.058 213.028C259.919 212.605 260.821 212.246 261.756 211.957C263.091 211.518 264.495 211.246 265.923 211.149Z" fill="white"/>
<path d="M278.366 305.732H136.554C136.554 305.732 159.099 211.432 213.464 170.613C220.179 165.571 235.343 166.72 245.237 170.885C248.761 172.374 261.446 187.431 265.062 201.631C268.678 215.831 278.756 305.304 278.366 305.732Z" fill="#F3B664"/>
<path d="M266.313 207.509C267.461 210.682 268.345 213.982 269.102 217.242C269.102 217.116 269.102 216.989 269.102 216.853C269.102 215.004 269.171 213.106 269.412 211.256C269.412 211.159 269.607 211.13 269.619 211.256C269.904 213.128 269.965 215.019 269.802 216.901C269.802 217.787 269.676 218.682 269.596 219.568C269.894 221.048 270.158 222.537 270.376 224.006C270.79 226.819 271.903 237.262 271.995 239.335C271.995 239.773 271.433 239.851 271.283 239.394C270.618 237.292 268.85 226.527 268.287 223.753C267.192 218.374 266.444 212.948 266.049 207.5C266.06 207.402 266.278 207.402 266.313 207.509Z" fill="#263238"/>
<path d="M222.371 195.226C221.888 197.629 220.669 199.881 218.836 201.757C219.059 200.559 219.489 199.395 220.11 198.302C220.689 197.192 221.45 196.156 222.371 195.226ZM203.155 243.112C202.54 244.209 202.114 245.376 201.893 246.576C202.829 245.65 203.602 244.615 204.188 243.501C204.799 242.405 205.224 241.242 205.451 240.046C204.515 240.968 203.741 242.001 203.155 243.112ZM157.09 260.222C156.479 261.317 156.054 262.481 155.827 263.677C156.764 262.755 157.537 261.722 158.123 260.611C158.734 259.512 159.159 258.346 159.386 257.146C158.453 258.074 157.68 259.11 157.09 260.222ZM190.953 290.919C190.337 292.013 189.912 293.177 189.69 294.374C190.627 293.452 191.4 292.419 191.986 291.308C192.592 290.208 193.017 289.042 193.249 287.843C192.311 288.783 191.538 289.832 190.953 290.958V290.919ZM250.07 231.598C249.459 232.693 249.034 233.857 248.807 235.053C249.744 234.131 250.517 233.098 251.103 231.987C251.714 230.892 252.139 229.728 252.366 228.532C251.434 229.471 250.661 230.516 250.07 231.637V231.598ZM268.701 264.173C268.085 265.271 267.659 266.438 267.438 267.638C268.375 266.716 269.148 265.683 269.734 264.572C270.327 263.5 270.744 262.364 270.973 261.195C270.05 262.104 269.284 263.12 268.701 264.212V264.173ZM223.622 287.649C223.012 288.748 222.587 289.914 222.36 291.114C223.296 290.191 224.069 289.159 224.656 288.048C225.266 286.949 225.691 285.782 225.918 284.583C224.982 285.52 224.209 286.565 223.622 287.688V287.649ZM180.427 224.211C179.813 225.305 179.388 226.469 179.164 227.666C180.097 226.741 180.87 225.709 181.46 224.6C182.076 223.506 182.501 222.342 182.723 221.145C181.79 222.069 181.017 223.102 180.427 224.211ZM234.034 213.505C232.744 212.982 231.371 212.622 229.959 212.434C231.047 213.228 232.265 213.884 233.575 214.381C234.869 214.894 236.24 215.254 237.65 215.451C236.562 214.657 235.344 214.002 234.034 213.505ZM242.965 252.153C241.674 251.631 240.302 251.271 238.89 251.083C239.977 251.877 241.195 252.532 242.505 253.029C243.8 253.541 245.171 253.902 246.58 254.1C245.493 253.306 244.275 252.65 242.965 252.153ZM159.581 293.148C158.29 292.627 156.918 292.267 155.506 292.077C156.594 292.871 157.812 293.527 159.122 294.024C160.416 294.537 161.787 294.897 163.197 295.094C162.113 294.301 160.899 293.645 159.593 293.148H159.581ZM244.434 300.983C243.139 300.461 241.763 300.101 240.347 299.912C241.439 300.701 242.657 301.356 243.963 301.859L244.836 302.18L247.131 302.306C246.286 301.795 245.387 301.352 244.445 300.983H244.434ZM191.458 261.828C190.167 261.307 188.795 260.947 187.383 260.757C188.471 261.551 189.689 262.207 190.999 262.704C192.291 263.225 193.663 263.588 195.074 263.784C193.991 262.987 192.777 262.328 191.47 261.828H191.458ZM234.022 179.216C232.732 178.694 231.36 178.333 229.947 178.146C231.035 178.94 232.253 179.596 233.563 180.092C234.855 180.613 236.227 180.977 237.638 181.172C236.555 180.376 235.341 179.717 234.034 179.216H234.022ZM243.206 197.163C243.702 198.31 244.394 199.389 245.26 200.365C244.988 197.942 243.975 195.621 242.322 193.63C242.418 194.838 242.719 196.028 243.217 197.163H243.206ZM265.727 286.705C266.205 287.847 266.874 288.925 267.713 289.907C267.441 287.483 266.428 285.162 264.775 283.172C264.9 284.366 265.224 285.539 265.739 286.656L265.727 286.705ZM204.889 219.704C205.364 220.848 206.032 221.927 206.875 222.906C206.759 221.699 206.438 220.512 205.922 219.383C205.436 218.239 204.764 217.158 203.924 216.171C204.061 217.366 204.393 218.539 204.912 219.656L204.889 219.704ZM222.417 259.054C222.903 260.195 223.575 261.273 224.414 262.256C224.145 259.83 223.127 257.508 221.464 255.521C221.585 256.731 221.906 257.92 222.417 259.054ZM141.157 305.236C141.157 305.401 141.157 305.567 141.157 305.732H141.525C141.433 305.57 141.31 305.404 141.157 305.236ZM181.081 305.08C180.595 303.936 179.923 302.855 179.084 301.868C179.204 303.078 179.524 304.268 180.037 305.401L180.186 305.732H181.334C181.253 305.518 181.173 305.294 181.081 305.08ZM172.943 277.313C173.419 278.458 174.088 279.54 174.928 280.524C174.814 279.314 174.493 278.124 173.976 276.991C173.492 275.849 172.82 274.771 171.978 273.789C172.103 274.996 172.428 276.182 172.943 277.313ZM207.276 184.618C207.76 185.76 208.432 186.838 209.274 187.82C208.988 185.401 207.972 183.084 206.324 181.095C206.441 182.301 206.758 183.487 207.265 184.618H207.276ZM245.26 275.473C246.609 275.07 247.881 274.503 249.037 273.789C247.613 273.887 246.213 274.159 244.882 274.597C243.535 275.004 242.263 275.571 241.105 276.281C242.529 276.183 243.928 275.911 245.26 275.473ZM208.137 304.428C209.489 304.024 210.765 303.457 211.925 302.744C210.498 302.841 209.094 303.113 207.758 303.552C206.412 303.959 205.14 304.526 203.982 305.236C205.39 305.134 206.774 304.862 208.091 304.428H208.137ZM145.003 278.208C144.911 278.48 144.808 278.763 144.716 279.025C145.394 278.755 146.04 278.429 146.644 278.052C146.078 278.067 145.514 278.119 144.957 278.208H145.003ZM177.374 244.864C178.723 244.457 179.995 243.887 181.15 243.17C178.294 243.415 175.559 244.276 173.207 245.671C174.618 245.566 176.005 245.294 177.328 244.864H177.374ZM207.093 276.767C208.441 276.365 209.714 275.798 210.869 275.084C209.442 275.182 208.038 275.454 206.702 275.892C205.356 276.304 204.085 276.874 202.926 277.585C204.353 277.479 205.756 277.204 207.093 276.767ZM224.77 231.024C226.119 230.617 227.392 230.047 228.547 229.33C227.119 229.432 225.715 229.707 224.38 230.148C223.033 230.554 221.762 231.121 220.603 231.831C222.03 231.73 223.433 231.458 224.77 231.024ZM262.18 212.833C263.532 212.429 264.808 211.862 265.968 211.149C263.11 211.38 260.372 212.239 258.025 213.641C259.449 213.543 260.848 213.271 262.18 212.833ZM195.281 202.195C196.629 201.793 197.902 201.225 199.057 200.511C197.633 200.608 196.233 200.88 194.902 201.319C193.553 201.728 192.278 202.294 191.114 203.003C192.542 202.906 193.945 202.634 195.281 202.195Z" fill="white"/>
<path d="M244.606 190.808C236.077 192.229 221.935 180.725 216.563 171.654C216.196 171.021 217.596 164.607 218.859 156.743C219.616 151.974 220.317 146.641 220.535 141.735C220.535 140.762 256.476 150.417 256.476 150.417C256.476 150.417 252.435 160.578 252.102 169.123C252.08 169.801 252.13 170.478 252.251 171.148C252.259 171.261 252.259 171.375 252.251 171.488C252.883 175.284 252.894 189.426 244.606 190.808Z" fill="#EC8F5E"/>
<path d="M248.589 171.479C249.831 171.568 251.079 171.568 252.32 171.479C252.327 171.368 252.327 171.258 252.32 171.148C252.193 170.479 252.143 169.801 252.171 169.123C252.504 160.578 256.533 150.417 256.533 150.417C256.533 150.417 227.41 142.553 221.602 141.726C222.429 147.38 227.215 170.359 248.589 171.479Z" fill="#263238"/>
<path d="M211.65 111.593C208.861 122.756 218.847 153.668 228.696 159.994C242.953 169.172 264.706 168.549 273.464 154.32C281.982 140.528 268.115 100.439 257.279 94.8234C241.346 86.5603 215.782 95.1057 211.65 111.593Z" fill="#EC8F5E"/>
<path d="M249.048 129.404C249.048 129.326 248.888 129.54 248.922 129.628C249.657 131.691 250.07 134.173 248.096 135.37C248.027 135.37 248.096 135.506 248.153 135.477C250.759 134.533 250.139 131.263 249.048 129.404Z" fill="#263238"/>
<path d="M246.167 127.72C242.127 128.372 243.952 135.166 247.694 134.533C251.436 133.901 249.554 127.185 246.167 127.72Z" fill="#263238"/>
<path d="M264.212 126.183C264.212 126.095 264.43 126.241 264.453 126.329C264.936 128.45 265.911 130.806 268.345 131.078C268.425 131.078 268.437 131.195 268.345 131.195C265.532 131.4 264.27 128.256 264.212 126.183Z" fill="#263238"/>
<path d="M265.831 123.555C269.757 122.523 271.892 129.258 268.253 130.212C264.614 131.166 262.548 124.411 265.831 123.555Z" fill="#263238"/>
<path d="M242.575 127.068C243.679 126.88 244.771 126.642 245.846 126.358C247.035 126.236 248.146 125.792 249.014 125.092C249.233 124.825 249.342 124.503 249.323 124.177C249.305 123.852 249.16 123.54 248.911 123.292C248.335 122.863 247.634 122.573 246.881 122.451C246.128 122.33 245.351 122.381 244.629 122.601C243.08 122.848 241.696 123.577 240.749 124.645C240.553 124.899 240.448 125.196 240.446 125.499C240.444 125.803 240.545 126.101 240.738 126.357C240.931 126.613 241.207 126.816 241.532 126.942C241.858 127.068 242.22 127.112 242.575 127.068Z" fill="#263238"/>
<path d="M268.012 119.535C266.886 119.554 265.759 119.525 264.637 119.447C263.437 119.562 262.226 119.336 261.193 118.805C260.909 118.586 260.719 118.293 260.653 117.972C260.586 117.652 260.647 117.322 260.826 117.034C261.278 116.507 261.888 116.092 262.592 115.832C263.296 115.572 264.069 115.476 264.832 115.554C266.404 115.511 267.939 115.965 269.137 116.829C269.398 117.037 269.583 117.305 269.668 117.601C269.753 117.896 269.735 118.206 269.616 118.493C269.496 118.78 269.281 119.031 268.996 119.216C268.712 119.401 268.369 119.512 268.012 119.535Z" fill="#263238"/>
<path d="M251.999 148.655C252.733 149.035 253.503 149.629 254.421 149.492C255.339 149.298 256.199 148.943 256.946 148.451C256.962 148.442 256.981 148.438 256.999 148.439C257.018 148.439 257.036 148.445 257.051 148.454C257.066 148.464 257.077 148.477 257.083 148.492C257.089 148.507 257.089 148.523 257.084 148.538C256.837 149.019 256.443 149.434 255.942 149.74C255.441 150.047 254.852 150.233 254.237 150.281C253.702 150.269 253.184 150.121 252.748 149.858C252.312 149.594 251.98 149.226 251.792 148.801C251.723 148.684 251.895 148.607 251.999 148.655Z" fill="#263238"/>
<path d="M252.917 141.852C253.771 142.562 254.789 143.116 255.907 143.477C257.025 143.839 258.219 144.001 259.414 143.954C260.461 143.924 261.497 143.767 262.491 143.487C262.683 143.44 262.871 143.382 263.053 143.312C263.235 143.266 263.411 143.208 263.581 143.137C263.709 143.092 263.815 143.012 263.882 142.909C263.948 142.806 263.972 142.688 263.948 142.572C263.932 142.501 263.905 142.433 263.868 142.368V142.183C263.489 140.557 262.64 138.124 262.64 138.124C263.42 138.29 267.346 138.961 267.059 138.124C264.683 131.204 262.043 123.525 257.956 117.063C257.935 117.013 257.892 116.974 257.836 116.952C257.78 116.93 257.716 116.928 257.658 116.946C257.6 116.964 257.553 117.001 257.527 117.048C257.501 117.096 257.499 117.15 257.52 117.199C259.495 123.924 262.846 130.309 264.947 137.034C263.549 136.777 262.115 136.692 260.688 136.781C260.436 136.898 262.422 141.443 262.525 142.192C262.532 142.218 262.532 142.245 262.525 142.27C259.414 143.244 256.786 142.884 253.158 141.657C252.883 141.531 252.722 141.716 252.917 141.852Z" fill="#263238"/>
<path d="M218.778 139.185C218.778 139.185 205.44 122.445 206.002 112.42C206.255 107.895 213.326 104.546 213.326 104.546C212.667 102.729 212.621 100.791 213.193 98.9525C213.765 97.1139 214.932 95.4476 216.563 94.1422C222.566 88.8476 237.856 89.3342 237.856 89.3342C237.856 89.3342 247.04 76.8179 261.274 81.0322C275.508 85.2464 267.208 99.0475 267.208 99.0475C267.208 99.0475 272.695 104.994 260.459 110.347C248.543 115.554 223.358 111.992 223.358 111.992C224.938 119.213 225.24 126.594 224.254 133.891C224.009 135.117 223.367 136.261 222.4 137.195C221.433 138.13 220.18 138.819 218.778 139.185Z" fill="#263238"/>
<path d="M240.233 89.3926C237.051 88.4516 233.676 88.0739 230.315 88.2831C227.305 88.3705 224.335 88.8939 221.533 89.8306C216.597 91.5728 212.35 94.9014 211.742 99.5634C211.598 100.719 211.727 101.887 212.122 103C212.516 104.113 213.167 105.148 214.038 106.045C214.107 106.114 214.233 106.045 214.164 105.929C210.72 102.678 212.121 97.3346 215.312 94.3564C218.893 90.9791 224.598 89.49 229.775 89.1104C233.23 88.9281 236.697 89.0914 240.106 89.597C240.135 89.5985 240.164 89.5929 240.189 89.5809C240.214 89.5689 240.234 89.551 240.248 89.5294C240.261 89.5079 240.267 89.4835 240.264 89.4592C240.261 89.4349 240.25 89.4118 240.233 89.3926Z" fill="#263238"/>
<path d="M271.547 86.3268C270.193 83.0566 266.715 81.0712 262.892 80.2049C258.487 79.2748 253.841 79.6173 249.691 81.1782C245.521 82.7664 241.927 85.2695 239.28 88.4291C239.28 88.4973 239.36 88.5848 239.418 88.5167C244.365 83.0274 252.412 79.6794 260.619 80.7986C264.281 81.295 268.012 82.7452 269.86 85.5969C270.652 86.9629 271.081 88.4596 271.117 89.9815C271.153 91.5034 270.794 93.0134 270.066 94.405C268.379 97.7628 265.027 100.391 261.538 102.415C261.457 102.415 261.538 102.571 261.618 102.532C265.112 100.897 268.059 98.5359 270.181 95.6703C271.186 94.2872 271.829 92.7369 272.064 91.1247C272.3 89.5125 272.124 87.8761 271.547 86.3268Z" fill="#263238"/>
<path d="M263.478 110.776C258.016 112.926 252.074 114.061 246.053 114.104C239.81 114.222 233.57 113.762 227.445 112.732C223.875 112.168 220.328 111.477 216.793 110.737C216.678 110.737 216.643 110.854 216.793 110.883C223.003 112.838 229.441 114.231 235.997 115.039C242.093 115.744 248.293 115.433 254.249 114.124C257.508 113.378 260.644 112.286 263.581 110.873C263.627 110.844 263.547 110.747 263.478 110.776Z" fill="#263238"/>
<path d="M249.909 141.784C248.022 142.004 246.101 141.771 244.362 141.111C242.624 140.451 241.139 139.391 240.076 138.052C239.012 136.712 238.413 135.146 238.347 133.532C238.281 131.918 238.75 130.321 239.7 128.922C240.651 127.523 242.046 126.378 243.726 125.617C245.405 124.856 247.303 124.51 249.204 124.618C251.104 124.726 252.93 125.284 254.476 126.228C256.021 127.172 257.223 128.465 257.945 129.959C258.964 132.08 258.949 134.457 257.903 136.568C256.857 138.679 254.865 140.352 252.366 141.22C251.579 141.496 250.753 141.686 249.909 141.784ZM247.281 125.822C246.556 125.906 245.846 126.066 245.168 126.299C243.08 127.015 241.392 128.379 240.448 130.113C239.505 131.847 239.376 133.821 240.09 135.632C240.803 137.444 242.304 138.957 244.287 139.863C246.27 140.769 248.585 140.999 250.762 140.508C252.939 140.016 254.812 138.84 256.001 137.218C257.19 135.596 257.605 133.65 257.161 131.778C256.717 129.905 255.448 128.247 253.612 127.141C251.777 126.034 249.512 125.563 247.281 125.822Z" fill="#EBEBEB"/>
<path d="M272.5 136.665C268.632 137.122 264.579 134.183 263.236 129.852C262.553 127.776 262.654 125.57 263.523 123.545C263.832 122.657 264.407 121.851 265.191 121.206C265.975 120.562 266.943 120.1 268 119.866C269.057 119.632 270.167 119.633 271.223 119.87C272.279 120.107 273.245 120.572 274.027 121.219C275.951 122.621 277.308 124.5 277.907 126.591C279.33 131.205 277.195 135.682 273.154 136.577C272.939 136.62 272.72 136.65 272.5 136.665ZM268.85 120.878C268.679 120.897 268.51 120.926 268.344 120.966C267.507 121.182 266.744 121.567 266.122 122.09C265.5 122.612 265.037 123.255 264.775 123.963C264.01 125.763 263.93 127.72 264.545 129.56C265.773 133.55 269.469 136.198 272.798 135.458C276.127 134.718 277.815 130.874 276.575 126.883C276.048 125.023 274.843 123.351 273.131 122.104C272.556 121.661 271.878 121.323 271.141 121.112C270.405 120.901 269.624 120.822 268.85 120.878Z" fill="#EBEBEB"/>
<path d="M257.888 131.001L256.74 130.329C257.888 128.937 260.918 126.738 264.006 128.382L263.271 129.356C260.562 127.857 258.002 130.874 257.888 131.001Z" fill="#EBEBEB"/>
<path d="M214.657 142.884L213.326 142.631C213.463 142.105 214.772 137.473 217.584 136.412C220.397 135.351 238.315 132.918 239.085 132.811L239.303 133.949C234.114 134.67 220.167 136.704 218.135 137.463C216.104 138.222 214.99 141.609 214.657 142.884Z" fill="#EBEBEB"/>
<path d="M224.46 137.443C224.46 137.443 214.818 128.071 209.71 131.088C204.602 134.105 212.752 148.237 219.375 149.668C220.211 149.9 221.093 149.988 221.969 149.924C222.845 149.86 223.697 149.647 224.473 149.297C225.25 148.947 225.935 148.467 226.487 147.887C227.039 147.307 227.447 146.638 227.686 145.92L224.46 137.443Z" fill="#EC8F5E"/>
<path d="M212.167 135.088C212.063 135.088 212.063 135.214 212.167 135.234C216.827 136.363 219.616 139.662 221.729 143.156C220.225 141.872 218.285 141.268 216.276 142.816C216.161 142.894 216.276 143.04 216.414 143.001C217.172 142.717 218.015 142.64 218.827 142.779C219.639 142.918 220.38 143.268 220.948 143.779C221.894 144.643 222.729 145.589 223.439 146.602C223.68 146.923 224.38 146.67 224.185 146.3C224.181 146.271 224.181 146.242 224.185 146.212C223.623 141.375 218.342 135.02 212.167 135.088Z" fill="#263238"/>
<path d="M344.646 298.336C336.255 308.516 313.4 310.453 256.395 319.923C248.509 321.237 222.635 276.524 230.969 274.763C241.472 272.534 282.797 265.828 285.896 265.663C311.999 264.261 350.339 291.425 344.646 298.336Z" fill="#EC8F5E"/>
<path d="M242.379 272.553C242.379 272.553 218.273 275.648 206.128 280.602C189.943 287.24 179.176 298.618 175.009 303.62C166.308 314.063 153.773 344.4 163.449 348.985C172.208 353.131 183.17 321.577 183.17 321.577C183.17 321.577 165.734 352.187 177.362 355.544C188.99 358.902 199.264 321.645 199.264 321.645C199.264 321.645 182.172 353.442 194.81 355.291C204.372 356.683 215.909 323.387 215.909 323.387C215.909 323.387 201.445 350.805 211.191 352.586C221.969 354.532 234.895 324.361 234.895 324.361C260.585 325.392 273.304 316.964 281.523 310.063C283.508 308.448 242.379 272.553 242.379 272.553Z" fill="#EC8F5E"/>
<path d="M188.405 310.657C186.201 314.19 183.939 317.752 182.126 321.441C180.312 325.13 178.625 328.877 177.213 332.692C173.769 342.045 173.31 348.362 173.39 347.972C175.215 338.804 181.506 325.519 183.331 321.83C185.156 318.142 186.775 314.394 188.577 310.706C188.623 310.618 188.451 310.569 188.405 310.657Z" fill="#263238"/>
<path d="M204.223 316C201.64 320.613 198.885 325.11 196.543 329.83C194.202 334.551 192.457 339.145 190.54 343.923C190.391 344.293 190.678 344.244 190.85 343.923C193.008 339.183 195.441 334.93 197.737 330.21C200.033 325.489 201.996 320.691 204.418 316.058C204.395 315.971 204.269 315.932 204.223 316Z" fill="#263238"/>
<path d="M218.778 318.512C214.405 325.393 211.535 332.955 208.941 340.42C208.803 340.79 209.171 340.693 209.32 340.313C212.431 332.984 214.807 327.213 219.065 318.638C219.134 318.512 218.859 318.366 218.778 318.512Z" fill="#263238"/>
<path d="M237.34 272.553L287.274 319.709C287.274 319.709 337.781 309.878 345.22 298.9C350.121 291.668 312.057 262.49 283.348 265.906L237.34 272.553Z" fill="#F3B664"/>
<path d="M281.683 301.976C281.456 303.172 281.031 304.335 280.421 305.431C279.837 306.546 279.064 307.582 278.125 308.506C278.352 307.307 278.777 306.14 279.387 305.041C279.974 303.931 280.747 302.898 281.683 301.976ZM316.43 299.338C315.82 300.434 315.394 301.597 315.168 302.793C316.104 301.871 316.877 300.838 317.463 299.727C318.074 298.628 318.499 297.462 318.726 296.263C317.793 297.191 317.021 298.226 316.43 299.338ZM291.636 289.42C290.341 288.898 288.965 288.538 287.549 288.35C288.637 289.144 289.855 289.799 291.165 290.296C292.461 290.814 293.837 291.175 295.251 291.367C294.164 290.573 292.946 289.917 291.636 289.42ZM316.361 276.437C316.836 277.58 317.505 278.659 318.347 279.639C318.232 278.432 317.911 277.245 317.394 276.116C316.918 274.97 316.249 273.888 315.409 272.904C315.522 274.118 315.843 275.311 316.361 276.447V276.437ZM265.739 286.647C266.217 287.789 266.885 288.867 267.725 289.849C267.452 287.425 266.439 285.104 264.786 283.114C264.901 284.327 265.222 285.52 265.739 286.656V286.647ZM245.26 275.473C246.609 275.071 247.881 274.504 249.037 273.79C247.613 273.888 246.213 274.16 244.882 274.597C243.535 275.004 242.263 275.571 241.105 276.281C242.529 276.183 243.928 275.911 245.26 275.473ZM287.733 271.58C289.081 271.178 290.354 270.61 291.509 269.896C290.082 269.995 288.678 270.267 287.342 270.704C286 271.119 284.73 271.685 283.566 272.388C284.994 272.288 286.398 272.013 287.733 271.571V271.58ZM303.459 313.042C304.813 312.638 306.089 312.067 307.247 311.348C305.82 311.453 304.417 311.728 303.08 312.166C301.731 312.568 300.459 313.136 299.304 313.85C300.731 313.745 302.134 313.469 303.47 313.032L303.459 313.042ZM341.007 289.527C339.986 289.686 338.983 289.921 338.011 290.228C336.661 290.64 335.386 291.21 334.223 291.922C335.65 291.817 337.053 291.542 338.39 291.104C339.422 290.787 340.414 290.383 341.351 289.897L341.007 289.527Z" fill="white"/>
<path d="M317.636 273.614C313.044 270.772 299.969 264.144 283.348 265.906C283.21 265.906 283.199 266.12 283.348 266.12C295.883 265.818 312.792 271.376 317.521 273.789C317.647 273.848 317.75 273.682 317.636 273.614Z" fill="#263238"/>
<path d="M300.933 311.805C295.768 306.365 290.269 301.177 284.748 295.99C279.227 290.802 273.717 285.615 268.046 280.544C264.843 277.682 261.652 274.792 258.323 272.028C258.243 271.959 258.071 272.028 258.151 272.144C263.305 277.575 268.792 282.792 274.222 287.999C279.651 293.206 285.253 298.384 290.855 303.513C294.023 306.433 297.249 309.255 300.578 312.019C300.773 312.165 301.083 311.971 300.933 311.805Z" fill="#263238"/>
<path d="M254.983 177.63C254.983 177.617 254.977 177.605 254.966 177.596C254.956 177.586 254.941 177.581 254.926 177.581C254.91 177.581 254.896 177.586 254.885 177.596C254.874 177.605 254.868 177.617 254.868 177.63C255.867 184.131 257.692 199.246 245.536 199.042C240.646 198.954 235.997 196.638 232.094 194.331C228.103 191.934 224.428 189.18 221.131 186.117C217.304 182.775 213.803 179.175 210.663 175.352C210.536 175.187 210.249 175.352 210.387 175.547C213.578 179.372 216.299 183.333 219.926 186.944C223.368 190.427 227.353 193.495 231.773 196.064C235.939 198.419 240.875 200.716 246.041 200.599C250.965 200.492 254.317 197.679 255.442 193.786C256.923 188.638 256.349 182.74 254.983 177.63Z" fill="#263238"/>
<path d="M252.309 171.284L243.447 189.368L217.137 166.126L209.492 173.426C209.492 173.426 235.044 210.206 235.228 208.551L244.273 192.979L256.9 203.996L256.234 176.637L252.309 171.284Z" fill="white"/>
<path d="M257.451 190.458C257.164 185.942 257.015 181.387 256.487 176.89C256.487 176.725 256.165 176.657 256.12 176.89C254.972 181.241 256.211 198.497 256.12 202.633L256.062 202.585C255.534 202.108 244.377 192.852 244.262 193.027C242.31 195.499 235.675 206.838 235.216 207.87C231.176 202.03 215.702 180.783 210.869 175.255C210.843 175.224 210.805 175.202 210.761 175.193C210.718 175.184 210.672 175.189 210.632 175.207C210.593 175.225 210.562 175.255 210.547 175.291C210.531 175.326 210.532 175.366 210.548 175.401C214.106 181.572 234.654 210.176 234.941 210.098C235.159 210.244 243.401 196.268 244.399 193.631C246.282 195.635 257.531 206.03 257.577 205.358C257.842 200.393 257.799 195.419 257.451 190.458Z" fill="#263238"/>
<path d="M300.359 240.533C300.359 240.533 305.835 251.054 297.076 253.633C288.318 256.212 284.909 245.088 284.909 245.088L300.359 240.533Z" fill="#455A64"/>
<path d="M253.743 169.153L255.695 158.028L256.303 154.349L259.517 156.889L269.194 164.598L300.497 240.961L285.035 245.516L253.755 169.153H253.743Z" fill="#455A64"/>
<path d="M255.684 158.009L256.315 154.339L259.529 156.88L255.684 158.009Z" fill="#37474F"/>
<path d="M283.916 246.326L301.958 241.008L300.714 237.974L282.672 243.292L283.916 246.326Z" fill="#37474F"/>
<path d="M282.546 242.963L300.587 237.645L299.344 234.611L281.302 239.929L282.546 242.963Z" fill="#37474F"/>
<path d="M299.35 234.596L293.53 236.318L285.414 207.743L287.595 207.217L299.35 234.596Z" fill="#37474F"/>
<path d="M188.577 193.348C152.281 231.802 119.336 287.143 126.017 307.153C128.462 314.472 144.062 326.619 167.49 320.049C193.892 312.633 226.779 294.394 257.428 275.016C263.925 270.908 210.628 236.62 203.592 240.951C200.32 242.956 191.39 250.022 190.035 249.477C188.003 248.65 198.748 229.719 207.85 200.035C217.447 168.734 204.372 176.637 188.577 193.348Z" fill="#EC8F5E"/>
<path d="M279.985 189.941C284.909 195.032 269.057 204.258 269.057 204.258C272.389 203.981 275.731 204.7 278.504 206.292C283.233 209.29 279.755 216.891 279.755 216.891C283.286 217.214 286.621 218.428 289.329 220.376C293.507 223.636 291.291 231.724 291.291 231.724C294.339 233.539 296.515 236.223 297.421 239.286C299.453 247.549 288.479 256.465 281.58 262.197C274.681 267.93 248.704 278.714 244.113 281.176L200.343 243.909C200.343 243.909 222.693 210.74 231.945 204.978C239.682 200.122 272.466 182.145 279.985 189.941Z" fill="#EC8F5E"/>
<path d="M268.793 204.2C259.047 207.675 250.3 213.115 241.932 218.449C241.903 218.476 241.887 218.51 241.885 218.546C241.884 218.582 241.897 218.618 241.923 218.647C241.948 218.675 241.985 218.696 242.027 218.704C242.068 218.712 242.112 218.708 242.15 218.692C250.403 213.31 260.516 209.66 269.045 204.57C269.098 204.54 269.136 204.493 269.151 204.44C269.165 204.387 269.155 204.332 269.123 204.285C269.091 204.237 269.039 204.203 268.978 204.187C268.916 204.171 268.85 204.176 268.793 204.2Z" fill="#263238"/>
<path d="M279.043 216.522C276.919 217.49 274.955 218.691 273.2 220.094C271.241 221.482 269.328 222.897 267.461 224.337C263.634 227.218 259.9 230.18 256.257 233.223C256.096 233.359 256.257 233.603 256.475 233.466C260.302 230.598 264.178 227.795 268.103 225.057C270.085 223.682 272.075 222.329 274.073 220.999C276.06 219.838 277.889 218.493 279.525 216.989C279.598 216.935 279.643 216.858 279.649 216.776C279.656 216.694 279.623 216.613 279.559 216.551C279.496 216.489 279.405 216.451 279.308 216.446C279.211 216.44 279.116 216.467 279.043 216.522Z" fill="#263238"/>
<path d="M291.177 231.841C289.248 232.513 287.618 234.119 286.114 235.306C284.404 236.649 282.671 237.983 280.96 239.306C277.517 241.963 274.073 244.62 270.503 247.17C270.331 247.297 270.503 247.54 270.721 247.414C274.36 244.834 278.022 242.304 281.626 239.695C283.394 238.398 285.158 237.1 286.918 235.802C288.399 234.703 290.419 233.467 291.337 231.909C291.332 231.896 291.324 231.883 291.313 231.873C291.302 231.862 291.289 231.853 291.274 231.847C291.259 231.84 291.242 231.837 291.226 231.836C291.209 231.835 291.192 231.837 291.177 231.841Z" fill="#263238"/>
<path d="M243.734 283.493C245.763 281.812 247.939 280.264 250.242 278.86C252.518 277.424 254.92 276.139 257.428 275.016C255.405 276.702 253.229 278.251 250.92 279.648C248.644 281.084 246.242 282.369 243.734 283.493Z" fill="#263238"/>
<path d="M191.527 247.278C191.527 247.278 201.411 222.751 208.195 202.848C214.979 182.944 217.125 164.452 192.124 186.925C167.123 209.398 122.435 275.629 123.124 301.713C123.308 309.295 132.904 323.904 157.664 323.417C182.424 322.93 249.852 288.272 249.852 288.272L199.838 242.129L191.527 247.278Z" fill="#F3B664"/>
<path d="M203.098 245.184C202.752 245.681 202.348 246.148 201.893 246.576C202.002 245.912 202.194 245.259 202.467 244.63L203.098 245.184ZM157.09 260.222C156.479 261.317 156.054 262.48 155.827 263.677C156.764 262.754 157.537 261.722 158.123 260.611C158.734 259.512 159.159 258.345 159.386 257.146C158.453 258.074 157.68 259.11 157.09 260.222ZM190.953 290.919C190.337 292.012 189.912 293.176 189.69 294.374C190.627 293.451 191.4 292.419 191.986 291.308C192.592 290.207 193.017 289.041 193.249 287.843C192.311 288.782 191.538 289.831 190.953 290.958V290.919ZM127.302 295.318C126.691 296.413 126.266 297.577 126.039 298.773C126.976 297.851 127.749 296.818 128.335 295.707C128.944 294.611 129.369 293.448 129.598 292.252C128.662 293.189 127.889 294.234 127.302 295.357V295.318ZM223.622 287.648C223.012 288.747 222.587 289.914 222.36 291.113C223.296 290.191 224.069 289.158 224.655 288.047C225.266 286.948 225.691 285.782 225.918 284.583C224.982 285.519 224.209 286.565 223.622 287.687V287.648ZM180.427 224.21C179.813 225.305 179.388 226.468 179.164 227.665C180.097 226.741 180.87 225.709 181.46 224.6C182.076 223.506 182.501 222.342 182.723 221.145C181.79 222.069 181.017 223.101 180.427 224.21ZM172.701 208.219C173.702 208.576 174.751 208.824 175.824 208.959C175.05 208.388 174.198 207.898 173.287 207.499L172.701 208.219ZM138.884 258.489C138.724 258.771 138.563 259.054 138.414 259.346C139.712 259.859 141.087 260.219 142.5 260.416C141.411 259.622 140.193 258.963 138.884 258.46V258.489ZM159.547 293.177C158.256 292.656 156.883 292.296 155.471 292.106C156.559 292.9 157.777 293.556 159.087 294.053C160.381 294.566 161.753 294.926 163.162 295.123C162.091 294.322 160.889 293.657 159.592 293.147L159.547 293.177ZM191.424 261.857C190.133 261.336 188.761 260.976 187.349 260.786C188.436 261.58 189.654 262.236 190.965 262.733C192.256 263.254 193.628 263.617 195.04 263.813C193.969 263.008 192.766 262.34 191.47 261.827L191.424 261.857ZM142.064 308.798C142.539 309.941 143.208 311.02 144.05 312C143.934 310.793 143.613 309.606 143.097 308.476C142.62 307.331 141.952 306.249 141.111 305.265C141.243 306.467 141.58 307.647 142.11 308.768L142.064 308.798ZM179.945 305.43C180.428 306.572 181.101 307.65 181.942 308.632C181.821 307.426 181.5 306.24 180.989 305.109C180.503 303.965 179.831 302.884 178.992 301.897C179.144 303.101 179.496 304.28 180.037 305.401L179.945 305.43ZM172.943 277.312C173.419 278.458 174.088 279.54 174.928 280.524C174.814 279.313 174.493 278.123 173.976 276.991C173.492 275.849 172.82 274.771 171.978 273.789C172.103 274.996 172.428 276.182 172.943 277.312ZM157.09 238.284C157.565 239.427 158.234 240.506 159.076 241.486C158.803 239.063 157.791 236.741 156.137 234.751C156.248 235.961 156.565 237.151 157.079 238.284H157.09ZM207.276 184.618C207.76 185.76 208.432 186.838 209.274 187.82C208.987 185.4 207.972 183.084 206.323 181.094C206.441 182.3 206.758 183.486 207.265 184.618H207.276ZM195.292 202.195C196.641 201.792 197.913 201.225 199.069 200.511C197.645 200.608 196.245 200.88 194.913 201.319C193.564 201.727 192.289 202.294 191.125 203.003C192.549 202.905 193.949 202.633 195.281 202.195H195.292ZM208.103 304.389C209.454 303.985 210.73 303.418 211.891 302.705C210.463 302.802 209.059 303.074 207.724 303.513C206.377 303.919 205.106 304.486 203.947 305.197C205.365 305.11 206.761 304.851 208.091 304.428L208.103 304.389ZM142.822 279.687C144.17 279.284 145.443 278.717 146.598 278.003C145.171 278.102 143.767 278.374 142.431 278.811C141.085 279.223 139.814 279.793 138.655 280.505C140.082 280.4 141.485 280.124 142.822 279.687ZM163.886 315.786C165.233 315.381 166.505 314.814 167.662 314.102C166.234 314.199 164.831 314.471 163.495 314.91C162.149 315.322 160.878 315.892 159.719 316.603C161.145 316.504 162.547 316.235 163.886 315.805V315.786ZM177.328 244.844C178.677 244.438 179.949 243.867 181.104 243.15C178.248 243.395 175.513 244.256 173.161 245.652C174.586 245.556 175.989 245.291 177.328 244.863V244.844ZM207.093 276.767C208.441 276.365 209.714 275.797 210.869 275.083C209.442 275.182 208.038 275.454 206.702 275.891C205.356 276.303 204.085 276.873 202.926 277.585C204.353 277.479 205.756 277.204 207.093 276.767Z" fill="white"/>
<path d="M234.378 291.775C229.213 286.345 223.714 281.147 218.193 275.969C212.672 270.792 207.162 265.585 201.491 260.514C198.277 257.652 195.097 254.772 191.768 252.007C191.688 251.93 191.516 252.007 191.596 252.124C196.75 257.545 202.237 262.772 207.667 267.969C213.096 273.166 218.698 278.364 224.3 283.483C227.468 286.403 230.694 289.225 234.022 291.999C234.218 292.136 234.528 291.941 234.378 291.775Z" fill="#263238"/>
<path d="M206.358 217.262C205.383 218.478 204.499 219.744 203.672 221.028C203.948 220.367 204.235 219.705 204.499 219.033C205.647 216.337 206.634 213.622 207.701 210.906C207.77 210.741 207.426 210.624 207.345 210.79C206.198 213.135 205.05 215.461 203.959 217.817C202.869 220.172 201.858 222.488 200.802 224.824C198.679 229.545 196.567 234.255 194.604 239.024C193.456 241.72 192.469 244.426 191.539 247.18C191.539 247.287 191.711 247.365 191.768 247.258C194.236 242.684 196.36 237.983 198.461 233.262C199.792 230.174 201.116 227.082 202.432 223.987C203.867 221.807 205.256 219.598 206.519 217.34C206.531 217.322 206.534 217.3 206.528 217.28C206.521 217.26 206.506 217.243 206.484 217.233C206.463 217.222 206.438 217.22 206.414 217.225C206.391 217.231 206.37 217.244 206.358 217.262Z" fill="#263238"/>
<path d="M200.561 242.966C200.561 242.966 199.78 242.44 199.746 242.411C197.278 244.241 194.603 245.837 192.055 247.56C190.701 248.484 180.645 255.249 177.201 257.711C169.04 263.551 161.131 269.614 153.302 275.824C149.411 278.928 145.588 282.101 141.823 285.303C138.058 288.505 134.212 291.756 130.596 295.143C130.58 295.154 130.56 295.16 130.539 295.159C130.518 295.159 130.498 295.153 130.482 295.141C130.465 295.13 130.454 295.114 130.45 295.097C130.446 295.08 130.449 295.062 130.459 295.046C134.385 291.153 138.299 287.172 142.397 283.367C149.638 276.628 157.338 270.255 165.458 264.281C169.522 261.302 173.666 258.405 177.89 255.589C180.668 253.73 189.897 247.696 191.217 246.83C193.938 245.088 196.67 243.209 199.425 241.662C199.528 241.603 200.676 242.82 200.71 242.839C200.745 242.859 200.618 243.053 200.561 242.966Z" fill="#263238"/>
<path d="M97.5717 334.269H70.4009V337.86H97.5717V334.269Z" fill="#455A64"/>
<path d="M97.5717 334.269H70.4009V336.644H97.5717V334.269Z" fill="#263238"/>
<path d="M38.1447 324.604C39.8 326.675 42.1223 328.299 44.8351 329.282C47.5479 330.266 50.5369 330.568 53.4462 330.152C54.3876 330.002 55.31 329.777 56.2012 329.48C57.5535 329.031 58.8431 328.457 60.0467 327.767L56.603 323.427C55.9634 323.81 55.2787 324.136 54.5597 324.4C48.097 326.891 43.999 322.56 43.1955 321.577C39.4648 317.139 38.1332 306.978 41.9098 303.085C42.1624 302.793 43.2529 302.336 47.6493 303.085C48.4529 303.241 49.3712 303.416 50.4043 303.659C51.2117 303.889 52.0475 304.039 52.8953 304.107L52.9986 301.508L53.297 298.9C53.0215 298.9 52.5738 298.754 51.9999 298.618C49.9793 298.114 47.914 297.749 45.8242 297.528C42.6101 297.245 39.2352 297.576 37.1575 299.727C30.9933 306.161 33.4843 319.037 38.1447 324.604Z" fill="#455A64"/>
<path opacity="0.1" d="M56.5916 323.427C55.9521 323.81 55.2673 324.136 54.5483 324.4L56.2013 329.471C57.5536 329.022 58.8432 328.447 60.0468 327.758L56.5916 323.427Z" fill="#282828"/>
<path d="M45.7898 297.596L47.615 303.153C48.4185 303.309 49.3368 303.484 50.3699 303.727C51.1773 303.957 52.0131 304.107 52.8609 304.175L52.9642 301.576L53.2626 298.968C52.9871 298.968 52.5394 298.822 51.9655 298.686C49.9449 298.182 47.8796 297.817 45.7898 297.596Z" fill="#263238"/>
<path d="M120.139 290.802C120.139 290.802 116.879 314.278 111.243 324.176C105.607 334.074 97.7437 335.164 92.8652 335.164H75.0957C70.2171 335.164 62.3654 334.055 56.7292 324.186C51.0931 314.317 47.8215 290.802 47.8215 290.802H120.139Z" fill="#455A64"/>
<path d="M116.627 308.886C116.363 309.859 116.11 310.832 115.846 311.864H52.1146C51.8505 310.891 51.598 309.917 51.334 308.886H116.627Z" fill="#37474F"/>
<path d="M114.985 314.833C114.296 317.052 113.562 319.183 112.747 321.062H55.214C54.399 319.183 53.6643 317.052 52.9182 314.833H114.985Z" fill="#37474F"/>
<path d="M318.717 116.053C325.687 114.562 329.913 108.562 328.154 102.651C326.395 96.7409 319.319 93.1585 312.348 94.6496C305.377 96.1408 301.152 102.141 302.91 108.051C304.669 113.962 311.746 117.544 318.717 116.053Z" fill="white"/>
<path d="M328.506 104.401C328.831 107.323 327.774 110.236 325.568 112.498C324.464 113.647 323.104 114.6 321.565 115.303C320.027 116.006 318.34 116.445 316.601 116.595C314.863 116.745 313.106 116.603 311.432 116.177C309.759 115.752 308.2 115.05 306.846 114.114C305.466 113.159 304.326 111.978 303.494 110.643C302.662 109.308 302.155 107.844 302.002 106.34C301.849 104.835 302.053 103.32 302.603 101.883C303.153 100.447 304.038 99.1184 305.204 97.977C306.349 96.8579 307.743 95.9411 309.305 95.2787C310.868 94.6164 312.57 94.2215 314.312 94.1167C316.055 94.0118 317.805 94.1991 319.463 94.6677C321.12 95.1363 322.653 95.8772 323.972 96.848C326.602 98.7583 328.232 101.474 328.506 104.401ZM328.506 104.401C328.191 101.503 326.541 98.8279 323.915 96.955C321.293 95.1504 317.935 94.3009 314.576 94.5928C311.217 94.8847 308.131 96.2943 305.996 98.5123C303.907 100.687 302.898 103.465 303.183 106.259C303.468 109.053 305.025 111.643 307.523 113.481C308.784 114.413 310.25 115.124 311.837 115.574C313.423 116.025 315.098 116.205 316.767 116.106C318.436 116.007 320.065 115.629 321.561 114.995C323.058 114.361 324.392 113.483 325.488 112.411C327.701 110.183 328.786 107.304 328.506 104.401Z" fill="#263238"/>
<path d="M294.024 115.856C294.148 117.066 293.846 118.279 293.156 119.344C292.467 120.408 291.421 121.275 290.15 121.835C288.879 122.396 287.441 122.624 286.018 122.492C284.594 122.359 283.249 121.872 282.152 121.091C281.054 120.311 280.255 119.272 279.854 118.106C279.453 116.94 279.469 115.7 279.899 114.542C280.329 113.383 281.155 112.359 282.272 111.599C283.388 110.838 284.746 110.376 286.172 110.269C288.086 110.131 289.986 110.642 291.458 111.689C292.929 112.736 293.852 114.234 294.024 115.856Z" fill="white"/>
<path d="M294.024 115.856C294.187 117.502 293.594 119.138 292.368 120.423C291.143 121.707 289.379 122.54 287.446 122.747C286.453 122.832 285.451 122.748 284.497 122.501C283.543 122.254 282.656 121.849 281.888 121.309C281.12 120.769 280.486 120.105 280.023 119.356C279.561 118.607 279.278 117.787 279.192 116.944C279.106 116.102 279.219 115.253 279.523 114.447C279.827 113.642 280.317 112.895 280.964 112.252C281.612 111.608 282.403 111.08 283.293 110.698C284.183 110.316 285.154 110.088 286.149 110.026C288.097 109.947 290.006 110.511 291.475 111.6C292.943 112.689 293.857 114.218 294.024 115.866V115.856ZM294.024 115.856C293.941 115.064 293.672 114.295 293.23 113.593C292.789 112.892 292.186 112.273 291.456 111.775C290.726 111.276 289.885 110.907 288.983 110.69C288.081 110.473 287.136 110.413 286.206 110.513C284.442 110.721 282.839 111.494 281.726 112.673C280.613 113.851 280.074 115.347 280.221 116.852C280.368 118.357 281.189 119.757 282.516 120.765C283.843 121.772 285.574 122.311 287.354 122.27C288.292 122.234 289.212 122.037 290.058 121.692C290.905 121.346 291.66 120.859 292.278 120.26C292.897 119.661 293.367 118.962 293.659 118.205C293.951 117.449 294.059 116.65 293.978 115.856H294.024Z" fill="#263238"/>
<path d="M442.195 57.0701C443 62.6783 442.053 68.3675 439.448 73.5676C436.844 78.7677 432.673 83.2961 427.354 86.6989C422.035 90.1018 415.755 92.2596 409.142 92.9561C402.53 93.6526 395.817 92.8634 389.678 90.6675C386.694 93.9723 382.85 96.6483 378.445 98.487C374.041 100.326 369.196 101.277 364.287 101.268C359.378 101.258 354.537 100.288 350.143 98.4327C345.749 96.5771 341.919 93.8864 338.952 90.5702C333.805 91.8744 328.306 91.7865 323.22 90.3185C318.134 88.8506 313.714 86.0756 310.574 82.3794C307.435 78.6832 305.731 74.2494 305.7 69.6943C305.67 65.1393 307.314 60.6893 310.404 56.963C304.792 50.9225 301.913 43.3796 302.286 35.6967C302.659 28.0137 306.26 20.6972 312.439 15.0683C318.618 9.43949 326.967 5.86943 335.978 5.0029C344.989 4.13636 354.069 6.03047 361.577 10.3432C365.098 6.62297 369.717 3.75846 374.965 2.04012C380.213 0.321787 385.904 -0.189249 391.46 0.558844C397.016 1.30694 402.24 3.28755 406.602 6.29981C410.964 9.31207 414.309 13.2488 416.298 17.7108C417.624 17.3272 418.993 17.063 420.384 16.9225C424.613 16.4875 428.897 17.1599 432.661 18.8494C436.426 20.5389 439.49 23.1647 441.444 26.374C443.397 29.5833 444.145 33.2225 443.588 36.8028C443.03 40.3831 441.194 43.7332 438.326 46.403C440.357 49.7342 441.667 53.347 442.195 57.0701Z" fill="white"/>
<path d="M442.194 57.0703C442.574 59.8628 442.539 62.6845 442.091 65.4697C441.87 66.8647 441.544 68.2463 441.115 69.6061C440.909 70.2777 440.599 70.9395 440.346 71.611C440.107 72.2769 439.811 72.9274 439.462 73.5576L438.441 75.5041C438.062 76.1368 437.626 76.7305 437.224 77.3436L436.616 78.2585C436.386 78.5602 436.134 78.8425 435.904 79.1345L434.469 80.8572L432.851 82.4533L432.036 83.2514L431.14 83.9911C430.543 84.468 429.992 84.9644 429.338 85.4413L427.387 86.7552C427.065 86.9693 426.744 87.2029 426.399 87.3976L425.355 87.9718C424.655 88.3416 423.966 88.7504 423.254 89.1008C421.803 89.7835 420.304 90.3913 418.766 90.9208C417.985 91.1739 417.228 91.4464 416.47 91.68L414.071 92.2542L412.923 92.5365L411.695 92.7214L409.238 93.0912C402.613 93.8018 395.883 93.0231 389.724 90.8332H389.965C385.439 95.8656 378.989 99.4057 371.721 100.846C364.453 102.286 356.82 101.537 350.133 98.7265C345.696 96.8487 341.819 94.1434 338.792 90.8138L339.17 90.9208C337.879 91.2514 336.558 91.4955 335.222 91.6508C334.544 91.7286 333.867 91.7481 333.201 91.7968L332.191 91.8552H331.181C328.472 91.8391 325.784 91.4445 323.226 90.6872C318.059 89.2062 313.56 86.4045 310.347 82.6674C308.773 80.7936 307.531 78.7343 306.662 76.5553L306.111 74.891C305.916 74.3459 305.858 73.7717 305.721 73.2072C305.472 72.0742 305.349 70.924 305.353 69.7715C305.295 65.1301 306.953 60.5898 310.094 56.7881V57.3136C304.359 51.211 301.434 43.5499 301.864 35.7556C302.244 27.9658 305.91 20.5508 312.195 14.8594C318.448 9.19108 326.857 5.57268 335.945 4.63998C345.046 3.78261 354.208 5.71604 361.773 10.0903L361.302 10.1487C364.868 6.39813 369.543 3.51604 374.85 1.79607C380.157 0.0761049 385.907 -0.420255 391.515 0.357565C394.291 0.734557 396.994 1.42865 399.55 2.42091C400.83 2.91546 402.075 3.47112 403.281 4.08521C404.473 4.73148 405.623 5.43331 406.724 6.18748C408.898 7.70265 410.828 9.45329 412.464 11.3945C414.09 13.3459 415.425 15.4611 416.436 17.6916L416.217 17.604C417.329 17.2901 418.469 17.0557 419.627 16.9032C420.768 16.7738 421.919 16.7088 423.07 16.7086C425.374 16.6953 427.662 17.0247 429.832 17.6819C434.224 18.9673 437.976 21.4703 440.484 24.7868C443.002 28.082 444.161 31.9922 443.779 35.9053C443.397 39.8185 441.495 43.5138 438.372 46.4129C440.382 49.745 441.676 53.3537 442.194 57.0703ZM442.194 57.0703C441.668 53.3346 440.358 49.7089 438.326 46.3643C441.413 43.4724 443.282 39.7939 443.639 35.905C443.996 32.0162 442.822 28.1367 440.3 24.8744C437.809 21.6055 434.087 19.1463 429.74 17.896C427.596 17.2476 425.335 16.9183 423.059 16.9227C421.926 16.9419 420.796 17.0134 419.673 17.1368C418.553 17.2877 417.451 17.5189 416.378 17.8279L416.217 17.8765L416.149 17.7403C415.136 15.5396 413.806 13.4539 412.188 11.5308C410.552 9.61861 408.622 7.9002 406.449 6.42107C405.371 5.67784 404.24 4.99198 403.063 4.36746C401.871 3.75923 400.636 3.21319 399.366 2.73236C396.834 1.76332 394.158 1.09205 391.411 0.737142C385.904 -0.00286578 380.264 0.507995 375.066 2.21769C369.867 3.92738 365.296 6.7748 361.818 10.4699L361.623 10.684L361.348 10.5283C353.911 6.26656 344.918 4.40859 336.002 5.29207C327.109 6.21821 318.888 9.77918 312.792 15.346C306.752 20.9272 303.238 28.1418 302.875 35.7102C302.511 43.2786 305.321 50.7116 310.806 56.6907L311.047 56.9535L310.829 57.2163C307.802 60.868 306.196 65.2305 306.237 69.6937C306.226 70.8036 306.341 71.9118 306.581 73.0028C306.708 73.5479 306.765 74.1026 306.949 74.6379L307.465 76.2341C308.292 78.3452 309.479 80.3422 310.989 82.1613C314.082 85.7819 318.421 88.5018 323.41 89.9475C325.889 90.691 328.494 91.0855 331.124 91.1155H332.111L333.087 91.0571C333.741 91.0571 334.395 91.0084 335.049 90.9305C336.352 90.7862 337.638 90.5518 338.895 90.2298L339.136 90.1714L339.285 90.3369C342.23 93.6064 346.009 96.2683 350.339 98.1231C354.69 99.9719 359.485 100.944 364.351 100.965C369.217 100.985 374.023 100.052 378.394 98.2399C382.768 96.421 386.589 93.7736 389.563 90.5023L389.667 90.3952L389.804 90.4439C395.887 92.6569 402.55 93.4759 409.123 92.8187L411.557 92.4683L412.774 92.2931L413.922 92.0109L416.309 91.4561C417.09 91.2323 417.848 90.9597 418.605 90.7067C420.177 90.1999 421.707 89.6048 423.185 88.9256C423.897 88.585 424.586 88.1859 425.286 87.8161L426.33 87.2516C426.675 87.0569 426.985 86.8233 427.306 86.6189L429.258 85.3245C429.878 84.8476 430.463 84.3512 431.06 83.8743L431.955 83.1541L432.77 82.3657L434.4 80.7696L435.835 79.0663C436.065 78.7743 436.329 78.5018 436.547 78.2001L437.167 77.295C437.568 76.6818 438.005 76.0881 438.383 75.4652L439.417 73.5187C439.767 72.8878 440.066 72.2374 440.312 71.5721C440.564 70.9103 440.874 70.2485 441.092 69.5769C441.518 68.2226 441.848 66.8478 442.08 65.4599C442.536 62.6787 442.574 59.8597 442.194 57.0703Z" fill="#263238"/>
<path d="M401.215 39.5122C401.215 39.5122 401.157 39.5122 401.123 39.4538H401.042C400.907 39.4138 400.769 39.3813 400.629 39.3565C400.48 39.3565 400.308 39.2981 400.124 39.2592L399.573 39.1716H399.424H399.16H398.884L397.243 38.9672H396.921H396.554H396.221H395.865H395.796H395.452L393.799 38.792L393.34 38.4124L391.825 38.2567L391.09 38.1789H390.746L389.873 38.0913L388.989 38.0037H388.909L387.761 37.8966L386.613 37.7701H386.166L382.722 37.3418H382.32L380.862 37.1666H380.702H380.449H380.323H380.231C380.151 37.1666 380.082 37.1666 380.07 37.1666C379.634 36.9136 369.257 26.12 362.232 19.7548C359.098 16.9128 356.619 14.9468 356.01 15.2096C354.024 16.0563 346.529 32.5728 345.966 32.5825C345.404 32.5923 335.91 23.9009 334.487 25.0688C333.201 26.0421 330.24 43.4248 329.241 48.2523C329.178 48.6675 329.074 49.0777 328.931 49.4786L328.69 49.7024L328.897 49.6051C328.786 49.6438 328.685 49.7 328.598 49.7706L328.415 49.9263C327.06 51.0066 323.823 53.4495 321.148 55.6491C321.063 55.709 320.982 55.7741 320.907 55.8438L320.448 56.2234C320.379 56.2915 320.31 56.3402 320.23 56.4083C318.244 58.0921 316.786 59.4936 317.211 59.7758C318.302 60.5642 343.257 50.0431 356.24 47.2887C369.223 44.5343 400.755 40.2617 401.364 39.6874L401.215 39.5122ZM337.196 46.9383C336.048 47.24 334.981 47.532 334.005 47.8045C331.904 48.3885 330.286 48.8751 329.344 49.2255C330.722 48.7 333.534 47.9019 337.196 46.9383C338.734 46.5296 340.41 46.111 342.178 45.6633L337.196 46.9383ZM344.141 45.1864C346.299 44.6511 348.56 44.0964 350.879 43.5513C348.572 44.1548 346.276 44.6511 344.141 45.1864Z" fill="#F3B664"/>
<path opacity="0.1" d="M401.215 39.5122C401.215 39.5122 401.157 39.5122 401.123 39.4538H401.042C400.907 39.4138 400.769 39.3813 400.629 39.3565C400.48 39.3565 400.308 39.2981 400.124 39.2592L399.573 39.1716H399.424H399.16H398.884L397.243 38.9672H396.921H396.554H396.221H395.865H395.796H395.452L393.799 38.792L393.34 38.4124L391.825 38.2567L391.09 38.1789H390.746L389.873 38.0913L388.989 38.0037H388.909L387.761 37.8966L386.613 37.7701H386.166L382.722 37.3418H382.32L380.862 37.1666H380.702H380.449H380.323H380.231C380.151 37.1666 380.082 37.1666 380.07 37.1666C379.634 36.9136 369.257 26.12 362.232 19.7548C359.098 16.9128 356.619 14.9468 356.01 15.2096C354.024 16.0563 346.529 32.5728 345.966 32.5825C345.404 32.5923 335.91 23.9009 334.487 25.0688C333.201 26.0421 330.24 43.4248 329.241 48.2523C329.178 48.6675 329.074 49.0777 328.931 49.4786L328.69 49.7024L328.897 49.6051C328.786 49.6438 328.685 49.7 328.598 49.7706L328.415 49.9263C327.06 51.0066 323.823 53.4495 321.148 55.6491C321.063 55.709 320.982 55.7741 320.907 55.8438L320.448 56.2234C320.379 56.2915 320.31 56.3402 320.23 56.4083C318.244 58.0921 316.786 59.4936 317.211 59.7758C318.302 60.5642 343.257 50.0431 356.24 47.2887C369.223 44.5343 400.755 40.2617 401.364 39.6874L401.215 39.5122ZM337.196 46.9383C336.048 47.24 334.981 47.532 334.005 47.8045C331.904 48.3885 330.286 48.8751 329.344 49.2255C330.722 48.7 333.534 47.9019 337.196 46.9383C338.734 46.5296 340.41 46.111 342.178 45.6633L337.196 46.9383ZM344.141 45.1864C346.299 44.6511 348.56 44.0964 350.879 43.5513C348.572 44.1548 346.276 44.6511 344.141 45.1864Z" fill="#282828"/>
<path d="M329.345 49.2257C330.722 48.7001 333.535 47.902 337.196 46.9385C336.048 47.2402 334.981 47.5322 334.005 47.8047C331.905 48.3887 330.286 48.8753 329.345 49.2257Z" fill="#F3B664"/>
<path d="M337.196 46.9386C338.734 46.5298 340.41 46.1113 342.178 45.6636L337.196 46.9386Z" fill="#F3B664"/>
<path d="M350.868 43.5518C348.572 44.1065 346.276 44.6516 344.129 45.1869C346.276 44.6516 348.572 44.0968 350.868 43.5518Z" fill="#F3B664"/>
<path d="M329.345 49.2257C330.722 48.7001 333.535 47.902 337.196 46.9385C336.048 47.2402 334.981 47.5322 334.005 47.8047C331.905 48.3887 330.286 48.8753 329.345 49.2257Z" fill="#F3B664"/>
<path d="M337.196 46.9386C338.734 46.5298 340.41 46.1113 342.178 45.6636L337.196 46.9386Z" fill="#F3B664"/>
<path d="M350.868 43.5518C348.572 44.1065 346.276 44.6516 344.129 45.1869C346.276 44.6516 348.572 44.0968 350.868 43.5518Z" fill="#F3B664"/>
<path d="M380.851 37.128C370.29 38.8118 330.492 48.0677 328.495 49.6249C328.001 49.9266 327.887 44.3205 328.495 43.7074C329.025 43.3484 329.585 43.0231 330.171 42.7341C330.779 42.4227 331.537 42.0431 332.467 41.6246L333.006 41.3618C333.546 41.1185 334.154 40.846 334.762 40.5734L335.336 40.3204C335.876 40.0771 336.484 39.8435 337.024 39.5904L337.552 39.3763C348.755 34.6806 360.766 31.5236 373.137 30.0231C374.285 29.8966 375.433 29.7895 376.58 29.702C377.728 29.6144 381.861 36.9431 380.851 37.128Z" fill="#263238"/>
<path d="M327.91 60.9733C328.323 61.0512 341.122 63.0756 342.224 63.6498C343.328 64.9889 344.328 66.3868 345.22 67.8349L345.817 68.7109L346.058 69.0613C350.489 75.6309 355.758 84.5071 359.477 85.6751C361.753 86.4313 364.223 86.6675 366.64 86.36C369.058 86.0526 371.338 85.2123 373.252 83.9232C375.203 82.5606 377.338 77.3633 378.67 73.2171L378.922 72.3607C379.049 71.9422 379.175 71.5334 379.278 71.1441C379.519 70.1708 379.714 69.4019 379.829 68.7887C379.92 68.3967 379.92 67.9934 379.829 67.6013C377.453 68.2509 375.019 68.7391 372.551 69.0613H372.115H371.84C369.337 68.9055 363.54 66.3361 363.54 66.3361C363.54 66.3361 363.816 68.088 364.046 70.1124C364.046 70.2778 364.046 70.4336 364.103 70.599L364.172 71.2609C364.172 71.6599 364.241 72.0687 364.264 72.458C364.378 74.132 364.355 75.5919 364.011 75.9715C363.508 76.4305 362.833 76.7278 362.101 76.8129C361.368 76.8981 360.624 76.7659 359.993 76.4387C358.949 75.8839 354.828 70.9299 351.04 66.8422L350.81 66.5891L350.443 66.1901L349.708 65.4309C347.711 63.3481 345.92 61.7033 344.921 61.3724C341.834 60.3991 328.162 59.3285 327.703 59.747C327.244 60.1655 327.462 60.9052 327.91 60.9733Z" fill="#F3B664"/>
<path d="M363.495 66.3064C363.495 66.3064 369.636 69.0218 372.001 69.0413H372.069H372.506C374.973 68.7191 377.407 68.2309 379.783 67.5814H379.703H379.611H379.531L379.278 67.4646L379.106 67.3867L378.291 67.0364L378.039 66.9293L377.017 66.5011L376.833 66.4232L376.673 66.3648L376.064 66.1117L375.444 65.8782L374.756 65.6154L374.17 65.4013L373.86 65.2942L373.573 65.1969L372.758 64.9535L372.299 64.8368H372.069C370.924 64.7885 369.777 64.9137 368.683 65.2066C368.201 65.3039 367.719 65.4207 367.248 65.5375L366.617 65.6932L366.273 65.7906L365.722 65.9366L365.446 66.0144L365.056 66.1215H364.93L364.723 66.1799L363.724 66.4719H363.667L363.495 66.3064Z" fill="#263238"/>
<path d="M327.909 60.9829C328.323 61.0511 341.122 63.0755 342.235 63.6497C343.331 64.9912 344.328 66.3889 345.22 67.8348C345.86 67.2004 346.576 66.6231 347.355 66.1121C347.722 65.9564 348.87 65.6352 349.731 65.4016C347.734 63.3188 345.943 61.674 344.933 61.3431C341.856 60.3698 328.185 59.2992 327.714 59.7274C327.244 60.1557 327.462 60.9051 327.909 60.9829Z" fill="#263238"/>
<path d="M345.771 68.7106L346.012 69.061C346.62 68.5938 348.032 67.5135 348.228 67.4259C348.423 67.3383 349.88 66.8419 350.787 66.5597C350.661 66.4234 350.535 66.2969 350.42 66.1606C349.534 66.3655 348.667 66.6257 347.826 66.9393C347.516 67.1339 346.345 68.1851 345.771 68.7106Z" fill="#263238"/>
<path d="M364.023 70.0829L365.01 70.4625C366.94 71.2385 368.965 71.8325 371.048 72.2339C372.953 72.4285 377.315 71.5234 379.209 71.1049C379.45 70.1316 379.646 69.3627 379.76 68.7496C379.852 68.3608 379.852 67.9606 379.76 67.5719C377.249 68.2641 374.666 68.7561 372.047 69.0415C369.751 69.0415 363.472 66.3066 363.472 66.3066C363.472 66.3066 363.793 68.0683 364.023 70.0829Z" fill="#455A64"/>
<path d="M364.241 72.4286C365.733 73.0223 369.452 74.3751 371.254 74.5308C373.057 74.6866 377.12 73.5576 378.59 73.178C378.681 72.8957 378.773 72.6038 378.854 72.3215C377.246 72.7206 373.114 73.6744 371.243 73.4894C368.787 72.9609 366.408 72.2037 364.149 71.2314C364.183 71.6305 364.218 72.0393 364.241 72.4286Z" fill="#455A64"/>
<path d="M363.495 66.3066C363.495 66.3066 369.636 69.022 372.001 69.0415H372.069H372.506C374.973 68.7193 377.407 68.2311 379.783 67.5815H379.703H379.611H379.531L379.278 67.4648L379.106 67.3869L378.291 67.0365L378.039 66.9295L377.017 66.5012L376.833 66.4233L376.673 66.365L376.064 66.1119L375.444 65.8783L374.756 65.6155L374.17 65.4014L373.86 65.2944L373.573 65.197L372.758 64.9537L372.299 64.8369H372.092C371.989 65.0359 371.916 65.2452 371.874 65.4598C373.889 66.0421 375.85 66.7513 377.74 67.5815C375.944 67.9578 374.123 68.2438 372.288 68.438C372.192 68.4453 372.096 68.4453 372.001 68.438C371.689 68.4138 371.381 68.3616 371.082 68.2823C369.259 67.8428 367.481 67.2764 365.767 66.5888C366.802 66.2005 367.889 65.9226 369.005 65.7615C368.89 65.5669 368.775 65.3722 368.683 65.1776C368.201 65.2749 367.719 65.3917 367.248 65.5085L366.617 65.6642L366.273 65.7615L365.722 65.9075L365.446 65.9854L365.056 66.0924H364.93L364.723 66.1508L363.724 66.4428H363.667L363.495 66.3066Z" fill="#37474F"/>
<path d="M368.591 64.9633C368.683 65.1579 368.798 65.3526 368.913 65.5473C369.497 66.4481 370.193 67.2932 370.99 68.068C371.289 68.1473 371.597 68.1995 371.909 68.2238H372.196C371.799 67.2659 371.658 66.2454 371.782 65.2358C371.822 65.0197 371.9 64.8098 372.012 64.6129C372.159 64.3287 372.397 64.0856 372.701 63.9122C374.434 63.0915 376.271 62.4385 378.176 61.9656C381.425 60.9047 384.421 59.2988 385.431 56.3011C387.612 49.7997 378.796 45.1961 373.091 42.6753C373.011 42.6753 372.965 42.7434 373.022 42.7921C376.064 45.2253 379.818 48.3106 378.704 52.2523C377.947 54.958 374.756 56.2622 372.288 57.7124C369.992 59.0555 368.063 60.7977 368.132 63.299C368.154 63.874 368.31 64.4397 368.591 64.9633Z" fill="#EBEBEB"/>
<g opacity="0.2">
<path d="M409.319 38.1789C411.014 40.0947 412.001 42.3936 412.155 44.7851C412.309 47.1765 411.623 49.5529 410.184 51.6137C408.744 53.6745 406.617 55.3272 404.07 56.3626C401.523 57.398 398.671 57.7697 395.874 57.4306C393.078 57.0915 390.463 56.0569 388.361 54.4576C386.258 52.8584 384.762 50.7663 384.062 48.4461C383.362 46.1258 383.489 43.6817 384.427 41.4227C385.366 39.1638 387.073 37.1915 389.334 35.7555C392.363 33.8308 396.17 33.005 399.918 33.4594C403.665 33.9139 407.047 35.6114 409.319 38.1789Z" fill="white"/>
<path d="M411.27 41.2354C412.601 44.2265 412.482 47.5425 410.94 50.4599C409.398 53.3773 406.558 55.6592 403.04 56.8078L411.27 41.2354Z" fill="#EBEBEB"/>
<path d="M400.089 33.4488L388.817 54.7538C387.956 54.1402 387.185 53.4409 386.521 52.671C385.73 51.7802 385.096 50.7967 384.639 49.7512L392.949 34.0231C395.234 33.324 397.69 33.1264 400.089 33.4488Z" fill="#EBEBEB"/>
<path d="M408.412 37.2544L397.679 57.5472C396.741 57.5345 395.807 57.4432 394.89 57.2747L406.369 35.668C407.11 36.1379 407.795 36.6694 408.412 37.2544Z" fill="#EBEBEB"/>
<path d="M401.995 33.8482L390.401 55.7469L389.965 55.5133L401.444 33.7314C401.63 33.7596 401.815 33.7986 401.995 33.8482Z" fill="#EBEBEB"/>
<path d="M388.748 36.1353L383.605 45.868C383.605 45.5079 383.605 45.1478 383.605 44.7779L387.795 36.8749C388.096 36.6128 388.414 36.3658 388.748 36.1353Z" fill="#EBEBEB"/>
</g>
<path d="M408.363 54.7681L405.534 56.5659L413.334 65.39L416.163 63.5922L408.363 54.7681Z" fill="#37474F"/>
<path d="M414.156 61.5114L411.51 63.192C411.058 63.4789 410.967 64.0218 411.305 64.4047L418.724 72.8015C419.063 73.1843 419.703 73.2622 420.155 72.9753L422.8 71.2947C423.252 71.0079 423.344 70.465 423.005 70.0821L415.586 61.6853C415.248 61.3024 414.607 61.2246 414.156 61.5114Z" fill="#263238"/>
<path d="M397.932 31.123C394.592 31.123 391.327 31.9627 388.55 33.5359C385.774 35.109 383.609 37.345 382.331 39.9611C381.053 42.5772 380.719 45.4558 381.37 48.233C382.022 51.0102 383.63 53.5612 385.992 55.5635C388.353 57.5657 391.362 58.9293 394.637 59.4817C397.913 60.0341 401.308 59.7506 404.393 58.667C407.479 57.5834 410.116 55.7484 411.971 53.394C413.827 51.0396 414.817 48.2715 414.817 45.4399C414.811 41.6444 413.03 38.0059 409.865 35.322C406.699 32.6382 402.408 31.1282 397.932 31.123ZM397.932 56.8954C395.259 56.8954 392.647 56.2235 390.425 54.9648C388.203 53.706 386.472 51.9169 385.449 49.8237C384.427 47.7305 384.159 45.4272 384.68 43.2051C385.202 40.9829 386.488 38.9418 388.378 37.3397C390.267 35.7376 392.675 34.6466 395.296 34.2046C397.917 33.7626 400.633 33.9894 403.102 34.8565C405.571 35.7235 407.681 37.1918 409.165 39.0756C410.65 40.9595 411.442 43.1742 411.442 45.4399C411.439 48.4773 410.015 51.3895 407.482 53.5373C404.949 55.6851 401.514 56.8928 397.932 56.8954Z" fill="#263238"/>
</svg>
