<svg width="21" height="20" viewBox="0 0 21 20" fill="none" xmlns="http://www.w3.org/2000/svg">
<path d="M9.5 15.25C9.5 14.9185 9.6317 14.6005 9.86612 14.3661C10.1005 14.1317 10.4185 14 10.75 14C11.0815 14 11.3995 14.1317 11.6339 14.3661C11.8683 14.6005 12 14.9185 12 15.25C12 15.5815 11.8683 15.8995 11.6339 16.1339C11.3995 16.3683 11.0815 16.5 10.75 16.5C10.4185 16.5 10.1005 16.3683 9.86612 16.1339C9.6317 15.8995 9.5 15.5815 9.5 15.25ZM9.5 10.25C9.5 9.91848 9.6317 9.60054 9.86612 9.36612C10.1005 9.1317 10.4185 9 10.75 9C11.0815 9 11.3995 9.1317 11.6339 9.36612C11.8683 9.60054 12 9.91848 12 10.25C12 10.5815 11.8683 10.8995 11.6339 11.1339C11.3995 11.3683 11.0815 11.5 10.75 11.5C10.4185 11.5 10.1005 11.3683 9.86612 11.1339C9.6317 10.8995 9.5 10.5815 9.5 10.25ZM9.5 5.25C9.5 4.91848 9.6317 4.60054 9.86612 4.36612C10.1005 4.1317 10.4185 4 10.75 4C11.0815 4 11.3995 4.1317 11.6339 4.36612C11.8683 4.60054 12 4.91848 12 5.25C12 5.58152 11.8683 5.89946 11.6339 6.13388C11.3995 6.3683 11.0815 6.5 10.75 6.5C10.4185 6.5 10.1005 6.3683 9.86612 6.13388C9.6317 5.89946 9.5 5.58152 9.5 5.25Z" fill="#282828"/>
</svg>
