<svg width="21" height="20" viewBox="0 0 21 20" fill="none" xmlns="http://www.w3.org/2000/svg">
<path d="M19.678 9.81016C19.6514 9.74922 19.0014 8.30781 17.5499 6.85625C16.203 5.51094 13.8889 3.90625 10.4999 3.90625C7.11082 3.90625 4.79676 5.51094 3.44989 6.85625C1.99832 8.30781 1.34832 9.74687 1.32176 9.81016C1.29505 9.87016 1.28125 9.9351 1.28125 10.0008C1.28125 10.0665 1.29505 10.1314 1.32176 10.1914C1.34832 10.2516 1.99832 11.693 3.44989 13.1445C4.79676 14.4898 7.11082 16.0938 10.4999 16.0938C13.8889 16.0938 16.203 14.4898 17.5499 13.1445C19.0014 11.693 19.6514 10.2539 19.678 10.1914C19.7047 10.1314 19.7185 10.0665 19.7185 10.0008C19.7185 9.9351 19.7047 9.87016 19.678 9.81016ZM10.4999 15.1562C8.04832 15.1562 5.9077 14.2641 4.1366 12.5055C3.39419 11.7676 2.76593 10.9232 2.27254 10C2.7658 9.077 3.39408 8.2328 4.1366 7.49531C5.9077 5.73594 8.04832 4.84375 10.4999 4.84375C12.9514 4.84375 15.0921 5.73594 16.8632 7.49531C17.6057 8.2328 18.234 9.077 18.7272 10C18.2296 10.9539 15.7343 15.1562 10.4999 15.1562ZM10.4999 6.40625C9.78911 6.40625 9.0943 6.61702 8.50331 7.01191C7.91232 7.40679 7.4517 7.96806 7.17969 8.62473C6.90769 9.2814 6.83652 10.004 6.97519 10.7011C7.11385 11.3982 7.45613 12.0386 7.95872 12.5412C8.46132 13.0438 9.10166 13.386 9.79878 13.5247C10.4959 13.6634 11.2185 13.5922 11.8752 13.3202C12.5318 13.0482 13.0931 12.5876 13.488 11.9966C13.8829 11.4056 14.0936 10.7108 14.0936 10C14.0924 9.04726 13.7134 8.1339 13.0397 7.46021C12.366 6.78651 11.4526 6.40749 10.4999 6.40625ZM10.4999 12.6562C9.97453 12.6562 9.46097 12.5005 9.02415 12.2086C8.58733 11.9167 8.24688 11.5019 8.04583 11.0165C7.84479 10.5311 7.79218 9.99705 7.89468 9.48179C7.99717 8.96653 8.25015 8.49323 8.62163 8.12175C8.99312 7.75026 9.46642 7.49728 9.98168 7.39479C10.4969 7.2923 11.031 7.3449 11.5164 7.54595C12.0018 7.74699 12.4166 8.08745 12.7085 8.52427C13.0003 8.96108 13.1561 9.47464 13.1561 10C13.1561 10.7045 12.8763 11.3801 12.3781 11.8783C11.88 12.3764 11.2044 12.6562 10.4999 12.6562Z" fill="#282828"/>
</svg>
