<svg width="16" height="17" viewBox="0 0 16 17" fill="none" xmlns="http://www.w3.org/2000/svg">
<g clip-path="url(#clip0_414_2371)">
<path d="M0.5 8.5C0.5 10.4891 1.29017 12.3968 2.6967 13.8033C4.10322 15.2098 6.01087 16 8 16C9.98913 16 11.8968 15.2098 13.3033 13.8033C14.7098 12.3968 15.5 10.4891 15.5 8.5C15.5 6.51087 14.7098 4.60322 13.3033 3.1967C11.8968 1.79017 9.98913 1 8 1C6.01087 1 4.10322 1.79017 2.6967 3.1967C1.29017 4.60322 0.5 6.51087 0.5 8.5Z" stroke="#868686" stroke-width="1.5" stroke-linecap="round" stroke-linejoin="round"/>
<path d="M4.5 7.91667C4.5 8.6902 4.80729 9.43207 5.35427 9.97907C5.90125 10.5261 6.64312 10.8333 7.41667 10.8333C8.1902 10.8333 8.93207 10.5261 9.47907 9.97907C10.0261 9.43207 10.3333 8.6902 10.3333 7.91667C10.3333 7.14312 10.0261 6.40125 9.47907 5.85427C8.93207 5.30729 8.1902 5 7.41667 5C6.64312 5 5.90125 5.30729 5.35427 5.85427C4.80729 6.40125 4.5 7.14312 4.5 7.91667Z" stroke="#868686" stroke-width="1.5" stroke-linecap="round" stroke-linejoin="round"/>
<path d="M9.47949 9.97852L11.5002 11.9998" stroke="#868686" stroke-width="1.5" stroke-linecap="round" stroke-linejoin="round"/>
</g>
<defs>
<clipPath id="clip0_414_2371">
<rect width="16" height="16" fill="white" transform="translate(0 0.5)"/>
</clipPath>
</defs>
</svg>
