<svg width="24" height="24" viewBox="0 0 24 24" fill="none" xmlns="http://www.w3.org/2000/svg">
<g clip-path="url(#clip0_431_1751)">
<path d="M2.73819 12.7421H15.7331C16.1478 12.7421 16.4831 12.4061 16.4831 11.9921C16.4831 11.5781 16.1478 11.2421 15.7331 11.2421H2.78506L5.49819 8.529C5.79106 8.23612 5.79106 7.76137 5.49819 7.4685C5.20531 7.17563 4.73056 7.17563 4.43769 7.4685L0.0078125 12.0154L4.43769 16.5623C4.58431 16.7089 4.77594 16.782 4.96794 16.782C5.15994 16.782 5.35156 16.7089 5.49819 16.5623C5.79106 16.2694 5.79106 15.7946 5.49819 15.5018L2.73819 12.7421ZM22.4921 0H9.74204C8.91329 0 8.24204 0.671625 8.24204 1.5V8.25H9.75179V2.41463C9.75179 1.91363 10.1583 1.50713 10.6593 1.50713H21.5512C22.0525 1.50713 22.4587 1.91363 22.4587 2.41463L22.4823 21.5933C22.4823 22.0942 22.0761 22.5007 21.5748 22.5007H10.6597C10.1587 22.5007 9.75219 22.0942 9.75219 21.5933V15.7252L8.24244 15.7271V22.5C8.24244 23.3284 8.91369 24 9.74244 24H22.4921C23.3208 24 23.9924 23.3284 23.9924 22.5V1.5C23.9921 0.671625 23.3204 0 22.4921 0Z" fill="#D30000"/>
</g>
<defs>
<clipPath id="clip0_431_1751">
<rect width="24" height="24" fill="white"/>
</clipPath>
</defs>
</svg>
