<svg width="24" height="24" viewBox="0 0 24 24" fill="none" xmlns="http://www.w3.org/2000/svg">
<path d="M1.5 19C17.5 23.4 20.627 13.725 20.5 8.49997C21.71 8.16997 22.333 7.16697 22.5 6.49997C21.7 6.89997 20.833 6.66697 20.5 6.49997C21.7 6.09997 21.624 4.90297 21.5 3.99997C20.997 4.26397 20.065 4.91597 19 4.99997C18.288 3.88697 16.5 2.99997 14 3.99997C11.5 4.99997 11 7.66697 11.5 8.99997C8.3 8.99997 4.5 5.66697 3 3.99997C1.202 6.56497 3.477 9.10997 4.5 9.99997C3.818 10.204 3 9.99997 2.5 9.49997C2.5 12.355 5 13.5 6 14H4C4 16 6.333 16.833 7.5 17C6.7 17.8 3.167 18.667 1.5 19Z" stroke="#F2F2F2" stroke-width="1.5" stroke-linecap="round" stroke-linejoin="round"/>
</svg>
