<svg width="24" height="24" viewBox="0 0 24 24" fill="none" xmlns="http://www.w3.org/2000/svg">
<g clip-path="url(#clip0_431_1455)">
<path d="M11.9999 13.5925C14.1982 13.5925 15.9802 11.8105 15.9802 9.61219C15.9802 7.41391 14.1982 5.63184 11.9999 5.63184C9.8016 5.63184 8.01953 7.41391 8.01953 9.61219C8.01953 11.8105 9.8016 13.5925 11.9999 13.5925Z" stroke="black" stroke-width="1.5" stroke-linecap="round" stroke-linejoin="round"/>
<path d="M5.20117 19.8014C5.91165 18.6352 6.91019 17.6713 8.1008 17.0026C9.2914 16.3337 10.634 15.9824 11.9996 15.9824C13.3652 15.9824 14.7078 16.3337 15.8984 17.0026C17.0891 17.6713 18.0875 18.6352 18.7981 19.8014" stroke="black" stroke-width="1.5" stroke-linecap="round" stroke-linejoin="round"/>
<path d="M11.9998 22.3492C17.7154 22.3492 22.3487 17.7159 22.3487 12.0003C22.3487 6.28474 17.7154 1.65137 11.9998 1.65137C6.28425 1.65137 1.65088 6.28474 1.65088 12.0003C1.65088 17.7159 6.28425 22.3492 11.9998 22.3492Z" stroke="black" stroke-width="1.5" stroke-linecap="round" stroke-linejoin="round"/>
</g>
<defs>
<clipPath id="clip0_431_1455">
<rect width="24" height="24" fill="white"/>
</clipPath>
</defs>
</svg>
