<svg width="24" height="24" viewBox="0 0 24 24" fill="none" xmlns="http://www.w3.org/2000/svg">
<g clip-path="url(#clip0_238_3368)">
<path d="M12 13.5925C14.1983 13.5925 15.9804 11.8105 15.9804 9.61219C15.9804 7.41391 14.1983 5.63184 12 5.63184C9.80172 5.63184 8.01965 7.41391 8.01965 9.61219C8.01965 11.8105 9.80172 13.5925 12 13.5925Z" stroke="#282828" stroke-width="1.5" stroke-linecap="round" stroke-linejoin="round"/>
<path d="M5.20154 19.8014C5.91202 18.6352 6.91056 17.6713 8.10116 17.0026C9.29177 16.3337 10.6344 15.9824 12 15.9824C13.3656 15.9824 14.7082 16.3337 15.8988 17.0026C17.0895 17.6713 18.0879 18.6352 18.7985 19.8014" stroke="#282828" stroke-width="1.5" stroke-linecap="round" stroke-linejoin="round"/>
<path d="M12.0001 22.3492C17.7157 22.3492 22.349 17.7159 22.349 12.0003C22.349 6.28474 17.7157 1.65137 12.0001 1.65137C6.2845 1.65137 1.65112 6.28474 1.65112 12.0003C1.65112 17.7159 6.2845 22.3492 12.0001 22.3492Z" stroke="#282828" stroke-width="1.5" stroke-linecap="round" stroke-linejoin="round"/>
</g>
<defs>
<clipPath id="clip0_238_3368">
<rect width="24" height="24" fill="white"/>
</clipPath>
</defs>
</svg>
