<svg width="16" height="17" viewBox="0 0 16 17" fill="none" xmlns="http://www.w3.org/2000/svg">
<g clip-path="url(#clip0_431_2220)">
<path d="M8.00025 9.56154C9.46578 9.56154 10.6538 8.37349 10.6538 6.90797C10.6538 5.44244 9.46578 4.25439 8.00025 4.25439C6.53473 4.25439 5.34668 5.44244 5.34668 6.90797C5.34668 8.37349 6.53473 9.56154 8.00025 9.56154Z" stroke="#F2F2F2" stroke-width="1.5" stroke-linecap="round" stroke-linejoin="round"/>
<path d="M3.46777 13.7008C3.94143 12.9233 4.60712 12.2807 5.40086 11.8349C6.19459 11.389 7.08968 11.1548 8.00007 11.1548C8.91047 11.1548 9.80555 11.389 10.5993 11.8349C11.3931 12.2807 12.0587 12.9233 12.5324 13.7008" stroke="#F2F2F2" stroke-width="1.5" stroke-linecap="round" stroke-linejoin="round"/>
<path d="M7.99987 15.3992C11.8103 15.3992 14.8992 12.3103 14.8992 8.49987C14.8992 4.6895 11.8103 1.60059 7.99987 1.60059C4.1895 1.60059 1.10059 4.6895 1.10059 8.49987C1.10059 12.3103 4.1895 15.3992 7.99987 15.3992Z" stroke="#F2F2F2" stroke-width="1.5" stroke-linecap="round" stroke-linejoin="round"/>
</g>
<defs>
<clipPath id="clip0_431_2220">
<rect width="16" height="16" fill="white" transform="translate(0 0.5)"/>
</clipPath>
</defs>
</svg>
