<svg width="24" height="24" viewBox="0 0 24 24" fill="none" xmlns="http://www.w3.org/2000/svg">
<g clip-path="url(#clip0_431_1603)">
<path d="M11.9999 13.5925C14.1982 13.5925 15.9802 11.8105 15.9802 9.61219C15.9802 7.41391 14.1982 5.63184 11.9999 5.63184C9.8016 5.63184 8.01953 7.41391 8.01953 9.61219C8.01953 11.8105 9.8016 13.5925 11.9999 13.5925Z" stroke="black" stroke-width="1.5" stroke-linecap="round" stroke-linejoin="round"/>
<path d="M5.20215 19.8014C5.91263 18.6352 6.91117 17.6713 8.10178 17.0026C9.29238 16.3337 10.635 15.9824 12.0006 15.9824C13.3662 15.9824 14.7088 16.3337 15.8994 17.0026C17.0901 17.6713 18.0885 18.6352 18.7991 19.8014" stroke="black" stroke-width="1.5" stroke-linecap="round" stroke-linejoin="round"/>
<path d="M12.0003 22.3492C17.7159 22.3492 22.3492 17.7159 22.3492 12.0003C22.3492 6.28474 17.7159 1.65137 12.0003 1.65137C6.28474 1.65137 1.65137 6.28474 1.65137 12.0003C1.65137 17.7159 6.28474 22.3492 12.0003 22.3492Z" stroke="black" stroke-width="1.5" stroke-linecap="round" stroke-linejoin="round"/>
</g>
<defs>
<clipPath id="clip0_431_1603">
<rect width="24" height="24" fill="white"/>
</clipPath>
</defs>
</svg>
